<svg id="Layer_1" data-name="Layer 1" xmlns="http://www.w3.org/2000/svg" viewBox="0 0 612 792"><defs><style>.cls-1{fill:#060607;}.cls-2{fill:#42335a;}.cls-3{fill:#a0a0a0;}.cls-4{fill:#a1a1a1;}.cls-5{fill:#e9d3bd;}.cls-6{fill:#e9d4bd;}.cls-7{fill:#241936;}.cls-8{fill:#9e9e9e;}.cls-9{fill:#9d9d9d;}.cls-10{fill:#9c9c9c;}.cls-11{fill:#9b9b9b;}.cls-12{fill:#858585;}.cls-13{fill:#c5b3a0;}.cls-14{fill:#130d1c;}.cls-15{fill:#717171;}.cls-16{fill:#040305;}.cls-17{fill:#030305;}.cls-18{fill:#040306;}.cls-19{fill:#050406;}.cls-20{fill:#050505;}.cls-21{fill:#040404;}.cls-22{fill:#090909;}.cls-23{fill:#080808;}.cls-24{fill:#8e8e8e;}.cls-25{fill:#979797;}</style></defs><path d="M508.93,652.08a80.9,80.9,0,0,1-3.57-9.29A67,67,0,0,1,503.8,635a39,39,0,0,0-5.23-14.24,35.36,35.36,0,0,1-3.56-7.38,73.19,73.19,0,0,0-3.06-8.24c-2.45-4.95-3.31-10.19-3.63-15.76,2.26-1.89,2.66-3.25,1.56-5.68a22.45,22.45,0,0,0-2.21-3.79c-1.41-2-2.88-4-4.43-5.83a6,6,0,0,1-1.31-2.89c-.64-3.65-1.39-7.29-1.92-11a41.33,41.33,0,0,0-4.58-13.85,69.11,69.11,0,0,0-8.31-11.36,13.12,13.12,0,0,1-2.15-2.82,9.76,9.76,0,0,1,1-.69,26.66,26.66,0,0,1,6.6-2.36c2.65-.6,3.15-1.3,3.2-4.07a22.6,22.6,0,0,0-1.65-8.89,46.81,46.81,0,0,0-5.42-9.38c-2.87-4.08-5.88-8.07-8.77-12.14a71.19,71.19,0,0,1-9.73-19.64,208.07,208.07,0,0,1-6.34-27.43c-1.62-9.25-3.38-18.48-5.06-27.72-1.06-5.87-2.18-11.74-3.1-17.64-.79-5.1-1.21-10.26-2.59-15.25,2.3-1,2.23-1.07,3.65-3.15,2-2.91,3.64-6,6-8.67a4.54,4.54,0,0,0,.25-5.95c-1.05-1.54-2.2-3-3.34-4.47a39.63,39.63,0,0,1-5.38-9.06,3.26,3.26,0,0,1-.07-2.78c.6-1.45,1.11-2.93,1.65-4.4a30,30,0,0,0,1.7-15.58,42.71,42.71,0,0,1-.38-11.41,41.2,41.2,0,0,0-2.14-19.09c-1.17-3.09-2.13-6.3-5.05-8.52.95-.57,1.67-1,2.43-1.45a24.75,24.75,0,0,0,6.63-5.28,40.35,40.35,0,0,0,5.9-8c1.54-2.84,3.08-5.68,4.74-8.45a22.79,22.79,0,0,0,3-9.12c.52-4.27,1.13-8.54,1.51-12.82a25.38,25.38,0,0,0-1.65-12.4,21,21,0,0,0-2.7-4.5,2.46,2.46,0,0,0-3.65-.44,7.15,7.15,0,0,0-.89.76c-3.85,3.48-7.74,6.93-11.54,10.46C427,249,419.64,254.62,411.1,258.57c-1.6.73-3.09,1.69-4.65,2.51-1.88,1-3.79,2-5.68,2.92-3.61-2.5-7.57-3.91-11.43-5.58a29.34,29.34,0,0,0-15.73-2.51c-5.79.76-11.3,2.32-16,6-.93.72-1.92,1.37-2.82,2.12a28.61,28.61,0,0,0-2.78,2.61c-.76.84-1.36,1.82-2.22,3-4.46-9.82-9.28-19.18-12.78-29.29l1.55-3.29a233,233,0,0,0,11.63-28.19A123,123,0,0,0,353.47,197c.85-4,1.32-7.63-1.59-11a40.19,40.19,0,0,1-2.41-3.32c-.44-.62-.86-1.25-1.24-1.8a14.24,14.24,0,0,1,4.21-4.65,74.19,74.19,0,0,0,12.94-14c1.81-2.44,3.59-4.89,5.42-7.31,1.65-2.18,3.31-4.36,5.05-6.47,2.13-2.58,3.27-5.75,5.13-8.48.77-1.14,1.59-2.23,2.35-3.37a9.84,9.84,0,0,0,1.49-8.34,69.61,69.61,0,0,0-7.24-17.9c-4.38-7.63-9.12-15.06-13.73-22.56a35.63,35.63,0,0,0-2.46-3.29c-3.45-4.39-6.88-8.79-10.4-13.12a53.7,53.7,0,0,0-5.3-5.87,15.84,15.84,0,0,0-8.77-4.39,12.22,12.22,0,0,1-2.24-.67c-2.89-.94-5.8-2-8.85-2-5.67-.11-11.35,0-17,.07a15.83,15.83,0,0,0-2.91.34,2.71,2.71,0,0,0-2.25,2.39,2.89,2.89,0,0,0,1.8,2.77c.45.18,1,.16,1.42.35,1.78.78,3.76,1.33,5.27,2.48,2.79,2.15,5.65,4.16,8.6,6.09A32.68,32.68,0,0,1,330,82.26c1.3,1.94,2.91,3.68,4.36,5.53a13,13,0,0,1,1.7,2.37c1.9,4.07,3.77,8.16,5.54,12.3a45.14,45.14,0,0,1,2.26,6.34c.79,3,1.41,6.1,2,9.18.46,2.58.72,5.2,1.05,7.65-4.67,5.26-9.15,10.32-13.65,15.36s-9,10.06-13.47,15a3.88,3.88,0,0,1-.67-.25c-8.67-5.58-16.92-11.68-23.92-19.33a27,27,0,0,0-5.62-4.47l-2.78,1.92c-3.7,2.54-6.69,5.62-8.28,10-1.14,3.12-2.51,6.16-3.8,9.22-.3.7-.68,1.36-.94,1.88-1.87.32-3.5.65-5.15.86a8.46,8.46,0,0,1-2.61,0c-2.49-.47-5-1.07-7.45-1.59-1.14-.25-2.3-.42-3.44-.67a11.14,11.14,0,0,1-2.51-.72q-6.18-3-12.29-6.22A7.59,7.59,0,0,1,237.1,144c.42-2.28.79-4.4,1.2-6.51a19.22,19.22,0,0,1,2.77-7.35,32.25,32.25,0,0,0,3.62-7.67c.32-.92.7-1.83,1.09-2.72,1.45-3.31,2.92-6.62,4.38-9.93,1.9-4.28,3.73-8.61,5.73-12.85A129,129,0,0,1,270.1,73.35c3.09-4,6-8.2,9-12.33a9.1,9.1,0,0,0,1.4-2.55,2.43,2.43,0,0,0-2.66-3.21,3.68,3.68,0,0,0-1.15.24c-2,.91-4.18,1.63-5.93,3.14-3.84,3.33-7.85,6.48-11.59,9.92s-7.13,7-10.6,10.59-6.66,7.18-10.07,10.69a89.29,89.29,0,0,0-14.72,19.71c-4,7.38-7.77,14.92-11.36,22.52-5.41,11.47-7.36,23.65-6.71,36.29a13.85,13.85,0,0,0,4.23,9.38,63.37,63.37,0,0,0,8.17,7.11c3.66,2.61,7.24,5.32,11.47,7,5.8,2.35,11.52,4.87,17.32,7.24a26.2,26.2,0,0,0,4.25,1.08c2,.42,4,.78,5.91,1.17-.19,3.27-.46,6.29-.52,9.31a56.67,56.67,0,0,0,.26,7,94.89,94.89,0,0,0,3.82,16.87,108.45,108.45,0,0,0,11.67,26.83c.3.49.56,1,.81,1.45a13.84,13.84,0,0,0-.92,1.93,14.67,14.67,0,0,0-.4,2.31,130.06,130.06,0,0,1-4,20.12A17.53,17.53,0,0,1,267,289c-2.54-2.29-4.92-4.3-7.16-6.47a14.3,14.3,0,0,0-5.2-3.17,30.52,30.52,0,0,0-7.47-1.47c-9.54-1-7.52-1.54-16.16,1.09a46.28,46.28,0,0,0-18.14,10.12c-1-.12-2.18-.27-3.34-.38a47.25,47.25,0,0,1-12.15-3.19,11.43,11.43,0,0,1-2.58-1.38c-4.56-3.2-9.43-6-13.55-9.78a8,8,0,0,0-3.38-1.68,3.4,3.4,0,0,0-4.47,3,52.48,52.48,0,0,0-.45,7.9c.3,4.08,1,8.14,1.63,12.2a17.34,17.34,0,0,0,3.46,7.69c1.05,1.41,2.21,2.74,3.39,4.05,1.37,1.52,2.82,3,4.39,4.62a5.6,5.6,0,0,0-2.58,3.79,30.54,30.54,0,0,0-.76,4.91c-.26,5.59-.82,11.13-1.57,16.67-.55,4.07-.89,8.17-1.19,12.27-.28,3.75,0,7.43,2.19,10.57a10.29,10.29,0,0,0-.64,1.82,61.53,61.53,0,0,0-.54,15.81c.4,3.59.83,7.19,1.33,10.77a43.32,43.32,0,0,1,.11,10.55c-.53,5.17-1,10.33-1,15.53A39.2,39.2,0,0,1,179,427.42q-3.93,11.37-7.58,22.83c-1.09,3.44-2.14,6.94-1.91,10.64a2,2,0,0,1-.26,1.11c-1.61,2.7-2.5,5.71-3.8,8.54a16.5,16.5,0,0,0-.61,1.66,7.54,7.54,0,0,0-.3,1.13c-.32,1.87,1,3.11,2.8,2.45,1.46-.55,2.84-1.3,4.26-2a7.16,7.16,0,0,1,5-.87c-.4.86-.72,1.65-1.13,2.38-1.1,2-2.27,3.89-3.36,5.86-.63,1.13-1.17,2.32-.27,3.57,1.33,1.82,1,3.71.16,5.56q-1.74,3.72-3.65,7.36c-2.57,4.95-5.19,9.87-7.79,14.8-1.24,2.33-2.47,4.67-3.76,7-2.44,4.36-4.91,8.69-7.37,13-5.41,9.55-11.21,18.84-18.28,27.29-3.71,4.42-7.26,9-10.86,13.51-6.46,8.12-12.82,16.33-20.25,23.62a6.91,6.91,0,0,0-1.43,1.85,2.26,2.26,0,0,0,2,3.35,10.29,10.29,0,0,0,3.43-.57,32,32,0,0,0,4.56-2c6.57-3.5,13.53-6.12,20.35-9.08.74-.32,1.51-1,2.65-.44a10.72,10.72,0,0,1,0,1.6c-.21,1.45-.48,2.89-.73,4.34-.29,1.74-.55,3.48.92,4.94-.7,1-1.28,1.92-1.89,2.8-1.24,1.77-2.52,3.5-3.71,5.29a7,7,0,0,0-1.39,3.81c0,2.44.8,3.4,3.24,3.54,1.23.07,2.46.06,4,.1-.49.86-.77,1.45-1.14,2a53.63,53.63,0,0,1-7.6,8.54,44.25,44.25,0,0,0-7.38,8.71c-2.88,4.78-5.83,9.51-8.67,14.31a133.42,133.42,0,0,1-8.54,12.65c-1.65,2.19-3.32,4.37-4.78,6.69a35.34,35.34,0,0,0-2.57,5.24c-.8,1.89-1.44,3.84-2.16,5.76-.28.73-.66,1.42-.9,2.16-.68,2.07.27,3.64,2.41,3.61a38.18,38.18,0,0,0,6.1-.73c2.69-.47,5.34-1.19,8-1.63a43.45,43.45,0,0,0,11.52-3.36c3.53-1.67,7-3.41,10.53-5.16a48.09,48.09,0,0,1,9.76-4,9.73,9.73,0,0,1,6.06.14,25.41,25.41,0,0,0,9.81,1.48c1.37,0,2.74,0,4.11,0a4.35,4.35,0,0,1,4.5,3.45c.12.37.17.76.27,1.14a65.85,65.85,0,0,1,1.82,12.18c.17,2.73.49,5.46.92,8.16a6,6,0,0,0,5,5.12,16.25,16.25,0,0,0,2.6.35,29.36,29.36,0,0,0,8.45-.84,51.44,51.44,0,0,1,11.9-1.61,69.2,69.2,0,0,0,16.28-2,39.38,39.38,0,0,1,4.07-.53,5.36,5.36,0,0,1,5.6,3c.58,1,1.08,2.09,1.73,3.07,2.42,3.67,4.88,7.31,7.33,11a1.39,1.39,0,0,0,.21.21c1.29,1.45,2.53,2.95,3.89,4.34a71.74,71.74,0,0,0,5.87,5.7,64.23,64.23,0,0,0,7.24,5c2.59,1.56,4.52,3.92,7.17,5.44a4.24,4.24,0,0,0,4.07.48,30.66,30.66,0,0,1,3-1.19,127.44,127.44,0,0,0,16.67-6.42,40,40,0,0,0,7.32-4.27c2.27-1.65,4.59-3.3,6.21-5.75.93-1.4,1.53-3.2,3.43-3.79.15,0,.22-.31.34-.46,3.09-4.17,6.1-8.4,9.28-12.5,3.84-4.94,7.83-9.78,11.77-14.65a13.08,13.08,0,0,1,1.85-1.87,9.16,9.16,0,0,1,1.66-.89c1.85,2.55,3.45,5,5.31,7.28a97.58,97.58,0,0,1,8.86,12.42,70.17,70.17,0,0,0,9.67,12.52,46.27,46.27,0,0,1,5.6,7.07,19.13,19.13,0,0,0,2.64,3.12c1.44,1.45,3,2.75,4.48,4.21,2.9,2.94,6.17,2.72,8.28-.79a60.48,60.48,0,0,0,3.06-6.33c.82-1.85,1.51-3.75,2.33-5.81a15,15,0,0,1,1.74.8c2.49,1.53,4.92,3.17,7.46,4.62a34.41,34.41,0,0,0,6.06,2.91,23.14,23.14,0,0,1,5.82,2.68,11.26,11.26,0,0,0,5.85,1.71,2.43,2.43,0,0,0,2.79-2.37,6.58,6.58,0,0,0-.68-4,19.88,19.88,0,0,1-2.38-8.1c-.07-2,0-3.91,0-5.87a6.09,6.09,0,0,1,.86-3.65c.81.16,1.59.28,2.35.45a223.11,223.11,0,0,1,25.34,7.36,14.49,14.49,0,0,0,3.71.7,7.19,7.19,0,0,1,2.44.78,42.16,42.16,0,0,0,7.32,2.92,55,55,0,0,1,6.53,1.59,7.2,7.2,0,0,0,2,.46,19,19,0,0,1,6.2,1.68,13.85,13.85,0,0,0,3.08.93c3.86.66,7.72,1.34,11.59,1.83,4.56.58,9.15.89,13.71,1.47,4.17.53,8.29,1.34,12.46,1.86a12.47,12.47,0,0,0,4.34-.32c2.53-.6,3.46-2.87,2.27-5.25a28.06,28.06,0,0,0-1.78-3A56.25,56.25,0,0,1,492,713a90.39,90.39,0,0,0-8.69-15,36,36,0,0,1-2.28-3.77,12.31,12.31,0,0,1-1.57-5.51c4.71-.68,9.34-1.35,14-2a28.24,28.24,0,0,0,3.18-.58c2.1-.56,2.94-1.64,2.87-3.82a25.49,25.49,0,0,0-.54-3.78c-.63-3.25-1.3-6.5-2-9.92,1.07-.06,1.93-.12,2.79-.15a24.77,24.77,0,0,0,7.16-1.49c2.66-.9,3.84-2.78,4-5.52A19.8,19.8,0,0,0,508.93,652.08ZM355.18,303.51l-1.17-.59-.15-.14.15.14Zm-26.42-33.38c1.62-.66,3.3-1.41,4.91-2.2C332.06,268.72,330.38,269.47,328.76,270.13Zm-7,2.28.15,0Zm3.74-1.06.34-.12Zm-4.81.81a.2.2,0,0,1,0-.11A.2.2,0,0,0,320.72,272.16ZM303.06,285.7c.07.21.13.42.2.64-.07-.22-.13-.43-.2-.64-.32-2-.65-4-.95-6.07C302.41,281.66,302.74,283.68,303.06,285.7Zm50.36,16.63.05,0Z"/><path class="cls-1" d="M488.32,589.41c.32,5.57,1.18,10.81,3.63,15.76a73.19,73.19,0,0,1,3.06,8.24,35.36,35.36,0,0,0,3.56,7.38A39,39,0,0,1,503.8,635a67,67,0,0,0,1.56,7.76,80.9,80.9,0,0,0,3.57,9.29,19.8,19.8,0,0,1,1.95,9.38c-.16,2.74-1.34,4.62-4,5.52a24.77,24.77,0,0,1-7.16,1.49c-.86,0-1.72.09-2.79.15.68,3.42,1.35,6.67,2,9.92a25.49,25.49,0,0,1,.54,3.78c.07,2.18-.77,3.26-2.87,3.82a28.24,28.24,0,0,1-3.18.58c-4.63.69-9.26,1.36-14,2a12.31,12.31,0,0,0,1.57,5.51,36,36,0,0,0,2.28,3.77A90.39,90.39,0,0,1,492,713a56.25,56.25,0,0,0,4.44,7.5,28.06,28.06,0,0,1,1.78,3c1.19,2.38.26,4.65-2.27,5.25a12.47,12.47,0,0,1-4.34.32c-4.17-.52-8.29-1.33-12.46-1.86-4.56-.58-9.15-.89-13.71-1.47-3.87-.49-7.73-1.17-11.59-1.83a13.85,13.85,0,0,1-3.08-.93,19,19,0,0,0-6.2-1.68,7.2,7.2,0,0,1-2-.46,55,55,0,0,0-6.53-1.59,42.16,42.16,0,0,1-7.32-2.92,7.19,7.19,0,0,0-2.44-.78,14.49,14.49,0,0,1-3.71-.7,223.11,223.11,0,0,0-25.34-7.36c-.76-.17-1.54-.29-2.35-.45a6.09,6.09,0,0,0-.86,3.65c-.05,2-.09,3.92,0,5.87a19.88,19.88,0,0,0,2.38,8.1,6.58,6.58,0,0,1,.68,4,2.43,2.43,0,0,1-2.79,2.37,11.2,11.2,0,0,1-5.84-1.71,23.37,23.37,0,0,0-5.83-2.68,34.41,34.41,0,0,1-6.06-2.91c-2.54-1.45-5-3.09-7.46-4.62a15,15,0,0,0-1.74-.8c-.82,2.06-1.51,4-2.33,5.81a60.48,60.48,0,0,1-3.06,6.33c-2.11,3.51-5.38,3.73-8.28.79-1.44-1.46-3-2.76-4.48-4.21a19.13,19.13,0,0,1-2.64-3.12,46.27,46.27,0,0,0-5.6-7.07,70.17,70.17,0,0,1-9.67-12.52,97.58,97.58,0,0,0-8.86-12.42c-1.86-2.26-3.46-4.73-5.31-7.28a9.16,9.16,0,0,0-1.66.89,13.08,13.08,0,0,0-1.85,1.87c-3.94,4.87-7.93,9.71-11.77,14.65-3.18,4.1-6.19,8.33-9.28,12.5-.12.15-.19.42-.34.46-1.9.59-2.5,2.39-3.43,3.79-1.62,2.45-3.94,4.1-6.21,5.75a40,40,0,0,1-7.32,4.27,127.44,127.44,0,0,1-16.67,6.42,30.66,30.66,0,0,0-3,1.19,4.24,4.24,0,0,1-4.07-.48c-2.65-1.52-4.58-3.88-7.17-5.44a64.23,64.23,0,0,1-7.24-5,71.74,71.74,0,0,1-5.87-5.7c-1.36-1.39-2.6-2.89-3.89-4.34a1.39,1.39,0,0,1-.21-.21c-2.45-3.65-4.91-7.29-7.33-11-.65-1-1.15-2-1.73-3.07a5.36,5.36,0,0,0-5.6-3,39.38,39.38,0,0,0-4.07.53,69.2,69.2,0,0,1-16.28,2,51.44,51.44,0,0,0-11.9,1.61,29.36,29.36,0,0,1-8.45.84,16.25,16.25,0,0,1-2.6-.35,6,6,0,0,1-5-5.12c-.43-2.7-.75-5.43-.92-8.16a65.85,65.85,0,0,0-1.82-12.18c-.1-.38-.15-.77-.27-1.14a4.35,4.35,0,0,0-4.5-3.45c-1.37,0-2.74,0-4.11,0a25.41,25.41,0,0,1-9.81-1.48,9.73,9.73,0,0,0-6.06-.14,48.09,48.09,0,0,0-9.76,4c-3.49,1.75-7,3.49-10.53,5.16a43.45,43.45,0,0,1-11.52,3.36c-2.69.44-5.34,1.16-8,1.63a38.18,38.18,0,0,1-6.1.73c-2.14,0-3.09-1.54-2.41-3.61.24-.74.62-1.43.9-2.16.72-1.92,1.36-3.87,2.16-5.76a35.34,35.34,0,0,1,2.57-5.24c1.46-2.32,3.13-4.51,4.78-6.69A133.42,133.42,0,0,0,107.26,650c2.84-4.8,5.79-9.53,8.67-14.31a44.25,44.25,0,0,1,7.38-8.71,53.63,53.63,0,0,0,7.6-8.54c.37-.54.65-1.13,1.14-2-1.56,0-2.79,0-4-.1-2.44-.14-3.28-1.1-3.24-3.54a7,7,0,0,1,1.39-3.81c1.19-1.79,2.47-3.52,3.71-5.29.61-.88,1.19-1.77,1.89-2.8-1.47-1.46-1.21-3.2-.92-4.94.25-1.45.52-2.89.73-4.34a10.72,10.72,0,0,0,0-1.6c-1.14-.54-1.91.12-2.65.44-6.82,3-13.78,5.58-20.35,9.08a32,32,0,0,1-4.56,2,10.29,10.29,0,0,1-3.43.57,2.26,2.26,0,0,1-2-3.35A6.91,6.91,0,0,1,100,596.9c7.43-7.29,13.79-15.5,20.25-23.62,3.6-4.52,7.15-9.09,10.86-13.51,7.07-8.45,12.87-17.74,18.28-27.29,2.46-4.34,4.93-8.67,7.37-13,1.29-2.3,2.52-4.64,3.76-7,2.6-4.93,5.22-9.85,7.79-14.8q1.91-3.65,3.65-7.36c.86-1.85,1.17-3.74-.16-5.56-.9-1.25-.36-2.44.27-3.57,1.09-2,2.26-3.89,3.36-5.86.41-.73.73-1.52,1.13-2.38a7.16,7.16,0,0,0-5,.87c-1.42.66-2.8,1.41-4.26,2-1.77.66-3.12-.58-2.8-2.45a7.54,7.54,0,0,1,.3-1.13,16.5,16.5,0,0,1,.61-1.66c1.3-2.83,2.19-5.84,3.8-8.54a2,2,0,0,0,.26-1.11c-.23-3.7.82-7.2,1.91-10.64Q175,438.79,179,427.42a39.2,39.2,0,0,0,2.15-12.67c0-5.2.52-10.36,1-15.53a43.32,43.32,0,0,0-.11-10.55c-.5-3.58-.93-7.18-1.33-10.77a61.53,61.53,0,0,1,.54-15.81,10.29,10.29,0,0,1,.64-1.82c-2.17-3.14-2.47-6.82-2.19-10.57.3-4.1.64-8.2,1.19-12.27.75-5.54,1.31-11.08,1.57-16.67a30.54,30.54,0,0,1,.76-4.91,5.6,5.6,0,0,1,2.58-3.79c-1.57-1.65-3-3.1-4.39-4.62-1.18-1.31-2.34-2.64-3.39-4.05a17.34,17.34,0,0,1-3.46-7.69c-.63-4.06-1.33-8.12-1.63-12.2a52.48,52.48,0,0,1,.45-7.9,3.4,3.4,0,0,1,4.47-3,8,8,0,0,1,3.38,1.68c4.12,3.81,9,6.58,13.55,9.78a11.43,11.43,0,0,0,2.58,1.38,47.25,47.25,0,0,0,12.15,3.19c1.16.11,2.32.26,3.35.38A46.17,46.17,0,0,1,231,278.94c8.64-2.63,6.62-2.11,16.16-1.09a30.52,30.52,0,0,1,7.47,1.47,14.3,14.3,0,0,1,5.2,3.17c2.24,2.17,4.62,4.18,7.16,6.47a17.53,17.53,0,0,0,.78-1.74,130.06,130.06,0,0,0,4-20.12,14.67,14.67,0,0,1,.4-2.31,13.84,13.84,0,0,1,.92-1.93c-.25-.45-.51-1-.81-1.45a108.45,108.45,0,0,1-11.67-26.83,94.89,94.89,0,0,1-3.82-16.87,56.67,56.67,0,0,1-.26-7c.06-3,.33-6,.52-9.31-1.95-.39-3.94-.75-5.91-1.17a26.2,26.2,0,0,1-4.25-1.08c-5.79-2.37-11.52-4.89-17.32-7.24-4.23-1.72-7.81-4.43-11.47-7a63.37,63.37,0,0,1-8.17-7.11,13.85,13.85,0,0,1-4.23-9.38c-.65-12.64,1.3-24.82,6.71-36.29,3.59-7.6,7.35-15.14,11.36-22.52a89.29,89.29,0,0,1,14.72-19.71c3.41-3.51,6.66-7.18,10.07-10.69s6.93-7.21,10.6-10.59,7.75-6.59,11.59-9.92c1.75-1.51,3.89-2.23,5.93-3.14a3.68,3.68,0,0,1,1.15-.24,2.43,2.43,0,0,1,2.66,3.21,9.1,9.1,0,0,1-1.4,2.55c-3,4.13-5.92,8.29-9,12.33a129,129,0,0,0-14.21,23.58c-2,4.24-3.83,8.57-5.73,12.85-1.46,3.31-2.93,6.62-4.38,9.93-.39.89-.77,1.8-1.09,2.72a32.25,32.25,0,0,1-3.62,7.67,19.22,19.22,0,0,0-2.77,7.35c-.41,2.11-.78,4.23-1.2,6.51a7.59,7.59,0,0,0,3.23,2.66q6.1,3.16,12.29,6.22a11.14,11.14,0,0,0,2.51.72c1.14.25,2.3.42,3.44.67,2.49.52,5,1.12,7.45,1.59a8.46,8.46,0,0,0,2.61,0c1.65-.21,3.28-.54,5.15-.86.26-.52.64-1.18.94-1.88,1.29-3.06,2.66-6.1,3.8-9.22,1.59-4.33,4.58-7.41,8.28-10l2.78-1.92a27,27,0,0,1,5.62,4.47c7,7.65,15.25,13.75,23.92,19.33a3.88,3.88,0,0,0,.67.25c4.47-5,9-10,13.47-15s9-10.1,13.65-15.36c-.33-2.45-.59-5.07-1.05-7.65-.55-3.08-1.17-6.15-2-9.18a45.14,45.14,0,0,0-2.26-6.34c-1.77-4.14-3.64-8.23-5.54-12.3a13,13,0,0,0-1.7-2.37c-1.45-1.85-3.06-3.59-4.36-5.53A32.68,32.68,0,0,0,320.73,73c-3-1.93-5.81-3.94-8.6-6.09-1.51-1.15-3.49-1.7-5.27-2.48-.44-.19-1-.17-1.42-.35a2.89,2.89,0,0,1-1.8-2.77,2.71,2.71,0,0,1,2.25-2.39,15.83,15.83,0,0,1,2.91-.34c5.68-.06,11.36-.18,17-.07,3.05,0,6,1.07,8.85,2a12.22,12.22,0,0,0,2.24.67,15.84,15.84,0,0,1,8.77,4.39,53.7,53.7,0,0,1,5.3,5.87c3.52,4.33,6.95,8.73,10.4,13.12a35.63,35.63,0,0,1,2.46,3.29c4.61,7.5,9.35,14.93,13.73,22.56a69.61,69.61,0,0,1,7.24,17.9,9.84,9.84,0,0,1-1.49,8.34c-.76,1.14-1.58,2.23-2.35,3.37-1.86,2.73-3,5.9-5.13,8.48-1.74,2.11-3.4,4.29-5.05,6.47-1.83,2.42-3.61,4.87-5.42,7.31a74.19,74.19,0,0,1-12.94,14,14.24,14.24,0,0,0-4.21,4.65c.38.55.8,1.18,1.24,1.8a40.19,40.19,0,0,0,2.41,3.32c2.91,3.35,2.44,7,1.59,11a123,123,0,0,1-3.28,11.86,233,233,0,0,1-11.63,28.19L337,240.35c3.5,10.11,8.32,19.47,12.78,29.29.86-1.17,1.46-2.15,2.22-3a28.61,28.61,0,0,1,2.78-2.61c.9-.75,1.89-1.4,2.82-2.12,4.7-3.69,10.21-5.25,16-6a29.34,29.34,0,0,1,15.73,2.51c3.86,1.67,7.82,3.08,11.43,5.58,1.89-1,3.8-1.92,5.68-2.92,1.56-.82,3.05-1.78,4.65-2.51,8.54-3.95,15.92-9.53,22.78-15.89,3.8-3.53,7.69-7,11.54-10.46a7.15,7.15,0,0,1,.89-.76,2.46,2.46,0,0,1,3.65.44,21,21,0,0,1,2.7,4.5,25.38,25.38,0,0,1,1.65,12.4c-.38,4.28-1,8.55-1.51,12.82a22.79,22.79,0,0,1-3,9.12c-1.66,2.77-3.2,5.61-4.74,8.45a40.35,40.35,0,0,1-5.9,8,24.75,24.75,0,0,1-6.63,5.28c-.76.41-1.48.88-2.43,1.45,2.92,2.22,3.88,5.43,5.05,8.52a41.2,41.2,0,0,1,2.14,19.09,42.71,42.71,0,0,0,.38,11.41,30,30,0,0,1-1.7,15.58c-.54,1.47-1.05,2.95-1.65,4.4a3.26,3.26,0,0,0,.07,2.78,39.63,39.63,0,0,0,5.38,9.06c1.14,1.47,2.29,2.93,3.34,4.47a4.54,4.54,0,0,1-.25,5.95c-2.39,2.64-4.05,5.76-6,8.67-1.42,2.08-1.35,2.13-3.65,3.15,1.38,5,1.8,10.15,2.59,15.25.92,5.9,2,11.77,3.1,17.64,1.68,9.24,3.44,18.47,5.06,27.72a208.07,208.07,0,0,0,6.34,27.43A71.19,71.19,0,0,0,460,494.7c2.89,4.07,5.9,8.06,8.77,12.14a46.81,46.81,0,0,1,5.42,9.38,22.6,22.6,0,0,1,1.65,8.89c-.05,2.77-.55,3.47-3.2,4.07a26.66,26.66,0,0,0-6.6,2.36,9.76,9.76,0,0,0-1,.69,13.12,13.12,0,0,0,2.15,2.82,69.11,69.11,0,0,1,8.31,11.36A41.33,41.33,0,0,1,480,560.26c.53,3.67,1.28,7.31,1.92,11a6,6,0,0,0,1.31,2.89c1.55,1.88,3,3.84,4.43,5.83a22.45,22.45,0,0,1,2.21,3.79C491,586.16,490.58,587.52,488.32,589.41ZM277.63,260.6l-.17-.12.2.08.58.59.23.88a12.34,12.34,0,0,0,3.65,4.69c.16-1.08.27-1.8.41-2.72l-3.6-2.38-.73-.43Zm80,45.2-.47-.22.39.29.5.21ZM354,302.89l-.57-.6c-1-1.33-2-2.61-2.89-4s-1.52-2.8-2.39-4.41c-1.18,1.13-2.22,2-3.1,3s-2.57,1.39-3.27,3a6.4,6.4,0,0,0,1.26.11,14.19,14.19,0,0,1,8.12,1.76,10,10,0,0,0,2.21.6l.6.57,1.17.59.45.24-.41-.27Zm-52.32,65.26a4.11,4.11,0,0,0-1,3.83c1.21-1.16.94-2.53,1-3.83.53-.95.53-.95,0-2.37ZM321,258.08c-2.27,1.33-4.53,2.68-6.81,4-1.7,1-3.41,1.9-5.18,2.72a7.05,7.05,0,0,1-2.54.55c-1.16.05-1.7-.53-1.85-1.79a5.08,5.08,0,0,1,.12-1.16c3.68-2.22,7.37-4.41,11-6.65,1-.6,1.91-1.32,2.85-2-.31-1.72-.58-3.25-.85-4.78a5.69,5.69,0,0,1,.46-3.72,3,3,0,0,1,3.44-1.6,4,4,0,0,1,2.58,1.81c.41.66.75,1.35,1.18,2.14a11.58,11.58,0,0,0,3.79-4c6.48-13.27,12.87-26.59,17.92-40.49,1.07-2.95,2.21-5.86,4.58-8.08a2,2,0,0,0,.29-.61,14.17,14.17,0,0,0-.77-1.49A83.85,83.85,0,0,0,340.38,179a150.33,150.33,0,0,0-21.85-18.19c-5.64-3.88-11.5-7.47-16.69-12-4.49-3.89-9-7.79-12-13.08-.17,0-.4,0-.52.11-2.6,2.24-5.06,4.61-6.12,8-.26.84-.63,1.64-.93,2.47l-15.6,43A93.71,93.71,0,0,0,262,205.14c-.49,2.79-1,5.58-1.34,8.39a12.37,12.37,0,0,0,.18,4.07,168.16,168.16,0,0,0,7.77,25.5,7.2,7.2,0,0,0,1.11,2c2.67,3.1,5.41,6.15,8.13,9.22.41.46.86.89,1.63,1.69a8,8,0,0,1,.81-5.33,2.21,2.21,0,0,1,2.1-1.34,2.15,2.15,0,0,1,2,1.5,19.73,19.73,0,0,1,.83,3.41c.3,2,.5,4.06.75,6.23a16.81,16.81,0,0,0,3.92,1.78c3.67,1.19,7.51,1.22,11.26,1.81.11.17.14.65.43.11l-.42-.12c.5-1.91-.43-3.61-.81-5.39a22.22,22.22,0,0,1-.76-3.71,14.77,14.77,0,0,0-.66-4,16.82,16.82,0,0,1-.71-3.44c-.39-3.7-.8-7.39-1-11.1-.46-7.91-.75-15.84-1.25-23.75-.24-4-.14-8-.14-12a7.85,7.85,0,0,0-.69-3.4,50.64,50.64,0,0,1-4.45-17.54c-.45-5.66-.84-11.32-1-17a148.17,148.17,0,0,0-1.25-17,31.63,31.63,0,0,1,0-6.15c0-.53.22-1.18,1.16-1.1a13.61,13.61,0,0,1,2.18,5.28,91.09,91.09,0,0,1,1.62,9.55c.72,7.4,1.25,14.82,1.84,22.23a81.36,81.36,0,0,0,2.1,14.21,36.49,36.49,0,0,1,1.45,8.06,162.36,162.36,0,0,0,1.2,16.34c.18,1.26.41,2.51.56,3.77,1,8.17,1.49,16.37,1.82,24.59.06,1.37.26,2.73.31,4.09a44.14,44.14,0,0,1,.08,7.62,18,18,0,0,0,.83,8.07,32.86,32.86,0,0,0,.59,4.88c1.43,5.37,2.48,10.81,3.42,16.27.08.42,0,1,.63,1,.18-.17.37-.27.45-.43q3.89-7.69,7.73-15.4c1.68-3.4,3.32-6.82,5-10.23l.2-.66ZM302.62,286.2l.64.14-.2-.64c-.32-2-.65-4-.95-6.07s-.52-3.86-.79-5.8,0-4-.35-5.69c-2.78-.25-5.29-.45-7.79-.69s-4.77-1.51-7.37-1.65c-.4,1.44-.77,2.73-1.14,4.07a4.07,4.07,0,0,0,.43.71c2.5,2.87,4.9,5.84,7.56,8.56A31.91,31.91,0,0,0,302.62,286.2ZM263.33,71.79a12.49,12.49,0,0,0-1.13.91c-7.52,7.44-14.93,15-22,22.84a87.55,87.55,0,0,0-9,11.6,232,232,0,0,0-14.37,27.24,72.11,72.11,0,0,0-6.59,33.09,10.14,10.14,0,0,0,2.82,6.88,58,58,0,0,0,8.6,7.53,51.52,51.52,0,0,0,9.76,5.92c4.23,1.79,8.44,3.64,12.56,5.67a80.76,80.76,0,0,0,12.1,4.42,6.71,6.71,0,0,0,1.9,0c4.06-13.25,9.44-25.84,14.27-39a6.9,6.9,0,0,0-2.38.45,5.56,5.56,0,0,1-4.23.65c-4.43-.72-8.85-1.5-13.28-2.27a3.5,3.5,0,0,1-.83-.27,140.66,140.66,0,0,1-14.4-7.27,26.93,26.93,0,0,1-3-2.31,5,5,0,0,1-1.8-5.5c.59-2.37,1.07-4.77,1.47-7.18a19.17,19.17,0,0,1,2.9-7.3,29.9,29.9,0,0,0,3.26-6.88c.34-1,.75-2,1.18-3,1.58-3.68,3.25-7.33,4.78-11a175,175,0,0,1,11.86-24.21c2.08-3.43,4.3-6.77,6.46-10.14,1.59-1.7,1.59-1.7,2-3.17A6.27,6.27,0,0,0,263.33,71.79ZM128.83,612.84a4.63,4.63,0,0,0,.89.36c.69,0,1.37,0,2.06,0s1.57,0,2.35,0c1.26.09,1.76.57,1.87,1.8a6.48,6.48,0,0,1-1.08,4.75c-1.24,1.62-2.34,3.37-3.7,4.9-2.73,3.06-5.6,6-8.39,9A15.25,15.25,0,0,0,121,636c-3.18,5.15-6.42,10.26-9.44,15.49A166.16,166.16,0,0,1,99.85,669a34.31,34.31,0,0,0-5.54,12.26,3.68,3.68,0,0,0,1.24.07,44.16,44.16,0,0,1,8-1.74,43.17,43.17,0,0,0,9.06-2.17,101.64,101.64,0,0,0,12.72-6,51.5,51.5,0,0,1,9.68-4,14.44,14.44,0,0,1,9.21,0,20.09,20.09,0,0,0,7.17,1.17c1.76-.07,3.53-.07,5.29,0,4.4.17,7.24,2.31,8.81,6.45a45,45,0,0,1,2.24,11.11c.32,2.91.39,5.84.65,8.75s1.4,4,4.49,4.16a7.21,7.21,0,0,0,1.47,0c1.53-.24,3.06-.52,4.59-.81,2.48-.47,4.94-1.17,7.44-1.4,4-.38,8-.45,12-.65a17.56,17.56,0,0,0,2.06-.09c3.54-.57,7-1.36,10.6-1.95a10.15,10.15,0,0,1,10.87,4.54c.67,1,1.2,2,1.81,3,1.08,1.74,2.13,3.5,3.27,5.2a62.29,62.29,0,0,1,3.68,5.27,27.34,27.34,0,0,0,5.19,6.29,33,33,0,0,0,6.64,5.24c2.53,1.47,4.92,3.18,7.32,4.85a14.4,14.4,0,0,1,2.12,1.94c.93,1,1.4,1.2,2.55.79,2.56-.91,5.16-1.75,7.67-2.79,5.12-2.12,10.47-3.74,15.27-6.6,3.36-2,6.71-4,8.88-7.45a4.86,4.86,0,0,1,1.67-1.61,5.52,5.52,0,0,0,1.8-1.86c.71-1,1.54-2,2.31-3,1.84-2.4,3.65-4.82,5.5-7.21,2.74-3.55,5.46-7.11,8.27-10.61,1.65-2.05,3.59-3.88,5.14-6a11.11,11.11,0,0,1,6.2-4.12,2.39,2.39,0,0,1,1.65.11,4.89,4.89,0,0,1,1.75,1.44c1.42,2,2.57,4.17,4.12,6a141.8,141.8,0,0,1,11,15.14c2.7,4.29,5.48,8.57,9.58,11.74a1.46,1.46,0,0,1,.57.94c-.06,1.28.86,1.95,1.63,2.65a23.73,23.73,0,0,1,3.52,4.29,10.28,10.28,0,0,0,1.44,1.83c1.75,1.64,3.56,3.23,5.37,4.85.27-.23.59-.38.69-.61.91-2.15,1.73-4.34,2.67-6.48,1-2.32,2-4.65,3.25-6.87.75-1.37,2.71-2.19,3.76-1.72s2.55,1,3.2,2c1.07,1.58,2.68,2.2,4.1,3.18a41.9,41.9,0,0,0,10.72,5.21,28.14,28.14,0,0,1,3.14,1.5c.66.31,1.34.61,2,.91.17-.36.34-.56.31-.7a16.21,16.21,0,0,0-.89-3.37c-1.29-2.65-1.06-5.55-1.25-8.3s.53-5.4,1-8.07c.54-2.88,1.41-3.4,4.28-3l.29,0c3.7.84,7.44,1.52,11.08,2.55,5.8,1.65,11.61,3.25,17.3,5.29,7,2.5,14.41,3.21,21.43,5.53a3.62,3.62,0,0,0,.88.06,20.37,20.37,0,0,1,6.76,1.69,18.57,18.57,0,0,0,3,1.11,117.51,117.51,0,0,0,17.6,2.43c2.44.15,4.85.41,7.27.71,2,.24,4,.9,6,1a32.21,32.21,0,0,1,6.28,1.26,3.1,3.1,0,0,0,1-.15A9.91,9.91,0,0,0,491,720a15.42,15.42,0,0,1-2.93-4.35,91.94,91.94,0,0,0-8.4-14.75,27.08,27.08,0,0,1-5-12c-.44-3.23.75-5.14,3.94-5,4.63.2,9.12-.71,13.65-1.31a4.85,4.85,0,0,0,2.7-1c-1-4.71-2.05-9.35-3.05-14a2.47,2.47,0,0,1,1.71-3.18,9.74,9.74,0,0,1,3.74-.51c2.44,0,4.89.19,7.26-.63,1.3-.44,1.52-.66,1.63-2a14,14,0,0,0-1.47-7.37c-1-2.09-1.9-4.28-2.73-6.46-1.57-4.12-2-8.51-2.89-12.78a30.45,30.45,0,0,0-3.86-10.34,42,42,0,0,1-5-10.84,42.43,42.43,0,0,0-2.4-6.27,34.63,34.63,0,0,1-3.44-12.89,59.42,59.42,0,0,0-1-6.6,2.44,2.44,0,0,1,.82-2.63l1.63-1.29c-1.83-2.62-3.51-5.13-5.31-7.53a9,9,0,0,1-1.93-4.19c-.36-2.8-.62-5.59-2.33-8a5.05,5.05,0,0,1-.61-1.64c-.43-1.7-.77-3.41-1.23-5.1-1.16-4.25-2.57-8.42-5.32-12-2.33-3-4.77-5.93-7.13-8.9a22,22,0,0,1-2.22-3.07c-1.08-2-.71-3.49,1.29-4.73a52,52,0,0,1,5.7-2.94c1.3-.6,2.71-1,4.11-1.5a20.46,20.46,0,0,0-3.33-10.29c-2.79-4.23-5.79-8.32-8.79-12.41a114.08,114.08,0,0,1-8.59-13.25,80.09,80.09,0,0,1-6.14-16.1c-2.95-10.39-4.77-21-6.56-31.67-.68-4-1.44-8-2.2-12-.6-3.15-1.28-6.28-1.88-9.43s-1.3-6.48-1.71-9.76c-.49-3.95-1.34-7.88-1.32-11.89a4.69,4.69,0,0,0-.09-1.46c-.64-1.81-.37-3.68-.47-5.53a4.29,4.29,0,0,1,2.25-4.39,3.92,3.92,0,0,1,.49-3.64c2.11-3.28,3.56-6.95,6-10a6,6,0,0,0,.6-1.25c-3-4.14-6.15-8-7.39-13a5.34,5.34,0,0,0-.65-1.31,6.29,6.29,0,0,1-.61-4.55q1.16-6,2.45-12a13.63,13.63,0,0,0,0-5.21,70.67,70.67,0,0,1-.82-7.83,53.89,53.89,0,0,1,.44-7.28,42,42,0,0,0-.5-13.13,35.67,35.67,0,0,0-4.53-11.5c-3,2.11-6.53,3-9.93,4.16-.56.19-1.09.46-1.64.65-3.68,1.26-7.35,2.54-11.05,3.77-1.94.64-3.94,1.09-5.86,1.78a44,44,0,0,1-11.76,2c-1.46.11-3-.2-4.39.15a26.57,26.57,0,0,1-7,.48c-3.12-.05-6.24.16-9.34-.57-2.26-.53-4.58-.79-6.89-1.12a3.79,3.79,0,0,0-1.17.24,20.87,20.87,0,0,0,2.52,5.39,10.75,10.75,0,0,1,1.8,4.28c.19,1.54.4,3.09.74,4.59a10.59,10.59,0,0,1-1.4,8.16,30,30,0,0,1-7.66,8.39c-3.17,2.37-6.9,3.55-10.61,4.83a17.59,17.59,0,0,1-11.72-.06,25.22,25.22,0,0,1-11.69-8,10.29,10.29,0,0,1-2.43-6.45,20.13,20.13,0,0,1,2.07-9,41.19,41.19,0,0,1,5-8.58,4.4,4.4,0,0,0,.61-1c.12-.3.57-.64-.11-1.1-.89.29-1.88.66-2.9.91a32.21,32.21,0,0,1-6.25,1.36c-3.25.13-6.3,1.05-9.55,1.52a4.36,4.36,0,0,0,.13,1.24,14.78,14.78,0,0,1,1,6.31c0,11.46-.07,22.92,0,34.38a79.51,79.51,0,0,1-1,12.8,80.66,80.66,0,0,1-3.75,14.38,11.49,11.49,0,0,1-2.68,4.83,3,3,0,0,0-.75,2.13c-.29,2.31-.87,4.61-1,6.92-.16,4.59-.11,9.19,0,13.79a1.71,1.71,0,0,0,1.33,1.72c1.91.5,2.39,2,1.83,3.94a23.85,23.85,0,0,0-.91,8.1c.15,2.62.47,5.25.46,7.87a30.77,30.77,0,0,0,1.83,10.89c.64,1.74,1.29,3.48,1.77,5.25a48.55,48.55,0,0,1,1.9,9.73c.21,3.1.9,6.17,1,9.27A83.77,83.77,0,0,0,309.48,478c1,5.92,2.63,11.75,3.86,17.64.91,4.38,1.73,8.78,2.4,13.19.57,3.75.67,7.58,1.35,11.3.8,4.39,1.92,8.73,3.06,13,1.31,5,2.87,9.92,2.77,15.17a2.24,2.24,0,0,0,0,.58c.84,2.81.38,5.6,0,8.41-.13.85-.4,1.55-1.27,1.77a2.28,2.28,0,0,1-2.46-.46c-.57-.66-1-1.45-1.49-2.16-.37-.5-.79-1-1.51-1.85a6.66,6.66,0,0,0-.22,1.82c.93,3.68,1.74,7.4,2.91,11a40,40,0,0,1,2.25,14.36c-.07,1.56-.11,3.12-.22,4.68-.09,1.16-.36,2.31-.4,3.47a60.47,60.47,0,0,0,0,6.17c.24,3.63-.52,7.19-.68,10.8a34.21,34.21,0,0,1-1,5.73,40,40,0,0,0-.6,12.25c.3,3.57,1,7.11,1.54,10.67a8.73,8.73,0,0,1,0,2,20.27,20.27,0,0,0-.31,2.88,14.71,14.71,0,0,1-.83,5.77,45.28,45.28,0,0,0-2.16,15.54c0,1.86,0,3.73,0,5.59a8.45,8.45,0,0,1-.33,2.29,6.12,6.12,0,0,0,0,4,5.4,5.4,0,0,1,0,3.62,14.82,14.82,0,0,1-2-.38,17.13,17.13,0,0,1-1.51-.82c-1.52-.69-1.83-1.09-1.32-2.67a9,9,0,0,0,.12-4.9c-.2-.85-.41-1.7-.65-2.54-1.36-4.87-2.74-9.73-4.08-14.6-.57-2.06-1.08-4.13-1.62-6.22-2.58-.59-3.59-2.2-3.42-4.71.33-4.8-.57-9.55-.57-14.33A9.08,9.08,0,0,0,301,625c-.54-3.56-1.09-7.11-1.62-10.66-.65-4.32-1.09-8.69-2-13a51.21,51.21,0,0,1-1.06-9.86c-.13-5.85.23-11.7-.38-17.58-.52-5,0-10.14-.63-15.21-.35-2.8-.06-5.67-.14-8.51-.05-1.55-.37-3.09-.41-4.64a42.1,42.1,0,0,1,.08-7.62,53.18,53.18,0,0,0,.24-10.24c-.11-3.58-.63-7.16-1-10.74-.41-3.77-.61-7.59-1.38-11.29a107.74,107.74,0,0,1-1.44-12.74c-.48-5.53-.1-11.12-.66-16.68a92.42,92.42,0,0,1-.09-10c0-2.53-.21-5.08.57-7.57a4.31,4.31,0,0,0,0-1.34c-3.43-1-4.14-2.05-4.05-5.55a8.62,8.62,0,0,1,0-.88q.56-4.05,1.15-8.08c.12-.85.33-1.68.5-2.47-1-.91-2.35-1.42-2.33-3,0-2.84-.12-5.7.15-8.52.39-4,1-7.91,1.05-11.91,0-3.33-.06-6.66.06-10a56.68,56.68,0,0,1,.66-8.14,129.68,129.68,0,0,1,3.2-13.32c2.07-7.1,4.09-14.21,5.93-21.37a83.63,83.63,0,0,0,3.11-19.26,5.24,5.24,0,0,1,.08-.88,53,53,0,0,0,1.12-11.31c-.07-3.53,0-7,0-10.58a23.76,23.76,0,0,1,.3-2.9,39.56,39.56,0,0,0,.19-6.84l-3.07-.15c-3.31-.13-6.63.3-9.93-.46a16,16,0,0,0-3.27,0c1.12,1.23,2,2.22,2.91,3.18,1.9,2,2.33,4.72,3.15,7.18a16.92,16.92,0,0,1-.76,12.81,27.65,27.65,0,0,1-9.52,10.88c-4,2.88-8.37,3.12-12.83,1.69a77.46,77.46,0,0,1-9.75-4,8.22,8.22,0,0,1-4.54-5.43c-.68-2.42-.5-4.84-.56-7.27-.1-3.94,1.35-7.41,3.12-10.81,1.5-2.87,3-5.72,5.47-7.91.27-.24.36-.7.62-1,1.65-1.83,3.28-3.68,6.06-3.64.13,0,.27-.24.55-.5a6.35,6.35,0,0,0-2.51-1.74c-1.45,1.43-2.84,2.8-4.22,4.19a18.71,18.71,0,0,1-6.42,4,59.19,59.19,0,0,1-5.82,1.93,35.43,35.43,0,0,1-4.54,1,47.94,47.94,0,0,0-8.57,1.68,11.07,11.07,0,0,1-2.25.63c-4.53.63-9.09,1-13.66,1.24-3.13.15-6.27.05-9.4.06-3.9,0-7.83.27-11.59-1.16a2.2,2.2,0,0,0-.58-.06,17.43,17.43,0,0,1-7.58-2.89,20.08,20.08,0,0,0-4.91-2.43,23.09,23.09,0,0,0-.75,3.47c-.26,4.38-.38,8.78-.63,13.16-.14,2.53-.42,5-.68,7.56-.16,1.55-.39,3.09-.58,4.63-.35,2.8-.83,5.59-1,8.39-.18,3-.25,6.06.88,9,.19.49.22,1.42-.07,1.63-1.17.9-.92,2.08-.85,3.22.14,2.52.57,5.06.46,7.57-.22,4.65,1.2,9.07,1.55,13.63.21,2.71,1,5.37.89,8.11a100.15,100.15,0,0,1-.45,10.23,117.22,117.22,0,0,0-.69,12.86,27.5,27.5,0,0,1-1,7.2c-1.51,5.14-3.23,10.22-5,15.29-2.19,6.45-4.66,12.8-5.92,19.54-.47,2.55-1,5.12-2.74,7.32a4.7,4.7,0,0,0-1.05,4c2-.44,3.9-.94,5.8-1.23a4.08,4.08,0,0,1,4.58,3.81,8.67,8.67,0,0,1-1.54,5.24L176,483.23c.2.46.36.81.49,1.17a7.6,7.6,0,0,1,.14,5.7c-.63,1.53-1,3.18-1.71,4.64-4.17,8.3-8.42,16.56-12.64,24.83-.13.26-.27.52-.41.78-4.48,7.78-8.92,15.58-13.44,23.35a129.86,129.86,0,0,1-11.28,16.36c-3.56,4.39-7.19,8.73-10.69,13.17-5.13,6.52-10.15,13.12-15.73,19.26-.32.34-.69.74-.14,1.2a2.08,2.08,0,0,0,.57-.06c4.48-1.92,9-3.89,13.45-5.76a31.65,31.65,0,0,1,7.17-2.46A3.38,3.38,0,0,1,136,588.3a8.83,8.83,0,0,1,.06,1.46,65.87,65.87,0,0,1-.56,7.28,20.45,20.45,0,0,1-3.12,9c-1,1.64-2,3.36-2.92,5.07A10.78,10.78,0,0,0,128.83,612.84Zm223-339.06a23,23,0,0,1,1,3.23c.15,1.07.71,2.37-.91,3-.23.09-.4.69-.37,1a5.93,5.93,0,0,0,.51,2.25,8.52,8.52,0,0,1,1.08,5.1,9.38,9.38,0,0,0,1.38,5.58c1.58,3,4.16,4.89,6.94,6.56a7.27,7.27,0,0,0,2.54.59c1.36.21,2.71.41,4.08.5a73.82,73.82,0,0,0,12,.26c3.6-.34,7.22-.55,10.84-.7a20.89,20.89,0,0,0,6-1.13,30.57,30.57,0,0,1,3.91-1.24,80.53,80.53,0,0,0,12-3.71c1.56-.57,3.12-1.16,4.71-1.62a44.32,44.32,0,0,0,9.13-4c3.24-1.81,6.61-3.43,9.08-6.37a43.68,43.68,0,0,0,5.39-7.3c1.29-2.42,2.6-4.83,4-7.17a22,22,0,0,0,3-9.72c.28-3.11.72-6.21,1-9.32a29.91,29.91,0,0,0-.57-10.5c-.17-.65-.48-1.26-.8-2.1-2.09,1.87-4.06,3.61-6,5.38-3.12,2.82-6.14,5.76-9.35,8.47a56.78,56.78,0,0,1-10,7.2c-4.15,2.18-8.32,4.33-12.49,6.49a18.83,18.83,0,0,1-7.54,2.24,2.87,2.87,0,0,0-1.59.49c-1.46,1.2-2.88.95-4.35.11a67.36,67.36,0,0,0-9.86-4.49,26.61,26.61,0,0,0-10.56-2c-8.58.35-15.63,3.94-21.73,9.7A29,29,0,0,0,351.83,273.78Zm-5.75-95.32a6.46,6.46,0,0,0,1-1.17,22.31,22.31,0,0,1,4.21-5.6,93.27,93.27,0,0,0,10.27-12.43c2.45-3.66,5.16-7.12,7.95-10.52a45,45,0,0,0,6.45-9.77,16,16,0,0,1,2.31-3.7,6.36,6.36,0,0,0,1.22-6.27,73.79,73.79,0,0,0-6.71-16.22c-2.42-4.47-5.06-8.83-7.79-13.11S359.78,90.92,356.5,87c-3.56-4.29-6.86-8.79-10.39-13.1a77.41,77.41,0,0,0-5.44-5.73,2.81,2.81,0,0,0-1.75-1c-2.45.18-4.57-.88-6.75-1.64a39.06,39.06,0,0,0-14.36-1.84,8.76,8.76,0,0,0,3,2.48,52.94,52.94,0,0,1,5.77,4,67.74,67.74,0,0,1,6.53,6.7c2.09,2.45,3.93,5.12,5.84,7.71A19,19,0,0,1,341,87.77c1.71,3.73,3.34,7.5,4.92,11.29a42.09,42.09,0,0,1,2.4,6.6c1.54,6.66,3.09,13.32,2.07,20.3a9.41,9.41,0,0,1-1.9,4.74c-5.53,7.13-11.72,13.67-17.84,20.27-2.13,2.29-4.47,4.38-6.7,6.58a12.84,12.84,0,0,0-.88,1A139.7,139.7,0,0,1,346.08,178.46ZM318.23,549.14c1-1.14-.06-2-.06-2.89a33.66,33.66,0,0,0-2.06-10.52,147.14,147.14,0,0,1-4.39-19c-.21-1.14-.44-2.28-.58-3.44-.25-2.11-.3-4.27-.7-6.36-.86-4.56-1.93-9.09-2.83-13.64-1-4.94-2.37-9.79-3.11-14.79-.39-2.68-1.08-5.32-1-8.06a4.58,4.58,0,0,0-.07-1.17c-.84-3.42-.58-6.95-1-10.42-.28-2.31-.64-4.6-1-6.88a76.22,76.22,0,0,0-3.29-11.18,28.47,28.47,0,0,1-1.64-9.71c.07-3.91,0-7.83,0-11.75,0-1.19,0-2.32-1-3.21a2.41,2.41,0,0,1-.71-1.53c-.26-3.19-.48-6.4-.62-9.6-.09-1.86,0-3.72,0-5.58a11.11,11.11,0,0,0-.16-1.4,11.22,11.22,0,0,0-.95,4c.17,6.15-.43,12.28-.64,18.42a18,18,0,0,1-.41,4.05,8.27,8.27,0,0,0,.1,4.62c.48.06.86.09,1.24.15,1.89.29,2.6,1.32,2.19,3.2a19.13,19.13,0,0,1-.56,2.26c-1.42,4-1.81,8.12-2.5,12.23a26.83,26.83,0,0,0,0,4.4c.59.11,1,.18,1.33.23,1.86.28,3.07,1.64,2.67,3.38-.59,2.56-.81,5.17-1.27,7.74a30.43,30.43,0,0,0-.25,9c.31,2.54.29,5,.45,7.57a71,71,0,0,1,.51,7.26c-.16,4.41.52,8.75.7,13.13a45.81,45.81,0,0,0,.74,5.18c.32,2.1.58,4.22,1,6.3s.34,4.09.71,6.07a46.7,46.7,0,0,1,.46,5.51c.13,1.84.47,3.66.53,5.5.3,9.76-.51,19.54.57,29.29.26,2.33-.27,4.76.17,7a42.53,42.53,0,0,1,.45,7.87c.05,6.46,0,12.92.06,19.38a37.58,37.58,0,0,0,.73,6.94c1.11,5.61,2,11.24,2.84,16.89.25,1.74.32,3.49.61,5.2A52.29,52.29,0,0,1,306.41,631a20.73,20.73,0,0,0,1,7.78,8.21,8.21,0,0,1,.22,1.43,49.25,49.25,0,0,0,.93,5.43c1,3.65,2.21,7.24,3.37,10.85a10,10,0,0,0,1.07,1.63,28.93,28.93,0,0,1,1.2-11.88,22.42,22.42,0,0,0,1.06-8.35c-.16-2.52-.4-5-.67-7.54-.19-1.73-.41-3.47-.74-5.17a33,33,0,0,1,.08-9.86,64.86,64.86,0,0,0,1.27-6.56c.35-3.39.53-6.79.64-10.19s-.32-6.71.15-10c.4-2.83.32-5.63.48-8.44a30.9,30.9,0,0,0-2-12,85.52,85.52,0,0,1-2.95-10.35,14.23,14.23,0,0,1,.48-7.15,6.2,6.2,0,0,1,1.62-2.38c1-1.07,1.9-1.08,3.11-.24C317.21,548.37,317.72,548.76,318.23,549.14ZM178.32,279.6c0,1.37,0,2.15,0,2.92a58.14,58.14,0,0,0,2.3,13.56,13.32,13.32,0,0,0,2,3.9c3,4.12,6.28,8,11.18,10.1a5,5,0,0,1,.76.46c4.36,3,9.33,4,14.46,4.14a158.6,158.6,0,0,0,17.3-.4,74,74,0,0,0,13.59-2.14,16.46,16.46,0,0,1,2.31-.42,41.89,41.89,0,0,0,12.18-3c4.69-2.08,8.76-4.7,9.89-10.32a7.28,7.28,0,0,0-2-7.17,54.66,54.66,0,0,0-5.45-4.86,13.78,13.78,0,0,0-6.39-2.74c-3.19-.51-6.4-.88-9.61-1.15a13.22,13.22,0,0,0-4,.39,34.64,34.64,0,0,0-9.14,3.11c-4.58,2.52-9.62,4.38-13.2,9-1.08-1.89-2.83-1.46-4.43-1.3a16.31,16.31,0,0,1-6.37-.6,40.63,40.63,0,0,0-4.85-1.14,17.14,17.14,0,0,1-6.26-2.43c-3.15-2-6.22-4.07-9.28-6.16C181.78,282.25,180.34,281.1,178.32,279.6Zm92.74,14c2.57.45,4.88.78,7.16,1.26,3.25.69,6.48,1.45,9.71,2.25a21,21,0,0,0,7,.25c1.36-.11,2.72-.3,4.09-.32a47.5,47.5,0,0,0,15.79-2.77,15.19,15.19,0,0,1,5.71-1.18,11.17,11.17,0,0,0,5.58-1.56,95.59,95.59,0,0,0,17-11.43,20.35,20.35,0,0,1,2.16-1.51,1.35,1.35,0,0,1,1.85.29,4.78,4.78,0,0,1,.46.73l.47.63a13.25,13.25,0,0,0-1.4-6.85c-1-1.88-1.84-3.89-2.79-5.82-.24-.47-.31-1.16-1.42-1.24l-.51.78a12.84,12.84,0,0,1-6.14,4.81c-1.08.47-2.12,1-3.22,1.42-4.58,1.63-9,3.89-14.2,2.88-2.63,4.52-5.09,9-8.47,12.77l.59,1.3A4.49,4.49,0,0,1,306,291.4a20.36,20.36,0,0,1-6.45-2.74c-2.52-1.67-5-3.41-7.45-5.1-6,2.22-11.91,2.74-18,0C273.07,286.87,272.1,290.11,271.06,293.63Zm87.21,28.42a11.63,11.63,0,0,0-1.71-7.49,13.63,13.63,0,0,1-.83-1.87c-1.29-2.95-3.64-4.75-6.44-6.11a9.53,9.53,0,0,0-7.91-.56,13.24,13.24,0,0,1-5.74.92,2.05,2.05,0,0,0-1.38.32c-1.64,1.5-3.7,2.57-4.76,4.68-.57,1.13-1.31,2.17-1.9,3.3a32.58,32.58,0,0,0-3.36,9c-.47,2.5-.65,5.07,1.36,7.18a21.22,21.22,0,0,0,8.72,5.74,11.85,11.85,0,0,0,8,.13,19.83,19.83,0,0,1,2.21-.75,20.39,20.39,0,0,0,11-7.29C357.44,327.05,358.71,324.8,358.27,322.05Zm-84.86-9.62a12.21,12.21,0,0,0-2.43,0,8.16,8.16,0,0,0-3,1,14.59,14.59,0,0,0-5.5,6.31c-.88,2.17-1.91,4.28-2.63,6.51a20.21,20.21,0,0,0-.17,10.13,3.49,3.49,0,0,0,2,2.71c3.14,1.35,6.26,2.74,9.42,4a5.9,5.9,0,0,0,4.85,0,21,21,0,0,0,10.61-10.07c1.68-3.52,1.39-7.1.4-10.85a11.6,11.6,0,0,0-6.49-7.82C278.26,313.36,276.06,311.89,273.41,312.43Zm-4-11.38a42.14,42.14,0,0,0,15,4.91c5,.7,10,.35,14.95.65,6.14.38,12.07-.94,18.06-1.69,4.88-.62,9.4-2.61,13.82-4.73a23.66,23.66,0,0,0,3.47-2.17c2.31-1.65,4.57-3.37,6.86-5a18.09,18.09,0,0,0,4.81-5.09c1.26-2.05,1.4-4.23.83-7a19.72,19.72,0,0,1-5.7,6.42A82.5,82.5,0,0,1,328,296a16.75,16.75,0,0,1-7.84,2.18,8.86,8.86,0,0,0-3.14.57c-9.15,3.58-18.73,3.68-28.34,3.54a2.84,2.84,0,0,1-.58-.05c-6.19-1.33-12.41-2.58-17.92-6.54Zm51.37-28.49c4.66-.48,17.14-6.12,20.87-9.46-1.27-2.81-2.5-5.67-3.84-8.49s-1.92-5.85-3.41-8.78c-4.67,8.91-9.2,17.56-13.72,26.22C320.67,272.17,320.8,272.39,320.83,272.56Zm-44.63-4.9c-.48,4.12-.95,8.12-1.41,12.07,4.55,1.38,11,1.32,14.15-.08a4.38,4.38,0,0,0-2.29-3.17,65.64,65.64,0,0,1-5.29-4.11C279.66,270.92,278.06,269.36,276.2,267.66Zm24.12,105.49a2.52,2.52,0,0,0-.72,2.92A2.53,2.53,0,0,0,300.32,373.15Zm20.79-124.31.15,2.31C322.32,250.53,322.32,250.53,321.11,248.84ZM302.47,363.75c0,.35-.08.62-.09.88,0,.07.12.15.18.22a3.16,3.16,0,0,0,.27-.7C302.85,364.07,302.65,363.94,302.47,363.75Z"/><path class="cls-2" d="M128.83,612.84a10.78,10.78,0,0,1,.6-1.73c.94-1.71,1.87-3.43,2.92-5.07a20.45,20.45,0,0,0,3.12-9,65.87,65.87,0,0,0,.56-7.28,8.83,8.83,0,0,0-.06-1.46,3.38,3.38,0,0,0-4.24-2.89,31.65,31.65,0,0,0-7.17,2.46c-4.5,1.87-9,3.84-13.45,5.76a2.08,2.08,0,0,1-.57.06c-.55-.46-.18-.86.14-1.2,5.58-6.14,10.6-12.74,15.73-19.26,3.5-4.44,7.13-8.78,10.69-13.17a129.86,129.86,0,0,0,11.28-16.36c4.52-7.77,9-15.57,13.44-23.35.14-.26.28-.52.41-.78,4.22-8.27,8.47-16.53,12.64-24.83.73-1.46,1.08-3.11,1.71-4.64a7.6,7.6,0,0,0-.14-5.7c-.13-.36-.29-.71-.49-1.17l3.18-5.23a8.67,8.67,0,0,0,1.54-5.24,4.08,4.08,0,0,0-4.58-3.81c-1.9.29-3.77.79-5.8,1.23a4.7,4.7,0,0,1,1.05-4c1.71-2.2,2.27-4.77,2.74-7.32,1.26-6.74,3.73-13.09,5.92-19.54,1.73-5.07,3.45-10.15,5-15.29a27.5,27.5,0,0,0,1-7.2,117.22,117.22,0,0,1,.69-12.86,100.15,100.15,0,0,0,.45-10.23c.08-2.74-.68-5.4-.89-8.11-.35-4.56-1.77-9-1.55-13.63.11-2.51-.32-5.05-.46-7.57-.07-1.14-.32-2.32.85-3.22.29-.21.26-1.14.07-1.63-1.13-2.91-1.06-6-.88-9,.17-2.8.65-5.59,1-8.39.19-1.54.42-3.08.58-4.63.26-2.52.54-5,.68-7.56.25-4.38.37-8.78.63-13.16a23.09,23.09,0,0,1,.75-3.47,20.08,20.08,0,0,1,4.91,2.43,17.43,17.43,0,0,0,7.58,2.89,2.2,2.2,0,0,1,.58.06c3.76,1.43,7.69,1.17,11.59,1.16,3.13,0,6.27.09,9.4-.06,4.57-.22,9.13-.61,13.66-1.24a11.07,11.07,0,0,0,2.25-.63,47.94,47.94,0,0,1,8.57-1.68,35.43,35.43,0,0,0,4.54-1,59.19,59.19,0,0,0,5.82-1.93,18.71,18.71,0,0,0,6.42-4c1.38-1.39,2.77-2.76,4.22-4.19a6.35,6.35,0,0,1,2.51,1.74c-.28.26-.42.5-.55.5-2.78,0-4.41,1.81-6.06,3.64-.26.28-.35.74-.62,1-2.48,2.19-4,5-5.47,7.91-1.77,3.4-3.22,6.87-3.12,10.81.06,2.43-.12,4.85.56,7.27a8.22,8.22,0,0,0,4.54,5.43,77.46,77.46,0,0,0,9.75,4c4.46,1.43,8.82,1.19,12.83-1.69a27.65,27.65,0,0,0,9.52-10.88,16.92,16.92,0,0,0,.76-12.81c-.82-2.46-1.25-5.16-3.15-7.18-.9-1-1.79-1.95-2.91-3.18a16,16,0,0,1,3.27,0c3.3.76,6.62.33,9.93.46l3.07.15a39.56,39.56,0,0,1-.19,6.84,23.76,23.76,0,0,0-.3,2.9c0,3.53-.07,7.05,0,10.58A53,53,0,0,1,300.67,344a5.24,5.24,0,0,0-.08.88,83.63,83.63,0,0,1-3.11,19.26c-1.84,7.16-3.86,14.27-5.93,21.37a129.68,129.68,0,0,0-3.2,13.32,56.68,56.68,0,0,0-.66,8.14c-.12,3.33-.05,6.66-.06,10,0,4-.66,7.95-1.05,11.91-.27,2.82-.11,5.68-.15,8.52,0,1.54,1.3,2,2.33,3-.17.79-.38,1.62-.5,2.47q-.6,4-1.15,8.08a8.62,8.62,0,0,0,0,.88c-.09,3.5.62,4.51,4.05,5.55a4.31,4.31,0,0,1,0,1.34c-.78,2.49-.54,5-.57,7.57a92.42,92.42,0,0,0,.09,10c.56,5.56.18,11.15.66,16.68a107.74,107.74,0,0,0,1.44,12.74c.77,3.7,1,7.52,1.38,11.29.38,3.58.9,7.16,1,10.74a53.18,53.18,0,0,1-.24,10.24,42.1,42.1,0,0,0-.08,7.62c0,1.55.36,3.09.41,4.64.08,2.84-.21,5.71.14,8.51.64,5.07.11,10.18.63,15.21.61,5.88.25,11.73.38,17.58a51.21,51.21,0,0,0,1.06,9.86c.9,4.27,1.34,8.64,2,13,.53,3.55,1.08,7.1,1.62,10.66a9.08,9.08,0,0,1,.08,1.17c0,4.78.9,9.53.57,14.33-.17,2.51.84,4.12,3.42,4.71.54,2.09,1.05,4.16,1.62,6.22,1.34,4.87,2.72,9.73,4.08,14.6.24.84.45,1.69.65,2.54a9,9,0,0,1-.12,4.9c-.51,1.58-.2,2,1.32,2.67a17.13,17.13,0,0,0,1.51.82,14.82,14.82,0,0,0,2,.38,5.4,5.4,0,0,0,0-3.62,6.12,6.12,0,0,1,0-4,8.45,8.45,0,0,0,.33-2.29c0-1.86,0-3.73,0-5.59a45.28,45.28,0,0,1,2.16-15.54,14.71,14.71,0,0,0,.83-5.77,20.27,20.27,0,0,1,.31-2.88,8.73,8.73,0,0,0,0-2c-.5-3.56-1.24-7.1-1.54-10.67a40,40,0,0,1,.6-12.25,34.21,34.21,0,0,0,1-5.73c.16-3.61.92-7.17.68-10.8a60.47,60.47,0,0,1,0-6.17c0-1.16.31-2.31.4-3.47.11-1.56.15-3.12.22-4.68a40,40,0,0,0-2.25-14.36c-1.17-3.59-2-7.31-2.91-11a6.66,6.66,0,0,1,.22-1.82c.72.88,1.14,1.35,1.51,1.85.51.71.92,1.5,1.49,2.16a2.28,2.28,0,0,0,2.46.46c.87-.22,1.14-.92,1.27-1.77.41-2.81.87-5.6,0-8.41a2.24,2.24,0,0,1,0-.58c.1-5.25-1.46-10.18-2.77-15.17-1.14-4.32-2.26-8.66-3.06-13-.68-3.72-.78-7.55-1.35-11.3-.67-4.41-1.49-8.81-2.4-13.19-1.23-5.89-2.81-11.72-3.86-17.64a83.77,83.77,0,0,1-1.38-12.47c-.08-3.1-.77-6.17-1-9.27a48.55,48.55,0,0,0-1.9-9.73c-.48-1.77-1.13-3.51-1.77-5.25a30.77,30.77,0,0,1-1.83-10.89c0-2.62-.31-5.25-.46-7.87a23.85,23.85,0,0,1,.91-8.1c.56-2,.08-3.44-1.83-3.94a1.71,1.71,0,0,1-1.33-1.72c-.06-4.6-.11-9.2,0-13.79.09-2.31.67-4.61,1-6.92a3,3,0,0,1,.75-2.13,11.49,11.49,0,0,0,2.68-4.83,80.66,80.66,0,0,0,3.75-14.38,79.51,79.51,0,0,0,1-12.8c-.06-11.46,0-22.92,0-34.38a14.78,14.78,0,0,0-1-6.31,4.36,4.36,0,0,1-.13-1.24c3.25-.47,6.3-1.39,9.55-1.52a32.21,32.21,0,0,0,6.25-1.36c1-.25,2-.62,2.9-.91.68.46.23.8.11,1.1a4.4,4.4,0,0,1-.61,1,41.19,41.19,0,0,0-5,8.58,20.13,20.13,0,0,0-2.07,9,10.29,10.29,0,0,0,2.43,6.45,25.22,25.22,0,0,0,11.69,8,17.59,17.59,0,0,0,11.72.06c3.71-1.28,7.44-2.46,10.61-4.83a30,30,0,0,0,7.66-8.39,10.59,10.59,0,0,0,1.4-8.16c-.34-1.5-.55-3.05-.74-4.59a10.75,10.75,0,0,0-1.8-4.28,20.87,20.87,0,0,1-2.52-5.39,3.79,3.79,0,0,1,1.17-.24c2.31.33,4.63.59,6.89,1.12,3.1.73,6.22.52,9.34.57a26.57,26.57,0,0,0,7-.48c1.39-.35,2.93,0,4.39-.15a44,44,0,0,0,11.76-2c1.92-.69,3.92-1.14,5.86-1.78,3.7-1.23,7.37-2.51,11.05-3.77.55-.19,1.08-.46,1.64-.65,3.4-1.14,6.89-2,9.93-4.16a35.67,35.67,0,0,1,4.53,11.5,42,42,0,0,1,.5,13.13,53.89,53.89,0,0,0-.44,7.28A70.67,70.67,0,0,0,433,335a13.63,13.63,0,0,1,0,5.21q-1.3,6-2.45,12a6.29,6.29,0,0,0,.61,4.55,5.34,5.34,0,0,1,.65,1.31c1.24,5,4.4,8.86,7.39,13a6,6,0,0,1-.6,1.25c-2.48,3.06-3.93,6.73-6,10a3.92,3.92,0,0,0-.49,3.64,4.29,4.29,0,0,0-2.25,4.39c.1,1.85-.17,3.72.47,5.53a4.69,4.69,0,0,1,.09,1.46c0,4,.83,7.94,1.32,11.89.41,3.28,1.1,6.51,1.71,9.76s1.28,6.28,1.88,9.43c.76,4,1.52,8,2.2,12,1.79,10.64,3.61,21.28,6.56,31.67a80.09,80.09,0,0,0,6.14,16.1,114.08,114.08,0,0,0,8.59,13.25c3,4.09,6,8.18,8.79,12.41a20.46,20.46,0,0,1,3.33,10.29c-1.4.5-2.81.9-4.11,1.5a52,52,0,0,0-5.7,2.94c-2,1.24-2.37,2.71-1.29,4.73a22,22,0,0,0,2.22,3.07c2.36,3,4.8,5.89,7.13,8.9,2.75,3.53,4.16,7.7,5.32,12,.46,1.69.8,3.4,1.23,5.1a5.05,5.05,0,0,0,.61,1.64c1.71,2.4,2,5.19,2.33,8a9,9,0,0,0,1.93,4.19c1.8,2.4,3.48,4.91,5.31,7.53L484.28,585a2.44,2.44,0,0,0-.82,2.63,59.42,59.42,0,0,1,1,6.6,34.63,34.63,0,0,0,3.44,12.89,42.43,42.43,0,0,1,2.4,6.27,42,42,0,0,0,5,10.84,30.45,30.45,0,0,1,3.86,10.34c.93,4.27,1.32,8.66,2.89,12.78.83,2.18,1.69,4.37,2.73,6.46a14,14,0,0,1,1.47,7.37c-.11,1.38-.33,1.6-1.63,2-2.37.82-4.82.63-7.26.63a9.74,9.74,0,0,0-3.74.51,2.47,2.47,0,0,0-1.71,3.18c1,4.66,2,9.3,3.05,14a4.85,4.85,0,0,1-2.7,1c-4.53.6-9,1.51-13.65,1.31-3.19-.14-4.38,1.77-3.94,5a27.08,27.08,0,0,0,5,12,91.94,91.94,0,0,1,8.4,14.75A15.42,15.42,0,0,0,491,720a9.91,9.91,0,0,1,2.64,4.15,3.1,3.1,0,0,1-1,.15,32.21,32.21,0,0,0-6.28-1.26c-2-.09-4-.75-6-1-2.42-.3-4.83-.56-7.27-.71a117.51,117.51,0,0,1-17.6-2.43,18.57,18.57,0,0,1-3-1.11,20.37,20.37,0,0,0-6.76-1.69,3.62,3.62,0,0,1-.88-.06c-7-2.32-14.47-3-21.43-5.53-5.69-2-11.5-3.64-17.3-5.29-3.64-1-7.38-1.71-11.08-2.55l-.29,0c-2.87-.42-3.74.1-4.28,3-.5,2.67-1.21,5.41-1,8.07s0,5.65,1.25,8.3a16.21,16.21,0,0,1,.89,3.37c0,.14-.14.34-.31.7-.67-.3-1.35-.6-2-.91a28.14,28.14,0,0,0-3.14-1.5,41.9,41.9,0,0,1-10.72-5.21c-1.42-1-3-1.6-4.1-3.18-.65-.95-2.05-1.45-3.2-2s-3,.35-3.76,1.72c-1.21,2.22-2.23,4.55-3.25,6.87-.94,2.14-1.76,4.33-2.67,6.48-.1.23-.42.38-.69.61-1.81-1.62-3.62-3.21-5.37-4.85a10.28,10.28,0,0,1-1.44-1.83,23.73,23.73,0,0,0-3.52-4.29c-.77-.7-1.69-1.37-1.63-2.65a1.46,1.46,0,0,0-.57-.94c-4.1-3.17-6.88-7.45-9.58-11.74a141.8,141.8,0,0,0-11-15.14c-1.55-1.86-2.7-4-4.12-6a4.89,4.89,0,0,0-1.75-1.44,2.39,2.39,0,0,0-1.65-.11,11.11,11.11,0,0,0-6.2,4.12c-1.55,2.12-3.49,3.95-5.14,6-2.81,3.5-5.53,7.06-8.27,10.61-1.85,2.39-3.66,4.81-5.5,7.21-.77,1-1.6,2-2.31,3a5.52,5.52,0,0,1-1.8,1.86,4.86,4.86,0,0,0-1.67,1.61c-2.17,3.44-5.52,5.46-8.88,7.45-4.8,2.86-10.15,4.48-15.27,6.6-2.51,1-5.11,1.88-7.67,2.79-1.15.41-1.62.21-2.55-.79a14.4,14.4,0,0,0-2.12-1.94c-2.4-1.67-4.79-3.38-7.32-4.85a33,33,0,0,1-6.64-5.24,27.34,27.34,0,0,1-5.19-6.29,62.29,62.29,0,0,0-3.68-5.27c-1.14-1.7-2.19-3.46-3.27-5.2-.61-1-1.14-2-1.81-3A10.15,10.15,0,0,0,211,694.11c-3.55.59-7.06,1.38-10.6,1.95a17.56,17.56,0,0,1-2.06.09c-4,.2-8,.27-12,.65-2.5.23-5,.93-7.44,1.4-1.53.29-3.06.57-4.59.81a7.21,7.21,0,0,1-1.47,0c-3.09-.13-4.22-1.13-4.49-4.16s-.33-5.84-.65-8.75A45,45,0,0,0,165.45,675c-1.57-4.14-4.41-6.28-8.81-6.45-1.76-.07-3.53-.07-5.29,0a20.09,20.09,0,0,1-7.17-1.17,14.44,14.44,0,0,0-9.21,0,51.5,51.5,0,0,0-9.68,4,101.64,101.64,0,0,1-12.72,6,43.17,43.17,0,0,1-9.06,2.17,44.16,44.16,0,0,0-8,1.74,3.68,3.68,0,0,1-1.24-.07A34.31,34.31,0,0,1,99.85,669a166.16,166.16,0,0,0,11.74-17.48c3-5.23,6.26-10.34,9.44-15.49a15.25,15.25,0,0,1,1.8-2.29c2.79-3,5.66-5.94,8.39-9,1.36-1.53,2.46-3.28,3.7-4.9a6.48,6.48,0,0,0,1.08-4.75c-.11-1.23-.61-1.71-1.87-1.8-.78-.06-1.57,0-2.35,0s-1.37,0-2.06,0A4.63,4.63,0,0,1,128.83,612.84Zm294.26,40.41c.14-.65.26-.85.21-1a95.32,95.32,0,0,0-3.68-11.68c-4.17-10.61-8.1-21.31-11.39-32.24-2.67-8.85-5.12-17.76-7.17-26.78-1.32-5.78-2.45-11.6-3.77-17.38-1.43-6.25-2.92-12.49-4.51-18.71-1.31-5.09-2.67-10.17-4.23-15.18-1.73-5.59-3.66-11.11-5.58-16.64q-4.82-13.8-9.72-27.57c-.79-2.2-1.61-4.39-2.41-6.59-4-11.08-8-22.16-10-33.85a119.05,119.05,0,0,1-1.47-14.8c-.11-2.41.44-4.86.42-7.28-.07-9.58.57-19.16-.45-28.73-.41-3.88-1-7.72-1.62-11.55-.73-4.22-1.73-8.41-1.41-12.75a12.76,12.76,0,0,0,0-2.05,2.67,2.67,0,0,0-.39-.81c-.29.22-.59.33-.7.53a10.93,10.93,0,0,0-1.23,4.77,50.68,50.68,0,0,0,.58,7.28c.34,2.41.38,4.86.76,7.26a62.85,62.85,0,0,1,1.08,11c0,2,.06,3.92,0,5.88-.18,7.72.27,15.44-.51,23.16a37.74,37.74,0,0,0,.36,10.22c.48,2.78.32,5.66.82,8.43a159.28,159.28,0,0,0,5.43,21.18q4,12.24,8.45,24.3c3.22,8.78,6.23,17.65,9.26,26.5a332.7,332.7,0,0,1,9.81,33c1.54,6.73,3,13.47,4.62,20.19,1.49,6.34,3.07,12.66,4.61,19,2.09,8.61,4.42,17.15,7.09,25.59,1.36,4.27,2.85,8.51,4.46,12.69,1.71,4.45,3.57,8.86,5.49,13.23A60.87,60.87,0,0,0,423.09,653.25Zm-199.76-304c-.46,1.45-1.19,2.6-.53,4.05a5.22,5.22,0,0,1,.14,1.74c.14,3,.12,6,.48,9.06a130.78,130.78,0,0,1,.71,13.44c.1,7.15.08,14.3,0,21.45-.05,3.31-.41,6.62-.63,9.92a5.4,5.4,0,0,1-.09.58c-.52,3.06-1.18,6.11-1.53,9.2-.58,5.23-1.75,10.34-2.79,15.48s-2.13,10.48-3.16,15.72c-.87,4.39-1.75,8.77-2.51,13.18-.81,4.69-1.49,9.4-2.21,14.11-.27,1.73-.49,3.46-.72,5.2-.55,4-1.11,8.08-1.61,12.13-.27,2.22-.41,4.46-.65,6.69-.34,3.28-.79,6.56-1,9.86s-.11,6.42-.53,9.64-.4,6.41-.59,9.62c-.46,7.71-.52,15.43-.69,23.15-.08,3.43,0,6.86,0,10.29a12.75,12.75,0,0,0,.15,1.37c.79-3.27,1-6.57,1.7-9.78,1.08-5.16,1.5-10.39,2.13-15.6.49-4.14.88-8.32,1.18-12.49.35-4.76.69-9.51,1.22-14.26.35-3.1.46-6.22.69-9.33,0-.39.08-.78.13-1.16.33-2.51.68-5,1-7.51.26-2.13.41-4.27.72-6.39.49-3.36,1.1-6.71,1.6-10.07s.78-6.57,1.32-9.83c.89-5.37,1.87-10.72,2.88-16.07.86-4.58,1.84-9.14,2.73-13.72.85-4.38,1.74-8.77,2.47-13.18s1.24-8.85,1.89-13.28a92.29,92.29,0,0,0,1.11-13.38c0-6.27,0-12.54-.06-18.81-.05-3.31-.34-6.62-.61-9.92-.15-1.84-.49-3.66-.74-5.49q-.5-3.75-1-7.52c-.23-1.83-.35-3.68-.68-5.5A3.29,3.29,0,0,0,223.33,349.26ZM369.58,663.62c-.69-3.09-1.54-6-1.95-9-.69-5-1-10.06-1.86-15-.49-2.77-1-5.54-1.54-8.3-1-4.77-2.71-9.35-3.33-14.19a6.56,6.56,0,0,0-.5-2,2.28,2.28,0,0,0-1.13-1.12c-.23-.09-.9.42-1,.78a10.19,10.19,0,0,0-.67,2.81,25.34,25.34,0,0,0,1,8.08,192.83,192.83,0,0,1,3.63,19.18,113.49,113.49,0,0,0,2.47,12.57,14.15,14.15,0,0,0,3.13,5.56A1.4,1.4,0,0,0,369.58,663.62ZM232.72,671.1a7.63,7.63,0,0,0,2.58-4,44.82,44.82,0,0,0,2-8.8c.6-3.74,1.44-7.44,2.15-11.16.76-4,1.5-8,2.25-12,.78-4.2,1.6-8.39,2.35-12.6.12-.69.39-1.56-.54-2.08-.28.18-.63.28-.73.5a32.69,32.69,0,0,0-2.12,4.78c-1,3.45-1.86,7-2.65,10.46-1.47,6.54-3,13.05-4,19.71-.65,4.51-1.46,9-2,13.53C232,669.84,232.41,670.35,232.72,671.1Zm-41.08-37.94c.25-.77.54-1.57.78-2.39,1.18-4.2,2.24-8.45,3.56-12.61,1.41-4.44,3.09-8.8,4.6-13.21.47-1.38.82-2.8,1.15-4.21.13-.56.15-1.3-.54-1.48a2.52,2.52,0,0,0-1.63.26c-.38.2-.58.74-.87,1.13a34.26,34.26,0,0,0-3.89,7.83,109.62,109.62,0,0,0-5.15,15.77,18.89,18.89,0,0,0-.75,6.36C189.07,632.29,189.53,632.79,191.64,633.16Zm209.64-259.9a2,2,0,0,0,.93-2,42.93,42.93,0,0,0-.5-8.46c-.64-3.44-1.35-6.86-2.29-10.23-1.66-5.9-3.25-11.82-4.93-17.71a47.7,47.7,0,0,0-1.79-4.94,1.07,1.07,0,0,0-.94-.42c-.27.06-.53.5-.63.82a2.67,2.67,0,0,0,0,1.16c1,5.74,2.21,11.45,3.65,17.11a129.45,129.45,0,0,1,3.44,15.35,60,60,0,0,0,1.63,6.8A4.35,4.35,0,0,0,401.28,373.26ZM237.59,551.85l.62,0a5.25,5.25,0,0,0,.6-1.24c.46-2.28.8-4.59,1.32-6.85A131.85,131.85,0,0,0,243,523.32c0-.67.24-1.34.34-2a15.12,15.12,0,0,0-.08-5.68c-.54.17-1.13.19-1.32.47a4.83,4.83,0,0,0-.75,1.88c-.61,3.33-1.17,6.68-1.71,10-.5,3.06-.79,6.17-1.45,9.2a50.34,50.34,0,0,0-.92,12.78A8.41,8.41,0,0,0,237.59,551.85Zm214,122.27c-3-5.8-5.9-11.41-7.75-17.48a16.85,16.85,0,0,0-2-3.9,1.69,1.69,0,0,0-1.48-.55,1.73,1.73,0,0,0-1,1.19,7.1,7.1,0,0,0,.22,2.59,82.78,82.78,0,0,0,4.91,12.78,10.1,10.1,0,0,0,5.73,5.52C450.5,674.41,451,674.19,451.54,674.12ZM331,438.6l.46-.35c-.32-2.29-.74-4.56-.92-6.85-.31-4-.43-8-.7-12-.14-2.11-.41-4.21-.63-6.46l-1.89-.09a17.56,17.56,0,0,0-.82,2.27,8.23,8.23,0,0,0-.11,2c.1,4.08-.23,8.17.45,12.26a24.76,24.76,0,0,0,1.31,5.35A11.15,11.15,0,0,0,331,438.6ZM441.92,579a3.86,3.86,0,0,0-.14-3c-1.47-3.29-2.86-6.61-4.35-9.89s-3.08-6.53-4.62-9.79a6.84,6.84,0,0,0-.67-1.29c-.22-.26-.75-.6-.91-.51a1.64,1.64,0,0,0-.79,1,8.7,8.7,0,0,0,.59,4.29c2.43,5.32,4.79,10.67,7.15,16a6.22,6.22,0,0,0,2.36,2.92A4,4,0,0,0,441.92,579Z"/><path class="cls-3" d="M301.13,264.11c-3.75-.59-7.59-.62-11.26-1.81a16.81,16.81,0,0,1-3.92-1.78c-.25-2.17-.45-4.21-.75-6.23a19.73,19.73,0,0,0-.83-3.41,2.15,2.15,0,0,0-2-1.5,2.21,2.21,0,0,0-2.1,1.34,8,8,0,0,0-.81,5.33c-.77-.8-1.22-1.23-1.63-1.69-2.72-3.07-5.46-6.12-8.13-9.22a7.2,7.2,0,0,1-1.11-2,168.16,168.16,0,0,1-7.77-25.5,12.37,12.37,0,0,1-.18-4.07c.33-2.81.85-5.6,1.34-8.39a93.71,93.71,0,0,1,4.68-15.72l15.6-43c.3-.83.67-1.63.93-2.47,1.06-3.43,3.52-5.8,6.12-8,.12-.11.35-.08.52-.11,3,5.29,7.51,9.19,12,13.08,5.19,4.5,11.05,8.09,16.69,12A150.33,150.33,0,0,1,340.38,179a83.85,83.85,0,0,1,10.83,13.85,14.17,14.17,0,0,1,.77,1.49,2,2,0,0,1-.29.61c-2.37,2.22-3.51,5.13-4.58,8.08-5.05,13.9-11.44,27.22-17.92,40.49a11.58,11.58,0,0,1-3.79,4c-.43-.79-.77-1.48-1.18-2.14a4,4,0,0,0-2.58-1.81,3,3,0,0,0-3.44,1.6,5.69,5.69,0,0,0-.46,3.72c.27,1.53.54,3.06.85,4.78-.94.66-1.86,1.38-2.85,2-3.66,2.24-7.35,4.43-11,6.65l-1.16,0a18,18,0,0,1-.83-8.07,44.14,44.14,0,0,0-.08-7.62c-.05-1.36-.25-2.72-.31-4.09-.33-8.22-.84-16.42-1.82-24.59-.15-1.26-.38-2.51-.56-3.77a162.36,162.36,0,0,1-1.2-16.34,36.49,36.49,0,0,0-1.45-8.06,81.36,81.36,0,0,1-2.1-14.21c-.59-7.41-1.12-14.83-1.84-22.23a91.09,91.09,0,0,0-1.62-9.55,13.61,13.61,0,0,0-2.18-5.28c-.94-.08-1.14.57-1.16,1.1a31.63,31.63,0,0,0,0,6.15,148.17,148.17,0,0,1,1.25,17c.21,5.67.6,11.33,1,17a50.64,50.64,0,0,0,4.45,17.54,7.85,7.85,0,0,1,.69,3.4c0,4-.1,8,.14,12,.5,7.91.79,15.84,1.25,23.75.22,3.71.63,7.4,1,11.1a16.82,16.82,0,0,0,.71,3.44,14.77,14.77,0,0,1,.66,4,22.22,22.22,0,0,0,.76,3.71c.38,1.78,1.31,3.48.81,5.39Zm-14.46-37.78c3.11-.07,4.17-1.92,2.82-4.52a20.11,20.11,0,0,1-1-2.1,16,16,0,0,0-3.11-5.26,112.53,112.53,0,0,1-9-11.47,24.06,24.06,0,0,0-2.5-2.85c-1.37-1.42-2.65-1.45-4.29.17a6.6,6.6,0,0,0-1,7.3c.3.61.49,1.27.78,1.88.54,1.14,1,2.3,1.68,3.38.94,1.59,2,3.09,3,4.67a12.93,12.93,0,0,0,3.36,4c1.19.84,2.37,1.71,3.55,2.57A11,11,0,0,0,286.67,226.33Zm22-7.11c0,3.67,1.59,4.71,3.94,3.31a17.21,17.21,0,0,0,3.59-2.95c1.41-1.47,2.66-3.11,3.93-4.71a32.15,32.15,0,0,0,6.06-11.9,3,3,0,0,0-1.17-3.59,26.58,26.58,0,0,0-3.3-1.85c-1.83-.94-2.44-.82-3.76.71-.32.37-.59.78-.88,1.18a57.53,57.53,0,0,0-7.14,15C309.3,216.24,308.92,218.16,308.65,219.22Z"/><path class="cls-4" d="M351.83,273.78a29,29,0,0,1,2.53-3.14c6.1-5.76,13.15-9.35,21.73-9.7a26.61,26.61,0,0,1,10.56,2,67.36,67.36,0,0,1,9.86,4.49c1.47.84,2.89,1.09,4.35-.11a2.87,2.87,0,0,1,1.59-.49,18.83,18.83,0,0,0,7.54-2.24c4.17-2.16,8.34-4.31,12.49-6.49a56.78,56.78,0,0,0,10-7.2c3.21-2.71,6.23-5.65,9.35-8.47,1.95-1.77,3.92-3.51,6-5.38.32.84.63,1.45.8,2.1a29.91,29.91,0,0,1,.57,10.5c-.32,3.11-.76,6.21-1,9.32a22,22,0,0,1-3,9.72c-1.43,2.34-2.74,4.75-4,7.17a43.68,43.68,0,0,1-5.39,7.3c-2.47,2.94-5.84,4.56-9.08,6.37a44.32,44.32,0,0,1-9.13,4c-1.59.46-3.15,1-4.71,1.62a80.53,80.53,0,0,1-12,3.71,30.57,30.57,0,0,0-3.91,1.24,20.89,20.89,0,0,1-6,1.13c-3.62.15-7.24.36-10.84.7a73.82,73.82,0,0,1-12-.26c-1.37-.09-2.72-.29-4.08-.5a7.27,7.27,0,0,1-2.54-.59c-2.78-1.67-5.36-3.6-6.94-6.56a9.38,9.38,0,0,1-1.38-5.58,8.52,8.52,0,0,0-1.08-5.1,5.93,5.93,0,0,1-.51-2.25c0-.33.14-.93.37-1,1.62-.63,1.06-1.93.91-3A23,23,0,0,0,351.83,273.78Z"/><path class="cls-5" d="M264.22,72.68c-2.16,3.37-4.38,6.71-6.46,10.14A175,175,0,0,0,245.9,107c-1.53,3.71-3.2,7.36-4.78,11-.43,1-.84,2-1.18,3a29.9,29.9,0,0,1-3.26,6.88,19.17,19.17,0,0,0-2.9,7.3c-.4,2.41-.88,4.81-1.47,7.18a5,5,0,0,0,1.8,5.5,26.93,26.93,0,0,0,3,2.31,140.66,140.66,0,0,0,14.4,7.27,3.5,3.5,0,0,0,.83.27c4.43.77,8.85,1.55,13.28,2.27a5.56,5.56,0,0,0,4.23-.65,6.9,6.9,0,0,1,2.38-.45c-4.83,13.12-10.21,25.71-14.27,39a6.71,6.71,0,0,1-1.9,0,80.76,80.76,0,0,1-12.1-4.42c-4.12-2-8.33-3.88-12.56-5.67a51.52,51.52,0,0,1-9.76-5.92,58,58,0,0,1-8.6-7.53,10.14,10.14,0,0,1-2.82-6.88,72.11,72.11,0,0,1,6.59-33.09,232,232,0,0,1,14.37-27.24,87.55,87.55,0,0,1,9-11.6c7.09-7.86,14.5-15.4,22-22.84a12.49,12.49,0,0,1,1.13-.91Z"/><path class="cls-6" d="M346.08,178.46a139.7,139.7,0,0,0-23-19.89,12.84,12.84,0,0,1,.88-1c2.23-2.2,4.57-4.29,6.7-6.58,6.12-6.6,12.31-13.14,17.84-20.27a9.41,9.41,0,0,0,1.9-4.74c1-7-.53-13.64-2.07-20.3a42.09,42.09,0,0,0-2.4-6.6c-1.58-3.79-3.21-7.56-4.92-11.29a19,19,0,0,0-2.08-3.17c-1.91-2.59-3.75-5.26-5.84-7.71a67.74,67.74,0,0,0-6.53-6.7,52.94,52.94,0,0,0-5.77-4,8.76,8.76,0,0,1-3-2.48,39.06,39.06,0,0,1,14.36,1.84c2.18.76,4.3,1.82,6.75,1.64a2.81,2.81,0,0,1,1.75,1,77.41,77.41,0,0,1,5.44,5.73c3.53,4.31,6.83,8.81,10.39,13.1,3.28,3.94,5.74,8.4,8.47,12.69s5.37,8.64,7.79,13.11A73.79,73.79,0,0,1,379.47,129a6.36,6.36,0,0,1-1.22,6.27,16,16,0,0,0-2.31,3.7,45,45,0,0,1-6.45,9.77c-2.79,3.4-5.5,6.86-7.95,10.52a93.27,93.27,0,0,1-10.27,12.43,22.31,22.31,0,0,0-4.21,5.6A6.46,6.46,0,0,1,346.08,178.46Z"/><path class="cls-7" d="M318.23,549.14c-.51-.38-1-.77-1.54-1.14-1.21-.84-2.08-.83-3.11.24a6.2,6.2,0,0,0-1.62,2.38,14.23,14.23,0,0,0-.48,7.15,85.52,85.52,0,0,0,2.95,10.35,30.9,30.9,0,0,1,2,12c-.16,2.81-.08,5.61-.48,8.44-.47,3.27,0,6.65-.15,10s-.29,6.8-.64,10.19a64.86,64.86,0,0,1-1.27,6.56,33,33,0,0,0-.08,9.86c.33,1.7.55,3.44.74,5.17.27,2.51.51,5,.67,7.54a22.42,22.42,0,0,1-1.06,8.35,28.93,28.93,0,0,0-1.2,11.88,10,10,0,0,1-1.07-1.63c-1.16-3.61-2.35-7.2-3.37-10.85a49.25,49.25,0,0,1-.93-5.43,8.21,8.21,0,0,0-.22-1.43,20.73,20.73,0,0,1-1-7.78,52.29,52.29,0,0,0-1.06-10.12c-.29-1.71-.36-3.46-.61-5.2-.8-5.65-1.73-11.28-2.84-16.89a37.58,37.58,0,0,1-.73-6.94c-.1-6.46,0-12.92-.06-19.38a42.53,42.53,0,0,0-.45-7.87c-.44-2.27.09-4.7-.17-7-1.08-9.75-.27-19.53-.57-29.29-.06-1.84-.4-3.66-.53-5.5a46.7,46.7,0,0,0-.46-5.51c-.37-2-.31-4-.71-6.07s-.68-4.2-1-6.3a45.81,45.81,0,0,1-.74-5.18c-.18-4.38-.86-8.72-.7-13.13a71,71,0,0,0-.51-7.26c-.16-2.52-.14-5-.45-7.57a30.43,30.43,0,0,1,.25-9c.46-2.57.68-5.18,1.27-7.74.4-1.74-.81-3.1-2.67-3.38-.37,0-.74-.12-1.33-.23a26.83,26.83,0,0,1,0-4.4c.69-4.11,1.08-8.27,2.5-12.23a19.13,19.13,0,0,0,.56-2.26c.41-1.88-.3-2.91-2.19-3.2-.38-.06-.76-.09-1.24-.15a8.27,8.27,0,0,1-.1-4.62,18,18,0,0,0,.41-4.05c.21-6.14.81-12.27.64-18.42a11.22,11.22,0,0,1,.95-4,11.11,11.11,0,0,1,.16,1.4c0,1.86-.06,3.72,0,5.58.14,3.2.36,6.41.62,9.6a2.41,2.41,0,0,0,.71,1.53c1.06.89,1,2,1,3.21,0,3.92,0,7.84,0,11.75a28.47,28.47,0,0,0,1.64,9.71A76.22,76.22,0,0,1,301.34,452c.4,2.28.76,4.57,1,6.88.44,3.47.18,7,1,10.42a4.58,4.58,0,0,1,.07,1.17c-.05,2.74.64,5.38,1,8.06.74,5,2.13,9.85,3.11,14.79.9,4.55,2,9.08,2.83,13.64.4,2.09.45,4.25.7,6.36.14,1.16.37,2.3.58,3.44a147.14,147.14,0,0,0,4.39,19,33.66,33.66,0,0,1,2.06,10.52C318.17,547.17,319.27,548,318.23,549.14Z"/><path class="cls-3" d="M178.32,279.6c2,1.5,3.46,2.65,5,3.69,3.06,2.09,6.13,4.2,9.28,6.16a17.14,17.14,0,0,0,6.26,2.43,40.63,40.63,0,0,1,4.85,1.14,16.31,16.31,0,0,0,6.37.6c1.6-.16,3.35-.59,4.43,1.3,3.58-4.6,8.62-6.46,13.2-9a34.64,34.64,0,0,1,9.14-3.11,13.22,13.22,0,0,1,4-.39c3.21.27,6.42.64,9.61,1.15a13.78,13.78,0,0,1,6.39,2.74,54.66,54.66,0,0,1,5.45,4.86,7.28,7.28,0,0,1,2,7.17c-1.13,5.62-5.2,8.24-9.89,10.32a41.89,41.89,0,0,1-12.18,3,16.46,16.46,0,0,0-2.31.42,74,74,0,0,1-13.59,2.14,158.6,158.6,0,0,1-17.3.4c-5.13-.17-10.1-1.17-14.46-4.14a5,5,0,0,0-.76-.46c-4.9-2.07-8.15-6-11.18-10.1a13.32,13.32,0,0,1-2-3.9,58.14,58.14,0,0,1-2.3-13.56C178.28,281.75,178.32,281,178.32,279.6Z"/><path class="cls-8" d="M271.06,293.63c1-3.52,2-6.76,3-10.1,6.13,2.77,12.09,2.25,18,0,2.46,1.69,4.93,3.43,7.45,5.1A20.36,20.36,0,0,0,306,291.4a4.49,4.49,0,0,0,4.49-1.08l-.59-1.3c3.38-3.79,5.84-8.25,8.47-12.77,5.17,1,9.62-1.25,14.2-2.88,1.1-.4,2.14-.95,3.22-1.42a12.84,12.84,0,0,0,6.14-4.81l.51-.78c1.11.08,1.18.77,1.42,1.24.95,1.93,1.76,3.94,2.79,5.82a13.25,13.25,0,0,1,1.4,6.85l-.47-.63a4.78,4.78,0,0,0-.46-.73,1.35,1.35,0,0,0-1.85-.29,20.35,20.35,0,0,0-2.16,1.51,95.59,95.59,0,0,1-17,11.43,11.17,11.17,0,0,1-5.58,1.56,15.19,15.19,0,0,0-5.71,1.18A47.5,47.5,0,0,1,299,297.07c-1.37,0-2.73.21-4.09.32a21,21,0,0,1-7-.25c-3.23-.8-6.46-1.56-9.71-2.25C275.94,294.41,273.63,294.08,271.06,293.63Z"/><path class="cls-9" d="M358.27,322.05c.44,2.75-.83,5-2.68,7.23a20.39,20.39,0,0,1-11,7.29,19.83,19.83,0,0,0-2.21.75,11.85,11.85,0,0,1-8-.13,21.22,21.22,0,0,1-8.72-5.74c-2-2.11-1.83-4.68-1.36-7.18a32.58,32.58,0,0,1,3.36-9c.59-1.13,1.33-2.17,1.9-3.3,1.06-2.11,3.12-3.18,4.76-4.68a2.05,2.05,0,0,1,1.38-.32,13.24,13.24,0,0,0,5.74-.92,9.53,9.53,0,0,1,7.91.56c2.8,1.36,5.15,3.16,6.44,6.11a13.63,13.63,0,0,0,.83,1.87A11.63,11.63,0,0,1,358.27,322.05Zm-13.34,5.17c1.16.63,2.18,1.16,3.19,1.72a1.57,1.57,0,0,0,2.24-1.9c-.44-1.29-.93-2.56-1.43-3.83s-1-2.33-1.41-3.52a22.21,22.21,0,0,0-3.3-6.51,3.57,3.57,0,0,0-5.15-.79,13.62,13.62,0,0,0-2.41,2.13c-1.4,1.62-3.22,2.92-4.06,5s-3.06,3.28-3.92,5.41c-.22.54-.61,1-.88,1.52-.72,1.42-.76,2.2-.09,2.68,1,.71,1.84.24,2.71-.26,1.17-.67,2.35-1.32,3.6-2a23.68,23.68,0,0,1,3.2,5.44c.59,1.52,1.81,1.82,3,.73a35.53,35.53,0,0,0,3.12-3.48C343.91,328.83,344.34,328.08,344.93,327.22Z"/><path class="cls-10" d="M273.41,312.43c2.65-.54,4.85.93,7.09,2a11.6,11.6,0,0,1,6.49,7.82c1,3.75,1.28,7.33-.4,10.85A21,21,0,0,1,276,343.2a5.9,5.9,0,0,1-4.85,0c-3.16-1.29-6.28-2.68-9.42-4a3.49,3.49,0,0,1-2-2.71,20.21,20.21,0,0,1,.17-10.13c.72-2.23,1.75-4.34,2.63-6.51a14.59,14.59,0,0,1,5.5-6.31,8.16,8.16,0,0,1,3-1A12.21,12.21,0,0,1,273.41,312.43Zm-1.07,6.37-.58-.61c-.32-.45-.74-.69-1.23-.34a4.81,4.81,0,0,0-1.27,1.19c-1.51,2.35-3.74,4.29-4.25,7.26a4.12,4.12,0,0,1-.73,1.25c-.75,1.15-1.51,2.29-2.24,3.45a6.42,6.42,0,0,0-.79,1.54,1.56,1.56,0,0,0,2,2,13.46,13.46,0,0,0,2.12-1c.59-.28,1.17-.58,1.93-1,.72,1.47,1.3,2.8,2,4.06a1.71,1.71,0,0,0,2.92.38c.67-.7,1.19-1.55,1.81-2.31s1.1-1.27,1.54-1.77c1.45.72,2.63,1.4,3.88,1.89a1.31,1.31,0,0,0,1.82-1.28,8.16,8.16,0,0,0-.53-2.53c-.55-1.46-1.52-2.82-1.78-4.32-.62-3.5-3.21-5.47-5.48-7.71C273.22,318.82,272.71,318.88,272.34,318.8Z"/><path class="cls-11" d="M269.46,301.05l.75-5.31c5.51,4,11.73,5.21,17.92,6.54a2.84,2.84,0,0,0,.58.05c9.61.14,19.19,0,28.34-3.54a8.86,8.86,0,0,1,3.14-.57A16.75,16.75,0,0,0,328,296a82.5,82.5,0,0,0,13.51-8.78,19.72,19.72,0,0,0,5.7-6.42c.57,2.81.43,5-.83,7A18.09,18.09,0,0,1,341.6,293c-2.29,1.68-4.55,3.4-6.86,5a23.66,23.66,0,0,1-3.47,2.17c-4.42,2.12-8.94,4.11-13.82,4.73-6,.75-11.92,2.07-18.06,1.69-5-.3-10,.05-14.95-.65A42.14,42.14,0,0,1,269.46,301.05Z"/><path class="cls-9" d="M320.83,272.56c0-.17-.16-.39-.1-.51,4.52-8.66,9-17.31,13.72-26.22,1.49,2.93,2.08,6,3.41,8.78s2.57,5.68,3.84,8.49C338,266.44,325.49,272.08,320.83,272.56Z"/><path class="cls-9" d="M302.62,286.2a31.91,31.91,0,0,1-10-7.06c-2.66-2.72-5.06-5.69-7.56-8.56a4.07,4.07,0,0,1-.43-.71c.37-1.34.74-2.63,1.14-4.07,2.6.14,4.88,1.41,7.37,1.65s5,.44,7.79.69c.39,1.67.06,3.71.35,5.69s.51,3.87.79,5.8.63,4.05.95,6.07Z"/><path class="cls-11" d="M303.55,262.35l1.16,0a5.08,5.08,0,0,0-.12,1.16c.15,1.26.69,1.84,1.85,1.79a7.05,7.05,0,0,0,2.54-.55c1.77-.82,3.48-1.76,5.18-2.72,2.28-1.29,4.54-2.64,6.81-4l.38.39c-1.66,3.41-3.3,6.83-5,10.23q-3.84,7.71-7.73,15.4c-.08.16-.27.26-.45.43-.67,0-.55-.61-.63-1-.94-5.46-2-10.9-3.42-16.27A32.86,32.86,0,0,1,303.55,262.35Z"/><path class="cls-11" d="M276.2,267.66c1.86,1.7,3.46,3.26,5.16,4.71a65.64,65.64,0,0,0,5.29,4.11,4.38,4.38,0,0,1,2.29,3.17c-3.16,1.4-9.6,1.46-14.15.08C275.25,275.78,275.72,271.78,276.2,267.66Z"/><path class="cls-2" d="M353.4,302.35a10.06,10.06,0,0,1-2.2-.6,14.19,14.19,0,0,0-8.12-1.76,6.4,6.4,0,0,1-1.26-.11c.7-1.61,2.33-1.94,3.27-3s1.92-1.86,3.1-3c.87,1.61,1.54,3.06,2.39,4.41s1.92,2.66,2.89,4Z"/><path class="cls-12" d="M278.93,261.62l3.6,2.38c-.14.92-.25,1.64-.41,2.72a12.34,12.34,0,0,1-3.65-4.69Z"/><path class="cls-13" d="M264.22,72.68l-.89-.89a6.27,6.27,0,0,1,2.85-2.28C265.81,71,265.81,71,264.22,72.68Z"/><path class="cls-14" d="M301.72,368.15c0,1.3.24,2.67-1,3.83a4.11,4.11,0,0,1,1-3.83Z"/><path class="cls-14" d="M300.32,373.15a2.53,2.53,0,0,1-.72,2.92A2.52,2.52,0,0,1,300.32,373.15Z"/><path class="cls-15" d="M321.11,248.84c1.21,1.69,1.21,1.69.15,2.31Z"/><path class="cls-14" d="M301.72,368.15v-2.37c.53,1.42.53,1.42,0,2.37Z"/><path class="cls-14" d="M302.47,363.75c.18.19.38.32.36.4a3.16,3.16,0,0,1-.27.7c-.06-.07-.18-.15-.18-.22C302.39,364.37,302.43,364.1,302.47,363.75Z"/><path class="cls-2" d="M355.18,303.51l-1.17-.59,0,0,1.18.59Z"/><path class="cls-2" d="M357.59,305.8l.42.28-.5-.21Z"/><path class="cls-2" d="M357.51,305.87l-.39-.29.47.22Z"/><path class="cls-2" d="M355.22,303.48l.41.27-.45-.24Z"/><path class="cls-2" d="M353.47,302.29l.57.6,0,0-.61-.57Z"/><path class="cls-9" d="M303.06,285.7l.2.64-.64-.14Z"/><path class="cls-3" d="M301.14,264.1l.42.12c-.29.54-.32.06-.43-.11Z"/><path class="cls-12" d="M278.2,261.19l.73.43-.46.41-.23-.88Z"/><path class="cls-12" d="M277.63,260.6l.57.59,0,0-.58-.59Z"/><path class="cls-12" d="M277.66,260.56l-.2-.08.17.12Z"/><path class="cls-11" d="M321,258.08l.58-.27-.2.66Z"/><path class="cls-16" d="M423.09,653.25a60.87,60.87,0,0,1-6.77-11.36c-1.92-4.37-3.78-8.78-5.49-13.23-1.61-4.18-3.1-8.42-4.46-12.69-2.67-8.44-5-17-7.09-25.59-1.54-6.33-3.12-12.65-4.61-19-1.58-6.72-3.08-13.46-4.62-20.19a332.7,332.7,0,0,0-9.81-33c-3-8.85-6-17.72-9.26-26.5q-4.46-12.07-8.45-24.3a159.28,159.28,0,0,1-5.43-21.18c-.5-2.77-.34-5.65-.82-8.43a37.74,37.74,0,0,1-.36-10.22c.78-7.72.33-15.44.51-23.16,0-2,0-3.92,0-5.88a62.85,62.85,0,0,0-1.08-11c-.38-2.4-.42-4.85-.76-7.26a50.68,50.68,0,0,1-.58-7.28,10.93,10.93,0,0,1,1.23-4.77c.11-.2.41-.31.7-.53a2.67,2.67,0,0,1,.39.81,12.76,12.76,0,0,1,0,2.05c-.32,4.34.68,8.53,1.41,12.75.66,3.83,1.21,7.67,1.62,11.55,1,9.57.38,19.15.45,28.73,0,2.42-.53,4.87-.42,7.28a119.05,119.05,0,0,0,1.47,14.8c2,11.69,5.95,22.77,10,33.85.8,2.2,1.62,4.39,2.41,6.59q4.88,13.79,9.72,27.57c1.92,5.53,3.85,11,5.58,16.64,1.56,5,2.92,10.09,4.23,15.18,1.59,6.22,3.08,12.46,4.51,18.71,1.32,5.78,2.45,11.6,3.77,17.38,2.05,9,4.5,17.93,7.17,26.78,3.29,10.93,7.22,21.63,11.39,32.24a95.32,95.32,0,0,1,3.68,11.68C423.35,652.4,423.23,652.6,423.09,653.25Z"/><path class="cls-17" d="M223.33,349.26a3.29,3.29,0,0,1,1.88,2.59c.33,1.82.45,3.67.68,5.5q.48,3.76,1,7.52c.25,1.83.59,3.65.74,5.49.27,3.3.56,6.61.61,9.92.11,6.27,0,12.54.06,18.81a92.29,92.29,0,0,1-1.11,13.38c-.65,4.43-1.17,8.87-1.89,13.28s-1.62,8.8-2.47,13.18c-.89,4.58-1.87,9.14-2.73,13.72-1,5.35-2,10.7-2.88,16.07-.54,3.26-.84,6.56-1.32,9.83s-1.11,6.71-1.6,10.07c-.31,2.12-.46,4.26-.72,6.39-.31,2.5-.66,5-1,7.51-.05.38-.11.77-.13,1.16-.23,3.11-.34,6.23-.69,9.33-.53,4.75-.87,9.5-1.22,14.26-.3,4.17-.69,8.35-1.18,12.49-.63,5.21-1.05,10.44-2.13,15.6-.68,3.21-.91,6.51-1.7,9.78a12.75,12.75,0,0,1-.15-1.37c0-3.43-.07-6.86,0-10.29.17-7.72.23-15.44.69-23.15.19-3.21.17-6.45.59-9.62s.28-6.44.53-9.64.7-6.58,1-9.86c.24-2.23.38-4.47.65-6.69.5-4,1.06-8.09,1.61-12.13.23-1.74.45-3.47.72-5.2.72-4.71,1.4-9.42,2.21-14.11.76-4.41,1.64-8.79,2.51-13.18,1-5.24,2.1-10.48,3.16-15.72s2.21-10.25,2.79-15.48c.35-3.09,1-6.14,1.53-9.2a5.4,5.4,0,0,0,.09-.58c.22-3.3.58-6.61.63-9.92.09-7.15.11-14.3,0-21.45a130.78,130.78,0,0,0-.71-13.44c-.36-3-.34-6-.48-9.06a5.22,5.22,0,0,0-.14-1.74C222.14,351.86,222.87,350.71,223.33,349.26Z"/><path class="cls-16" d="M369.58,663.62a1.4,1.4,0,0,1-1.82-.59,14.15,14.15,0,0,1-3.13-5.56,113.49,113.49,0,0,1-2.47-12.57,192.83,192.83,0,0,0-3.63-19.18,25.34,25.34,0,0,1-1-8.08,10.19,10.19,0,0,1,.67-2.81c.14-.36.81-.87,1-.78a2.28,2.28,0,0,1,1.13,1.12,6.56,6.56,0,0,1,.5,2c.62,4.84,2.38,9.42,3.33,14.19.55,2.76,1,5.53,1.54,8.3.89,5,1.17,10,1.86,15C368,657.63,368.89,660.53,369.58,663.62Z"/><path class="cls-18" d="M232.72,671.1c-.31-.75-.75-1.26-.69-1.72.52-4.53,1.33-9,2-13.53,1-6.66,2.5-13.17,4-19.71.79-3.51,1.64-7,2.65-10.46a32.69,32.69,0,0,1,2.12-4.78c.1-.22.45-.32.73-.5.93.52.66,1.39.54,2.08-.75,4.21-1.57,8.4-2.35,12.6-.75,4-1.49,8-2.25,12-.71,3.72-1.55,7.42-2.15,11.16a44.82,44.82,0,0,1-2,8.8A7.63,7.63,0,0,1,232.72,671.1Z"/><path class="cls-17" d="M191.64,633.16c-2.11-.37-2.57-.87-2.74-2.55a18.89,18.89,0,0,1,.75-6.36,109.62,109.62,0,0,1,5.15-15.77,34.26,34.26,0,0,1,3.89-7.83c.29-.39.49-.93.87-1.13a2.52,2.52,0,0,1,1.63-.26c.69.18.67.92.54,1.48-.33,1.41-.68,2.83-1.15,4.21-1.51,4.41-3.19,8.77-4.6,13.21-1.32,4.16-2.38,8.41-3.56,12.61C192.18,631.59,191.89,632.39,191.64,633.16Z"/><path class="cls-19" d="M401.28,373.26a4.35,4.35,0,0,1-1.42-2.54,60,60,0,0,1-1.63-6.8,129.45,129.45,0,0,0-3.44-15.35c-1.44-5.66-2.61-11.37-3.65-17.11a2.67,2.67,0,0,1,0-1.16c.1-.32.36-.76.63-.82a1.07,1.07,0,0,1,.94.42,47.7,47.7,0,0,1,1.79,4.94c1.68,5.89,3.27,11.81,4.93,17.71.94,3.37,1.65,6.79,2.29,10.23a42.93,42.93,0,0,1,.5,8.46A2,2,0,0,1,401.28,373.26Z"/><path class="cls-19" d="M237.59,551.85a8.41,8.41,0,0,1-.5-1.86,50.34,50.34,0,0,1,.92-12.78c.66-3,1-6.14,1.45-9.2.54-3.35,1.1-6.7,1.71-10a4.83,4.83,0,0,1,.75-1.88c.19-.28.78-.3,1.32-.47a15.12,15.12,0,0,1,.08,5.68c-.1.67-.3,1.34-.34,2a131.85,131.85,0,0,1-2.85,20.46c-.52,2.26-.86,4.57-1.32,6.85a5.25,5.25,0,0,1-.6,1.24Z"/><path class="cls-18" d="M451.54,674.12c-.56.07-1,.29-1.39.15a10.1,10.1,0,0,1-5.73-5.52A82.78,82.78,0,0,1,439.51,656a7.1,7.1,0,0,1-.22-2.59,1.73,1.73,0,0,1,1-1.19,1.69,1.69,0,0,1,1.48.55,16.85,16.85,0,0,1,2,3.9C445.64,662.71,448.5,668.32,451.54,674.12Z"/><path class="cls-19" d="M331,438.6a11.15,11.15,0,0,1-2.85-3.78,24.76,24.76,0,0,1-1.31-5.35c-.68-4.09-.35-8.18-.45-12.26a8.23,8.23,0,0,1,.11-2,17.56,17.56,0,0,1,.82-2.27l1.89.09c.22,2.25.49,4.35.63,6.46.27,4,.39,8,.7,12,.18,2.29.6,4.56.92,6.85Z"/><path class="cls-19" d="M441.92,579a4,4,0,0,1-1.38-.22,6.22,6.22,0,0,1-2.36-2.92c-2.36-5.34-4.72-10.69-7.15-16a8.7,8.7,0,0,1-.59-4.29,1.64,1.64,0,0,1,.79-1c.16-.09.69.25.91.51a6.84,6.84,0,0,1,.67,1.29c1.54,3.26,3.12,6.51,4.62,9.79s2.88,6.6,4.35,9.89A3.86,3.86,0,0,1,441.92,579Z"/><path class="cls-20" d="M286.67,226.33a11,11,0,0,1-5.73-2.23c-1.18-.86-2.36-1.73-3.55-2.57a12.93,12.93,0,0,1-3.36-4c-1-1.58-2.06-3.08-3-4.67-.64-1.08-1.14-2.24-1.68-3.38-.29-.61-.48-1.27-.78-1.88a6.6,6.6,0,0,1,1-7.3c1.64-1.62,2.92-1.59,4.29-.17a24.06,24.06,0,0,1,2.5,2.85,112.53,112.53,0,0,0,9,11.47,16,16,0,0,1,3.11,5.26,20.11,20.11,0,0,0,1,2.1C290.84,224.41,289.78,226.26,286.67,226.33Z"/><path class="cls-21" d="M308.65,219.22c.27-1.06.65-3,1.27-4.81a57.53,57.53,0,0,1,7.14-15c.29-.4.56-.81.88-1.18,1.32-1.53,1.93-1.65,3.76-.71a26.58,26.58,0,0,1,3.3,1.85,3,3,0,0,1,1.17,3.59,32.15,32.15,0,0,1-6.06,11.9c-1.27,1.6-2.52,3.24-3.93,4.71a17.21,17.21,0,0,1-3.59,2.95C310.24,223.93,308.67,222.89,308.65,219.22Z"/><path class="cls-22" d="M344.93,327.22c-.59.86-1,1.61-1.58,2.28a35.53,35.53,0,0,1-3.12,3.48c-1.2,1.09-2.42.79-3-.73a23.68,23.68,0,0,0-3.2-5.44c-1.25.71-2.43,1.36-3.6,2-.87.5-1.75,1-2.71.26-.67-.48-.63-1.26.09-2.68.27-.52.66-1,.88-1.52.86-2.13,3-3.29,3.92-5.41s2.66-3.35,4.06-5a13.62,13.62,0,0,1,2.41-2.13,3.57,3.57,0,0,1,5.15.79,22.21,22.21,0,0,1,3.3,6.51c.42,1.19,1,2.34,1.41,3.52s1,2.54,1.43,3.83a1.57,1.57,0,0,1-2.24,1.9C347.11,328.38,346.09,327.85,344.93,327.22Zm-5.42,2.87c1.6-1.23,2.09-2.93,2.9-4.44a4.66,4.66,0,0,0-2.25-2.43l-3.46,2.28Zm1.43-16.43-2.1,2.57,2.55,2.81,2.33-1.27Zm-4.4,5c-1.59,2.38-1.59,2.38-.41,3.9l2.47-1.66Zm7.94,3.6v-1.5c-.31.09-.8.1-.89.3C343.25,321.71,343.62,322.08,344.48,322.24Z"/><path class="cls-23" d="M272.34,318.8c.37.08.88,0,1.11.25,2.27,2.24,4.86,4.21,5.48,7.71.26,1.5,1.23,2.86,1.78,4.32a8.16,8.16,0,0,1,.53,2.53,1.31,1.31,0,0,1-1.82,1.28c-1.25-.49-2.43-1.17-3.88-1.89-.44.5-1,1.12-1.54,1.77s-1.14,1.61-1.81,2.31a1.71,1.71,0,0,1-2.92-.38c-.7-1.26-1.28-2.59-2-4.06-.76.39-1.34.69-1.93,1a13.46,13.46,0,0,1-2.12,1,1.56,1.56,0,0,1-2-2A6.42,6.42,0,0,1,262,331c.73-1.16,1.49-2.3,2.24-3.45a4.12,4.12,0,0,0,.73-1.25c.51-3,2.74-4.91,4.25-7.26a4.81,4.81,0,0,1,1.27-1.19c.49-.35.91-.11,1.23.34C271.76,318.58,271.78,318.93,272.34,318.8Zm-1.18.68-1.61,3.19c.95.8,1.78,1.59,2.7,2.25s1.08.59,2.39-.58C273.53,322.79,271.38,321.91,271.16,319.48Zm2.26,11.41-1.06-1.53a3.12,3.12,0,0,0-2.43,1.71,9.09,9.09,0,0,0,.57,1.28,10.43,10.43,0,0,0,1,1.25Zm-5.54-5.16a2.08,2.08,0,0,0,1.11,2.36C269.7,326.93,269.7,326.93,267.88,325.73Z"/><path class="cls-24" d="M272.34,318.8c-.56.13-.58-.22-.58-.61Z"/><path class="cls-25" d="M339.51,330.09l-2.81-4.59,3.46-2.28a4.66,4.66,0,0,1,2.25,2.43C341.6,327.16,341.11,328.86,339.51,330.09Z"/><path class="cls-25" d="M340.94,313.66l2.78,4.11L341.39,319l-2.55-2.81Z"/><path class="cls-12" d="M336.54,318.64l2.06,2.24-2.47,1.66C335,321,335,321,336.54,318.64Z"/><path class="cls-15" d="M344.48,322.24c-.86-.16-1.23-.53-.89-1.2.09-.2.58-.21.89-.3Z"/><path class="cls-24" d="M271.16,319.48c.22,2.43,2.37,3.31,3.48,4.86-1.31,1.17-1.45,1.25-2.39.58s-1.75-1.45-2.7-2.25Z"/><path class="cls-24" d="M273.42,330.89l-1.93,2.71a10.43,10.43,0,0,1-1-1.25,9.09,9.09,0,0,1-.57-1.28,3.12,3.12,0,0,1,2.43-1.71Z"/><path class="cls-15" d="M267.88,325.73c1.82,1.2,1.82,1.2,1.11,2.36A2.08,2.08,0,0,1,267.88,325.73Z"/></svg>