<svg id="Layer_1" data-name="Layer 1" xmlns="http://www.w3.org/2000/svg" viewBox="0 0 144 108"><defs><style>.cls-1{fill:#1e1b1b;}.cls-2{fill:#181717;}.cls-3{fill:#b4b4b4;}.cls-4{fill:#b5b6b6;}</style></defs><path class="cls-1" d="M90.46,41.41a1.08,1.08,0,0,0-1-1c-1.8,0-3.61,0-5.41.14a11.84,11.84,0,0,0-2.48.55,1.53,1.53,0,0,0-1.05,1.12,7.42,7.42,0,0,0-.2,1.57c-.12,2.13-.16,4.26-.35,6.38-.35,3.7-.79,7.4-1.2,11.1a1.8,1.8,0,0,1-.11.62,1.4,1.4,0,0,1-.46.41s-.21-.09-.26-.17A17.56,17.56,0,0,1,77,60.44c-1-2.36-1.89-4.74-2.87-7.09a40.54,40.54,0,0,1-2.3-7A14.83,14.83,0,0,0,70.12,42a2.48,2.48,0,0,0-3.26-1.21,12.33,12.33,0,0,1-3.36,1c-1.07.06-1.62.5-1.87,1.81a13.85,13.85,0,0,0-.14,2.23,40.72,40.72,0,0,1-.11,4.14,92.42,92.42,0,0,0-.69,10.51q-.13,8-.17,16a11,11,0,0,0,.38,3.79,1.26,1.26,0,0,0,.58.66,6.25,6.25,0,0,0,2.08.67c1.48.06,3-.06,4.46-.13a1.52,1.52,0,0,0,1.28-1.24c.15-2,.28-4,.4-6,.1-1.59.19-3.19.28-4.78H71.2c.39,1,.8,2,1.18,3,.55,1.38,1.07,2.77,1.61,4.16.16.39.38.76.54,1.15,1.31,3.17,5,4.91,8.28,5,3.77.06,3.91-.92,4.31-3.73.22-1.58.39-3.16.71-4.73a37.2,37.2,0,0,0,.55-3.79A33,33,0,0,1,89,66.21a38.84,38.84,0,0,0,.71-5c.19-1.8.19-3.6.53-5.4A22,22,0,0,0,90.49,52c0-2.24,0-4.47,0-6.71C90.51,44,90.5,42.69,90.46,41.41Z"/><path class="cls-1" d="M50.11,64.28c0-3.63-.4-7.23-.49-10.85A79.94,79.94,0,0,0,48.49,43a31.41,31.41,0,0,0-.84-3.41,2.08,2.08,0,0,0-1.88-1.49,4.58,4.58,0,0,0-.64,0c-3.62,0-7.25.08-10.87.09a2.36,2.36,0,0,0-2.06,1.29,8.69,8.69,0,0,0-.63,1.46c-.93,2.26-1.81,4.55-2.79,6.79-3,6.73-6,13.43-8.9,20.16-.94,2.14-1.71,4.36-2.57,6.54a7.78,7.78,0,0,0-.44,3.14c0,1.26.32,1.48,1.77,1.52a40.84,40.84,0,0,1,6.05.34,27.36,27.36,0,0,0,2.86.25,2.51,2.51,0,0,0,2.6-1.49,24.25,24.25,0,0,0,2.08-5.34A13,13,0,0,1,33.14,70a18.74,18.74,0,0,0,1.38-3.56,1.41,1.41,0,0,1,1.36-1.14c1.27,0,2.53,0,3.82,0a4.23,4.23,0,0,1,.47.82,5.29,5.29,0,0,1,.22,1.25c.1,1.81.14,3.62.27,5.42a21,21,0,0,0,1,5.33,1.77,1.77,0,0,0,1.69,1.22,11.89,11.89,0,0,0,1.58-.14c1.68-.29,3.29-.85,5-1a1.78,1.78,0,0,0,1.45-1.84,12.61,12.61,0,0,0-.24-3.18A38.5,38.5,0,0,1,50.11,64.28ZM38.32,55c-.17.32-1.06.77-1.36.63a14.4,14.4,0,0,1-2-1,1,1,0,0,1-.29-.81,18.78,18.78,0,0,1,2.13-5.49c.52-.17.93-.26,1.31-.42,1-.42,1.47,0,1.41.9a23.14,23.14,0,0,1-1,5.59A3.29,3.29,0,0,1,38.32,55Z"/><path class="cls-2" d="M124,62.52c-.5-2.5-1-5-1.66-7.46a12.62,12.62,0,0,0-2.14-4.25c-1.22-1.61-2.46-3.21-3.75-4.77a12,12,0,0,0-4.8-3.59,21.06,21.06,0,0,1-2.88-1.36A8.45,8.45,0,0,0,103.22,40a11.32,11.32,0,0,0-2.19.29,3.51,3.51,0,0,1-1.85,0,.86.86,0,0,0-.93.67c-.06.74-.13,1.47-.15,2.21-.07,2.24,0,4.48-.2,6.7q-.75,10.52-.46,21c.06,2.22-.09,4.46-.14,6.69a9.9,9.9,0,0,0,.27,3.79.66.66,0,0,0,.54.76c-.09.74-.22,1.47-.25,2.21a1.52,1.52,0,0,0,1.49,1.38,6,6,0,0,0,.94-.1c1.47-.27,2.92-.59,4.39-.81a8.91,8.91,0,0,0,3.23-1.29c1.46-.87,2.92-1.73,4.42-2.53a16.93,16.93,0,0,0,6.14-5.44,68,68,0,0,0,5-9.23A5.84,5.84,0,0,0,124,62.52Zm-17.61-6.46a14.45,14.45,0,0,1,5.77,4.43,5.5,5.5,0,0,1-.08,6,22.13,22.13,0,0,1-5.1,4.7,2.61,2.61,0,0,1-1,.15c.13-2.6.28-5.12.38-7.65S106.15,58.63,106.35,56.06Z"/><path class="cls-2" d="M70,69.3c-.09,1.59-.18,3.19-.28,4.78-.12,2-.25,4-.4,6A1.52,1.52,0,0,1,68,81.37c-1.49.07-3,.19-4.46.13a6.25,6.25,0,0,1-2.08-.67,1.26,1.26,0,0,1-.58-.66,11,11,0,0,1-.38-3.79q0-8,.17-16a92.42,92.42,0,0,1,.69-10.51,40.72,40.72,0,0,0,.11-4.14,13.85,13.85,0,0,1,.14-2.23c.25-1.31.8-1.75,1.87-1.81a12.33,12.33,0,0,0,3.36-1A2.48,2.48,0,0,1,70.12,42a14.83,14.83,0,0,1,1.74,4.43,40.54,40.54,0,0,0,2.3,7c1,2.35,1.9,4.73,2.87,7.09a17.56,17.56,0,0,0,.88,1.66c0,.08.22.19.26.17a1.4,1.4,0,0,0,.46-.41,1.8,1.8,0,0,0,.11-.62c.41-3.7.85-7.4,1.2-11.1.19-2.12.23-4.25.35-6.38a7.42,7.42,0,0,1,.2-1.57,1.54,1.54,0,0,1,1.05-1.12A11.84,11.84,0,0,1,84,40.52c1.8-.12,3.61-.12,5.41-.14a1.08,1.08,0,0,1,1,1c0,1.28.05,2.55.05,3.83,0,2.24,0,4.47,0,6.71a22,22,0,0,1-.21,3.81c-.34,1.8-.34,3.6-.53,5.4a38.84,38.84,0,0,1-.71,5,33,33,0,0,0-.66,4.08,37.2,37.2,0,0,1-.55,3.79c-.32,1.57-.49,3.15-.71,4.73-.4,2.81-.54,3.79-4.31,3.73-3.26-.05-7-1.79-8.28-5-.16-.39-.38-.76-.54-1.15-.54-1.39-1.06-2.78-1.61-4.16-.38-1-.79-2-1.18-3a2.49,2.49,0,0,0-1-2.23,6.52,6.52,0,0,0-.22,1A10.7,10.7,0,0,0,70,69.3ZM88.32,42.05c-1.1.05-2.25.09-3.39.18a12.1,12.1,0,0,0-1.57.31c-.8.19-1.13.54-1.17,1.27,0,.32,0,.64,0,1,.07,3.84-.57,7.63-.78,11.45-.07,1.27-.46,2.52-.48,3.79a61.92,61.92,0,0,1-.82,6.65A8.9,8.9,0,0,1,79.21,69c-.26.56-1.24.48-1.63-.06a6.68,6.68,0,0,1-1.07-3.3,13.23,13.23,0,0,0-1-3.66q-2.2-5.47-4.37-11a16.62,16.62,0,0,1-.56-1.82c-.22-.83-.35-1.67-.6-2.48-.38-1.22-.82-2.41-1.27-3.6a1.11,1.11,0,0,0-1.27-.72c-1.23.32-2.46.63-3.68,1a1,1,0,0,0-.72,1,7.71,7.71,0,0,0,0,1c0,2.55,0,5.09-.11,7.63-.11,1.81-.19,3.62-.18,5.43,0,6.81.21,13.62-.35,20.42,0,.26.22.55.31.75l3.92-.16a.94.94,0,0,0,.88-.76c.1-1.38.19-2.76.26-4.14.14-2.76.22-5.53.42-8.28a21,21,0,0,1,.66-3.11,1.91,1.91,0,0,1,.34-.53,1.17,1.17,0,0,1,1.44-.07,4.43,4.43,0,0,1,.54.79c1.25,2.7,2.34,5.47,3.34,8.27.56,1.6,1.21,3.18,1.89,4.73a5.11,5.11,0,0,0,1.85,2.55,8.19,8.19,0,0,0,4.16,1.44c2.11,0,2.35.11,2.61-2.19.31-2.85,1-5.65,1.22-8.52a35,35,0,0,1,.7-3.76c.14-.73.3-1.46.42-2.19.53-3.14.4-6.37,1.15-9.49a3.85,3.85,0,0,0,.06-1q.12-4.79.23-9.57A1.89,1.89,0,0,0,88.32,42.05Z"/><path class="cls-1" d="M39.7,65.33c-1.29,0-2.55,0-3.82,0a1.41,1.41,0,0,0-1.36,1.14A18.74,18.74,0,0,1,33.14,70a13,13,0,0,0-.91,2.72,24.25,24.25,0,0,1-2.08,5.34,2.51,2.51,0,0,1-2.6,1.49,27.36,27.36,0,0,1-2.86-.25A40.84,40.84,0,0,0,18.64,79c-1.45,0-1.73-.26-1.77-1.52a7.78,7.78,0,0,1,.44-3.14c.86-2.18,1.63-4.4,2.57-6.54,2.93-6.73,5.95-13.43,8.9-20.16,1-2.24,1.86-4.53,2.79-6.79a8.69,8.69,0,0,1,.63-1.46,2.36,2.36,0,0,1,2.06-1.29c3.62,0,7.25-.06,10.87-.09a4.58,4.58,0,0,1,.64,0,2.08,2.08,0,0,1,1.88,1.49A31.41,31.41,0,0,1,48.49,43a79.94,79.94,0,0,1,1.13,10.48c.09,3.62.46,7.22.49,10.85a38.5,38.5,0,0,0,1,8.88,12.61,12.61,0,0,1,.24,3.18,1.78,1.78,0,0,1-1.45,1.84c-1.7.2-3.31.76-5,1a11.89,11.89,0,0,1-1.58.14,1.77,1.77,0,0,1-1.69-1.22,21,21,0,0,1-1-5.33c-.13-1.8-.17-3.61-.27-5.42a5.29,5.29,0,0,0-.22-1.25A4.23,4.23,0,0,0,39.7,65.33Zm9.66,10.93a11.88,11.88,0,0,0,0-2.19A54.94,54.94,0,0,1,48.16,62c0-.53,0-1.06,0-1.6-.19-3.19-.41-6.37-.54-9.56-.11-2.78-.67-5.5-1-8.24A12.71,12.71,0,0,0,46,40.45a.75.75,0,0,0-.47-.4,4.81,4.81,0,0,0-1.25-.15c-3,0-6,.11-8.95.18l-.63.06a1.72,1.72,0,0,0-1.67,1.24c-2.46,7.84-5.89,15.29-9.23,22.77-1.13,2.53-2.33,5-3.45,7.55-.56,1.26-1.05,2.56-1.51,3.87a4.12,4.12,0,0,0-.07,1.16,2.2,2.2,0,0,0,.69.28,47,47,0,0,1,8,.5A1,1,0,0,0,28.51,77a19.56,19.56,0,0,0,1.78-4.09,26.59,26.59,0,0,1,1-3A29.27,29.27,0,0,0,33,65.77a2.87,2.87,0,0,1,2.85-2.16c1.28,0,2.56-.11,3.84-.13a1.81,1.81,0,0,1,1.91,1.37,13.58,13.58,0,0,1,.64,2.79c.15,1.59.22,3.19.22,4.78a17.28,17.28,0,0,0,.64,4.41,1,1,0,0,0,1.17.78C46,77.51,47.53,76.69,49.36,76.26Z"/><path class="cls-2" d="M97.57,81.31a9.9,9.9,0,0,1-.27-3.79c0-2.23.2-4.47.14-6.69q-.28-10.55.46-21c.16-2.22.13-4.46.2-6.7,0-.74.09-1.47.15-2.21a.86.86,0,0,1,.93-.67,3.51,3.51,0,0,0,1.85,0,11.32,11.32,0,0,1,2.19-.29,8.45,8.45,0,0,1,5.51,1.13,21.06,21.06,0,0,0,2.88,1.36,12,12,0,0,1,4.8,3.59c1.29,1.56,2.53,3.16,3.75,4.77a12.62,12.62,0,0,1,2.14,4.25c.67,2.45,1.16,5,1.66,7.46a5.78,5.78,0,0,1-.48,3.74,68,68,0,0,1-5,9.23,16.93,16.93,0,0,1-6.14,5.44c-1.5.8-3,1.66-4.42,2.53a8.91,8.91,0,0,1-3.23,1.29c-1.47.22-2.92.54-4.38.81a6.26,6.26,0,0,1-1,.1,1.52,1.52,0,0,1-1.49-1.38c0-.74.16-1.47.25-2.21C98.3,81.56,98,81.43,97.57,81.31Zm2.55-39.43a9.77,9.77,0,0,0-.15,2c0,2.24,0,4.48-.11,6.71-.15,4.9-.57,9.79-.38,14.69.07,1.71.07,3.4.23,5.11a30.66,30.66,0,0,1,0,5.42,40.11,40.11,0,0,0-.34,4.77,2.1,2.1,0,0,1-.45,1.15,1,1,0,0,0,1,1.49c1-.16,2.09-.39,3.14-.57a11.37,11.37,0,0,0,4.13-1.61,41.14,41.14,0,0,1,3.89-2.18,14.27,14.27,0,0,0,5.49-4.76,73,73,0,0,0,4.84-8.63,4.08,4.08,0,0,0,.43-2.16,17.92,17.92,0,0,0-.26-2.54c-.28-1.35-.71-2.67-1-4a12.63,12.63,0,0,0-2.43-5.15q-1.65-2.16-3.38-4.26A10,10,0,0,0,111,44.48c-.49-.21-1-.46-1.45-.66-1.48-.59-2.75-1.74-4.37-1.91S102,41.88,100.12,41.88Z"/><path class="cls-3" d="M88.32,42.05a1.89,1.89,0,0,1,.4,1.55q-.1,4.78-.23,9.57a3.85,3.85,0,0,1-.06,1c-.75,3.12-.62,6.35-1.15,9.49-.12.73-.28,1.46-.42,2.19a35,35,0,0,0-.7,3.76c-.21,2.87-.91,5.67-1.22,8.52-.26,2.3-.5,2.17-2.61,2.19a8.19,8.19,0,0,1-4.16-1.44,5.11,5.11,0,0,1-1.85-2.55c-.68-1.55-1.33-3.13-1.89-4.73-1-2.8-2.09-5.57-3.34-8.27a4.43,4.43,0,0,0-.54-.79,1.17,1.17,0,0,0-1.44.07,1.91,1.91,0,0,0-.34.53,21,21,0,0,0-.66,3.11c-.2,2.75-.28,5.52-.42,8.28-.07,1.38-.16,2.76-.26,4.14a.94.94,0,0,1-.88.76l-3.92.16c-.09-.2-.34-.49-.31-.75.56-6.8.37-13.61.35-20.42,0-1.81.07-3.62.18-5.43.16-2.54.12-5.08.11-7.63a7.71,7.71,0,0,1,0-1,1,1,0,0,1,.72-1c1.22-.36,2.45-.67,3.68-1a1.11,1.11,0,0,1,1.27.72c.45,1.19.89,2.38,1.27,3.6.25.81.38,1.65.6,2.48A16.62,16.62,0,0,0,71.1,51q2.18,5.49,4.37,11a13.23,13.23,0,0,1,1,3.66A6.68,6.68,0,0,0,77.58,69c.39.54,1.37.62,1.63.06a8.9,8.9,0,0,0,.88-2.36A61.92,61.92,0,0,0,80.91,60c0-1.27.41-2.52.48-3.79.21-3.82.85-7.61.78-11.45,0-.32,0-.64,0-1,0-.73.37-1.08,1.17-1.27a12.1,12.1,0,0,1,1.57-.31C86.07,42.14,87.22,42.1,88.32,42.05Z"/><path class="cls-4" d="M49.36,76.26c-1.83.43-3.35,1.25-5.08,1.35a1,1,0,0,1-1.17-.78,17.28,17.28,0,0,1-.64-4.41c0-1.59-.07-3.19-.22-4.78a13.58,13.58,0,0,0-.64-2.79,1.81,1.81,0,0,0-1.91-1.37c-1.28,0-2.56.09-3.84.13A2.87,2.87,0,0,0,33,65.77a29.27,29.27,0,0,1-1.68,4.13,26.59,26.59,0,0,0-1,3A19.56,19.56,0,0,1,28.51,77a1,1,0,0,1-1.08.52,47,47,0,0,0-7.95-.5,2.2,2.2,0,0,1-.69-.28,4.12,4.12,0,0,1,.07-1.16c.46-1.31.95-2.61,1.51-3.87,1.12-2.53,2.32-5,3.45-7.55,3.34-7.48,6.77-14.93,9.23-22.77a1.72,1.72,0,0,1,1.67-1.24l.63-.06c3-.07,6-.14,8.95-.18a4.81,4.81,0,0,1,1.25.15.75.75,0,0,1,.47.4,12.71,12.71,0,0,1,.56,2.16c.32,2.74.88,5.46,1,8.24.13,3.19.35,6.37.54,9.56,0,.54.06,1.07,0,1.6a54.94,54.94,0,0,0,1.18,12.06A11.88,11.88,0,0,1,49.36,76.26ZM36.21,45.86c-.5,1.09-1,2.14-1.46,3.2-.59,1.37-1.18,2.74-1.69,4.13a7.37,7.37,0,0,0-.28,1.88,1,1,0,0,0,.59,1,26.25,26.25,0,0,0,3.31,1.11,2.81,2.81,0,0,0,3.2-1.54,5.26,5.26,0,0,0,.49-1.18c.29-1.34.61-2.7.77-4.07a18.76,18.76,0,0,0,0-3.18,1.64,1.64,0,0,0-1.73-1.52C38.47,45.74,37.53,45.8,36.21,45.86Z"/><path class="cls-4" d="M100.12,41.88c1.89,0,3.5-.12,5.07,0s2.89,1.32,4.37,1.91c.49.2,1,.45,1.45.66a10,10,0,0,1,3.78,2.88q1.72,2.1,3.38,4.26a12.63,12.63,0,0,1,2.43,5.15c.28,1.35.71,2.67,1,4a17.92,17.92,0,0,1,.26,2.54,4.08,4.08,0,0,1-.43,2.16,73,73,0,0,1-4.84,8.63,14.27,14.27,0,0,1-5.49,4.76,41.14,41.14,0,0,0-3.89,2.18,11.37,11.37,0,0,1-4.13,1.61c-1,.18-2.09.41-3.14.57a1,1,0,0,1-1-1.49,2.1,2.1,0,0,0,.45-1.15,40.11,40.11,0,0,1,.34-4.77,30.66,30.66,0,0,0,0-5.42c-.16-1.71-.16-3.4-.23-5.11-.19-4.9.23-9.79.38-14.69.07-2.23.08-4.47.11-6.71A9.77,9.77,0,0,1,100.12,41.88Zm4.33,22.29h-.07a6,6,0,0,1,0,1,55.21,55.21,0,0,0-.48,7.6c0,.21-.14.4-.16.61a1,1,0,0,0,1.06.93A5,5,0,0,0,106,74a18,18,0,0,0,8.1-6.43,6.86,6.86,0,0,0-.1-8,9.43,9.43,0,0,0-1.93-2.1c-1.51-1.16-3.11-2.2-4.69-3.26a4.2,4.2,0,0,0-1.19-.42,1.35,1.35,0,0,0-1.51.88,9,9,0,0,0-.23,1.87C104.44,59.08,104.45,61.62,104.45,64.17Z"/><path class="cls-1" d="M36.21,45.86c1.32-.06,2.26-.12,3.2-.13a1.64,1.64,0,0,1,1.73,1.52,18.76,18.76,0,0,1,0,3.18c-.16,1.37-.48,2.73-.77,4.07a5.26,5.26,0,0,1-.49,1.18,2.81,2.81,0,0,1-3.2,1.54,26.25,26.25,0,0,1-3.31-1.11,1,1,0,0,1-.59-1,7.37,7.37,0,0,1,.28-1.88c.51-1.39,1.1-2.76,1.69-4.13C35.2,48,35.71,47,36.21,45.86Zm.62,2.49a18.78,18.78,0,0,0-2.13,5.49,1,1,0,0,0,.29.81,14.4,14.4,0,0,0,2,1c.3.14,1.19-.31,1.36-.63a3.29,3.29,0,0,0,.27-.57,23.14,23.14,0,0,0,1-5.59c.06-.95-.45-1.32-1.41-.9C37.76,48.09,37.35,48.18,36.83,48.35Z"/><path class="cls-1" d="M104.45,64.17c0-2.55,0-5.09,0-7.63a9,9,0,0,1,.23-1.87,1.35,1.35,0,0,1,1.51-.88,4.2,4.2,0,0,1,1.19.42c1.58,1.06,3.18,2.1,4.69,3.26a9.43,9.43,0,0,1,1.93,2.1,6.86,6.86,0,0,1,.1,8A18,18,0,0,1,106,74a5,5,0,0,1-1.23.23,1,1,0,0,1-1.06-.93c0-.21.16-.4.16-.61a55.21,55.21,0,0,1,.48-7.6,6,6,0,0,0,0-1ZM106,71.3a2.61,2.61,0,0,0,1-.15,22.13,22.13,0,0,0,5.1-4.7,5.5,5.5,0,0,0,.08-6,14.45,14.45,0,0,0-5.77-4.43c-.2,2.57.12,5.08,0,7.59S106.11,68.7,106,71.3Z"/></svg>