<svg id="Layer_1" data-name="Layer 1" xmlns="http://www.w3.org/2000/svg" viewBox="0 0 612 792"><defs><style>.cls-1{fill:#452609;}.cls-2{fill:#cf9302;}.cls-3{fill:#6a3e16;}.cls-4{fill:#6a3f16;}.cls-5{fill:#693e16;}.cls-6{fill:#6b3f17;}.cls-7{fill:#683d16;}.cls-8{fill:#653b14;}.cls-9{fill:#57320f;}.cls-10{fill:#edaa00;}.cls-11{fill:#db9200;}</style></defs><rect class="cls-1" width="612" height="792" transform="translate(612 792) rotate(-180)"/><path class="cls-1" d="M31.2,791.35c0-4.37.09-8.74.1-13.11q.06-30.54.12-61.07c0-10.24.19-20.47.31-30.7.06-5.12,0-10.23-.28-15.34-.21-3.29-.24-6.6-.24-9.91q0-26.22.06-52.44c0-9.59,0-19.18.06-28.78,0-5.22.25-10.44.39-15.66q.23-8.94.47-17.9c0-.85,0-1.7.05-2.55.13-4.69.35-9.38.37-14.07.06-16,0-32,.06-48q0-9.75.12-19.51c.06-4.58.32-9.16.32-13.74,0-20,.1-40.08-.17-60.12-.43-31.76-.35-63.52-.35-95.28,0-13,0-26,0-39q0-31.17,0-62.35-.07-38.37-.24-76.75c-.05-15.77-.27-31.55-.14-47.32q.19-24.78.2-49.56c0-5,0-10,0-15,0-1.06.13-2.12.2-3.18H612V792H31.34ZM343.4,426.08a9.29,9.29,0,0,0,.84,2.05c2.08,3,2.91,6.37,3.64,9.81.51,2.4.84,4.83,1.2,7.25q.93,6.15,1.78,12.32a21.16,21.16,0,0,1,.17,2.87c0,3.94.08,7.88,0,11.82,0,1.7-.26,3.39-.38,5.08,0,.08.09.24.16.25a1.52,1.52,0,0,0,.56,0c.09,0,.16-.13.22-.22a8,8,0,0,0,1.33-3.55,63.12,63.12,0,0,0,.75-8.91A21.36,21.36,0,0,1,354,461a20.38,20.38,0,0,0-.05-6c-.78-4.83-1.49-9.68-2.29-14.51a34.05,34.05,0,0,0-3.36-10.29,10.8,10.8,0,0,0-2.3-3,3.77,3.77,0,0,0-2.59-1.08ZM217.55,632.77c-.36-.29-.5.05-.64.31a1.4,1.4,0,0,0-.09.29,17.16,17.16,0,0,1-.21,1.91,21.75,21.75,0,0,0-.44,4.76,34,34,0,0,1-.46,6.37,24.68,24.68,0,0,0-.21,2.86c-.08,1.07-.18,2.12-.29,3.18s-.21,2.12-.33,3.18c-.37,3.6-.58,7.21-.81,10.82-.16,2.44-.49,4.87-.52,7.33a6,6,0,0,1-.1,1.27,38.6,38.6,0,0,0-.5,8,36.12,36.12,0,0,1-.41,6,17.82,17.82,0,0,0-.18,3.19q0,11.19,0,22.38a18.92,18.92,0,0,0,.19,3.19,43.11,43.11,0,0,1,.26,10.52,58.82,58.82,0,0,1-2.24,12.88,11.74,11.74,0,0,0-.35,1.56c0,.18.08.53.19.55a1.4,1.4,0,0,0,.86,0,2.79,2.79,0,0,0,.75-.59,11.89,11.89,0,0,0,3.24-5.42,15,15,0,0,0,.71-3.11c.25-4.15,1.06-8.25.77-12.43a10.44,10.44,0,0,0-.11-1.59,37,37,0,0,1-.44-7.65q0-9.43,0-18.86a29,29,0,0,1,.34-5.1,21.07,21.07,0,0,0,.22-3.18c0-2.88,0-5.76,0-8.64a38.21,38.21,0,0,1,.45-7.32,16.1,16.1,0,0,0,.14-2.87c0-2.67.05-5.33.06-8a37.19,37.19,0,0,1,.39-6,18.51,18.51,0,0,0,0-5.41,39.19,39.19,0,0,1-.33-4.46c-.06-3.09,0-6.18-.05-9.27C217.48,633.14,217.62,632.83,217.55,632.77Zm332.71,21.47a47.61,47.61,0,0,0,1.65-13c-.07-1.92-.07-3.84,0-5.76a73.27,73.27,0,0,0-1-12.72q-1.11-7.9-2.23-15.82c-.3-2.11-.64-4.21-.92-6.32-.33-2.54-.61-5.08-.93-7.61s-.55-5.08-.75-7.63A80.27,80.27,0,0,0,542.11,566c-1.36-4-2.85-8-4.32-12a113.44,113.44,0,0,1-3.55-10.94,79.49,79.49,0,0,1-1.47-8.5c-.5-3.59-.89-7.19-1.23-10.79-.16-1.69-.07-3.41-.15-5.11-.07-1.49-.21-3-.33-4.46-.08-1.17-.22-2.33-.25-3.5,0-2.13,0-4.27,0-6.4a32.11,32.11,0,0,0-.36-5.09,22.83,22.83,0,0,1-.23-3.51c0-2.24,0-4.48,0-6.71a35.14,35.14,0,0,0-.4-6.06,18.74,18.74,0,0,1-.19-3.18c0-2.35,0-4.7-.07-7-.05-1.59-.24-3.18-.36-4.77-.09-1.38-.21-2.76-.24-4.15a44.16,44.16,0,0,0-.41-5.73,34.79,34.79,0,0,1-.22-4.46,40.93,40.93,0,0,0-.41-5.74,30.06,30.06,0,0,1-.22-4.14,25.83,25.83,0,0,0-.44-5.41,3.06,3.06,0,0,1,0-.32c-.26-4.14-.67-8.28-.74-12.43-.12-7.56,0-15.14,0-22.7a29.4,29.4,0,0,1,.33-4.78,22.6,22.6,0,0,0,.23-3.19c0-1.81,0-3.62.06-5.43a17.53,17.53,0,0,1,0-1.92q.48-5.08,1-10.17c.22-2.11.46-4.23.73-6.34.81-6.23,1.65-12.46,2.47-18.69,0-.31.1-.63.12-1,.19-3.94.73-7.84,1.23-11.75a17.51,17.51,0,0,0,.11-1.92c0-.63,0-1.28.05-1.91.33-3.39.68-6.78,1-10.17.29-2.75.53-5.51.91-8.25.43-3.17.94-6.32,1.5-9.47s1.25-6.27,1.85-9.41a18.32,18.32,0,0,0,.4-2.84,51.43,51.43,0,0,1,.53-7.33,5.41,5.41,0,0,0-.24-2.84c-.11-.3-.53-.61-.7-.47a1.5,1.5,0,0,0-.43.44,3,3,0,0,0-.28.91c-.27,2-.47,4-.81,6-.41,2.41-.9,4.82-1.43,7.21-.84,3.74-1.81,7.46-2.59,11.21-.48,2.29-.73,4.63-1.06,6.95-.23,1.58-.44,3.16-.62,4.75q-.57,4.92-1.11,9.83c-.07.64-.09,1.28-.15,1.92-.14,1.59-.29,3.18-.44,4.76l-.18,1.91c-.16,1.48-.31,3-.46,4.45-.05.42-.13.84-.16,1.27-.44,6.7-1.49,13.33-2.41,20-.35,2.53-.59,5.08-.88,7.62-.36,3.06-.74,6.13-1,9.2-.13,1.27-.15,2.55-.17,3.83a48.22,48.22,0,0,1-.49,8,17,17,0,0,0-.14,3.19q0,14.88,0,29.75c0,1.48.2,3,.32,4.45.07.85.22,1.7.24,2.55a53.34,53.34,0,0,0,.5,6.68,39.55,39.55,0,0,1,.19,5.11,39.62,39.62,0,0,0,.36,5.1,45.61,45.61,0,0,1,.27,5.1,42.32,42.32,0,0,0,.41,6.05,33.07,33.07,0,0,1,.23,4.46,36.86,36.86,0,0,0,.41,5.74,19.83,19.83,0,0,1,.2,3.18c0,2.24,0,4.48.05,6.72a17.1,17.1,0,0,0,.13,2.87,46.79,46.79,0,0,1,.48,8.61c0,1.49,0,3,0,4.47a12.84,12.84,0,0,0,.12,2.24,48.4,48.4,0,0,1,.49,8.92,42.61,42.61,0,0,0,.5,8.29,8.39,8.39,0,0,1,.11,1.59c0,7.6,1.34,15.06,2.74,22.49a80.44,80.44,0,0,0,4.3,13.71,127.47,127.47,0,0,1,5.06,14.82,76.34,76.34,0,0,1,2.13,11c.47,4.76.65,9.57,1.65,14.27.35,5.64,1.5,11.19,2.16,16.79.36,3.07.94,6.11,1.37,9.17a80.22,80.22,0,0,1,1.12,13.67q-.09,2.88,0,5.76a45.67,45.67,0,0,1-.9,10.17c-.79,4.19-1.17,8.44-1.78,12.65a85,85,0,0,0-.67,9.56,25,25,0,0,0-1.16,6.86,24.41,24.41,0,0,1-.4,4.43c-.17.82-.16,1.69-.25,2.53-.12,1.26-.3,2.52-.39,3.79-.24,3.7-1.1,7.35-.88,11.08,0,.41.08.82.12,1.34.22-.2.42-.3.44-.42a67.61,67.61,0,0,0,.8-8.54,51.82,51.82,0,0,1,.59-5.68c.33-2.74.68-5.47,1-8.2q.43-3.63.85-7.26C547.3,667.55,548.66,660.87,550.26,654.24ZM351,699.12c.35-2.1.54-4.22.84-6.33.53-3.69,1-7.38,1.28-11.11.22-3.08.69-6.13,1-9.2.09-.74.07-1.49.14-2.24.12-1.59.31-3.17.4-4.77.18-3.19.89-6.33.91-9.53a15.52,15.52,0,0,1,.15-1.92c.47-3.8.93-7.6,1.17-11.43.19-3.08.65-6.14,1-9.21.09-.85.14-1.7.22-2.55.11-1.16.24-2.32.36-3.49l.27-2.86.36-3.5c.09-.84.19-1.69.27-2.54l.42-4.13c0-.31.12-.63.13-.95.06-2.88.45-5.73.68-8.59.33-4,.71-8.06,1.17-12.08.11-1,.1-1.91.17-2.87.11-1.38.25-2.76.38-4.13,0-.32.14-.64.14-1,0-4.06.63-8.07.78-12.11.05-1.38.2-2.76.35-4.14.26-2.33.63-4.64.81-7,.28-3.73,1.05-7.38,1.66-11.06,1-6,2.12-12,3.16-17.94.2-1.15.28-2.33.4-3.49a17,17,0,0,1,.13-1.91,43.38,43.38,0,0,0,.56-8c0-1.48.23-3,.34-4.45.09-1.17.22-2.34.22-3.51,0-5.75,0-11.51,0-17.27a15.22,15.22,0,0,0-.14-2.87,36.58,36.58,0,0,1-.42-7l-.06-23.67a25.17,25.17,0,0,0-.42-5.41,7.6,7.6,0,0,1-.15-1.27,93.34,93.34,0,0,0-1.34-11.42c-1-6.41-2.16-12.82-3.24-19.23-.79-4.62-1.71-9.22-2.32-13.87s-1.37-9.49-2.1-14.22a150.25,150.25,0,0,0-3.84-17.16c-1.1-3.9-2.46-7.71-3.81-11.53-3.33-9.45-6.45-19-9.06-28.66-1.77-6.59-3.64-13.15-5.4-19.74A78.22,78.22,0,0,1,336.29,305c-.29-3.07-.71-6.13-1.07-9.2a4.48,4.48,0,0,1-.06-.63,71.91,71.91,0,0,0-.66-8.92c-.36-3-.54-5.94-.87-8.9-.44-4-1-8-1.14-12.08a5.11,5.11,0,0,0-.08-1,42.28,42.28,0,0,1-.52-8.92c0-3.3.08-6.61,0-9.91a69.19,69.19,0,0,1,.92-11.14c.41-3,.6-5.93,1.08-8.87a87.81,87.81,0,0,0,.64-12.44,12.67,12.67,0,0,1,.14-2.23,34.1,34.1,0,0,0,.43-6.69c0-2.88,0-5.76,0-8.64a30.64,30.64,0,0,1,.38-5.41,21.27,21.27,0,0,0,.2-3.19c.05-2.35,0-4.69.08-7,0-1.38.22-2.75.31-4.13.11-1.6.22-3.19.27-4.79a42.52,42.52,0,0,1,.52-8.28,5.4,5.4,0,0,0,.09-1.27,63,63,0,0,1,1-8.89c.52-4.23,1.11-8.45,1.71-12.67.23-1.58.51-3.16.86-4.71a59.1,59.1,0,0,0,.95-15c0-.18-.17-.35-.26-.53-.53.11-.58.59-.66,1-1.17,5.31-2.5,10.58-3.65,15.89-1.27,5.85-2.06,11.76-2.89,17.66a50.93,50.93,0,0,0-.86,8.9,1.77,1.77,0,0,1,0,.32c-.8,4.22-.47,8.5-.61,12.75-.06,1.6-.26,3.19-.36,4.78s-.19,3.19-.23,4.79a46.18,46.18,0,0,1-.45,7.33,17.77,17.77,0,0,0-.16,3.19c0,4.37,0,8.74-.07,13.11,0,1.59-.22,3.18-.33,4.78-.1,1.38-.21,2.76-.25,4.14a45.51,45.51,0,0,1-.47,6.69c-.41,2.41-.55,4.86-.83,7.3-.34,3-.71,5.92-1,8.88a34.25,34.25,0,0,0-.2,3.51c0,3.73,0,7.46,0,11.19a28.53,28.53,0,0,0,.43,6.05,6,6,0,0,1,.13,1.27,85.68,85.68,0,0,0,1.19,11.75,6.23,6.23,0,0,1,.09,1,98.44,98.44,0,0,0,1.17,11.11,5.21,5.21,0,0,1,.1,1A84.92,84.92,0,0,0,332,299c.36,3.92.78,7.84,1.46,11.73a156.71,156.71,0,0,0,4.17,17.07q2,6.73,3.8,13.54c1.34,5.06,2.86,10.05,4.42,15,1.73,5.5,3.72,10.9,5.64,16.32.82,2.31,1.47,4.68,2.1,7.05a154.89,154.89,0,0,1,4,20c.78,6,1.7,12,2.56,18,.06.42.15.84.23,1.25,1,5.45,2.12,10.89,3.09,16.34.94,5.24,1.78,10.5,2.42,15.79a76.35,76.35,0,0,1,.58,8.93,9.39,9.39,0,0,0,.12,1.91,37.69,37.69,0,0,1,.46,7.65q0,23.67,0,47.34a27.56,27.56,0,0,1-.42,5.73,8.48,8.48,0,0,0-.15,1.59A82.25,82.25,0,0,1,364.85,538c-1,5.88-2.11,11.74-3.12,17.63-.48,2.83-.89,5.67-1.12,8.55-.24,3.07-.69,6.13-1,9.2-.13,1.27-.17,2.55-.19,3.83,0,1.92-.2,3.82-.42,5.73-.4,3.6-.63,7.21-.85,10.83a30.84,30.84,0,0,1-.45,5.08,2.82,2.82,0,0,0-.09.64c.06,3.52-.7,7-.78,10.51a12.63,12.63,0,0,1-.19,2.22,31.16,31.16,0,0,0-.45,5.09c0,1.07-.18,2.12-.28,3.18s-.23,2.33-.35,3.5c-.09.95-.19,1.91-.28,2.86-.12,1.17-.23,2.33-.35,3.5l-.33,3.17c0,.32-.15.63-.16,1-.05,3.41-.56,6.79-.77,10.19,0,.21,0,.43,0,.64-.34,3.82-.69,7.63-1,11.45-.31,3.6-.66,7.21-.88,10.82a56.69,56.69,0,0,1-.47,6.37,30,30,0,0,0-.2,4.14,34.91,34.91,0,0,1-.38,5.1,25.62,25.62,0,0,0-.24,3.82,31.45,31.45,0,0,1-.46,6,6,6,0,0,0-.13,1.27,47.2,47.2,0,0,1-.62,8,3.13,3.13,0,0,0,.4,2.53A24.61,24.61,0,0,0,351,699.12ZM91.44,416.87a27.21,27.21,0,0,0,.46,6,2.74,2.74,0,0,1,.09.63,69.27,69.27,0,0,0,.81,9.87c.51,4,.35,8.09,1,12.09a6,6,0,0,1,.1.95,66.69,66.69,0,0,0,.67,8.92c.39,3.06.69,6.13,1,9.2.06.53.2,1.05.21,1.58a64.25,64.25,0,0,0,1.29,9.17c.7,4.11,1.59,8.16,2.61,12.19.84,3.31,1.6,6.64,2.32,10a57.07,57.07,0,0,1,1,6,55.87,55.87,0,0,0,1.18,5.95,5,5,0,0,0,.7,1.41.63.63,0,0,0,.55.18c.17,0,.32-.22.46-.36a.62.62,0,0,0,.12-.3,11.4,11.4,0,0,0,.31-6c-.49-6.09-2.08-12-3.53-17.86a168.61,168.61,0,0,1-3.55-19.16c-.32-2.53-.42-5.1-.79-7.63-.19-1.37-.33-2.75-.46-4.12-.1-1-.14-1.91-.22-2.87q-.17-1.91-.36-3.81a11.35,11.35,0,0,1-.17-1.27c.09-3.74-.67-7.42-.77-11.15,0-.85-.17-1.7-.26-2.54l-.36-3.5c-.11-1.06-.22-2.11-.34-3.17-.09-.85-.24-1.7-.25-2.54a42.32,42.32,0,0,0-.5-6.05,20.54,20.54,0,0,1-.17-3.51q0-11.35,0-22.71,0-16.31,0-32.63a31.68,31.68,0,0,1,.37-5.41,19.88,19.88,0,0,0,.2-3.19c0-2,0-4.05.07-6.07,0-1.07.12-2.13.23-3.19.34-3.07.7-6.13,1.07-9.2q.34-2.85.76-5.7c1.24-8.55,2.82-17,4.59-25.48,1.49-7.09,3-14.18,4.69-21.23,1.16-4.87,2.6-9.68,4-14.5,1.72-6.05,3.51-12.08,5-18.2A109,109,0,0,0,117.69,236q.54-4.28,1.09-8.55c0-.11,0-.21,0-.32,0-3.84.63-7.64.77-11.47,0-1.38.21-2.76.34-4.14.08-.85.23-1.69.25-2.54a32.23,32.23,0,0,1,.47-5.09c.16-.83.12-1.7.2-2.54.42-4,.56-8.08,1.08-12.09a14.27,14.27,0,0,0,.16-1.59c0-2.24.28-4.45.53-6.68.41-3.81.55-7.65.81-11.47.08-1.06.18-2.12.29-3.18.06-.53.21-1,.23-1.58.08-2.77.41-5.52.65-8.28a139.9,139.9,0,0,1,2.34-16.44q1.88-8.91,3.81-17.82a155.55,155.55,0,0,0,2.69-15.75,69.36,69.36,0,0,0,.88-10.18,8.12,8.12,0,0,1,.13-1.91,35.29,35.29,0,0,0,.46-7.33q0-3.84,0-7.67a40.79,40.79,0,0,1,.45-7.65,12.76,12.76,0,0,0,.13-2.55c0-3.2,0-6.4,0-9.6a5.57,5.57,0,0,0-.8-3.36,1.24,1.24,0,0,0-.8-.36c-.13,0-.34.23-.44.4a4.93,4.93,0,0,0-.46,2.48q0,3.21,0,6.4a32.36,32.36,0,0,1-.4,5.73,25.67,25.67,0,0,0-.24,3.83,41,41,0,0,1-.44,6.05,30,30,0,0,0-.21,4.14,27.09,27.09,0,0,1-.39,5.09,4,4,0,0,0-.13,1c.09,3.75-.62,7.43-.81,11.15-.14,2.55-.51,5.09-.87,7.62-1.07,7.5-2.78,14.87-4.4,22.26-1.41,6.46-2.71,12.94-3.49,19.51a60.54,60.54,0,0,0-.84,9.22,13.93,13.93,0,0,1-.23,2.22c-.06.42-.18.84-.21,1.26-.27,3.61-.43,7.23-.82,10.83-.45,4.13-.44,8.29-1,12.41,0,.1,0,.21,0,.31q-.41,4.94-.8,9.87a20.53,20.53,0,0,1-.15,2.23,34.09,34.09,0,0,0-.52,6c0,.74-.14,1.48-.21,2.22-.13,1.49-.28,3-.41,4.45a14.94,14.94,0,0,1-.13,1.91,40,40,0,0,0-.52,7.33c0,1.48-.22,3-.38,4.45-.27,2.43-.57,4.86-.85,7.3a138.5,138.5,0,0,1-4.46,21.9c-2.06,7.28-4.27,14.53-6.11,21.86-2,8-3.86,16-5.4,24-.86,4.51-1.84,9-2.65,13.5q-1.29,7.23-2.36,14.51c-.39,2.63-.41,5.31-.84,7.94-.61,3.69-.44,7.44-1,11.13a21.44,21.44,0,0,0-.16,3.5q0,16.49,0,32.95h0ZM476.24,349c.3-2.1.5-4.23.8-6.34s.56-4,.94-6c.51-2.61,1.11-5.21,1.68-7.81.28-1.25.6-2.49.89-3.73,1.08-4.57,2.27-9.1,3.19-13.7.87-4.38,1.51-8.82,2.12-13.25.41-3,.51-5.94.85-8.9s.79-6.13,1.31-9.17c1.19-7,2.4-14.08,3.71-21.09,1-5.45,2.11-10.88,3.38-16.28a137.49,137.49,0,0,1,5.82-18.93,73.29,73.29,0,0,1,4.54-10.22,60.21,60.21,0,0,1,5.43-7.88,50.86,50.86,0,0,0,6.39-9.92c1.73-3.54,3.39-7.12,5-10.71a29.61,29.61,0,0,0,2-7.39q1-6.15,1.82-12.33a42.26,42.26,0,0,0,.21-4.78,45.57,45.57,0,0,1,.46-7.65,19.53,19.53,0,0,0,.13-3.51q0-10.56,0-21.11a30.71,30.71,0,0,1,.38-5.41,22.7,22.7,0,0,0,.23-3.5q.06-7,.07-14.07,0-22.56-.07-45.1a24.79,24.79,0,0,0-.38-5.09,8.13,8.13,0,0,1-.2-1.9c.11-2.9-.51-5.73-.73-8.6a13.09,13.09,0,0,0-.67-2.78,2.69,2.69,0,0,0-1.18-1.46A1.43,1.43,0,0,0,522,41.78a20.3,20.3,0,0,0,.41,2.2,21.14,21.14,0,0,1,.66,5.38,49.36,49.36,0,0,0,.52,8.92,16.11,16.11,0,0,1,.1,2.87q0,25.91,0,51.81a28.81,28.81,0,0,1-.4,5.41,18.3,18.3,0,0,0-.2,2.87c0,2.13,0,4.26-.07,6.39a15.34,15.34,0,0,1-.14,2.55,40.88,40.88,0,0,0-.44,7.65l0,20.47a33.87,33.87,0,0,1-.39,5.41c-.37,2.31-.57,4.65-.84,7a95.94,95.94,0,0,1-2,10.36,21,21,0,0,1-1.75,4.79c-1.38,2.77-2.71,5.56-4.14,8.3a55,55,0,0,1-5.11,8.08c-3.16,4.15-6.33,8.33-8.4,13.19-1.2,2.84-2.46,5.67-3.51,8.57a178.9,178.9,0,0,0-6.41,22.1c-1.83,8.22-3.23,16.52-4.72,24.8-.73,4.09-1.52,8.17-2,12.29-.33,2.65-.73,5.28-1,7.93q-.74,8.76-2.33,17.41c-.58,3.14-1.28,6.26-1.84,9.41-.83,4.61-1.59,9.24-2.35,13.86-.28,1.68-.4,3.39-.73,5.06a45,45,0,0,0-.43,9.56,13,13,0,0,0,.28,2.22,10.57,10.57,0,0,0,.51,2.16A1.92,1.92,0,0,0,476.24,349ZM305.66,758.88c0-6.61.06-13.21.07-19.82a28.47,28.47,0,0,1,.4-6,3.85,3.85,0,0,0,.11-1,64.86,64.86,0,0,1,.78-9.55c.41-3.92.82-7.84,1.5-11.72,1.44-8.3,3-16.58,4.58-24.84.79-4,1.49-8,2-12a96.37,96.37,0,0,0,.89-11.78c-.08-14.17,0-28.35,0-42.53a40,40,0,0,1,.41-6.37,33.29,33.29,0,0,0,.2-4.47c0-2.13.22-4.24.42-6.37a89.32,89.32,0,0,0,.91-9.53c0-.74.16-1.48.23-2.23.13-1.27.24-2.54.37-3.81l.33-3.49c.11-1.06.22-2.12.32-3.18a15,15,0,0,1,.12-1.91,39,39,0,0,0,.52-8.29q0-13.43,0-26.86c0-1.59-.22-3.18-.35-4.77,0-.21-.08-.42-.09-.63-.27-4.36-.57-8.71-.78-13.07-.1-2.24,0-4.48-.06-6.72,0-1.48-.21-3-.33-4.45a11.05,11.05,0,0,1-.17-1.27c.1-3.42-.64-6.78-.79-10.19-.06-1.27-.35-2.53-.52-3.79a206.37,206.37,0,0,0-4.13-21.33c-.92-3.72-1.69-7.48-2.54-11.23-.21-.93-.42-1.87-.68-2.79-2.5-8.82-4.37-17.8-6.63-26.69-.89-3.5-1.44-7.09-2.14-10.65-.46-2.3-.79-4.63-1.37-6.89-1.15-4.46-1.51-9-2.27-13.55-.14-.83-.08-1.7-.15-2.55-.12-1.48-.28-3-.38-4.45s-.22-3-.23-4.47q0-12.63,0-25.26a55,55,0,0,0-.4-5.73c-.41-3.91-.7-7.85-.82-11.78-.14-4.37,0-8.74-.05-13.11a25.5,25.5,0,0,1,.49-6,7.81,7.81,0,0,0,.08-1.51c-.5-.37-.66,0-.71.25-.89,3.83-1.83,7.65-1.77,11.65.1,5.86,0,11.72.06,17.59,0,1.48.2,3,.3,4.45s.23,2.77.24,4.15c0,8.21,0,16.42,0,24.62a71.19,71.19,0,0,0,.5,10.21c.36,2.41.28,4.88.73,7.3.37,2,.53,4,.9,6q1.68,9,3.47,17.88c.44,2.2,1,4.37,1.53,6.54,1.66,6.39,2.87,12.89,4.72,19.25.89,3.06,1.52,6.21,2.27,9.31.67,2.8,1.35,5.6,2,8.4a192.35,192.35,0,0,1,3.8,19.76c.52,4,1.1,8,1.23,12.07,0,.11,0,.22,0,.32.79,4,.49,8.07.62,12.11,0,1.6.22,3.19.34,4.78,0,.32.13.63.13,1-.07,5,.92,10,.8,15a38.15,38.15,0,0,0,.46,8.6,10.15,10.15,0,0,1,.1,1.91q0,5.76,0,11.52a13.56,13.56,0,0,1-.18,2.55,32.24,32.24,0,0,0-.42,6.05c0,2.13-.22,4.24-.41,6.36-.29,3.18-.95,6.33-.91,9.54a20.88,20.88,0,0,1-.23,2.22c-.13,1.27-.24,2.55-.36,3.82s-.23,2.33-.34,3.49c-.35,3.82-1,7.6-1,11.45,0,1.59-.23,3.18-.34,4.78s-.25,3-.25,4.46q0,18.87-.05,37.74c0,3.62-.14,7.22-.49,10.84-.45,4.56-1.12,9.09-1.73,13.62-.54,4-1.48,8-2.2,11.94-.87,4.83-1.68,9.66-2.53,14.49a98,98,0,0,0-1.45,10.11c-.23,3.29-.7,6.56-1.05,9.84q-.09,1-.09,1.92c0,6.71-.09,13.43,0,20.14A33,33,0,0,0,305,760.88c.06.17.25.3.41.47A4.37,4.37,0,0,0,305.66,758.88ZM193.77,494.49a19.49,19.49,0,0,1,.17-2.87,36.57,36.57,0,0,0,.47-7q0-30.86,0-61.71c0-1.38,0-2.77,0-4.16a13.39,13.39,0,0,1,.14-2.54,40.89,40.89,0,0,0,.45-7.65,41.22,41.22,0,0,1,.41-6.37,31.65,31.65,0,0,0,.21-4.47,35.08,35.08,0,0,1,.39-5.41,19.85,19.85,0,0,0,.23-3.18,43.34,43.34,0,0,1,.5-7,46.59,46.59,0,0,0,.68-6c.28-4.92,1.41-9.69,2.32-14.51.34-1.77.72-3.55,1.06-5.33a77.34,77.34,0,0,1,2.16-8.34,43.1,43.1,0,0,1,6.78-13c2.85-3.86,5.91-7.53,9.06-11.16,5-5.72,9.51-11.78,12.65-18.74,2.32-5.14,4.8-10.22,6.63-15.58a53.4,53.4,0,0,0,2.1-8.69,28.79,28.79,0,0,0,.22-4.46q0-17.74,0-35.5c0-3.83,0-7.67,0-11.51a36.63,36.63,0,0,0-.42-7,15.16,15.16,0,0,1-.15-2.86q0-12.31,0-24.62c0-1.49.22-3,.32-4.46.09-1.27.21-2.55.22-3.82,0-4.05,0-8.1.07-12.15,0-1.49.21-3,.32-4.46.09-1.17.22-2.33.25-3.5.06-2,0-4,.07-6.08a14.44,14.44,0,0,1,.13-2.55,39.92,39.92,0,0,0,.47-7.64,21.81,21.81,0,0,1,.4-4.77,6,6,0,0,0,.13-.95c.27-3.18.52-6.36.78-9.55.07-.74.15-1.48.25-2.22.05-.42.18-.84.2-1.26.29-7.13,1.18-14.23.77-21.38a6.19,6.19,0,0,0-.06-1,42.52,42.52,0,0,1-.6-6.67,3.3,3.3,0,0,0-.58-2.12,1.39,1.39,0,0,0-.79-.4.63.63,0,0,0-.48.34,6.71,6.71,0,0,0-.54,1.81,30.94,30.94,0,0,0,.15,6.38,40.44,40.44,0,0,1,0,11.78,19.64,19.64,0,0,0-.22,2.54,26.49,26.49,0,0,1-.47,5.41,3.29,3.29,0,0,0-.08.63,87.28,87.28,0,0,1-.71,9.55c-.34,3-.5,5.94-.91,8.89a42.79,42.79,0,0,0-.39,5.41,37.91,37.91,0,0,1-.4,5.42,34.79,34.79,0,0,0-.24,4.46,44.06,44.06,0,0,1-.44,6.69,23.18,23.18,0,0,0-.19,3.82q0,24.94-.06,49.88,0,26.87.06,53.72A34.94,34.94,0,0,1,235,289.1a149.76,149.76,0,0,1-7.73,17.55,56.93,56.93,0,0,1-6.19,9.67c-1.69,2.06-3.38,4.12-5.2,6.06a110.2,110.2,0,0,0-10.78,13.86A44.77,44.77,0,0,0,199.24,349c-1.51,5.24-2.42,10.6-3.52,15.92-1,4.8-1.52,9.67-2,14.54-.3,2.76-.36,5.53-.68,8.27-.38,3.29-.48,6.58-.55,9.88a4.58,4.58,0,0,1,0,.64c-.75,3.8-.52,7.64-.57,11.47a38.75,38.75,0,0,1-.43,6.37,17.86,17.86,0,0,0-.16,3.19q0,29.89,0,59.79c0,1.38.19,2.76.3,4.14a31,31,0,0,1,.25,3.18c0,2.79.63,5.5.9,8.25a13.2,13.2,0,0,0,.48,1.82l.49-.05C193.71,495.74,193.73,495.12,193.77,494.49ZM68.16,282.59a14.16,14.16,0,0,1,0-5.39,12.77,12.77,0,0,0,.22-2.23,66.73,66.73,0,0,1,2.37-15.11c.83-3.2,1.79-6.35,2.79-9.5a95.06,95.06,0,0,0,3.13-14c1.08-7.06,2.35-14.08,3.62-21.1,1-5.24,1.79-10.5,2.64-15.76a21.28,21.28,0,0,0,.21-3.19q0-15.83,0-31.65a13.55,13.55,0,0,0-.17-2.55,30.63,30.63,0,0,1-.41-6.05c0-2.34,0-4.69,0-7a29.84,29.84,0,0,1,.38-5.74,13.45,13.45,0,0,0,.18-2.54q0-15.34,0-30.7a7.7,7.7,0,0,0-.74-4,.58.58,0,0,0-.85,0,3,3,0,0,0-.5.8,15.18,15.18,0,0,0-.47,2.49c-.23,3.5-.48,7-.58,10.52s0,7,0,10.55a51,51,0,0,1-.49,9.24,17,17,0,0,0-.13,3.19c0,9.28-.08,18.55.07,27.82,0,3.19.11,6.36,0,9.55-.15,3.94-.11,7.88,0,11.83a56.69,56.69,0,0,1-.9,10.81c-1.27,7.56-2.66,15.1-4,22.66-.75,4.3-1.46,8.61-2.16,12.92a82.72,82.72,0,0,1-3.23,13.35,76.54,76.54,0,0,0-2.8,10.49,46,46,0,0,0-1,10.79c0,.85.14,1.7.24,2.55s.28,1.68.3,2.53c.09,3.87,1.11,7.58,1.94,11.32,0,.17.25.3.38.45A23.35,23.35,0,0,0,68.16,282.59ZM403.69,60a14.44,14.44,0,0,0-.13,2.55,34,34,0,0,1-.47,6,16.1,16.1,0,0,0-.17,2.87c0,1.92,0,3.84-.05,5.76a15.46,15.46,0,0,1-.1,2.55,49.88,49.88,0,0,0-.55,8.28,8.5,8.5,0,0,1-.11,1.6,35.24,35.24,0,0,0-.52,7.32c0,.11,0,.21,0,.32q-.49,5.57-1,11.13c0,.21-.08.42-.09.63-.28,3.72-.54,7.43-.81,11.15-.11,1.38-.24,2.75-.36,4.13a8.07,8.07,0,0,0-.14.95c.07,4.27-.84,8.48-.78,12.75a38.46,38.46,0,0,1-.46,7.65,19.53,19.53,0,0,0-.14,3.51q-.06,12.95-.09,25.91a31,31,0,0,1-.34,5.09,20,20,0,0,0-.21,3.19c-.05,2.56-.05,5.12-.06,7.67a35.15,35.15,0,0,1-.42,6.06,11.84,11.84,0,0,0,.23,5.39c.18.63-.19,1.58.86,1.82.61-.42.56-1.1.68-1.7a46,46,0,0,0,1.25-10.78,9.27,9.27,0,0,1,.14-2.23,34.2,34.2,0,0,0,.46-7c0-7.36,0-14.72.07-22.07,0-1.6.21-3.19.32-4.78.08-1.17.2-2.33.23-3.5.05-1.92,0-3.84.05-5.76a17.09,17.09,0,0,1,.15-2.87,39.14,39.14,0,0,0,.46-7.33,34.11,34.11,0,0,1,.45-6.69,11.78,11.78,0,0,0,.17-2.23,33.91,33.91,0,0,1,.51-6.36,11.83,11.83,0,0,0,.13-2.23,27.54,27.54,0,0,1,.47-5.73,1.67,1.67,0,0,0,.05-.31c0-3.85.64-7.64.8-11.47.06-1.49.24-3,.37-4.46,0-.21.09-.42.09-.63-.05-4,.75-7.84.81-11.79a32.23,32.23,0,0,1,.39-5.09,21.11,21.11,0,0,0,.21-3.19c0-2.77,0-5.54.06-8.31a33.49,33.49,0,0,1,.38-5.74,8.33,8.33,0,0,0,.06-2.86,43.89,43.89,0,0,1-.47-7.33,11.47,11.47,0,0,0-1-5,.69.69,0,0,0-.45-.36c-.11,0-.35.22-.37.37a7.59,7.59,0,0,0-.11,1.27c0,1.38,0,2.77,0,4.15A40,40,0,0,1,403.69,60ZM471.3,504.47a84.64,84.64,0,0,0,1.07,13.67c.9,6.86,2.09,13.67,3.21,20.5.16.94.12,1.91.26,2.86.16,1.15.4,2.29.65,3.43a.5.5,0,0,0,.44.28.71.71,0,0,0,.41-.42,4.44,4.44,0,0,0,.27-1.24A57.7,57.7,0,0,0,477.3,533c-.46-2.83-.6-5.71-.91-8.57-.18-1.69-.42-3.37-.62-5.06-.34-2.86-.69-5.71-1-8.56a34.1,34.1,0,0,1-.24-3.5c0-3.73,0-7.45,0-11.18a16.16,16.16,0,0,1,.17-2.87,34,34,0,0,0,.42-6,47.21,47.21,0,0,1,.48-8,28.5,28.5,0,0,0,.16-4.14,42.52,42.52,0,0,1,.42-6.37,31.51,31.51,0,0,0,.21-4.46,37.3,37.3,0,0,1,.5-7.31,10.11,10.11,0,0,0,.14-1.91,42.78,42.78,0,0,1,.52-7.32,14.44,14.44,0,0,0,.11-2.55q0-11.82,0-23.64a16.39,16.39,0,0,0-.2-2.53c0-.21-.41-.42-.67-.51-.1,0-.38.2-.46.36a4.41,4.41,0,0,0-.47,1.18,28.9,28.9,0,0,0-.75,6,46.6,46.6,0,0,1-.47,7.64,34.56,34.56,0,0,0-.16,4.78,37.77,37.77,0,0,1-.4,5.41,34.79,34.79,0,0,0-.23,4.46,42.47,42.47,0,0,1-.52,8.27,11.78,11.78,0,0,0-.13,2.23,40.55,40.55,0,0,1-.42,5.72,35,35,0,0,0-.21,4.46,45.34,45.34,0,0,1-.42,6.37,28.5,28.5,0,0,0-.21,4.14,45.46,45.46,0,0,1-.48,7.64,15.22,15.22,0,0,0-.15,2.87c0,3.08,0,6.17,0,9.26h0C471.31,501.06,471.36,502.77,471.3,504.47ZM113.15,698.34a39.17,39.17,0,0,1,.47-5.72c.33-2.1.39-4.23.73-6.34,1-6.29,2-12.61,3-18.92.69-4.41,1.55-8.81,2.06-13.24a81.16,81.16,0,0,0,.87-11.45c-.11-4.9,0-9.8-.06-14.7,0-1.48-.22-3-.35-4.44,0-.22-.09-.42-.09-.63,0-4-.87-8-.82-12.1a47.78,47.78,0,0,0-.38-5.72,30.94,30.94,0,0,1-.11-6.38,78,78,0,0,1,1.5-11.06c.31-1.23.51-2.5.74-3.76a2.7,2.7,0,0,0,0-.94c0-.16-.24-.3-.39-.4s-.21,0-.26.1a2,2,0,0,0-.31.55c-.87,3-1.8,5.9-2.57,8.89a40,40,0,0,0-1.38,11c.07,3.09,0,6.18,0,9.27a39.82,39.82,0,0,0,.41,6.36,33.07,33.07,0,0,1,.2,4.46,38.82,38.82,0,0,0,.42,6.37,16,16,0,0,1,.18,2.86c0,2.13,0,4.26,0,6.39,0,1.49-.21,3-.33,4.45,0,.42-.16.84-.15,1.27a78.09,78.09,0,0,1-.73,9.54c-.13,1-.23,2.11-.38,3.16-.68,4.85-1.56,9.68-2,14.54-.35,3.81-.56,7.64-.73,11.46-.22,5.1,0,10.22,0,15.33a12.34,12.34,0,0,0,.14,1.33C113.31,699.39,113.14,698.83,113.15,698.34Zm288.66,68.07a.67.67,0,0,0,.45.37.78.78,0,0,0,.56-.2,3.47,3.47,0,0,0,1.06-1.92,25.71,25.71,0,0,0,.9-5.65c0-1.49,0-3,.05-4.47s.22-3,.34-4.44a21.6,21.6,0,0,0,.22-2.53,44.06,44.06,0,0,1,1-9.17,13.68,13.68,0,0,0,.28-2.84,11.85,11.85,0,0,0-.57-2.46c-.12-.42-.72-.77-1-.59a1.75,1.75,0,0,0-.62.68,3.44,3.44,0,0,0-.27,1.23,26.71,26.71,0,0,1-.7,5c-.33,1.67-.43,3.37-.69,5-.71,4.66-.46,9.33-.58,14,0,1.48-.22,3-.35,4.44-.06.74-.16,1.47-.24,2.21A8.5,8.5,0,0,0,401.81,766.41ZM577.44,753a26.13,26.13,0,0,1-.38,5.07,11.79,11.79,0,0,0-.09,4.43.69.69,0,0,0,.39.43.76.76,0,0,0,.59-.07,3.6,3.6,0,0,0,1.32-1.75,10.17,10.17,0,0,0,.73-4c0-3.08,0-6.16,0-9.24a55.6,55.6,0,0,1,.47-8.25,36.77,36.77,0,0,0,0-6,1.54,1.54,0,0,0-.67-1.37c-.13-.08-.38,0-.56,0a.37.37,0,0,0-.21.23,10.52,10.52,0,0,0-.34,1.22,60.62,60.62,0,0,0-1.29,15.2C577.44,750.27,577.43,751.65,577.44,753ZM299.82,26.5c0-.13-.27-.38-.37-.36a.64.64,0,0,0-.43.37,9.92,9.92,0,0,0-.34,1.87c-.06,1.17,0,2.34,0,3.51a32.25,32.25,0,0,1-.42,6c-.32,1.77-.34,3.6-.63,5.38-.68,4.09-1.45,8.17-2.18,12.25-.08.42-.18.84-.22,1.26-.34,3.38-.67,6.76-1,10.15a4.47,4.47,0,0,0,.1,1.26c0,.14.26.26.42.35a.31.31,0,0,0,.25-.15,7.84,7.84,0,0,0,.81-1.71,38.64,38.64,0,0,0,.94-5.66c.26-3.18.58-6.35,1-9.51.61-4.53,1.42-9,2-13.57.26-2,.17-4,.25-6h-.17C299.83,30.12,299.84,28.31,299.82,26.5ZM583.18,57.78c0-3.73,0-7.46,0-11.19a13,13,0,0,0-.93-5,.56.56,0,0,0-.49-.26.59.59,0,0,0-.38.4,15.19,15.19,0,0,0-.13,1.91c0,2.45,0,4.9,0,7.36a34.11,34.11,0,0,1-.39,6,11,11,0,0,0-.14,2.86c.18,2,.48,4,.75,6.17A28,28,0,0,0,583.18,57.78ZM509.5,726.39a6.93,6.93,0,0,0-.31-1.23c-.1-.36-.46-.68-.63-.55s-.37.25-.43.42a15.44,15.44,0,0,0-1,5c0,1.17,0,2.34,0,3.51a37.62,37.62,0,0,1-.33,6.36,3.52,3.52,0,0,0,.17,1.23c.08.36.86.56,1.07.26a3.4,3.4,0,0,0,.75-1.34c.3-2.53.94-5,.85-7.59,0-.53,0-1.06,0-1.59h.06C509.65,729.36,509.6,727.87,509.5,726.39ZM138.11,352.71a2.73,2.73,0,0,0-.17-.93.72.72,0,0,0-.42-.4.66.66,0,0,0-.56.12,5,5,0,0,0-1.25,2.52,30.57,30.57,0,0,0-.67,9.44,3.79,3.79,0,0,0,.27.91.9.9,0,0,0,1.33.33,4,4,0,0,0,.75-1,7.9,7.9,0,0,0,.7-3.39c0-1.27,0-2.54,0-3.8h0C138.12,355.25,138.13,354,138.11,352.71Zm193.15,99.76a.55.55,0,0,0,.55.07,1.89,1.89,0,0,0,.54-.74,12.07,12.07,0,0,0,.82-4q.09-2.22.3-4.44a17.33,17.33,0,0,0-.57-5,.58.58,0,0,0-.46-.3.55.55,0,0,0-.39.38c-.23,3.39-.78,6.73-1.3,10.08a10.64,10.64,0,0,0-.09,1.18C330.71,450.68,330.6,451.67,331.26,452.47Z"/><path class="cls-2" d="M31.2,791.35l-.5.65h.64Z"/><path class="cls-3" d="M349.66,704.78a24.61,24.61,0,0,0,1.32-5.66c.35-2.1.54-4.22.84-6.33.53-3.69,1-7.38,1.28-11.11.22-3.08.69-6.13,1-9.2.09-.74.07-1.49.14-2.24.12-1.59.31-3.17.4-4.77.18-3.19.89-6.33.91-9.53a15.52,15.52,0,0,1,.15-1.92c.47-3.8.93-7.6,1.17-11.43.19-3.08.65-6.14,1-9.21.09-.85.14-1.7.22-2.55.11-1.16.24-2.32.36-3.49l.27-2.86.36-3.5c.09-.84.19-1.69.27-2.54l.42-4.13c0-.31.12-.63.13-.95.06-2.88.45-5.73.68-8.59.33-4,.71-8.06,1.17-12.08.11-1,.1-1.91.17-2.87.11-1.38.25-2.76.38-4.13,0-.32.14-.64.14-1,0-4.06.63-8.07.78-12.11.05-1.38.2-2.76.35-4.14.26-2.33.63-4.64.81-7,.28-3.73,1.05-7.38,1.66-11.06,1-6,2.12-12,3.16-17.94.2-1.15.28-2.33.4-3.49a17,17,0,0,1,.13-1.91,43.38,43.38,0,0,0,.56-8c0-1.48.23-3,.34-4.45.09-1.17.22-2.34.22-3.51,0-5.75,0-11.51,0-17.27a15.22,15.22,0,0,0-.14-2.87,36.58,36.58,0,0,1-.42-7l-.06-23.67a25.17,25.17,0,0,0-.42-5.41,7.6,7.6,0,0,1-.15-1.27,93.34,93.34,0,0,0-1.34-11.42c-1-6.41-2.16-12.82-3.24-19.23-.79-4.62-1.71-9.22-2.32-13.87s-1.37-9.49-2.1-14.22a150.25,150.25,0,0,0-3.84-17.16c-1.1-3.9-2.46-7.71-3.81-11.53-3.33-9.45-6.45-19-9.06-28.66-1.77-6.59-3.64-13.15-5.4-19.74A78.22,78.22,0,0,1,336.29,305c-.29-3.07-.71-6.13-1.07-9.2a4.48,4.48,0,0,1-.06-.63,71.91,71.91,0,0,0-.66-8.92c-.36-3-.54-5.94-.87-8.9-.44-4-1-8-1.14-12.08a5.11,5.11,0,0,0-.08-1,42.28,42.28,0,0,1-.52-8.92c0-3.3.08-6.61,0-9.91a69.19,69.19,0,0,1,.92-11.14c.41-3,.6-5.93,1.08-8.87a87.81,87.81,0,0,0,.64-12.44,12.67,12.67,0,0,1,.14-2.23,34.1,34.1,0,0,0,.43-6.69c0-2.88,0-5.76,0-8.64a30.64,30.64,0,0,1,.38-5.41,21.27,21.27,0,0,0,.2-3.19c.05-2.35,0-4.69.08-7,0-1.38.22-2.75.31-4.13.11-1.6.22-3.19.27-4.79a42.52,42.52,0,0,1,.52-8.28,5.4,5.4,0,0,0,.09-1.27,63,63,0,0,1,1-8.89c.52-4.23,1.11-8.45,1.71-12.67.23-1.58.51-3.16.86-4.71a59.1,59.1,0,0,0,.95-15c0-.18-.17-.35-.26-.53-.53.11-.58.59-.66,1-1.17,5.31-2.5,10.58-3.65,15.89-1.27,5.85-2.06,11.76-2.89,17.66a50.93,50.93,0,0,0-.86,8.9,1.77,1.77,0,0,1,0,.32c-.8,4.22-.47,8.5-.61,12.75-.06,1.6-.26,3.19-.36,4.78s-.19,3.19-.23,4.79a46.18,46.18,0,0,1-.45,7.33,17.77,17.77,0,0,0-.16,3.19c0,4.37,0,8.74-.07,13.11,0,1.59-.22,3.18-.33,4.78-.1,1.38-.21,2.76-.25,4.14a45.51,45.51,0,0,1-.47,6.69c-.41,2.41-.55,4.86-.83,7.3-.34,3-.71,5.92-1,8.88a34.25,34.25,0,0,0-.2,3.51c0,3.73,0,7.46,0,11.19a28.53,28.53,0,0,0,.43,6.05,6,6,0,0,1,.13,1.27,85.68,85.68,0,0,0,1.19,11.75,6.23,6.23,0,0,1,.09,1,98.44,98.44,0,0,0,1.17,11.11,5.21,5.21,0,0,1,.1,1A84.92,84.92,0,0,0,332,299c.36,3.92.78,7.84,1.46,11.73a156.71,156.71,0,0,0,4.17,17.07q2,6.73,3.8,13.54c1.34,5.06,2.86,10.05,4.42,15,1.73,5.5,3.72,10.9,5.64,16.32.82,2.31,1.47,4.68,2.1,7.05a154.89,154.89,0,0,1,4,20c.78,6,1.7,12,2.56,18,.06.42.15.84.23,1.25,1,5.45,2.12,10.89,3.09,16.34.94,5.24,1.78,10.5,2.42,15.79a76.35,76.35,0,0,1,.58,8.93,9.39,9.39,0,0,0,.12,1.91,37.69,37.69,0,0,1,.46,7.65q0,23.67,0,47.34a27.56,27.56,0,0,1-.42,5.73,8.48,8.48,0,0,0-.15,1.59A82.25,82.25,0,0,1,364.85,538c-1,5.88-2.11,11.74-3.12,17.63-.48,2.83-.89,5.67-1.12,8.55-.24,3.07-.69,6.13-1,9.2-.13,1.27-.17,2.55-.19,3.83,0,1.92-.2,3.82-.42,5.73-.4,3.6-.63,7.21-.85,10.83a30.84,30.84,0,0,1-.45,5.08,2.82,2.82,0,0,0-.09.64c.06,3.52-.7,7-.78,10.51a12.63,12.63,0,0,1-.19,2.22,31.16,31.16,0,0,0-.45,5.09c0,1.07-.18,2.12-.28,3.18s-.23,2.33-.35,3.5c-.09.95-.19,1.91-.28,2.86-.12,1.17-.23,2.33-.35,3.5l-.33,3.17c0,.32-.15.63-.16,1-.05,3.41-.56,6.79-.77,10.19,0,.21,0,.43,0,.64-.34,3.82-.69,7.63-1,11.45-.31,3.6-.66,7.21-.88,10.82a56.69,56.69,0,0,1-.47,6.37,30,30,0,0,0-.2,4.14,34.91,34.91,0,0,1-.38,5.1,25.62,25.62,0,0,0-.24,3.82,31.45,31.45,0,0,1-.46,6,6,6,0,0,0-.13,1.27,47.2,47.2,0,0,1-.62,8A3.13,3.13,0,0,0,349.66,704.78Z"/><path class="cls-3" d="M91.44,384.88v32a27.21,27.21,0,0,0,.46,6,2.74,2.74,0,0,1,.09.63,69.27,69.27,0,0,0,.81,9.87c.51,4,.35,8.09,1,12.09a6,6,0,0,1,.1.95,66.69,66.69,0,0,0,.67,8.92c.39,3.06.69,6.13,1,9.2.06.53.2,1.05.21,1.58a64.25,64.25,0,0,0,1.29,9.17c.7,4.11,1.59,8.16,2.61,12.19.84,3.31,1.6,6.64,2.32,10a57.07,57.07,0,0,1,1,6,55.87,55.87,0,0,0,1.18,5.95,5,5,0,0,0,.7,1.41.63.63,0,0,0,.55.18c.17,0,.32-.22.46-.36a.62.62,0,0,0,.12-.3,11.4,11.4,0,0,0,.31-6c-.49-6.09-2.08-12-3.53-17.86a168.61,168.61,0,0,1-3.55-19.16c-.32-2.53-.42-5.1-.79-7.63-.19-1.37-.33-2.75-.46-4.12-.1-1-.14-1.91-.22-2.87q-.17-1.91-.36-3.81a11.35,11.35,0,0,1-.17-1.27c.09-3.74-.67-7.42-.77-11.15,0-.85-.17-1.7-.26-2.54l-.36-3.5c-.11-1.06-.22-2.11-.34-3.17-.09-.85-.24-1.7-.25-2.54a42.32,42.32,0,0,0-.5-6.05,20.54,20.54,0,0,1-.17-3.51q0-11.35,0-22.71,0-16.31,0-32.63a31.68,31.68,0,0,1,.37-5.41,19.88,19.88,0,0,0,.2-3.19c0-2,0-4.05.07-6.07,0-1.07.12-2.13.23-3.19.34-3.07.7-6.13,1.07-9.2q.34-2.85.76-5.7c1.24-8.55,2.82-17,4.59-25.48,1.49-7.09,3-14.18,4.69-21.23,1.16-4.87,2.6-9.68,4-14.5,1.72-6.05,3.51-12.08,5-18.2A109,109,0,0,0,117.69,236q.54-4.28,1.09-8.55c0-.11,0-.21,0-.32,0-3.84.63-7.64.77-11.47,0-1.38.21-2.76.34-4.14.08-.85.23-1.69.25-2.54a32.23,32.23,0,0,1,.47-5.09c.16-.83.12-1.7.2-2.54.42-4,.56-8.08,1.08-12.09a14.27,14.27,0,0,0,.16-1.59c0-2.24.28-4.45.53-6.68.41-3.81.55-7.65.81-11.47.08-1.06.18-2.12.29-3.18.06-.53.21-1,.23-1.58.08-2.77.41-5.52.65-8.28a139.9,139.9,0,0,1,2.34-16.44q1.88-8.91,3.81-17.82a155.55,155.55,0,0,0,2.69-15.75,69.36,69.36,0,0,0,.88-10.18,8.12,8.12,0,0,1,.13-1.91,35.29,35.29,0,0,0,.46-7.33q0-3.84,0-7.67a40.79,40.79,0,0,1,.45-7.65,12.76,12.76,0,0,0,.13-2.55c0-3.2,0-6.4,0-9.6a5.57,5.57,0,0,0-.8-3.36,1.24,1.24,0,0,0-.8-.36c-.13,0-.34.23-.44.4a4.93,4.93,0,0,0-.46,2.48q0,3.21,0,6.4a32.36,32.36,0,0,1-.4,5.73,25.67,25.67,0,0,0-.24,3.83,41,41,0,0,1-.44,6.05,30,30,0,0,0-.21,4.14,27.09,27.09,0,0,1-.39,5.09,4,4,0,0,0-.13,1c.09,3.75-.62,7.43-.81,11.15-.14,2.55-.51,5.09-.87,7.62-1.07,7.5-2.78,14.87-4.4,22.26-1.41,6.46-2.71,12.94-3.49,19.51a60.54,60.54,0,0,0-.84,9.22,13.93,13.93,0,0,1-.23,2.22c-.06.42-.18.84-.21,1.26-.27,3.61-.43,7.23-.82,10.83-.45,4.13-.44,8.29-1,12.41,0,.1,0,.21,0,.31q-.41,4.94-.8,9.87a20.53,20.53,0,0,1-.15,2.23,34.09,34.09,0,0,0-.52,6c0,.74-.14,1.48-.21,2.22-.13,1.49-.28,3-.41,4.45a14.94,14.94,0,0,1-.13,1.91,40,40,0,0,0-.52,7.33c0,1.48-.22,3-.38,4.45-.27,2.43-.57,4.86-.85,7.3a138.5,138.5,0,0,1-4.46,21.9c-2.06,7.28-4.27,14.53-6.11,21.86-2,8-3.86,16-5.4,24-.86,4.51-1.84,9-2.65,13.5q-1.29,7.23-2.36,14.51c-.39,2.63-.41,5.31-.84,7.94-.61,3.69-.44,7.44-1,11.13a21.44,21.44,0,0,0-.16,3.5q0,16.49,0,32.95Z"/><path class="cls-4" d="M475.36,350.78a1.92,1.92,0,0,0,.88-1.74c.3-2.1.5-4.23.8-6.34s.56-4,.94-6c.51-2.61,1.11-5.21,1.68-7.81.28-1.25.6-2.49.89-3.73,1.08-4.57,2.27-9.1,3.19-13.7.87-4.38,1.51-8.82,2.12-13.25.41-3,.51-5.94.85-8.9s.79-6.13,1.31-9.17c1.19-7,2.4-14.08,3.71-21.09,1-5.45,2.11-10.88,3.38-16.28a137.49,137.49,0,0,1,5.82-18.93,73.29,73.29,0,0,1,4.54-10.22,60.21,60.21,0,0,1,5.43-7.88,50.86,50.86,0,0,0,6.39-9.92c1.73-3.54,3.39-7.12,5-10.71a29.61,29.61,0,0,0,2-7.39q1-6.15,1.82-12.33a42.26,42.26,0,0,0,.21-4.78,45.57,45.57,0,0,1,.46-7.65,19.53,19.53,0,0,0,.13-3.51q0-10.56,0-21.11a30.71,30.71,0,0,1,.38-5.41,22.7,22.7,0,0,0,.23-3.5q.06-7,.07-14.07,0-22.56-.07-45.1a24.79,24.79,0,0,0-.38-5.09,8.13,8.13,0,0,1-.2-1.9c.11-2.9-.51-5.73-.73-8.6a13.09,13.09,0,0,0-.67-2.78,2.69,2.69,0,0,0-1.18-1.46A1.43,1.43,0,0,0,522,41.78a20.3,20.3,0,0,0,.41,2.2,21.14,21.14,0,0,1,.66,5.38,49.36,49.36,0,0,0,.52,8.92,16.11,16.11,0,0,1,.1,2.87q0,25.91,0,51.81a28.81,28.81,0,0,1-.4,5.41,18.3,18.3,0,0,0-.2,2.87c0,2.13,0,4.26-.07,6.39a15.34,15.34,0,0,1-.14,2.55,40.88,40.88,0,0,0-.44,7.65l0,20.47a33.87,33.87,0,0,1-.39,5.41c-.37,2.31-.57,4.65-.84,7a95.94,95.94,0,0,1-2,10.36,21,21,0,0,1-1.75,4.79c-1.38,2.77-2.71,5.56-4.14,8.3a55,55,0,0,1-5.11,8.08c-3.16,4.15-6.33,8.33-8.4,13.19-1.2,2.84-2.46,5.67-3.51,8.57a178.9,178.9,0,0,0-6.41,22.1c-1.83,8.22-3.23,16.52-4.72,24.8-.73,4.09-1.52,8.17-2,12.29-.33,2.65-.73,5.28-1,7.93q-.74,8.76-2.33,17.41c-.58,3.14-1.28,6.26-1.84,9.41-.83,4.61-1.59,9.24-2.35,13.86-.28,1.68-.4,3.39-.73,5.06a45,45,0,0,0-.43,9.56,13,13,0,0,0,.28,2.22A10.57,10.57,0,0,0,475.36,350.78Z"/><path class="cls-5" d="M305.4,761.35a4.37,4.37,0,0,0,.26-2.47c0-6.61.06-13.21.07-19.82a28.47,28.47,0,0,1,.4-6,3.85,3.85,0,0,0,.11-1,64.86,64.86,0,0,1,.78-9.55c.41-3.92.82-7.84,1.5-11.72,1.44-8.3,3-16.58,4.58-24.84.79-4,1.49-8,2-12a96.37,96.37,0,0,0,.89-11.78c-.08-14.17,0-28.35,0-42.53a40,40,0,0,1,.41-6.37,33.29,33.29,0,0,0,.2-4.47c0-2.13.22-4.24.42-6.37a89.32,89.32,0,0,0,.91-9.53c0-.74.16-1.48.23-2.23.13-1.27.24-2.54.37-3.81l.33-3.49c.11-1.06.22-2.12.32-3.18a15,15,0,0,1,.12-1.91,39,39,0,0,0,.52-8.29q0-13.43,0-26.86c0-1.59-.22-3.18-.35-4.77,0-.21-.08-.42-.09-.63-.27-4.36-.57-8.71-.78-13.07-.1-2.24,0-4.48-.06-6.72,0-1.48-.21-3-.33-4.45a11.05,11.05,0,0,1-.17-1.27c.1-3.42-.64-6.78-.79-10.19-.06-1.27-.35-2.53-.52-3.79a206.37,206.37,0,0,0-4.13-21.33c-.92-3.72-1.69-7.48-2.54-11.23-.21-.93-.42-1.87-.68-2.79-2.5-8.82-4.37-17.8-6.63-26.69-.89-3.5-1.44-7.09-2.14-10.65-.46-2.3-.79-4.63-1.37-6.89-1.15-4.46-1.51-9-2.27-13.55-.14-.83-.08-1.7-.15-2.55-.12-1.48-.28-3-.38-4.45s-.22-3-.23-4.47q0-12.63,0-25.26a55,55,0,0,0-.4-5.73c-.41-3.91-.7-7.85-.82-11.78-.14-4.37,0-8.74-.05-13.11a25.5,25.5,0,0,1,.49-6,7.81,7.81,0,0,0,.08-1.51c-.5-.37-.66,0-.71.25-.89,3.83-1.83,7.65-1.77,11.65.1,5.86,0,11.72.06,17.59,0,1.48.2,3,.3,4.45s.23,2.77.24,4.15c0,8.21,0,16.42,0,24.62a71.19,71.19,0,0,0,.5,10.21c.36,2.41.28,4.88.73,7.3.37,2,.53,4,.9,6q1.68,9,3.47,17.88c.44,2.2,1,4.37,1.53,6.54,1.66,6.39,2.87,12.89,4.72,19.25.89,3.06,1.52,6.21,2.27,9.31.67,2.8,1.35,5.6,2,8.4a192.35,192.35,0,0,1,3.8,19.76c.52,4,1.1,8,1.23,12.07,0,.11,0,.22,0,.32.79,4,.49,8.07.62,12.11,0,1.6.22,3.19.34,4.78,0,.32.13.63.13,1-.07,5,.92,10,.8,15a38.15,38.15,0,0,0,.46,8.6,10.15,10.15,0,0,1,.1,1.91q0,5.76,0,11.52a13.56,13.56,0,0,1-.18,2.55,32.24,32.24,0,0,0-.42,6.05c0,2.13-.22,4.24-.41,6.36-.29,3.18-.95,6.33-.91,9.54a20.88,20.88,0,0,1-.23,2.22c-.13,1.27-.24,2.55-.36,3.82s-.23,2.33-.34,3.49c-.35,3.82-1,7.6-1,11.45,0,1.59-.23,3.18-.34,4.78s-.25,3-.25,4.46q0,18.87-.05,37.74c0,3.62-.14,7.22-.49,10.84-.45,4.56-1.12,9.09-1.73,13.62-.54,4-1.48,8-2.2,11.94-.87,4.83-1.68,9.66-2.53,14.49a98,98,0,0,0-1.45,10.11c-.23,3.29-.7,6.56-1.05,9.84q-.09,1-.09,1.92c0,6.71-.09,13.43,0,20.14A33,33,0,0,0,305,760.88C305.05,761.05,305.24,761.18,305.4,761.35Z"/><path class="cls-4" d="M193.68,496.37c0-.63,0-1.25.09-1.88a19.49,19.49,0,0,1,.17-2.87,36.57,36.57,0,0,0,.47-7q0-30.86,0-61.71c0-1.38,0-2.77,0-4.16a13.39,13.39,0,0,1,.14-2.54,40.89,40.89,0,0,0,.45-7.65,41.22,41.22,0,0,1,.41-6.37,31.65,31.65,0,0,0,.21-4.47,35.08,35.08,0,0,1,.39-5.41,19.85,19.85,0,0,0,.23-3.18,43.34,43.34,0,0,1,.5-7,46.59,46.59,0,0,0,.68-6c.28-4.92,1.41-9.69,2.32-14.51.34-1.77.72-3.55,1.06-5.33a77.34,77.34,0,0,1,2.16-8.34,43.1,43.1,0,0,1,6.78-13c2.85-3.86,5.91-7.53,9.06-11.16,5-5.72,9.51-11.78,12.65-18.74,2.32-5.14,4.8-10.22,6.63-15.58a53.4,53.4,0,0,0,2.1-8.69,28.79,28.79,0,0,0,.22-4.46q0-17.74,0-35.5c0-3.83,0-7.67,0-11.51a36.63,36.63,0,0,0-.42-7,15.16,15.16,0,0,1-.15-2.86q0-12.31,0-24.62c0-1.49.22-3,.32-4.46.09-1.27.21-2.55.22-3.82,0-4.05,0-8.1.07-12.15,0-1.49.21-3,.32-4.46.09-1.17.22-2.33.25-3.5.06-2,0-4,.07-6.08a14.44,14.44,0,0,1,.13-2.55,39.92,39.92,0,0,0,.47-7.64,21.81,21.81,0,0,1,.4-4.77,6,6,0,0,0,.13-.95c.27-3.18.52-6.36.78-9.55.07-.74.15-1.48.25-2.22.05-.42.18-.84.2-1.26.29-7.13,1.18-14.23.77-21.38a6.19,6.19,0,0,0-.06-1,42.52,42.52,0,0,1-.6-6.67,3.3,3.3,0,0,0-.58-2.12,1.39,1.39,0,0,0-.79-.4.63.63,0,0,0-.48.34,6.71,6.71,0,0,0-.54,1.81,30.94,30.94,0,0,0,.15,6.38,40.44,40.44,0,0,1,0,11.78,19.64,19.64,0,0,0-.22,2.54,26.49,26.49,0,0,1-.47,5.41,3.29,3.29,0,0,0-.08.63,87.28,87.28,0,0,1-.71,9.55c-.34,3-.5,5.94-.91,8.89a42.79,42.79,0,0,0-.39,5.41,37.91,37.91,0,0,1-.4,5.42,34.79,34.79,0,0,0-.24,4.46,44.06,44.06,0,0,1-.44,6.69,23.18,23.18,0,0,0-.19,3.82q0,24.94-.06,49.88,0,26.87.06,53.72A34.94,34.94,0,0,1,235,289.1a149.76,149.76,0,0,1-7.73,17.55,56.93,56.93,0,0,1-6.19,9.67c-1.69,2.06-3.38,4.12-5.2,6.06a110.2,110.2,0,0,0-10.78,13.86A44.77,44.77,0,0,0,199.24,349c-1.51,5.24-2.42,10.6-3.52,15.92-1,4.8-1.52,9.67-2,14.54-.3,2.76-.36,5.53-.68,8.27-.38,3.29-.48,6.58-.55,9.88a4.58,4.58,0,0,1,0,.64c-.75,3.8-.52,7.64-.57,11.47a38.75,38.75,0,0,1-.43,6.37,17.86,17.86,0,0,0-.16,3.19q0,29.89,0,59.79c0,1.38.19,2.76.3,4.14a31,31,0,0,1,.25,3.18c0,2.79.63,5.5.9,8.25a13.2,13.2,0,0,0,.48,1.82Z"/><path class="cls-5" d="M546.11,674.27c1.19-6.72,2.55-13.4,4.15-20a47.61,47.61,0,0,0,1.65-13c-.07-1.92-.07-3.84,0-5.76a73.27,73.27,0,0,0-1-12.72q-1.11-7.9-2.23-15.82c-.3-2.11-.64-4.21-.92-6.32-.33-2.54-.61-5.08-.93-7.61s-.55-5.08-.75-7.63A80.27,80.27,0,0,0,542.11,566c-1.36-4-2.85-8-4.32-12a113.44,113.44,0,0,1-3.55-10.94,79.49,79.49,0,0,1-1.47-8.5c-.5-3.59-.89-7.19-1.23-10.79-.16-1.69-.07-3.41-.15-5.11-.07-1.49-.21-3-.33-4.46-.08-1.17-.22-2.33-.25-3.5,0-2.13,0-4.27,0-6.4a32.11,32.11,0,0,0-.36-5.09,22.83,22.83,0,0,1-.23-3.51c0-2.24,0-4.48,0-6.71a35.14,35.14,0,0,0-.4-6.06,18.74,18.74,0,0,1-.19-3.18c0-2.35,0-4.7-.07-7-.05-1.59-.24-3.18-.36-4.77-.09-1.38-.21-2.76-.24-4.15a44.16,44.16,0,0,0-.41-5.73,34.79,34.79,0,0,1-.22-4.46,40.93,40.93,0,0,0-.41-5.74,30.06,30.06,0,0,1-.22-4.14,25.83,25.83,0,0,0-.44-5.41,3.06,3.06,0,0,1,0-.32c-.26-4.14-.67-8.28-.74-12.43-.12-7.56,0-15.14,0-22.7a29.4,29.4,0,0,1,.33-4.78,22.6,22.6,0,0,0,.23-3.19c0-1.81,0-3.62.06-5.43a17.53,17.53,0,0,1,0-1.92q.48-5.08,1-10.17c.22-2.11.46-4.23.73-6.34.81-6.23,1.65-12.46,2.47-18.69,0-.31.1-.63.12-1,.19-3.94.73-7.84,1.23-11.75a17.51,17.51,0,0,0,.11-1.92c0-.63,0-1.28.05-1.91.33-3.39.68-6.78,1-10.17.29-2.75.53-5.51.91-8.25.43-3.17.94-6.32,1.5-9.47s1.25-6.27,1.85-9.41a18.32,18.32,0,0,0,.4-2.84,51.43,51.43,0,0,1,.53-7.33,5.41,5.41,0,0,0-.24-2.84c-.11-.3-.53-.61-.7-.47a1.5,1.5,0,0,0-.43.44,3,3,0,0,0-.28.91c-.27,2-.47,4-.81,6-.41,2.41-.9,4.82-1.43,7.21-.84,3.74-1.81,7.46-2.59,11.21-.48,2.29-.73,4.63-1.06,6.95-.23,1.58-.44,3.16-.62,4.75q-.57,4.92-1.11,9.83c-.07.64-.09,1.28-.15,1.92-.14,1.59-.29,3.18-.44,4.76l-.18,1.91c-.16,1.48-.31,3-.46,4.45-.05.42-.13.84-.16,1.27-.44,6.7-1.49,13.33-2.41,20-.35,2.53-.59,5.08-.88,7.62-.36,3.06-.74,6.13-1,9.2-.13,1.27-.15,2.55-.17,3.83a48.22,48.22,0,0,1-.49,8,17,17,0,0,0-.14,3.19q0,14.88,0,29.75c0,1.48.2,3,.32,4.45.07.85.22,1.7.24,2.55a53.34,53.34,0,0,0,.5,6.68,39.55,39.55,0,0,1,.19,5.11,39.62,39.62,0,0,0,.36,5.1,45.61,45.61,0,0,1,.27,5.1,42.32,42.32,0,0,0,.41,6.05,33.07,33.07,0,0,1,.23,4.46,36.86,36.86,0,0,0,.41,5.74,19.83,19.83,0,0,1,.2,3.18c0,2.24,0,4.48.05,6.72a17.1,17.1,0,0,0,.13,2.87,46.79,46.79,0,0,1,.48,8.61c0,1.49,0,3,0,4.47a12.84,12.84,0,0,0,.12,2.24,48.4,48.4,0,0,1,.49,8.92,42.61,42.61,0,0,0,.5,8.29,8.39,8.39,0,0,1,.11,1.59c0,7.6,1.34,15.06,2.74,22.49a80.44,80.44,0,0,0,4.3,13.71,127.47,127.47,0,0,1,5.06,14.82,76.34,76.34,0,0,1,2.13,11c.47,4.76.65,9.57,1.65,14.27.35,5.64,1.5,11.19,2.16,16.79.36,3.07.94,6.11,1.37,9.17a80.22,80.22,0,0,1,1.12,13.67q-.09,2.88,0,5.76a45.67,45.67,0,0,1-.9,10.17c-.79,4.19-1.17,8.44-1.78,12.65a85,85,0,0,0-.67,9.56Z"/><path class="cls-4" d="M68.13,289.82a23.35,23.35,0,0,0,0-7.23,14.16,14.16,0,0,1,0-5.39,12.77,12.77,0,0,0,.22-2.23,66.73,66.73,0,0,1,2.37-15.11c.83-3.2,1.79-6.35,2.79-9.5a95.06,95.06,0,0,0,3.13-14c1.08-7.06,2.35-14.08,3.62-21.1,1-5.24,1.79-10.5,2.64-15.76a21.28,21.28,0,0,0,.21-3.19q0-15.83,0-31.65a13.55,13.55,0,0,0-.17-2.55,30.63,30.63,0,0,1-.41-6.05c0-2.34,0-4.69,0-7a29.84,29.84,0,0,1,.38-5.74,13.45,13.45,0,0,0,.18-2.54q0-15.34,0-30.7a7.7,7.7,0,0,0-.74-4,.58.58,0,0,0-.85,0,3,3,0,0,0-.5.8,15.18,15.18,0,0,0-.47,2.49c-.23,3.5-.48,7-.58,10.52s0,7,0,10.55a51,51,0,0,1-.49,9.24,17,17,0,0,0-.13,3.19c0,9.28-.08,18.55.07,27.82,0,3.19.11,6.36,0,9.55-.15,3.94-.11,7.88,0,11.83a56.69,56.69,0,0,1-.9,10.81c-1.27,7.56-2.66,15.1-4,22.66-.75,4.3-1.46,8.61-2.16,12.92a82.72,82.72,0,0,1-3.23,13.35,76.54,76.54,0,0,0-2.8,10.49,46,46,0,0,0-1,10.79c0,.85.14,1.7.24,2.55s.28,1.68.3,2.53c.09,3.87,1.11,7.58,1.94,11.32C67.79,289.54,68,289.67,68.13,289.82Z"/><path class="cls-3" d="M404.16,52.38a40,40,0,0,1-.47,7.65,14.44,14.44,0,0,0-.13,2.55,34,34,0,0,1-.47,6,16.1,16.1,0,0,0-.17,2.87c0,1.92,0,3.84-.05,5.76a15.46,15.46,0,0,1-.1,2.55,49.88,49.88,0,0,0-.55,8.28,8.5,8.5,0,0,1-.11,1.6,35.24,35.24,0,0,0-.52,7.32c0,.11,0,.21,0,.32q-.49,5.57-1,11.13c0,.21-.08.42-.09.63-.28,3.72-.54,7.43-.81,11.15-.11,1.38-.24,2.75-.36,4.13a8.07,8.07,0,0,0-.14.95c.07,4.27-.84,8.48-.78,12.75a38.46,38.46,0,0,1-.46,7.65,19.53,19.53,0,0,0-.14,3.51q-.06,12.95-.09,25.91a31,31,0,0,1-.34,5.09,20,20,0,0,0-.21,3.19c-.05,2.56-.05,5.12-.06,7.67a35.15,35.15,0,0,1-.42,6.06,11.84,11.84,0,0,0,.23,5.39c.18.63-.19,1.58.86,1.82.61-.42.56-1.1.68-1.7a46,46,0,0,0,1.25-10.78,9.27,9.27,0,0,1,.14-2.23,34.2,34.2,0,0,0,.46-7c0-7.36,0-14.72.07-22.07,0-1.6.21-3.19.32-4.78.08-1.17.2-2.33.23-3.5.05-1.92,0-3.84.05-5.76a17.09,17.09,0,0,1,.15-2.87,39.14,39.14,0,0,0,.46-7.33,34.11,34.11,0,0,1,.45-6.69,11.78,11.78,0,0,0,.17-2.23,33.91,33.91,0,0,1,.51-6.36,11.83,11.83,0,0,0,.13-2.23,27.54,27.54,0,0,1,.47-5.73,1.67,1.67,0,0,0,.05-.31c0-3.85.64-7.64.8-11.47.06-1.49.24-3,.37-4.46,0-.21.09-.42.09-.63-.05-4,.75-7.84.81-11.79a32.23,32.23,0,0,1,.39-5.09,21.11,21.11,0,0,0,.21-3.19c0-2.77,0-5.54.06-8.31a33.49,33.49,0,0,1,.38-5.74,8.33,8.33,0,0,0,.06-2.86,43.89,43.89,0,0,1-.47-7.33,11.47,11.47,0,0,0-1-5,.69.69,0,0,0-.45-.36c-.11,0-.35.22-.37.37a7.59,7.59,0,0,0-.11,1.27C404.15,49.61,404.16,51,404.16,52.38Z"/><path class="cls-5" d="M471.31,499.36c0,1.7.05,3.41,0,5.11a84.64,84.64,0,0,0,1.07,13.67c.9,6.86,2.09,13.67,3.21,20.5.16.94.12,1.91.26,2.86.16,1.15.4,2.29.65,3.43a.5.5,0,0,0,.44.28.71.71,0,0,0,.41-.42,4.44,4.44,0,0,0,.27-1.24A57.7,57.7,0,0,0,477.3,533c-.46-2.83-.6-5.71-.91-8.57-.18-1.69-.42-3.37-.62-5.06-.34-2.86-.69-5.71-1-8.56a34.1,34.1,0,0,1-.24-3.5c0-3.73,0-7.45,0-11.18a16.16,16.16,0,0,1,.17-2.87,34,34,0,0,0,.42-6,47.21,47.21,0,0,1,.48-8,28.5,28.5,0,0,0,.16-4.14,42.52,42.52,0,0,1,.42-6.37,31.51,31.51,0,0,0,.21-4.46,37.3,37.3,0,0,1,.5-7.31,10.11,10.11,0,0,0,.14-1.91,42.78,42.78,0,0,1,.52-7.32,14.44,14.44,0,0,0,.11-2.55q0-11.82,0-23.64a16.39,16.39,0,0,0-.2-2.53c0-.21-.41-.42-.67-.51-.1,0-.38.2-.46.36a4.41,4.41,0,0,0-.47,1.18,28.9,28.9,0,0,0-.75,6,46.6,46.6,0,0,1-.47,7.64,34.56,34.56,0,0,0-.16,4.78,37.77,37.77,0,0,1-.4,5.41,34.79,34.79,0,0,0-.23,4.46,42.47,42.47,0,0,1-.52,8.27,11.78,11.78,0,0,0-.13,2.23,40.55,40.55,0,0,1-.42,5.72,35,35,0,0,0-.21,4.46,45.34,45.34,0,0,1-.42,6.37,28.5,28.5,0,0,0-.21,4.14,45.46,45.46,0,0,1-.48,7.64,15.22,15.22,0,0,0-.15,2.87c0,3.08,0,6.17,0,9.26Z"/><path class="cls-6" d="M216.82,633.37a17.16,17.16,0,0,1-.21,1.91,21.75,21.75,0,0,0-.44,4.76,34,34,0,0,1-.46,6.37,24.68,24.68,0,0,0-.21,2.86c-.08,1.07-.18,2.12-.29,3.18s-.21,2.12-.33,3.18c-.37,3.6-.58,7.21-.81,10.82-.16,2.44-.49,4.87-.52,7.33a6,6,0,0,1-.1,1.27,38.6,38.6,0,0,0-.5,8,36.12,36.12,0,0,1-.41,6,17.82,17.82,0,0,0-.18,3.19q0,11.19,0,22.38a18.92,18.92,0,0,0,.19,3.19,43.11,43.11,0,0,1,.26,10.52,58.82,58.82,0,0,1-2.24,12.88,11.74,11.74,0,0,0-.35,1.56c0,.18.08.53.19.55a1.4,1.4,0,0,0,.86,0,2.79,2.79,0,0,0,.75-.59,11.89,11.89,0,0,0,3.24-5.42,15,15,0,0,0,.71-3.11c.25-4.15,1.06-8.25.77-12.43a10.44,10.44,0,0,0-.11-1.59,37,37,0,0,1-.44-7.65q0-9.43,0-18.86a29,29,0,0,1,.34-5.1,21.07,21.07,0,0,0,.22-3.18c0-2.88,0-5.76,0-8.64a38.21,38.21,0,0,1,.45-7.32,16.1,16.1,0,0,0,.14-2.87c0-2.67.05-5.33.06-8a37.19,37.19,0,0,1,.39-6,18.51,18.51,0,0,0,0-5.41,39.19,39.19,0,0,1-.33-4.46c-.06-3.09,0-6.18-.05-9.27Z"/><path class="cls-5" d="M112.74,699.92c.57-.53.4-1.09.41-1.58a39.17,39.17,0,0,1,.47-5.72c.33-2.1.39-4.23.73-6.34,1-6.29,2-12.61,3-18.92.69-4.41,1.55-8.81,2.06-13.24a81.16,81.16,0,0,0,.87-11.45c-.11-4.9,0-9.8-.06-14.7,0-1.48-.22-3-.35-4.44,0-.22-.09-.42-.09-.63,0-4-.87-8-.82-12.1a47.78,47.78,0,0,0-.38-5.72,30.94,30.94,0,0,1-.11-6.38,78,78,0,0,1,1.5-11.06c.31-1.23.51-2.5.74-3.76a2.7,2.7,0,0,0,0-.94c0-.16-.24-.3-.39-.4s-.21,0-.26.1a2,2,0,0,0-.31.55c-.87,3-1.8,5.9-2.57,8.89a40,40,0,0,0-1.38,11c.07,3.09,0,6.18,0,9.27a39.82,39.82,0,0,0,.41,6.36,33.07,33.07,0,0,1,.2,4.46,38.82,38.82,0,0,0,.42,6.37,16,16,0,0,1,.18,2.86c0,2.13,0,4.26,0,6.39,0,1.49-.21,3-.33,4.45,0,.42-.16.84-.15,1.27a78.09,78.09,0,0,1-.73,9.54c-.13,1-.23,2.11-.38,3.16-.68,4.85-1.56,9.68-2,14.54-.35,3.81-.56,7.64-.73,11.46-.22,5.1,0,10.22,0,15.33A12.34,12.34,0,0,0,112.74,699.92Z"/><path class="cls-3" d="M343.4,426.08a9.29,9.29,0,0,0,.84,2.05c2.08,3,2.91,6.37,3.64,9.81.51,2.4.84,4.83,1.2,7.25q.93,6.15,1.78,12.32a21.16,21.16,0,0,1,.17,2.87c0,3.94.08,7.88,0,11.82,0,1.7-.26,3.39-.38,5.08,0,.08.09.24.16.25a1.52,1.52,0,0,0,.56,0c.09,0,.16-.13.22-.22a8,8,0,0,0,1.33-3.55,63.12,63.12,0,0,0,.75-8.91A21.36,21.36,0,0,1,354,461a20.38,20.38,0,0,0-.05-6c-.78-4.83-1.49-9.68-2.29-14.51a34.05,34.05,0,0,0-3.36-10.29,10.8,10.8,0,0,0-2.3-3,3.77,3.77,0,0,0-2.59-1.08Z"/><path class="cls-7" d="M401.63,765.15a8.5,8.5,0,0,0,.18,1.26.67.67,0,0,0,.45.37.78.78,0,0,0,.56-.2,3.47,3.47,0,0,0,1.06-1.92,25.71,25.71,0,0,0,.9-5.65c0-1.49,0-3,.05-4.47s.22-3,.34-4.44a21.6,21.6,0,0,0,.22-2.53,44.06,44.06,0,0,1,1-9.17,13.68,13.68,0,0,0,.28-2.84,11.85,11.85,0,0,0-.57-2.46c-.12-.42-.72-.77-1-.59a1.75,1.75,0,0,0-.62.68,3.44,3.44,0,0,0-.27,1.23,26.71,26.71,0,0,1-.7,5c-.33,1.67-.43,3.37-.69,5-.71,4.66-.46,9.33-.58,14,0,1.48-.22,3-.35,4.44C401.81,763.68,401.71,764.41,401.63,765.15Z"/><path class="cls-7" d="M577.44,748.89c0,1.38,0,2.76,0,4.14a26.13,26.13,0,0,1-.38,5.07,11.79,11.79,0,0,0-.09,4.43.69.69,0,0,0,.39.43.76.76,0,0,0,.59-.07,3.6,3.6,0,0,0,1.32-1.75,10.17,10.17,0,0,0,.73-4c0-3.08,0-6.16,0-9.24a55.6,55.6,0,0,1,.47-8.25,36.77,36.77,0,0,0,0-6,1.54,1.54,0,0,0-.67-1.37c-.13-.08-.38,0-.56,0a.37.37,0,0,0-.21.23,10.52,10.52,0,0,0-.34,1.22A60.62,60.62,0,0,0,577.44,748.89Z"/><path class="cls-8" d="M299.83,31.93c0-1.81,0-3.62,0-5.43,0-.13-.27-.38-.37-.36a.64.64,0,0,0-.43.37,9.92,9.92,0,0,0-.34,1.87c-.06,1.17,0,2.34,0,3.51a32.25,32.25,0,0,1-.42,6c-.32,1.77-.34,3.6-.63,5.38-.68,4.09-1.45,8.17-2.18,12.25-.08.42-.18.84-.22,1.26-.34,3.38-.67,6.76-1,10.15a4.47,4.47,0,0,0,.1,1.26c0,.14.26.26.42.35a.31.31,0,0,0,.25-.15,7.84,7.84,0,0,0,.81-1.71,38.64,38.64,0,0,0,.94-5.66c.26-3.18.58-6.35,1-9.51.61-4.53,1.42-9,2-13.57.26-2,.17-4,.25-6Z"/><path class="cls-7" d="M581.51,66.08a28,28,0,0,0,1.67-8.3c0-3.73,0-7.46,0-11.19a13,13,0,0,0-.93-5,.56.56,0,0,0-.49-.26.59.59,0,0,0-.38.4,15.19,15.19,0,0,0-.13,1.91c0,2.45,0,4.9,0,7.36a34.11,34.11,0,0,1-.39,6,11,11,0,0,0-.14,2.86C580.94,61.89,581.24,63.87,581.51,66.08Z"/><path class="cls-8" d="M509.72,730.84c-.07-1.48-.12-3-.22-4.45a6.93,6.93,0,0,0-.31-1.23c-.1-.36-.46-.68-.63-.55s-.37.25-.43.42a15.44,15.44,0,0,0-1,5c0,1.17,0,2.34,0,3.51a37.62,37.62,0,0,1-.33,6.36,3.52,3.52,0,0,0,.17,1.23c.08.36.86.56,1.07.26a3.4,3.4,0,0,0,.75-1.34c.3-2.53.94-5,.85-7.59,0-.53,0-1.06,0-1.59Z"/><path class="cls-7" d="M138.12,356.52c0-1.27,0-2.54,0-3.81a2.73,2.73,0,0,0-.17-.93.72.72,0,0,0-.42-.4.66.66,0,0,0-.56.12,5,5,0,0,0-1.25,2.52,30.57,30.57,0,0,0-.67,9.44,3.79,3.79,0,0,0,.27.91.9.9,0,0,0,1.33.33,4,4,0,0,0,.75-1,7.9,7.9,0,0,0,.7-3.39c0-1.27,0-2.54,0-3.8Z"/><path class="cls-8" d="M330.66,449.65c0,1-.06,2,.6,2.82a.55.55,0,0,0,.55.07,1.89,1.89,0,0,0,.54-.74,12.07,12.07,0,0,0,.82-4q.09-2.22.3-4.44a17.33,17.33,0,0,0-.57-5,.58.58,0,0,0-.46-.3.55.55,0,0,0-.39.38c-.23,3.39-.78,6.73-1.3,10.08A10.64,10.64,0,0,0,330.66,449.65Z"/><path class="cls-9" d="M546.11,674.27l-.73.07a25,25,0,0,0-1.16,6.86,24.41,24.41,0,0,1-.4,4.43c-.17.82-.16,1.69-.25,2.53-.12,1.26-.3,2.52-.39,3.79-.24,3.7-1.1,7.35-.88,11.08,0,.41.08.82.12,1.34.22-.2.42-.3.44-.42a67.61,67.61,0,0,0,.8-8.54,51.82,51.82,0,0,1,.59-5.68c.33-2.74.68-5.47,1-8.2Q545.69,677.9,546.11,674.27Z"/><path class="cls-9" d="M216.82,633.37l.62,0c0-.2.18-.51.11-.57-.36-.29-.5.05-.64.31A1.4,1.4,0,0,0,216.82,633.37Z"/><path class="cls-3" d="M343.42,426.05l0,0Z"/><rect class="cls-10" width="52.1" height="792" transform="translate(52.1 792) rotate(-180)"/><circle class="cls-11" cx="25.76" cy="36.77" r="15.45"/><path class="cls-10" d="M31.49,25.75S10.84,18.5,13.3,44C13.3,44,19.86,30,31.49,25.75Z"/><circle class="cls-11" cx="25.76" cy="117.73" r="15.45"/><path class="cls-10" d="M31.49,106.71S10.84,99.46,13.3,124.9C13.3,124.9,19.86,111,31.49,106.71Z"/><circle class="cls-11" cx="25.76" cy="198.68" r="15.45"/><path class="cls-10" d="M31.49,187.66s-20.65-7.25-18.19,18.19C13.3,205.85,19.86,191.9,31.49,187.66Z"/><circle class="cls-11" cx="25.76" cy="279.63" r="15.45"/><path class="cls-10" d="M31.49,268.61s-20.65-7.25-18.19,18.2C13.3,286.81,19.86,272.85,31.49,268.61Z"/><circle class="cls-11" cx="25.76" cy="360.59" r="15.45"/><path class="cls-10" d="M31.49,349.57s-20.65-7.25-18.19,18.19C13.3,367.76,19.86,353.81,31.49,349.57Z"/><circle class="cls-11" cx="25.76" cy="441.54" r="15.45"/><path class="cls-10" d="M31.49,430.52s-20.65-7.25-18.19,18.19C13.3,448.71,19.86,434.76,31.49,430.52Z"/><circle class="cls-11" cx="25.76" cy="522.49" r="15.45"/><path class="cls-10" d="M31.49,511.47s-20.65-7.25-18.19,18.19C13.3,529.66,19.86,515.71,31.49,511.47Z"/><circle class="cls-11" cx="25.76" cy="603.44" r="15.45"/><path class="cls-10" d="M31.49,592.42s-20.65-7.25-18.19,18.2C13.3,610.62,19.86,596.66,31.49,592.42Z"/><circle class="cls-11" cx="25.76" cy="684.4" r="15.45"/><path class="cls-10" d="M31.49,673.38s-20.65-7.25-18.19,18.19C13.3,691.57,19.86,677.62,31.49,673.38Z"/><circle class="cls-11" cx="25.76" cy="765.35" r="15.45"/><path class="cls-10" d="M31.49,754.33s-20.65-7.25-18.19,18.19C13.3,772.52,19.86,758.57,31.49,754.33Z"/></svg>