<svg id="Layer_1" data-name="Layer 1" xmlns="http://www.w3.org/2000/svg" viewBox="0 0 612 792"><defs><style>.cls-1{fill:#452609;}.cls-2{fill:#cf9302;}.cls-3{fill:#6a3e16;}.cls-4{fill:#6a3f16;}.cls-5{fill:#693e16;}.cls-6{fill:#6b3f17;}.cls-7{fill:#683d16;}.cls-8{fill:#653b14;}.cls-9{fill:#57320f;}.cls-10{fill:#edaa00;}.cls-11{fill:#db9200;}</style></defs><rect class="cls-1" width="612" height="792"/><path class="cls-1" d="M580.66,792H0V0H579.39c.07,1.06.2,2.12.2,3.18,0,5,0,10,0,15q0,24.78.2,49.56c.13,15.77-.09,31.55-.14,47.32q-.14,38.37-.24,76.75-.06,31.17,0,62.35c0,13,0,26,0,39,0,31.76.08,63.52-.35,95.28-.27,20-.16,40.08-.17,60.12,0,4.58.26,9.16.32,13.74q.12,9.75.12,19.51c0,16,0,32,.06,48,0,4.69.24,9.38.37,14.07,0,.85,0,1.7,0,2.55q.24,9,.47,17.9c.14,5.22.35,10.44.39,15.66.07,9.6,0,19.19.06,28.78q0,26.22.06,52.44c0,3.31,0,6.62-.24,9.91-.32,5.11-.34,10.22-.28,15.34.12,10.23.27,20.46.31,30.7q.1,30.52.12,61.07c0,4.37.07,8.74.1,13.11ZM268.58,426.05a3.77,3.77,0,0,0-2.59,1.08,10.8,10.8,0,0,0-2.3,3,34.05,34.05,0,0,0-3.36,10.29c-.8,4.83-1.51,9.68-2.29,14.51a20.38,20.38,0,0,0-.05,6,21.36,21.36,0,0,1,.31,3.81,63.12,63.12,0,0,0,.75,8.91,8,8,0,0,0,1.33,3.55c.06.09.13.2.22.22a1.52,1.52,0,0,0,.56,0c.07,0,.17-.17.16-.25-.12-1.69-.36-3.38-.38-5.08-.05-3.94,0-7.88,0-11.82a21.16,21.16,0,0,1,.17-2.87q.86-6.17,1.78-12.32c.36-2.42.69-4.85,1.2-7.25.73-3.44,1.56-6.85,3.64-9.81a9.29,9.29,0,0,0,.84-2.05Zm126,207.29c0,3.09,0,6.18-.05,9.27a39.19,39.19,0,0,1-.33,4.46,18.51,18.51,0,0,0,0,5.41,37.19,37.19,0,0,1,.39,6c0,2.67,0,5.33.06,8a16.1,16.1,0,0,0,.14,2.87,38.21,38.21,0,0,1,.45,7.32c0,2.88,0,5.76,0,8.64a21.07,21.07,0,0,0,.22,3.18,29,29,0,0,1,.34,5.1q0,9.43,0,18.86a37,37,0,0,1-.44,7.65,10.44,10.44,0,0,0-.11,1.59c-.29,4.18.52,8.28.77,12.43a15,15,0,0,0,.71,3.11A11.89,11.89,0,0,0,400,742.7a2.79,2.79,0,0,0,.75.59,1.4,1.4,0,0,0,.86,0c.11,0,.22-.37.19-.55a11.74,11.74,0,0,0-.35-1.56,58.82,58.82,0,0,1-2.24-12.88,43.11,43.11,0,0,1,.26-10.52,18.92,18.92,0,0,0,.19-3.19q0-11.19,0-22.38a17.82,17.82,0,0,0-.18-3.19,36.12,36.12,0,0,1-.41-6,38.6,38.6,0,0,0-.5-8,6,6,0,0,1-.1-1.27c0-2.46-.36-4.89-.52-7.33-.23-3.61-.44-7.22-.81-10.82q-.18-1.59-.33-3.18c-.11-1.06-.21-2.11-.29-3.18a24.68,24.68,0,0,0-.21-2.86,34,34,0,0,1-.46-6.37,21.75,21.75,0,0,0-.44-4.76,17.16,17.16,0,0,1-.21-1.91,1.4,1.4,0,0,0-.09-.29c-.14-.26-.28-.6-.64-.31C394.38,632.83,394.52,633.14,394.56,633.34ZM65.89,674.27q.42,3.63.85,7.26c.33,2.73.68,5.46,1,8.2a51.82,51.82,0,0,1,.59,5.68,67.61,67.61,0,0,0,.8,8.54c0,.12.22.22.44.42,0-.52.1-.93.12-1.34.22-3.73-.64-7.38-.88-11.08-.09-1.27-.27-2.53-.39-3.79-.09-.84-.08-1.71-.25-2.53a24.41,24.41,0,0,1-.4-4.43,25,25,0,0,0-1.16-6.86,85,85,0,0,0-.67-9.56c-.61-4.21-1-8.46-1.78-12.65a45.67,45.67,0,0,1-.9-10.17q.09-2.88,0-5.76a80.22,80.22,0,0,1,1.12-13.67c.43-3.06,1-6.1,1.37-9.17.66-5.6,1.81-11.15,2.16-16.79,1-4.7,1.18-9.51,1.65-14.27a76.34,76.34,0,0,1,2.13-11,127.47,127.47,0,0,1,5.06-14.82,80.44,80.44,0,0,0,4.3-13.71c1.4-7.43,2.7-14.89,2.74-22.49a8.39,8.39,0,0,1,.11-1.59,42.61,42.61,0,0,0,.5-8.29,48.4,48.4,0,0,1,.49-8.92,12.84,12.84,0,0,0,.12-2.24c0-1.49,0-3,0-4.47a46.79,46.79,0,0,1,.48-8.61,17.1,17.1,0,0,0,.13-2.87c0-2.24,0-4.48,0-6.72a19.83,19.83,0,0,1,.2-3.18,36.86,36.86,0,0,0,.41-5.74,33.07,33.07,0,0,1,.23-4.46,42.32,42.32,0,0,0,.41-6.05,45.61,45.61,0,0,1,.27-5.1,39.62,39.62,0,0,0,.36-5.1,39.55,39.55,0,0,1,.19-5.11,53.34,53.34,0,0,0,.5-6.68c0-.85.17-1.7.24-2.55.12-1.48.32-3,.32-4.45q0-14.88,0-29.75a17,17,0,0,0-.14-3.19,48.22,48.22,0,0,1-.49-8c0-1.28,0-2.56-.17-3.83-.31-3.07-.69-6.14-1-9.2-.29-2.54-.53-5.09-.88-7.62-.92-6.64-2-13.27-2.41-20,0-.43-.11-.85-.16-1.27-.15-1.48-.3-3-.46-4.45L82.91,339c-.15-1.58-.3-3.17-.44-4.76-.06-.64-.08-1.28-.15-1.92q-.54-4.91-1.11-9.83c-.18-1.59-.39-3.17-.62-4.75-.33-2.32-.58-4.66-1.06-6.95-.78-3.75-1.75-7.47-2.59-11.21-.53-2.39-1-4.8-1.43-7.21-.34-2-.54-4-.81-6a3,3,0,0,0-.28-.91A1.5,1.5,0,0,0,74,285c-.17-.14-.59.17-.7.47a5.41,5.41,0,0,0-.24,2.84,51.43,51.43,0,0,1,.53,7.33,18.32,18.32,0,0,0,.4,2.84c.6,3.14,1.28,6.27,1.85,9.41s1.07,6.3,1.5,9.47c.38,2.74.62,5.5.91,8.25.35,3.39.7,6.78,1,10.17.06.63,0,1.28,0,1.91a17.51,17.51,0,0,0,.11,1.92c.5,3.91,1,7.81,1.23,11.75,0,.32.07.64.12,1,.82,6.23,1.66,12.46,2.47,18.69.27,2.11.51,4.23.73,6.34q.54,5.08,1,10.17a17.53,17.53,0,0,1,0,1.92c0,1.81,0,3.62.06,5.43a22.6,22.6,0,0,0,.23,3.19,29.4,29.4,0,0,1,.33,4.78c0,7.56.09,15.14,0,22.7-.07,4.15-.48,8.29-.74,12.43a3.06,3.06,0,0,1,0,.32,25.83,25.83,0,0,0-.44,5.41,30.06,30.06,0,0,1-.22,4.14,40.93,40.93,0,0,0-.41,5.74,34.79,34.79,0,0,1-.22,4.46,44.16,44.16,0,0,0-.41,5.73c0,1.39-.15,2.77-.24,4.15-.12,1.59-.31,3.18-.36,4.77-.08,2.34,0,4.69-.07,7a18.74,18.74,0,0,1-.19,3.18,35.14,35.14,0,0,0-.4,6.06c0,2.23,0,4.47,0,6.71a22.83,22.83,0,0,1-.23,3.51,32.11,32.11,0,0,0-.36,5.09c0,2.13,0,4.27,0,6.4,0,1.17-.17,2.33-.25,3.5-.12,1.49-.26,3-.33,4.46-.08,1.7,0,3.42-.15,5.11-.34,3.6-.73,7.2-1.23,10.79a79.49,79.49,0,0,1-1.47,8.5A113.44,113.44,0,0,1,74.21,554c-1.47,4-3,8-4.32,12A80.27,80.27,0,0,0,66,585.42c-.2,2.55-.44,5.09-.75,7.63s-.6,5.07-.93,7.61c-.28,2.11-.62,4.21-.92,6.32q-1.12,7.9-2.23,15.82a73.27,73.27,0,0,0-1,12.72c.06,1.92.06,3.84,0,5.76a47.61,47.61,0,0,0,1.65,13C63.34,660.87,64.7,667.55,65.89,674.27Zm196.45,30.51a3.13,3.13,0,0,0,.4-2.53,47.2,47.2,0,0,1-.62-8A6,6,0,0,0,262,693a31.45,31.45,0,0,1-.46-6,25.62,25.62,0,0,0-.24-3.82,34.91,34.91,0,0,1-.38-5.1,30,30,0,0,0-.2-4.14,56.69,56.69,0,0,1-.47-6.37c-.22-3.61-.57-7.22-.88-10.82-.32-3.82-.67-7.63-1-11.45,0-.21,0-.43,0-.64-.21-3.4-.72-6.78-.77-10.19,0-.32-.12-.63-.16-1l-.33-3.17c-.12-1.17-.23-2.33-.35-3.5-.09-1-.19-1.91-.28-2.86-.12-1.17-.24-2.33-.35-3.5s-.25-2.11-.28-3.18a31.16,31.16,0,0,0-.45-5.09,12.63,12.63,0,0,1-.19-2.22c-.08-3.52-.84-7-.78-10.51a2.82,2.82,0,0,0-.09-.64,30.84,30.84,0,0,1-.45-5.08c-.22-3.62-.45-7.23-.85-10.83-.22-1.91-.38-3.81-.42-5.73,0-1.28-.06-2.56-.19-3.83-.31-3.07-.76-6.13-1-9.2-.23-2.88-.64-5.72-1.12-8.55-1-5.89-2.13-11.75-3.12-17.63a82.25,82.25,0,0,1-1.65-13.63,8.48,8.48,0,0,0-.15-1.59,27.56,27.56,0,0,1-.42-5.73q0-23.67,0-47.34a37.69,37.69,0,0,1,.46-7.65,9.39,9.39,0,0,0,.12-1.91,76.35,76.35,0,0,1,.58-8.93c.64-5.29,1.48-10.55,2.42-15.79,1-5.45,2-10.89,3.09-16.34.08-.41.17-.83.23-1.25.86-6,1.78-12,2.56-18a154.89,154.89,0,0,1,4-20c.63-2.37,1.28-4.74,2.1-7.05,1.92-5.42,3.91-10.82,5.64-16.32,1.56-5,3.08-10,4.42-15q1.8-6.79,3.8-13.54a156.71,156.71,0,0,0,4.17-17.07c.68-3.89,1.1-7.81,1.46-11.73a84.92,84.92,0,0,0,.78-11.15,5.21,5.21,0,0,1,.1-1,98.44,98.44,0,0,0,1.17-11.11,6.23,6.23,0,0,1,.09-1,85.68,85.68,0,0,0,1.19-11.75,6,6,0,0,1,.13-1.27,28.53,28.53,0,0,0,.43-6.05c0-3.73,0-7.46,0-11.19a34.25,34.25,0,0,0-.2-3.51c-.33-3-.7-5.92-1-8.88-.28-2.44-.42-4.89-.83-7.3a45.51,45.51,0,0,1-.47-6.69c0-1.38-.15-2.76-.25-4.14-.11-1.6-.31-3.19-.33-4.78-.06-4.37,0-8.74-.07-13.11a17.77,17.77,0,0,0-.16-3.19,46.18,46.18,0,0,1-.45-7.33c0-1.6-.13-3.2-.23-4.79s-.3-3.18-.36-4.78c-.14-4.25.19-8.53-.61-12.75a1.77,1.77,0,0,1,0-.32,50.93,50.93,0,0,0-.86-8.9c-.83-5.9-1.62-11.81-2.89-17.66-1.15-5.31-2.48-10.58-3.65-15.89-.08-.38-.13-.86-.66-1-.09.18-.26.35-.26.53a59.1,59.1,0,0,0,.95,15c.35,1.55.63,3.13.86,4.71.6,4.22,1.19,8.44,1.71,12.67a63,63,0,0,1,1,8.89,5.4,5.4,0,0,0,.09,1.27,42.52,42.52,0,0,1,.52,8.28c.05,1.6.16,3.19.27,4.79.09,1.38.27,2.75.31,4.13.07,2.35,0,4.69.08,7a21.27,21.27,0,0,0,.2,3.19,30.64,30.64,0,0,1,.38,5.41c0,2.88,0,5.76,0,8.64a34.1,34.1,0,0,0,.43,6.69,12.67,12.67,0,0,1,.14,2.23,87.81,87.81,0,0,0,.64,12.44c.48,2.94.67,5.92,1.08,8.87a69.19,69.19,0,0,1,.92,11.14c-.1,3.3,0,6.61,0,9.91a42.28,42.28,0,0,1-.52,8.92,5.11,5.11,0,0,0-.08,1c-.16,4-.7,8.06-1.14,12.08-.33,3-.51,5.94-.87,8.9a71.91,71.91,0,0,0-.66,8.92,4.48,4.48,0,0,1-.06.63c-.36,3.07-.78,6.13-1.07,9.2a78.22,78.22,0,0,1-2.29,12.89c-1.76,6.59-3.63,13.15-5.4,19.74-2.61,9.69-5.73,19.21-9.06,28.66-1.35,3.82-2.71,7.63-3.81,11.53a150.25,150.25,0,0,0-3.84,17.16c-.73,4.73-1.47,9.47-2.1,14.22s-1.53,9.25-2.32,13.87c-1.08,6.41-2.2,12.82-3.24,19.23a93.34,93.34,0,0,0-1.34,11.42,7.6,7.6,0,0,1-.15,1.27,25.17,25.17,0,0,0-.42,5.41L241.68,484a36.58,36.58,0,0,1-.42,7,15.22,15.22,0,0,0-.14,2.87c0,5.76,0,11.52,0,17.27,0,1.17.13,2.34.22,3.51.11,1.48.3,3,.34,4.45a43.38,43.38,0,0,0,.56,8,17,17,0,0,1,.13,1.91c.12,1.16.2,2.34.4,3.49,1,6,2.16,12,3.16,17.94.61,3.68,1.38,7.33,1.66,11.06.18,2.34.55,4.65.81,7,.15,1.38.3,2.76.35,4.14.15,4,.83,8,.78,12.11,0,.31.11.63.14,1,.13,1.37.27,2.75.38,4.13.07,1,.06,1.92.17,2.87.46,4,.84,8,1.17,12.08.23,2.86.62,5.71.68,8.59,0,.32.1.64.13.95l.42,4.13c.08.85.18,1.7.27,2.54l.36,3.5.27,2.86c.12,1.17.25,2.33.36,3.49.08.85.13,1.7.22,2.55.34,3.07.8,6.13,1,9.21.24,3.83.7,7.63,1.17,11.43a15.52,15.52,0,0,1,.15,1.92c0,3.2.73,6.34.91,9.53.09,1.6.28,3.18.4,4.77.07.75,0,1.5.14,2.24.34,3.07.81,6.12,1,9.2.26,3.73.75,7.42,1.28,11.11.3,2.11.49,4.23.84,6.33A24.61,24.61,0,0,0,262.34,704.78Zm258.22-319.9h0q0-16.47,0-32.95a21.44,21.44,0,0,0-.16-3.5c-.6-3.69-.43-7.44-1-11.13-.43-2.63-.45-5.31-.84-7.94q-1.07-7.28-2.36-14.51c-.81-4.51-1.79-9-2.65-13.5-1.54-8.06-3.4-16.06-5.4-24C506.23,270,504,262.75,502,255.47a138.5,138.5,0,0,1-4.46-21.9c-.28-2.44-.58-4.87-.85-7.3-.16-1.48-.33-3-.38-4.45a40,40,0,0,0-.52-7.33,14.94,14.94,0,0,1-.13-1.91c-.13-1.48-.28-3-.41-4.45-.07-.74-.2-1.48-.21-2.22a34.09,34.09,0,0,0-.52-6,20.53,20.53,0,0,1-.15-2.23q-.39-4.94-.8-9.87c0-.1,0-.21,0-.31-.6-4.12-.59-8.28-1-12.41-.39-3.6-.55-7.22-.82-10.83,0-.42-.15-.84-.21-1.26a13.93,13.93,0,0,1-.23-2.22,60.54,60.54,0,0,0-.84-9.22c-.78-6.57-2.08-13-3.49-19.51-1.62-7.39-3.33-14.76-4.4-22.26-.36-2.53-.73-5.07-.87-7.62-.19-3.72-.9-7.4-.81-11.15a4,4,0,0,0-.13-1,27.09,27.09,0,0,1-.39-5.09,30,30,0,0,0-.21-4.14,41,41,0,0,1-.44-6.05,25.67,25.67,0,0,0-.24-3.83,32.36,32.36,0,0,1-.4-5.73q0-3.2,0-6.4a4.93,4.93,0,0,0-.46-2.48c-.1-.17-.31-.42-.44-.4a1.24,1.24,0,0,0-.8.36,5.57,5.57,0,0,0-.8,3.36c0,3.2,0,6.4,0,9.6a12.76,12.76,0,0,0,.13,2.55,40.79,40.79,0,0,1,.45,7.65q0,3.83,0,7.67a35.29,35.29,0,0,0,.46,7.33,8.12,8.12,0,0,1,.13,1.91,69.36,69.36,0,0,0,.88,10.18,155.55,155.55,0,0,0,2.69,15.75q1.92,8.91,3.81,17.82a139.9,139.9,0,0,1,2.34,16.44c.24,2.76.57,5.51.65,8.28,0,.53.17,1,.23,1.58.11,1.06.21,2.12.29,3.18.26,3.82.4,7.66.81,11.47.25,2.23.49,4.44.53,6.68a14.27,14.27,0,0,0,.16,1.59c.52,4,.66,8.06,1.08,12.09.08.84,0,1.71.2,2.54a32.23,32.23,0,0,1,.47,5.09c0,.85.17,1.69.25,2.54.13,1.38.3,2.76.34,4.14.14,3.83.82,7.63.77,11.47,0,.11,0,.21,0,.32q.55,4.27,1.09,8.55a109,109,0,0,0,2.12,11.63c1.46,6.12,3.25,12.15,5,18.2,1.36,4.82,2.8,9.63,4,14.5,1.68,7.05,3.2,14.14,4.69,21.23,1.77,8.45,3.35,16.93,4.59,25.48q.42,2.85.76,5.7c.37,3.07.73,6.13,1.07,9.2.11,1.06.21,2.12.23,3.19,0,2,0,4.05.07,6.07a19.88,19.88,0,0,0,.2,3.19,31.68,31.68,0,0,1,.37,5.41q0,16.32,0,32.63,0,11.36,0,22.71a20.54,20.54,0,0,1-.17,3.51,42.32,42.32,0,0,0-.5,6.05c0,.84-.16,1.69-.25,2.54-.12,1.06-.23,2.11-.34,3.17l-.36,3.5c-.09.84-.23,1.69-.26,2.54-.1,3.73-.86,7.41-.77,11.15a11.35,11.35,0,0,1-.17,1.27q-.19,1.9-.36,3.81c-.08,1-.12,1.91-.22,2.87-.13,1.37-.27,2.75-.46,4.12-.37,2.53-.47,5.1-.79,7.63a168.61,168.61,0,0,1-3.55,19.16c-1.45,5.89-3,11.77-3.53,17.86a11.4,11.4,0,0,0,.31,6,.62.62,0,0,0,.12.3c.14.14.29.33.46.36a.63.63,0,0,0,.55-.18,5,5,0,0,0,.7-1.41,55.87,55.87,0,0,0,1.18-5.95,57.07,57.07,0,0,1,1-6c.72-3.33,1.48-6.66,2.32-10,1-4,1.91-8.08,2.61-12.19a64.25,64.25,0,0,0,1.29-9.17c0-.53.15-1,.21-1.58.34-3.07.64-6.14,1-9.2a66.69,66.69,0,0,0,.67-8.92,6,6,0,0,1,.1-.95c.7-4,.54-8.07,1.05-12.09a69.27,69.27,0,0,0,.81-9.87,2.74,2.74,0,0,1,.09-.63,27.21,27.21,0,0,0,.46-6Zm-383.92-34.1a10.57,10.57,0,0,0,.51-2.16,13,13,0,0,0,.28-2.22,45,45,0,0,0-.43-9.56c-.33-1.67-.45-3.38-.73-5.06-.76-4.62-1.52-9.25-2.35-13.86-.56-3.15-1.26-6.27-1.84-9.41q-1.61-8.64-2.33-17.41c-.23-2.65-.63-5.28-1-7.93-.51-4.12-1.3-8.2-2-12.29-1.49-8.28-2.89-16.58-4.72-24.8a178.9,178.9,0,0,0-6.41-22.1c-1-2.9-2.31-5.73-3.51-8.57-2.07-4.86-5.24-9-8.4-13.19a55,55,0,0,1-5.11-8.08c-1.43-2.74-2.76-5.53-4.14-8.3a21,21,0,0,1-1.75-4.79,95.94,95.94,0,0,1-2-10.36c-.27-2.33-.47-4.67-.84-7a33.87,33.87,0,0,1-.39-5.41l0-20.47a40.88,40.88,0,0,0-.44-7.65,15.34,15.34,0,0,1-.14-2.55c0-2.13,0-4.26-.07-6.39a18.3,18.3,0,0,0-.2-2.87,28.81,28.81,0,0,1-.4-5.41q0-25.9,0-51.81a16.11,16.11,0,0,1,.1-2.87,49.36,49.36,0,0,0,.52-8.92A21.14,21.14,0,0,1,89.55,44a20.3,20.3,0,0,0,.41-2.2,1.43,1.43,0,0,0-2.36-1.34,2.69,2.69,0,0,0-1.18,1.46,13.09,13.09,0,0,0-.67,2.78c-.22,2.87-.84,5.7-.73,8.6a8.13,8.13,0,0,1-.2,1.9,24.79,24.79,0,0,0-.38,5.09q0,22.54-.07,45.1,0,7,.07,14.07a22.7,22.7,0,0,0,.23,3.5,30.71,30.71,0,0,1,.38,5.41q0,10.56,0,21.11a19.53,19.53,0,0,0,.13,3.51,45.57,45.57,0,0,1,.46,7.65,42.26,42.26,0,0,0,.21,4.78q.8,6.18,1.82,12.33a29.61,29.61,0,0,0,2,7.39c1.62,3.59,3.28,7.17,5,10.71a50.86,50.86,0,0,0,6.39,9.92,60.21,60.21,0,0,1,5.43,7.88,73.29,73.29,0,0,1,4.54,10.22,137.49,137.49,0,0,1,5.82,18.93c1.27,5.4,2.35,10.83,3.38,16.28,1.31,7,2.52,14.05,3.71,21.09.52,3,.94,6.1,1.31,9.17s.44,5.95.85,8.9c.61,4.43,1.25,8.87,2.12,13.25.92,4.6,2.11,9.13,3.19,13.7.29,1.24.61,2.48.89,3.73.57,2.6,1.17,5.2,1.68,7.81.38,2,.67,4,.94,6s.5,4.24.8,6.34A1.92,1.92,0,0,0,136.64,350.78Zm170,410.57c.16-.17.35-.3.41-.47a33,33,0,0,0,1.81-10.67c.12-6.71,0-13.43,0-20.14q0-1-.09-1.92c-.35-3.28-.82-6.55-1.05-9.84a98,98,0,0,0-1.45-10.11c-.85-4.83-1.66-9.66-2.53-14.49-.72-4-1.66-7.93-2.2-11.94-.61-4.53-1.28-9.06-1.73-13.62-.35-3.62-.49-7.22-.49-10.84q0-18.87-.05-37.74c0-1.49-.15-3-.25-4.46s-.36-3.19-.34-4.78c0-3.85-.63-7.63-1-11.45-.11-1.16-.23-2.33-.34-3.49s-.23-2.55-.36-3.82a20.88,20.88,0,0,1-.23-2.22c0-3.21-.62-6.36-.91-9.54-.19-2.12-.41-4.23-.41-6.36a32.24,32.24,0,0,0-.42-6.05,13.56,13.56,0,0,1-.18-2.55q0-5.76,0-11.52a10.15,10.15,0,0,1,.1-1.91,38.15,38.15,0,0,0,.46-8.6c-.12-5,.87-10,.8-15,0-.32.1-.63.13-1,.12-1.59.3-3.18.34-4.78.13-4-.17-8.1.62-12.11,0-.1,0-.21,0-.32.13-4.05.71-8.06,1.23-12.07a192.35,192.35,0,0,1,3.8-19.76c.67-2.8,1.35-5.6,2-8.4.75-3.1,1.38-6.25,2.27-9.31,1.85-6.36,3.06-12.86,4.72-19.25.56-2.17,1.09-4.34,1.53-6.54q1.78-8.93,3.47-17.88c.37-2,.53-4,.9-6,.45-2.42.37-4.89.73-7.3a71.19,71.19,0,0,0,.5-10.21c0-8.2,0-16.41,0-24.62,0-1.38.15-2.76.24-4.15s.29-3,.3-4.45c0-5.87,0-11.73.06-17.59.06-4-.88-7.82-1.77-11.65,0-.25-.21-.62-.71-.25a7.81,7.81,0,0,0,.08,1.51,25.5,25.5,0,0,1,.49,6c0,4.37.09,8.74-.05,13.11-.12,3.93-.41,7.87-.82,11.78a55,55,0,0,0-.4,5.73q0,12.63,0,25.26c0,1.49-.12,3-.23,4.47s-.26,3-.38,4.45c-.07.85,0,1.72-.15,2.55-.76,4.51-1.12,9.09-2.27,13.55-.58,2.26-.91,4.59-1.37,6.89-.7,3.56-1.25,7.15-2.14,10.65-2.26,8.89-4.13,17.87-6.63,26.69-.26.92-.47,1.86-.68,2.79-.85,3.75-1.62,7.51-2.54,11.23a206.37,206.37,0,0,0-4.13,21.33c-.17,1.26-.46,2.52-.52,3.79-.15,3.41-.89,6.77-.79,10.19a11.05,11.05,0,0,1-.17,1.27c-.12,1.48-.29,3-.33,4.45-.06,2.24,0,4.48-.06,6.72-.21,4.36-.51,8.71-.78,13.07,0,.21-.08.42-.09.63-.13,1.59-.35,3.18-.35,4.77q-.06,13.44,0,26.86a39,39,0,0,0,.52,8.29,15,15,0,0,1,.12,1.91c.1,1.06.21,2.12.32,3.18l.33,3.49c.13,1.27.24,2.54.37,3.81.07.75.23,1.49.23,2.23a89.32,89.32,0,0,0,.91,9.53c.2,2.13.39,4.24.42,6.37a33.29,33.29,0,0,0,.2,4.47,40,40,0,0,1,.41,6.37c0,14.18.05,28.36,0,42.53a96.37,96.37,0,0,0,.89,11.78c.47,4,1.17,8,2,12,1.63,8.26,3.14,16.54,4.58,24.84.68,3.88,1.09,7.8,1.5,11.72a64.86,64.86,0,0,1,.78,9.55,3.85,3.85,0,0,0,.11,1,28.47,28.47,0,0,1,.4,6c0,6.61,0,13.21.07,19.82A4.37,4.37,0,0,0,306.6,761.35Zm111.72-265,.49.05a13.2,13.2,0,0,0,.48-1.82c.27-2.75.94-5.46.9-8.25a31,31,0,0,1,.25-3.18c.11-1.38.3-2.76.3-4.14q0-29.89,0-59.79a17.86,17.86,0,0,0-.16-3.19,38.75,38.75,0,0,1-.43-6.37c-.05-3.83.18-7.67-.57-11.47a4.58,4.58,0,0,1,0-.64c-.07-3.3-.17-6.59-.55-9.88-.32-2.74-.38-5.51-.68-8.27-.52-4.87-1.05-9.74-2-14.54-1.1-5.32-2-10.68-3.52-15.92a44.77,44.77,0,0,0-5.83-12.72,110.2,110.2,0,0,0-10.78-13.86c-1.82-1.94-3.51-4-5.2-6.06a56.93,56.93,0,0,1-6.19-9.67A149.76,149.76,0,0,1,377,289.1a34.94,34.94,0,0,1-2.31-12.5q.07-26.85.06-53.72,0-24.93-.06-49.88a23.18,23.18,0,0,0-.19-3.82,44.06,44.06,0,0,1-.44-6.69,34.79,34.79,0,0,0-.24-4.46,37.91,37.91,0,0,1-.4-5.42,42.79,42.79,0,0,0-.39-5.41c-.41-2.95-.57-5.93-.91-8.89a87.28,87.28,0,0,1-.71-9.55,3.29,3.29,0,0,0-.08-.63,26.49,26.49,0,0,1-.47-5.41,19.64,19.64,0,0,0-.22-2.54,40.44,40.44,0,0,1,0-11.78,30.94,30.94,0,0,0,.15-6.38,6.71,6.71,0,0,0-.54-1.81.63.63,0,0,0-.48-.34,1.39,1.39,0,0,0-.79.4,3.3,3.3,0,0,0-.58,2.12,42.52,42.52,0,0,1-.6,6.67,6.19,6.19,0,0,0-.06,1c-.41,7.15.48,14.25.77,21.38,0,.42.15.84.2,1.26.1.74.18,1.48.25,2.22.26,3.19.51,6.37.78,9.55a6,6,0,0,0,.13.95,21.81,21.81,0,0,1,.4,4.77,39.92,39.92,0,0,0,.47,7.64,14.44,14.44,0,0,1,.13,2.55c0,2,0,4,.07,6.08,0,1.17.16,2.33.25,3.5.11,1.49.3,3,.32,4.46.06,4.05,0,8.1.07,12.15,0,1.27.13,2.55.22,3.82.1,1.49.32,3,.32,4.46q0,12.3,0,24.62a15.16,15.16,0,0,1-.15,2.86,36.63,36.63,0,0,0-.42,7c0,3.84,0,7.68,0,11.51q0,17.76,0,35.5a28.79,28.79,0,0,0,.22,4.46,53.4,53.4,0,0,0,2.1,8.69c1.83,5.36,4.31,10.44,6.63,15.58,3.14,7,7.68,13,12.65,18.74,3.15,3.63,6.21,7.3,9.06,11.16a43.1,43.1,0,0,1,6.78,13,77.34,77.34,0,0,1,2.16,8.34c.34,1.78.72,3.56,1.06,5.33.91,4.82,2,9.59,2.32,14.51a46.59,46.59,0,0,0,.68,6,43.34,43.34,0,0,1,.5,7,19.85,19.85,0,0,0,.23,3.18,35.08,35.08,0,0,1,.39,5.41,31.65,31.65,0,0,0,.21,4.47,41.22,41.22,0,0,1,.41,6.37,40.89,40.89,0,0,0,.45,7.65,13.39,13.39,0,0,1,.14,2.54c0,1.39,0,2.78,0,4.16q0,30.86,0,61.71a36.57,36.57,0,0,0,.47,7,19.49,19.49,0,0,1,.17,2.87C418.27,495.12,418.29,495.74,418.32,496.37ZM543.87,289.82c.13-.15.34-.28.38-.45.83-3.74,1.85-7.45,1.94-11.32,0-.85.21-1.69.3-2.53s.2-1.7.24-2.55a46,46,0,0,0-1-10.79,76.54,76.54,0,0,0-2.8-10.49,82.72,82.72,0,0,1-3.23-13.35c-.7-4.31-1.41-8.62-2.16-12.92-1.32-7.56-2.71-15.1-4-22.66a56.69,56.69,0,0,1-.9-10.81c.09-3.95.13-7.89,0-11.83-.12-3.19-.06-6.36,0-9.55.15-9.27.07-18.54.07-27.82a17,17,0,0,0-.13-3.19,51,51,0,0,1-.49-9.24c0-3.52.06-7,0-10.55s-.35-7-.58-10.52a15.18,15.18,0,0,0-.47-2.49,3,3,0,0,0-.5-.8.58.58,0,0,0-.85,0,7.7,7.7,0,0,0-.74,4q0,15.35,0,30.7a13.45,13.45,0,0,0,.18,2.54,29.84,29.84,0,0,1,.38,5.74c0,2.34,0,4.69,0,7a30.63,30.63,0,0,1-.41,6.05,13.55,13.55,0,0,0-.17,2.55q0,15.83,0,31.65a21.28,21.28,0,0,0,.21,3.19c.85,5.26,1.68,10.52,2.64,15.76,1.27,7,2.54,14,3.62,21.1a95.06,95.06,0,0,0,3.13,14c1,3.15,2,6.3,2.79,9.5A66.73,66.73,0,0,1,543.62,275a12.77,12.77,0,0,0,.22,2.23,14.16,14.16,0,0,1,0,5.39A23.35,23.35,0,0,0,543.87,289.82Zm-336-237.44c0-1.38,0-2.77,0-4.15a7.59,7.59,0,0,0-.11-1.27c0-.15-.26-.39-.37-.37a.69.69,0,0,0-.45.36,11.47,11.47,0,0,0-1,5,43.89,43.89,0,0,1-.47,7.33,8.33,8.33,0,0,0,.06,2.86,33.49,33.49,0,0,1,.38,5.74c0,2.77,0,5.54.06,8.31a21.11,21.11,0,0,0,.21,3.19,32.23,32.23,0,0,1,.39,5.09c.06,4,.86,7.84.81,11.79,0,.21.08.42.09.63.13,1.49.31,3,.37,4.46.16,3.83.84,7.62.8,11.47a1.67,1.67,0,0,0,.05.31,27.54,27.54,0,0,1,.47,5.73,11.83,11.83,0,0,0,.13,2.23,33.91,33.91,0,0,1,.51,6.36,11.78,11.78,0,0,0,.17,2.23,34.11,34.11,0,0,1,.45,6.69,39.14,39.14,0,0,0,.46,7.33,17.09,17.09,0,0,1,.15,2.87c0,1.92,0,3.84,0,5.76,0,1.17.15,2.33.23,3.5.11,1.59.31,3.18.32,4.78,0,7.35,0,14.71.07,22.07a34.2,34.2,0,0,0,.46,7,9.27,9.27,0,0,1,.14,2.23,46,46,0,0,0,1.25,10.78c.12.6.07,1.28.68,1.7,1.05-.24.68-1.19.86-1.82a11.84,11.84,0,0,0,.23-5.39,35.15,35.15,0,0,1-.42-6.06c0-2.55,0-5.11-.06-7.67a20,20,0,0,0-.21-3.19,31,31,0,0,1-.34-5.09q0-13-.09-25.91a19.53,19.53,0,0,0-.14-3.51,38.46,38.46,0,0,1-.46-7.65c.06-4.27-.85-8.48-.78-12.75a8.07,8.07,0,0,0-.14-.95c-.12-1.38-.25-2.75-.36-4.13-.27-3.72-.53-7.43-.81-11.15,0-.21-.08-.42-.09-.63q-.51-5.56-1-11.13c0-.11,0-.21,0-.32a35.24,35.24,0,0,0-.52-7.32,8.5,8.5,0,0,1-.11-1.6,49.88,49.88,0,0,0-.55-8.28,15.46,15.46,0,0,1-.1-2.55c0-1.92,0-3.84,0-5.76a16.1,16.1,0,0,0-.17-2.87,34,34,0,0,1-.47-6,14.44,14.44,0,0,0-.13-2.55A40,40,0,0,1,207.84,52.38Zm-67.15,447h0c0-3.09,0-6.18,0-9.26a15.22,15.22,0,0,0-.15-2.87,45.46,45.46,0,0,1-.48-7.64,28.5,28.5,0,0,0-.21-4.14,45.34,45.34,0,0,1-.42-6.37,35,35,0,0,0-.21-4.46,40.55,40.55,0,0,1-.42-5.72,11.78,11.78,0,0,0-.13-2.23,42.47,42.47,0,0,1-.52-8.27,34.79,34.79,0,0,0-.23-4.46,37.77,37.77,0,0,1-.4-5.41,34.56,34.56,0,0,0-.16-4.78,46.6,46.6,0,0,1-.47-7.64,28.9,28.9,0,0,0-.75-6,4.41,4.41,0,0,0-.47-1.18c-.08-.16-.36-.4-.46-.36-.26.09-.63.3-.67.51a16.39,16.39,0,0,0-.2,2.53q0,11.82,0,23.64a14.44,14.44,0,0,0,.11,2.55,42.78,42.78,0,0,1,.52,7.32,10.11,10.11,0,0,0,.14,1.91,37.3,37.3,0,0,1,.5,7.31,31.51,31.51,0,0,0,.21,4.46,42.52,42.52,0,0,1,.42,6.37,28.5,28.5,0,0,0,.16,4.14,47.21,47.21,0,0,1,.48,8,34,34,0,0,0,.42,6,16.16,16.16,0,0,1,.17,2.87c0,3.73,0,7.45,0,11.18a34.1,34.1,0,0,1-.24,3.5c-.31,2.85-.66,5.7-1,8.56-.2,1.69-.44,3.37-.62,5.06-.31,2.86-.45,5.74-.91,8.57a57.7,57.7,0,0,0-.31,10.51,4.44,4.44,0,0,0,.27,1.24.71.71,0,0,0,.41.42.5.5,0,0,0,.44-.28c.25-1.14.49-2.28.65-3.43.14-1,.1-1.92.26-2.86,1.12-6.83,2.31-13.64,3.21-20.5a84.64,84.64,0,0,0,1.07-13.67C140.64,502.77,140.69,501.06,140.69,499.36ZM499.26,699.92a12.34,12.34,0,0,0,.14-1.33c0-5.11.18-10.23,0-15.33-.17-3.82-.38-7.65-.73-11.46-.45-4.86-1.33-9.69-2-14.54-.15-1-.25-2.11-.38-3.16a78.09,78.09,0,0,1-.73-9.54c0-.43-.12-.85-.15-1.27-.12-1.48-.29-3-.33-4.45-.06-2.13,0-4.26,0-6.39a16,16,0,0,1,.18-2.86,38.82,38.82,0,0,0,.42-6.37,33.07,33.07,0,0,1,.2-4.46,39.82,39.82,0,0,0,.41-6.36c0-3.09-.06-6.18,0-9.27a40,40,0,0,0-1.38-11c-.77-3-1.7-5.93-2.57-8.89a2,2,0,0,0-.31-.55c-.05-.07-.22-.14-.26-.1s-.35.24-.39.4a2.7,2.7,0,0,0,0,.94c.23,1.26.43,2.53.74,3.76a78,78,0,0,1,1.5,11.06,30.94,30.94,0,0,1-.11,6.38,47.78,47.78,0,0,0-.38,5.72c.05,4.06-.81,8.05-.82,12.1,0,.21-.07.41-.09.63-.13,1.48-.33,3-.35,4.44-.05,4.9.05,9.8-.06,14.7a81.16,81.16,0,0,0,.87,11.45c.51,4.43,1.37,8.83,2.06,13.24,1,6.31,1.93,12.63,3,18.92.34,2.11.4,4.24.73,6.34a39.17,39.17,0,0,1,.47,5.72C498.86,698.83,498.69,699.39,499.26,699.92ZM210.37,765.15c-.08-.74-.18-1.47-.24-2.21-.13-1.48-.31-3-.35-4.44-.12-4.67.13-9.34-.58-14-.26-1.67-.36-3.37-.69-5a26.71,26.71,0,0,1-.7-5,3.44,3.44,0,0,0-.27-1.23,1.75,1.75,0,0,0-.62-.68c-.26-.18-.86.17-1,.59a11.85,11.85,0,0,0-.57,2.46,13.68,13.68,0,0,0,.28,2.84,44.06,44.06,0,0,1,1,9.17,21.6,21.6,0,0,0,.22,2.53c.12,1.48.28,3,.34,4.44s.05,3,.05,4.47a25.71,25.71,0,0,0,.9,5.65,3.47,3.47,0,0,0,1.06,1.92.78.78,0,0,0,.56.2.67.67,0,0,0,.45-.37A8.5,8.5,0,0,0,210.37,765.15ZM34.56,748.89a60.62,60.62,0,0,0-1.29-15.2,10.52,10.52,0,0,0-.34-1.22.37.37,0,0,0-.21-.23c-.18,0-.43-.12-.56,0a1.54,1.54,0,0,0-.67,1.37,36.77,36.77,0,0,0,0,6,55.6,55.6,0,0,1,.47,8.25c0,3.08,0,6.16,0,9.24a10.17,10.17,0,0,0,.73,4,3.6,3.6,0,0,0,1.32,1.75.76.76,0,0,0,.59.07.69.69,0,0,0,.39-.43,11.79,11.79,0,0,0-.09-4.43,26.13,26.13,0,0,1-.38-5.07C34.57,751.65,34.56,750.27,34.56,748.89Zm277.61-717H312c.08,2,0,4.06.25,6,.58,4.54,1.39,9,2,13.57.43,3.16.75,6.33,1,9.51a38.64,38.64,0,0,0,.94,5.66,7.84,7.84,0,0,0,.81,1.71.31.31,0,0,0,.25.15c.16-.09.39-.21.42-.35a4.47,4.47,0,0,0,.1-1.26c-.3-3.39-.63-6.77-1-10.15,0-.42-.14-.84-.22-1.26-.73-4.08-1.5-8.16-2.18-12.25-.29-1.78-.31-3.61-.63-5.38a32.25,32.25,0,0,1-.42-6c0-1.17,0-2.34,0-3.51a9.92,9.92,0,0,0-.34-1.87.64.64,0,0,0-.43-.37c-.1,0-.37.23-.37.36C312.16,28.31,312.17,30.12,312.17,31.93ZM30.49,66.08c.27-2.21.57-4.19.75-6.17a11,11,0,0,0-.14-2.86,34.11,34.11,0,0,1-.39-6c0-2.46,0-4.91,0-7.36a15.19,15.19,0,0,0-.13-1.91.59.59,0,0,0-.38-.4.56.56,0,0,0-.49.26,13,13,0,0,0-.93,5c0,3.73,0,7.46,0,11.19A28,28,0,0,0,30.49,66.08Zm71.79,664.76h.06c0,.53,0,1.06,0,1.59-.09,2.57.55,5.06.85,7.59a3.4,3.4,0,0,0,.75,1.34c.21.3,1,.1,1.07-.26a3.52,3.52,0,0,0,.17-1.23,37.62,37.62,0,0,1-.33-6.36c0-1.17,0-2.34,0-3.51a15.44,15.44,0,0,0-1-5c-.06-.17-.27-.3-.43-.42s-.53.19-.63.55a6.93,6.93,0,0,0-.31,1.23C102.4,727.87,102.35,729.36,102.28,730.84Zm371.6-374.32h0c0,1.26,0,2.53,0,3.8a7.9,7.9,0,0,0,.7,3.39,4,4,0,0,0,.75,1,.9.9,0,0,0,1.33-.33,3.79,3.79,0,0,0,.27-.91,30.57,30.57,0,0,0-.67-9.44A5,5,0,0,0,475,351.5a.66.66,0,0,0-.56-.12.72.72,0,0,0-.42.4,2.73,2.73,0,0,0-.17.93C473.87,354,473.88,355.25,473.88,356.52ZM281.34,449.65a10.64,10.64,0,0,0-.09-1.18c-.52-3.35-1.07-6.69-1.3-10.08a.55.55,0,0,0-.39-.38.58.58,0,0,0-.46.3,17.33,17.33,0,0,0-.57,5q.21,2.22.3,4.44a12.07,12.07,0,0,0,.82,4,1.89,1.89,0,0,0,.54.74.55.55,0,0,0,.55-.07C281.4,451.67,281.29,450.68,281.34,449.65Z"/><path class="cls-2" d="M580.8,791.35l.5.65h-.64Z"/><path class="cls-3" d="M262.34,704.78a24.61,24.61,0,0,1-1.32-5.66c-.35-2.1-.54-4.22-.84-6.33-.53-3.69-1-7.38-1.28-11.11-.22-3.08-.69-6.13-1-9.2-.09-.74-.07-1.49-.14-2.24-.12-1.59-.31-3.17-.4-4.77-.18-3.19-.89-6.33-.91-9.53a15.52,15.52,0,0,0-.15-1.92c-.47-3.8-.93-7.6-1.17-11.43-.19-3.08-.65-6.14-1-9.21-.09-.85-.14-1.7-.22-2.55-.11-1.16-.24-2.32-.36-3.49l-.27-2.86-.36-3.5c-.09-.84-.19-1.69-.27-2.54l-.42-4.13c0-.31-.12-.63-.13-.95-.06-2.88-.45-5.73-.68-8.59-.33-4-.71-8.06-1.17-12.08-.11-1-.1-1.91-.17-2.87-.11-1.38-.25-2.76-.38-4.13,0-.32-.14-.64-.14-1,.05-4.06-.63-8.07-.78-12.11,0-1.38-.2-2.76-.35-4.14-.26-2.33-.63-4.64-.81-7-.28-3.73-1-7.38-1.66-11.06-1-6-2.12-12-3.16-17.94-.2-1.15-.28-2.33-.4-3.49a17,17,0,0,0-.13-1.91,43.38,43.38,0,0,1-.56-8c0-1.48-.23-3-.34-4.45-.09-1.17-.22-2.34-.22-3.51,0-5.75,0-11.51,0-17.27a15.22,15.22,0,0,1,.14-2.87,36.58,36.58,0,0,0,.42-7l.06-23.67a25.17,25.17,0,0,1,.42-5.41,7.6,7.6,0,0,0,.15-1.27,93.34,93.34,0,0,1,1.34-11.42c1-6.41,2.16-12.82,3.24-19.23.79-4.62,1.71-9.22,2.32-13.87s1.37-9.49,2.1-14.22a150.25,150.25,0,0,1,3.84-17.16c1.1-3.9,2.46-7.71,3.81-11.53,3.33-9.45,6.45-19,9.06-28.66,1.77-6.59,3.64-13.15,5.4-19.74A78.22,78.22,0,0,0,275.71,305c.29-3.07.71-6.13,1.07-9.2a4.48,4.48,0,0,0,.06-.63,71.91,71.91,0,0,1,.66-8.92c.36-3,.54-5.94.87-8.9.44-4,1-8,1.14-12.08a5.11,5.11,0,0,1,.08-1,42.28,42.28,0,0,0,.52-8.92c0-3.3-.08-6.61,0-9.91a69.19,69.19,0,0,0-.92-11.14c-.41-3-.6-5.93-1.08-8.87a87.81,87.81,0,0,1-.64-12.44,12.67,12.67,0,0,0-.14-2.23,34.1,34.1,0,0,1-.43-6.69c0-2.88,0-5.76,0-8.64a30.64,30.64,0,0,0-.38-5.41,21.27,21.27,0,0,1-.2-3.19c-.05-2.35,0-4.69-.08-7,0-1.38-.22-2.75-.31-4.13-.11-1.6-.22-3.19-.27-4.79a42.52,42.52,0,0,0-.52-8.28,5.4,5.4,0,0,1-.09-1.27,63,63,0,0,0-1-8.89c-.52-4.23-1.11-8.45-1.71-12.67-.23-1.58-.51-3.16-.86-4.71a59.1,59.1,0,0,1-.95-15c0-.18.17-.35.26-.53.53.11.58.59.66,1,1.17,5.31,2.5,10.58,3.65,15.89,1.27,5.85,2.06,11.76,2.89,17.66a50.93,50.93,0,0,1,.86,8.9,1.77,1.77,0,0,0,0,.32c.8,4.22.47,8.5.61,12.75.06,1.6.26,3.19.36,4.78s.19,3.19.23,4.79a46.18,46.18,0,0,0,.45,7.33,17.77,17.77,0,0,1,.16,3.19c0,4.37,0,8.74.07,13.11,0,1.59.22,3.18.33,4.78.1,1.38.21,2.76.25,4.14a45.51,45.51,0,0,0,.47,6.69c.41,2.41.55,4.86.83,7.3.34,3,.71,5.92,1,8.88a34.25,34.25,0,0,1,.2,3.51c0,3.73,0,7.46,0,11.19a28.53,28.53,0,0,1-.43,6.05,6,6,0,0,0-.13,1.27,85.68,85.68,0,0,1-1.19,11.75,6.23,6.23,0,0,0-.09,1,98.44,98.44,0,0,1-1.17,11.11,5.21,5.21,0,0,0-.1,1A84.92,84.92,0,0,1,280,299c-.36,3.92-.78,7.84-1.46,11.73a156.71,156.71,0,0,1-4.17,17.07q-2,6.73-3.8,13.54c-1.34,5.06-2.86,10.05-4.42,15-1.73,5.5-3.72,10.9-5.64,16.32-.82,2.31-1.47,4.68-2.1,7.05a154.89,154.89,0,0,0-4,20c-.78,6-1.7,12-2.56,18-.06.42-.15.84-.23,1.25-1,5.45-2.12,10.89-3.09,16.34-.94,5.24-1.78,10.5-2.42,15.79a76.35,76.35,0,0,0-.58,8.93,9.39,9.39,0,0,1-.12,1.91,37.69,37.69,0,0,0-.46,7.65q0,23.67,0,47.34a27.56,27.56,0,0,0,.42,5.73,8.48,8.48,0,0,1,.15,1.59A82.25,82.25,0,0,0,247.15,538c1,5.88,2.11,11.74,3.12,17.63.48,2.83.89,5.67,1.12,8.55.24,3.07.69,6.13,1,9.2.13,1.27.17,2.55.19,3.83,0,1.92.2,3.82.42,5.73.4,3.6.63,7.21.85,10.83a30.84,30.84,0,0,0,.45,5.08,2.82,2.82,0,0,1,.09.64c-.06,3.52.7,7,.78,10.51a12.63,12.63,0,0,0,.19,2.22,31.16,31.16,0,0,1,.45,5.09c0,1.07.18,2.12.28,3.18s.23,2.33.35,3.5c.09.95.19,1.91.28,2.86.12,1.17.23,2.33.35,3.5l.33,3.17c0,.32.15.63.16,1,.05,3.41.56,6.79.77,10.19,0,.21,0,.43,0,.64.34,3.82.69,7.63,1,11.45.31,3.6.66,7.21.88,10.82a56.69,56.69,0,0,0,.47,6.37,30,30,0,0,1,.2,4.14,34.91,34.91,0,0,0,.38,5.1,25.62,25.62,0,0,1,.24,3.82,31.45,31.45,0,0,0,.46,6,6,6,0,0,1,.13,1.27,47.2,47.2,0,0,0,.62,8A3.13,3.13,0,0,1,262.34,704.78Z"/><path class="cls-3" d="M520.56,384.88v32a27.21,27.21,0,0,1-.46,6,2.74,2.74,0,0,0-.09.63,69.27,69.27,0,0,1-.81,9.87c-.51,4-.35,8.09-1.05,12.09a6,6,0,0,0-.1.95,66.69,66.69,0,0,1-.67,8.92c-.39,3.06-.69,6.13-1,9.2-.06.53-.2,1.05-.21,1.58a64.25,64.25,0,0,1-1.29,9.17c-.7,4.11-1.59,8.16-2.61,12.19-.84,3.31-1.6,6.64-2.32,10a57.07,57.07,0,0,0-1,6,55.87,55.87,0,0,1-1.18,5.95,5,5,0,0,1-.7,1.41.63.63,0,0,1-.55.18c-.17,0-.32-.22-.46-.36a.62.62,0,0,1-.12-.3,11.4,11.4,0,0,1-.31-6c.49-6.09,2.08-12,3.53-17.86a168.61,168.61,0,0,0,3.55-19.16c.32-2.53.42-5.1.79-7.63.19-1.37.33-2.75.46-4.12.1-1,.14-1.91.22-2.87q.17-1.91.36-3.81a11.35,11.35,0,0,0,.17-1.27c-.09-3.74.67-7.42.77-11.15,0-.85.17-1.7.26-2.54l.36-3.5c.11-1.06.22-2.11.34-3.17.09-.85.24-1.7.25-2.54a42.32,42.32,0,0,1,.5-6.05,20.54,20.54,0,0,0,.17-3.51q0-11.35,0-22.71,0-16.31,0-32.63a31.68,31.68,0,0,0-.37-5.41,19.88,19.88,0,0,1-.2-3.19c0-2,0-4.05-.07-6.07,0-1.07-.12-2.13-.23-3.19-.34-3.07-.7-6.13-1.07-9.2q-.35-2.85-.76-5.7c-1.24-8.55-2.82-17-4.59-25.48-1.49-7.09-3-14.18-4.69-21.23-1.16-4.87-2.6-9.68-4-14.5-1.72-6.05-3.51-12.08-5-18.2A109,109,0,0,1,494.31,236q-.54-4.28-1.09-8.55c0-.11,0-.21,0-.32.05-3.84-.63-7.64-.77-11.47,0-1.38-.21-2.76-.34-4.14-.08-.85-.23-1.69-.25-2.54a32.23,32.23,0,0,0-.47-5.09c-.16-.83-.12-1.7-.2-2.54-.42-4-.56-8.08-1.08-12.09a14.27,14.27,0,0,1-.16-1.59c0-2.24-.28-4.45-.53-6.68-.41-3.81-.55-7.65-.81-11.47-.08-1.06-.18-2.12-.29-3.18-.06-.53-.21-1-.23-1.58-.08-2.77-.41-5.52-.65-8.28a139.9,139.9,0,0,0-2.34-16.44q-1.87-8.91-3.81-17.82a155.55,155.55,0,0,1-2.69-15.75,69.36,69.36,0,0,1-.88-10.18,8.12,8.12,0,0,0-.13-1.91,35.29,35.29,0,0,1-.46-7.33q0-3.84,0-7.67a40.79,40.79,0,0,0-.45-7.65,12.76,12.76,0,0,1-.13-2.55c0-3.2,0-6.4,0-9.6a5.57,5.57,0,0,1,.8-3.36,1.24,1.24,0,0,1,.8-.36c.13,0,.34.23.44.4a4.93,4.93,0,0,1,.46,2.48q0,3.21,0,6.4a32.36,32.36,0,0,0,.4,5.73,25.67,25.67,0,0,1,.24,3.83,41,41,0,0,0,.44,6.05,30,30,0,0,1,.21,4.14,27.09,27.09,0,0,0,.39,5.09,4,4,0,0,1,.13,1c-.09,3.75.62,7.43.81,11.15.14,2.55.51,5.09.87,7.62,1.07,7.5,2.78,14.87,4.4,22.26,1.41,6.46,2.71,12.94,3.49,19.51a60.54,60.54,0,0,1,.84,9.22,13.93,13.93,0,0,0,.23,2.22c.06.42.18.84.21,1.26.27,3.61.43,7.23.82,10.83.45,4.13.44,8.29,1,12.41,0,.1,0,.21,0,.31q.41,4.94.8,9.87a20.53,20.53,0,0,0,.15,2.23,34.09,34.09,0,0,1,.52,6c0,.74.14,1.48.21,2.22.13,1.49.28,3,.41,4.45a14.94,14.94,0,0,0,.13,1.91,40,40,0,0,1,.52,7.33c.05,1.48.22,3,.38,4.45.27,2.43.57,4.86.85,7.3a138.5,138.5,0,0,0,4.46,21.9c2.06,7.28,4.27,14.53,6.11,21.86,2,8,3.86,16,5.4,24,.86,4.51,1.84,9,2.65,13.5q1.29,7.23,2.36,14.51c.39,2.63.41,5.31.84,7.94.61,3.69.44,7.44,1,11.13a21.44,21.44,0,0,1,.16,3.5q0,16.49,0,32.95Z"/><path class="cls-4" d="M136.64,350.78a1.92,1.92,0,0,1-.88-1.74c-.3-2.1-.5-4.23-.8-6.34s-.56-4-.94-6c-.51-2.61-1.11-5.21-1.68-7.81-.28-1.25-.6-2.49-.89-3.73-1.08-4.57-2.27-9.1-3.19-13.7-.87-4.38-1.51-8.82-2.12-13.25-.41-3-.51-5.94-.85-8.9s-.79-6.13-1.31-9.17c-1.19-7-2.4-14.08-3.71-21.09-1-5.45-2.11-10.88-3.38-16.28a137.49,137.49,0,0,0-5.82-18.93,73.29,73.29,0,0,0-4.54-10.22,60.21,60.21,0,0,0-5.43-7.88,50.86,50.86,0,0,1-6.39-9.92c-1.73-3.54-3.39-7.12-5-10.71a29.61,29.61,0,0,1-2-7.39q-1-6.15-1.82-12.33a42.26,42.26,0,0,1-.21-4.78,45.57,45.57,0,0,0-.46-7.65,19.53,19.53,0,0,1-.13-3.51q0-10.56,0-21.11a30.71,30.71,0,0,0-.38-5.41,22.7,22.7,0,0,1-.23-3.5q-.06-7-.07-14.07,0-22.56.07-45.1a24.79,24.79,0,0,1,.38-5.09,8.13,8.13,0,0,0,.2-1.9c-.11-2.9.51-5.73.73-8.6a13.09,13.09,0,0,1,.67-2.78,2.69,2.69,0,0,1,1.18-1.46A1.43,1.43,0,0,1,90,41.78a20.3,20.3,0,0,1-.41,2.2,21.14,21.14,0,0,0-.66,5.38,49.36,49.36,0,0,1-.52,8.92,16.11,16.11,0,0,0-.1,2.87q0,25.91,0,51.81a28.81,28.81,0,0,0,.4,5.41,18.3,18.3,0,0,1,.2,2.87c0,2.13,0,4.26.07,6.39a15.34,15.34,0,0,0,.14,2.55,40.88,40.88,0,0,1,.44,7.65l0,20.47a33.87,33.87,0,0,0,.39,5.41c.37,2.31.57,4.65.84,7a95.94,95.94,0,0,0,2,10.36,21,21,0,0,0,1.75,4.79c1.38,2.77,2.71,5.56,4.14,8.3a55,55,0,0,0,5.11,8.08c3.16,4.15,6.33,8.33,8.4,13.19,1.2,2.84,2.46,5.67,3.51,8.57a178.9,178.9,0,0,1,6.41,22.1c1.83,8.22,3.23,16.52,4.72,24.8.73,4.09,1.52,8.17,2,12.29.33,2.65.73,5.28,1,7.93q.74,8.76,2.33,17.41c.58,3.14,1.28,6.26,1.84,9.41.83,4.61,1.59,9.24,2.35,13.86.28,1.68.4,3.39.73,5.06a45,45,0,0,1,.43,9.56,13,13,0,0,1-.28,2.22A10.57,10.57,0,0,1,136.64,350.78Z"/><path class="cls-5" d="M306.6,761.35a4.37,4.37,0,0,1-.26-2.47c0-6.61-.06-13.21-.07-19.82a28.47,28.47,0,0,0-.4-6,3.85,3.85,0,0,1-.11-1,64.86,64.86,0,0,0-.78-9.55c-.41-3.92-.82-7.84-1.5-11.72-1.44-8.3-3-16.58-4.58-24.84-.79-4-1.49-8-2-12a96.37,96.37,0,0,1-.89-11.78c.08-14.17,0-28.35,0-42.53a40,40,0,0,0-.41-6.37,33.29,33.29,0,0,1-.2-4.47c0-2.13-.22-4.24-.42-6.37a89.32,89.32,0,0,1-.91-9.53c0-.74-.16-1.48-.23-2.23-.13-1.27-.24-2.54-.37-3.81l-.33-3.49c-.11-1.06-.22-2.12-.32-3.18a15,15,0,0,0-.12-1.91,39,39,0,0,1-.52-8.29q0-13.43,0-26.86c0-1.59.22-3.18.35-4.77,0-.21.08-.42.09-.63.27-4.36.57-8.71.78-13.07.1-2.24,0-4.48.06-6.72,0-1.48.21-3,.33-4.45a11.05,11.05,0,0,0,.17-1.27c-.1-3.42.64-6.78.79-10.19.06-1.27.35-2.53.52-3.79a206.37,206.37,0,0,1,4.13-21.33c.92-3.72,1.69-7.48,2.54-11.23.21-.93.42-1.87.68-2.79,2.5-8.82,4.37-17.8,6.63-26.69.89-3.5,1.44-7.09,2.14-10.65.46-2.3.79-4.63,1.37-6.89,1.15-4.46,1.51-9,2.27-13.55.14-.83.08-1.7.15-2.55.12-1.48.28-3,.38-4.45s.22-3,.23-4.47q0-12.63,0-25.26a55,55,0,0,1,.4-5.73c.41-3.91.7-7.85.82-11.78.14-4.37,0-8.74.05-13.11a25.5,25.5,0,0,0-.49-6,7.81,7.81,0,0,1-.08-1.51c.5-.37.66,0,.71.25.89,3.83,1.83,7.65,1.77,11.65-.1,5.86,0,11.72-.06,17.59,0,1.48-.2,3-.3,4.45s-.23,2.77-.24,4.15c0,8.21,0,16.42,0,24.62a71.19,71.19,0,0,1-.5,10.21c-.36,2.41-.28,4.88-.73,7.3-.37,2-.53,4-.9,6q-1.68,9-3.47,17.88c-.44,2.2-1,4.37-1.53,6.54-1.66,6.39-2.87,12.89-4.72,19.25-.89,3.06-1.52,6.21-2.27,9.31-.67,2.8-1.35,5.6-2,8.4a192.35,192.35,0,0,0-3.8,19.76c-.52,4-1.1,8-1.23,12.07,0,.11,0,.22,0,.32-.79,4-.49,8.07-.62,12.11,0,1.6-.22,3.19-.34,4.78,0,.32-.13.63-.13,1,.07,5-.92,10-.8,15a38.15,38.15,0,0,1-.46,8.6,10.15,10.15,0,0,0-.1,1.91q0,5.76,0,11.52a13.56,13.56,0,0,0,.18,2.55,32.24,32.24,0,0,1,.42,6.05c0,2.13.22,4.24.41,6.36.29,3.18.95,6.33.91,9.54a20.88,20.88,0,0,0,.23,2.22c.13,1.27.24,2.55.36,3.82s.23,2.33.34,3.49c.35,3.82,1,7.6,1,11.45,0,1.59.23,3.18.34,4.78s.25,3,.25,4.46q0,18.87.05,37.74c0,3.62.14,7.22.49,10.84.45,4.56,1.12,9.09,1.73,13.62.54,4,1.48,8,2.2,11.94.87,4.83,1.68,9.66,2.53,14.49a98,98,0,0,1,1.45,10.11c.23,3.29.7,6.56,1.05,9.84q.09,1,.09,1.92c0,6.71.09,13.43,0,20.14A33,33,0,0,1,307,760.88C307,761.05,306.76,761.18,306.6,761.35Z"/><path class="cls-4" d="M418.32,496.37c0-.63-.05-1.25-.09-1.88a19.49,19.49,0,0,0-.17-2.87,36.57,36.57,0,0,1-.47-7q0-30.86,0-61.71c0-1.38,0-2.77,0-4.16a13.39,13.39,0,0,0-.14-2.54,40.89,40.89,0,0,1-.45-7.65,41.22,41.22,0,0,0-.41-6.37,31.65,31.65,0,0,1-.21-4.47,35.08,35.08,0,0,0-.39-5.41,19.85,19.85,0,0,1-.23-3.18,43.34,43.34,0,0,0-.5-7,46.59,46.59,0,0,1-.68-6c-.28-4.92-1.41-9.69-2.32-14.51-.34-1.77-.72-3.55-1.06-5.33a77.34,77.34,0,0,0-2.16-8.34,43.1,43.1,0,0,0-6.78-13c-2.85-3.86-5.91-7.53-9.06-11.16-5-5.72-9.51-11.78-12.65-18.74-2.32-5.14-4.8-10.22-6.63-15.58a53.4,53.4,0,0,1-2.1-8.69,28.79,28.79,0,0,1-.22-4.46q0-17.74,0-35.5c0-3.83,0-7.67,0-11.51a36.63,36.63,0,0,1,.42-7,15.16,15.16,0,0,0,.15-2.86q0-12.31,0-24.62c0-1.49-.22-3-.32-4.46-.09-1.27-.21-2.55-.22-3.82,0-4.05,0-8.1-.07-12.15,0-1.49-.21-3-.32-4.46-.09-1.17-.22-2.33-.25-3.5-.06-2,0-4-.07-6.08a14.44,14.44,0,0,0-.13-2.55,39.92,39.92,0,0,1-.47-7.64,21.81,21.81,0,0,0-.4-4.77,6,6,0,0,1-.13-.95c-.27-3.18-.52-6.36-.78-9.55-.07-.74-.15-1.48-.25-2.22-.05-.42-.18-.84-.2-1.26-.29-7.13-1.18-14.23-.77-21.38a6.19,6.19,0,0,1,.06-1,42.52,42.52,0,0,0,.6-6.67,3.3,3.3,0,0,1,.58-2.12,1.39,1.39,0,0,1,.79-.4.63.63,0,0,1,.48.34,6.71,6.71,0,0,1,.54,1.81,30.94,30.94,0,0,1-.15,6.38,40.44,40.44,0,0,0,0,11.78,19.64,19.64,0,0,1,.22,2.54,26.49,26.49,0,0,0,.47,5.41,3.29,3.29,0,0,1,.08.63,87.28,87.28,0,0,0,.71,9.55c.34,3,.5,5.94.91,8.89a42.79,42.79,0,0,1,.39,5.41,37.91,37.91,0,0,0,.4,5.42,34.79,34.79,0,0,1,.24,4.46,44.06,44.06,0,0,0,.44,6.69,23.18,23.18,0,0,1,.19,3.82q0,24.94.06,49.88,0,26.87-.06,53.72A34.94,34.94,0,0,0,377,289.1a149.76,149.76,0,0,0,7.73,17.55,56.93,56.93,0,0,0,6.19,9.67c1.69,2.06,3.38,4.12,5.2,6.06a110.2,110.2,0,0,1,10.78,13.86A44.77,44.77,0,0,1,412.76,349c1.51,5.24,2.42,10.6,3.52,15.92,1,4.8,1.52,9.67,2,14.54.3,2.76.36,5.53.68,8.27.38,3.29.48,6.58.55,9.88a4.58,4.58,0,0,0,0,.64c.75,3.8.52,7.64.57,11.47a38.75,38.75,0,0,0,.43,6.37,17.86,17.86,0,0,1,.16,3.19q0,29.89,0,59.79c0,1.38-.19,2.76-.3,4.14a31,31,0,0,0-.25,3.18c0,2.79-.63,5.5-.9,8.25a13.2,13.2,0,0,1-.48,1.82Z"/><path class="cls-5" d="M65.89,674.27c-1.19-6.72-2.55-13.4-4.15-20a47.61,47.61,0,0,1-1.65-13c.07-1.92.07-3.84,0-5.76a73.27,73.27,0,0,1,1-12.72q1.11-7.9,2.23-15.82c.3-2.11.64-4.21.92-6.32.33-2.54.61-5.08.93-7.61s.55-5.08.75-7.63A80.27,80.27,0,0,1,69.89,566c1.36-4,2.85-8,4.32-12a113.44,113.44,0,0,0,3.55-10.94,79.49,79.49,0,0,0,1.47-8.5c.5-3.59.89-7.19,1.23-10.79.16-1.69.07-3.41.15-5.11.07-1.49.21-3,.33-4.46.08-1.17.22-2.33.25-3.5,0-2.13,0-4.27,0-6.4a32.11,32.11,0,0,1,.36-5.09,22.83,22.83,0,0,0,.23-3.51c0-2.24,0-4.48,0-6.71a35.14,35.14,0,0,1,.4-6.06,18.74,18.74,0,0,0,.19-3.18c0-2.35,0-4.7.07-7,0-1.59.24-3.18.36-4.77.09-1.38.21-2.76.24-4.15a44.16,44.16,0,0,1,.41-5.73,34.79,34.79,0,0,0,.22-4.46,40.93,40.93,0,0,1,.41-5.74,30.06,30.06,0,0,0,.22-4.14,25.83,25.83,0,0,1,.44-5.41,3.06,3.06,0,0,0,0-.32c.26-4.14.67-8.28.74-12.43.12-7.56,0-15.14,0-22.7a29.4,29.4,0,0,0-.33-4.78,22.6,22.6,0,0,1-.23-3.19c0-1.81,0-3.62-.06-5.43a17.53,17.53,0,0,0,0-1.92q-.48-5.08-1-10.17c-.22-2.11-.46-4.23-.73-6.34-.81-6.23-1.65-12.46-2.47-18.69,0-.31-.1-.63-.12-1-.19-3.94-.73-7.84-1.23-11.75a17.51,17.51,0,0,1-.11-1.92c0-.63,0-1.28,0-1.91-.33-3.39-.68-6.78-1-10.17-.29-2.75-.53-5.51-.91-8.25-.43-3.17-.94-6.32-1.5-9.47s-1.25-6.27-1.85-9.41a18.32,18.32,0,0,1-.4-2.84,51.43,51.43,0,0,0-.53-7.33,5.41,5.41,0,0,1,.24-2.84c.11-.3.53-.61.7-.47a1.5,1.5,0,0,1,.43.44,3,3,0,0,1,.28.91c.27,2,.47,4,.81,6,.41,2.41.9,4.82,1.43,7.21.84,3.74,1.81,7.46,2.59,11.21.48,2.29.73,4.63,1.06,6.95.23,1.58.44,3.16.62,4.75q.57,4.92,1.11,9.83c.07.64.09,1.28.15,1.92.14,1.59.29,3.18.44,4.76l.18,1.91c.16,1.48.31,3,.46,4.45,0,.42.13.84.16,1.27.44,6.7,1.49,13.33,2.41,20,.35,2.53.59,5.08.88,7.62.36,3.06.74,6.13,1,9.2.13,1.27.15,2.55.17,3.83a48.22,48.22,0,0,0,.49,8,17,17,0,0,1,.14,3.19q0,14.88,0,29.75c0,1.48-.2,3-.32,4.45-.07.85-.22,1.7-.24,2.55a53.34,53.34,0,0,1-.5,6.68,39.55,39.55,0,0,0-.19,5.11,39.62,39.62,0,0,1-.36,5.1,45.61,45.61,0,0,0-.27,5.1,42.32,42.32,0,0,1-.41,6.05,33.07,33.07,0,0,0-.23,4.46,36.86,36.86,0,0,1-.41,5.74,19.83,19.83,0,0,0-.2,3.18c0,2.24,0,4.48,0,6.72a17.1,17.1,0,0,1-.13,2.87,46.79,46.79,0,0,0-.48,8.61c0,1.49,0,3,0,4.47a12.84,12.84,0,0,1-.12,2.24,48.4,48.4,0,0,0-.49,8.92,42.61,42.61,0,0,1-.5,8.29,8.39,8.39,0,0,0-.11,1.59c0,7.6-1.34,15.06-2.74,22.49a80.44,80.44,0,0,1-4.3,13.71,127.47,127.47,0,0,0-5.06,14.82,76.34,76.34,0,0,0-2.13,11c-.47,4.76-.65,9.57-1.65,14.27-.35,5.64-1.5,11.19-2.16,16.79-.36,3.07-.94,6.11-1.37,9.17a80.22,80.22,0,0,0-1.12,13.67q.09,2.88,0,5.76a45.67,45.67,0,0,0,.9,10.17c.79,4.19,1.17,8.44,1.78,12.65a85,85,0,0,1,.67,9.56Z"/><path class="cls-4" d="M543.87,289.82a23.35,23.35,0,0,1,0-7.23,14.16,14.16,0,0,0,0-5.39,12.77,12.77,0,0,1-.22-2.23,66.73,66.73,0,0,0-2.37-15.11c-.83-3.2-1.79-6.35-2.79-9.5a95.06,95.06,0,0,1-3.13-14c-1.08-7.06-2.35-14.08-3.62-21.1-1-5.24-1.79-10.5-2.64-15.76a21.28,21.28,0,0,1-.21-3.19q0-15.83,0-31.65a13.55,13.55,0,0,1,.17-2.55,30.63,30.63,0,0,0,.41-6.05c0-2.34,0-4.69,0-7a29.84,29.84,0,0,0-.38-5.74,13.45,13.45,0,0,1-.18-2.54q0-15.34,0-30.7a7.7,7.7,0,0,1,.74-4,.58.58,0,0,1,.85,0,3,3,0,0,1,.5.8,15.18,15.18,0,0,1,.47,2.49c.23,3.5.48,7,.58,10.52s0,7,0,10.55a51,51,0,0,0,.49,9.24,17,17,0,0,1,.13,3.19c0,9.28.08,18.55-.07,27.82-.05,3.19-.11,6.36,0,9.55.15,3.94.11,7.88,0,11.83a56.69,56.69,0,0,0,.9,10.81c1.27,7.56,2.66,15.1,4,22.66.75,4.3,1.46,8.61,2.16,12.92a82.72,82.72,0,0,0,3.23,13.35,76.54,76.54,0,0,1,2.8,10.49,46,46,0,0,1,1,10.79c0,.85-.14,1.7-.24,2.55s-.28,1.68-.3,2.53c-.09,3.87-1.11,7.58-1.94,11.32C544.21,289.54,544,289.67,543.87,289.82Z"/><path class="cls-3" d="M207.84,52.38a40,40,0,0,0,.47,7.65,14.44,14.44,0,0,1,.13,2.55,34,34,0,0,0,.47,6,16.1,16.1,0,0,1,.17,2.87c0,1.92,0,3.84,0,5.76a15.46,15.46,0,0,0,.1,2.55,49.88,49.88,0,0,1,.55,8.28,8.5,8.5,0,0,0,.11,1.6,35.24,35.24,0,0,1,.52,7.32c0,.11,0,.21,0,.32q.5,5.57,1,11.13c0,.21.08.42.09.63.28,3.72.54,7.43.81,11.15.11,1.38.24,2.75.36,4.13a8.07,8.07,0,0,1,.14.95c-.07,4.27.84,8.48.78,12.75a38.46,38.46,0,0,0,.46,7.65,19.53,19.53,0,0,1,.14,3.51q.06,12.95.09,25.91a31,31,0,0,0,.34,5.09,20,20,0,0,1,.21,3.19c0,2.56,0,5.12.06,7.67a35.15,35.15,0,0,0,.42,6.06,11.84,11.84,0,0,1-.23,5.39c-.18.63.19,1.58-.86,1.82-.61-.42-.56-1.1-.68-1.7a46,46,0,0,1-1.25-10.78,9.27,9.27,0,0,0-.14-2.23,34.2,34.2,0,0,1-.46-7c0-7.36,0-14.72-.07-22.07,0-1.6-.21-3.19-.32-4.78-.08-1.17-.2-2.33-.23-3.5,0-1.92,0-3.84,0-5.76a17.09,17.09,0,0,0-.15-2.87,39.14,39.14,0,0,1-.46-7.33,34.11,34.11,0,0,0-.45-6.69,11.78,11.78,0,0,1-.17-2.23,33.91,33.91,0,0,0-.51-6.36,11.83,11.83,0,0,1-.13-2.23,27.54,27.54,0,0,0-.47-5.73,1.67,1.67,0,0,1-.05-.31c0-3.85-.64-7.64-.8-11.47-.06-1.49-.24-3-.37-4.46,0-.21-.09-.42-.09-.63,0-4-.75-7.84-.81-11.79a32.23,32.23,0,0,0-.39-5.09,21.11,21.11,0,0,1-.21-3.19c0-2.77,0-5.54-.06-8.31a33.49,33.49,0,0,0-.38-5.74,8.33,8.33,0,0,1-.06-2.86,43.89,43.89,0,0,0,.47-7.33,11.47,11.47,0,0,1,1-5,.69.69,0,0,1,.45-.36c.11,0,.35.22.37.37a7.59,7.59,0,0,1,.11,1.27C207.85,49.61,207.84,51,207.84,52.38Z"/><path class="cls-5" d="M140.69,499.36c0,1.7-.05,3.41,0,5.11a84.64,84.64,0,0,1-1.07,13.67c-.9,6.86-2.09,13.67-3.21,20.5-.16.94-.12,1.91-.26,2.86-.16,1.15-.4,2.29-.65,3.43a.5.5,0,0,1-.44.28.71.71,0,0,1-.41-.42,4.44,4.44,0,0,1-.27-1.24A57.7,57.7,0,0,1,134.7,533c.46-2.83.6-5.71.91-8.57.18-1.69.42-3.37.62-5.06.34-2.86.69-5.71,1-8.56a34.1,34.1,0,0,0,.24-3.5c0-3.73,0-7.45,0-11.18a16.16,16.16,0,0,0-.17-2.87,34,34,0,0,1-.42-6,47.21,47.21,0,0,0-.48-8,28.5,28.5,0,0,1-.16-4.14,42.52,42.52,0,0,0-.42-6.37,31.51,31.51,0,0,1-.21-4.46,37.3,37.3,0,0,0-.5-7.31,10.11,10.11,0,0,1-.14-1.91,42.78,42.78,0,0,0-.52-7.32,14.44,14.44,0,0,1-.11-2.55q0-11.82,0-23.64a16.39,16.39,0,0,1,.2-2.53c0-.21.41-.42.67-.51.1,0,.38.2.46.36a4.41,4.41,0,0,1,.47,1.18,28.9,28.9,0,0,1,.75,6,46.6,46.6,0,0,0,.47,7.64,34.56,34.56,0,0,1,.16,4.78,37.77,37.77,0,0,0,.4,5.41,34.79,34.79,0,0,1,.23,4.46,42.47,42.47,0,0,0,.52,8.27,11.78,11.78,0,0,1,.13,2.23,40.55,40.55,0,0,0,.42,5.72,35,35,0,0,1,.21,4.46,45.34,45.34,0,0,0,.42,6.37,28.5,28.5,0,0,1,.21,4.14,45.46,45.46,0,0,0,.48,7.64,15.22,15.22,0,0,1,.15,2.87c0,3.08,0,6.17,0,9.26Z"/><path class="cls-6" d="M395.18,633.37a17.16,17.16,0,0,0,.21,1.91,21.75,21.75,0,0,1,.44,4.76,34,34,0,0,0,.46,6.37,24.68,24.68,0,0,1,.21,2.86c.08,1.07.18,2.12.29,3.18s.21,2.12.33,3.18c.37,3.6.58,7.21.81,10.82.16,2.44.49,4.87.52,7.33a6,6,0,0,0,.1,1.27,38.6,38.6,0,0,1,.5,8,36.12,36.12,0,0,0,.41,6,17.82,17.82,0,0,1,.18,3.19q0,11.19,0,22.38a18.92,18.92,0,0,1-.19,3.19,43.11,43.11,0,0,0-.26,10.52,58.82,58.82,0,0,0,2.24,12.88,11.74,11.74,0,0,1,.35,1.56c0,.18-.08.53-.19.55a1.4,1.4,0,0,1-.86,0,2.79,2.79,0,0,1-.75-.59,11.89,11.89,0,0,1-3.24-5.42,15,15,0,0,1-.71-3.11c-.25-4.15-1.06-8.25-.77-12.43a10.44,10.44,0,0,1,.11-1.59,37,37,0,0,0,.44-7.65q0-9.43,0-18.86a29,29,0,0,0-.34-5.1,21.07,21.07,0,0,1-.22-3.18c0-2.88,0-5.76,0-8.64a38.21,38.21,0,0,0-.45-7.32,16.1,16.1,0,0,1-.14-2.87c0-2.67-.05-5.33-.06-8a37.19,37.19,0,0,0-.39-6,18.51,18.51,0,0,1,0-5.41,39.19,39.19,0,0,0,.33-4.46c.06-3.09,0-6.18.05-9.27Z"/><path class="cls-5" d="M499.26,699.92c-.57-.53-.4-1.09-.41-1.58a39.17,39.17,0,0,0-.47-5.72c-.33-2.1-.39-4.23-.73-6.34-1-6.29-2-12.61-3-18.92-.69-4.41-1.55-8.81-2.06-13.24a81.16,81.16,0,0,1-.87-11.45c.11-4.9,0-9.8.06-14.7,0-1.48.22-3,.35-4.44,0-.22.09-.42.09-.63,0-4,.87-8,.82-12.1a47.78,47.78,0,0,1,.38-5.72,30.94,30.94,0,0,0,.11-6.38,78,78,0,0,0-1.5-11.06c-.31-1.23-.51-2.5-.74-3.76a2.7,2.7,0,0,1,0-.94c0-.16.24-.3.39-.4s.21,0,.26.1a2,2,0,0,1,.31.55c.87,3,1.8,5.9,2.57,8.89a40,40,0,0,1,1.38,11c-.07,3.09,0,6.18,0,9.27a39.82,39.82,0,0,1-.41,6.36,33.07,33.07,0,0,0-.2,4.46,38.82,38.82,0,0,1-.42,6.37,16,16,0,0,0-.18,2.86c0,2.13,0,4.26,0,6.39,0,1.49.21,3,.33,4.45,0,.42.16.84.15,1.27a78.09,78.09,0,0,0,.73,9.54c.13,1,.23,2.11.38,3.16.68,4.85,1.56,9.68,2,14.54.35,3.81.56,7.64.73,11.46.22,5.1.05,10.22,0,15.33A12.34,12.34,0,0,1,499.26,699.92Z"/><path class="cls-3" d="M268.6,426.08a9.29,9.29,0,0,1-.84,2.05c-2.08,3-2.91,6.37-3.64,9.81-.51,2.4-.84,4.83-1.2,7.25q-.93,6.15-1.78,12.32a21.16,21.16,0,0,0-.17,2.87c0,3.94-.08,7.88,0,11.82,0,1.7.26,3.39.38,5.08,0,.08-.09.24-.16.25a1.52,1.52,0,0,1-.56,0c-.09,0-.16-.13-.22-.22a8,8,0,0,1-1.33-3.55,63.12,63.12,0,0,1-.75-8.91A21.36,21.36,0,0,0,258,461a20.38,20.38,0,0,1,.05-6c.78-4.83,1.49-9.68,2.29-14.51a34.05,34.05,0,0,1,3.36-10.29,10.8,10.8,0,0,1,2.3-3,3.77,3.77,0,0,1,2.59-1.08Z"/><path class="cls-7" d="M210.37,765.15a8.5,8.5,0,0,1-.18,1.26.67.67,0,0,1-.45.37.78.78,0,0,1-.56-.2,3.47,3.47,0,0,1-1.06-1.92,25.71,25.71,0,0,1-.9-5.65c0-1.49,0-3-.05-4.47s-.22-3-.34-4.44a21.6,21.6,0,0,1-.22-2.53,44.06,44.06,0,0,0-1-9.17,13.68,13.68,0,0,1-.28-2.84,11.85,11.85,0,0,1,.57-2.46c.12-.42.72-.77,1-.59a1.75,1.75,0,0,1,.62.68,3.44,3.44,0,0,1,.27,1.23,26.71,26.71,0,0,0,.7,5c.33,1.67.43,3.37.69,5,.71,4.66.46,9.33.58,14,0,1.48.22,3,.35,4.44C210.19,763.68,210.29,764.41,210.37,765.15Z"/><path class="cls-7" d="M34.56,748.89c0,1.38,0,2.76,0,4.14a26.13,26.13,0,0,0,.38,5.07,11.79,11.79,0,0,1,.09,4.43.69.69,0,0,1-.39.43.76.76,0,0,1-.59-.07,3.6,3.6,0,0,1-1.32-1.75,10.17,10.17,0,0,1-.73-4c0-3.08,0-6.16,0-9.24a55.6,55.6,0,0,0-.47-8.25,36.77,36.77,0,0,1,0-6,1.54,1.54,0,0,1,.67-1.37c.13-.08.38,0,.56,0a.37.37,0,0,1,.21.23,10.52,10.52,0,0,1,.34,1.22A60.62,60.62,0,0,1,34.56,748.89Z"/><path class="cls-8" d="M312.17,31.93c0-1.81,0-3.62,0-5.43,0-.13.27-.38.37-.36a.64.64,0,0,1,.43.37,9.92,9.92,0,0,1,.34,1.87c.06,1.17,0,2.34,0,3.51a32.25,32.25,0,0,0,.42,6c.32,1.77.34,3.6.63,5.38.68,4.09,1.45,8.17,2.18,12.25.08.42.18.84.22,1.26.34,3.38.67,6.76,1,10.15a4.47,4.47,0,0,1-.1,1.26c0,.14-.26.26-.42.35a.31.31,0,0,1-.25-.15,7.84,7.84,0,0,1-.81-1.71,38.64,38.64,0,0,1-.94-5.66c-.26-3.18-.58-6.35-1-9.51-.61-4.53-1.42-9-2-13.57-.26-2-.17-4-.25-6Z"/><path class="cls-7" d="M30.49,66.08a28,28,0,0,1-1.67-8.3c0-3.73,0-7.46,0-11.19a13,13,0,0,1,.93-5,.56.56,0,0,1,.49-.26.59.59,0,0,1,.38.4,15.19,15.19,0,0,1,.13,1.91c0,2.45,0,4.9,0,7.36a34.11,34.11,0,0,0,.39,6,11,11,0,0,1,.14,2.86C31.06,61.89,30.76,63.87,30.49,66.08Z"/><path class="cls-8" d="M102.28,730.84c.07-1.48.12-3,.22-4.45a6.93,6.93,0,0,1,.31-1.23c.1-.36.46-.68.63-.55s.37.25.43.42a15.44,15.44,0,0,1,1,5c0,1.17,0,2.34,0,3.51a37.62,37.62,0,0,0,.33,6.36,3.52,3.52,0,0,1-.17,1.23c-.08.36-.86.56-1.07.26a3.4,3.4,0,0,1-.75-1.34c-.3-2.53-.94-5-.85-7.59,0-.53,0-1.06,0-1.59Z"/><path class="cls-7" d="M473.88,356.52c0-1.27,0-2.54,0-3.81a2.73,2.73,0,0,1,.17-.93.72.72,0,0,1,.42-.4.66.66,0,0,1,.56.12,5,5,0,0,1,1.25,2.52,30.57,30.57,0,0,1,.67,9.44,3.79,3.79,0,0,1-.27.91.9.9,0,0,1-1.33.33,4,4,0,0,1-.75-1,7.9,7.9,0,0,1-.7-3.39c0-1.27,0-2.54,0-3.8Z"/><path class="cls-8" d="M281.34,449.65c0,1,.06,2-.6,2.82a.55.55,0,0,1-.55.07,1.89,1.89,0,0,1-.54-.74,12.07,12.07,0,0,1-.82-4q-.09-2.22-.3-4.44a17.33,17.33,0,0,1,.57-5,.58.58,0,0,1,.46-.3.55.55,0,0,1,.39.38c.23,3.39.78,6.73,1.3,10.08A10.64,10.64,0,0,1,281.34,449.65Z"/><path class="cls-9" d="M65.89,674.27l.73.07a25,25,0,0,1,1.16,6.86,24.41,24.41,0,0,0,.4,4.43c.17.82.16,1.69.25,2.53.12,1.26.3,2.52.39,3.79.24,3.7,1.1,7.35.88,11.08,0,.41-.08.82-.12,1.34-.22-.2-.42-.3-.44-.42a67.61,67.61,0,0,1-.8-8.54,51.82,51.82,0,0,0-.59-5.68c-.33-2.74-.68-5.47-1-8.2Q66.31,677.9,65.89,674.27Z"/><path class="cls-9" d="M395.18,633.37l-.62,0c0-.2-.18-.51-.11-.57.36-.29.5.05.64.31A1.4,1.4,0,0,1,395.18,633.37Z"/><path class="cls-3" d="M268.58,426.05l0,0Z"/><rect class="cls-10" x="559.9" width="52.1" height="792"/><circle class="cls-11" cx="585.24" cy="35.03" r="15.45"/><path class="cls-10" d="M591,24s-20.66-7.25-18.2,18.19C572.77,42.2,579.34,28.25,591,24Z"/><circle class="cls-11" cx="585.24" cy="115.98" r="15.45"/><path class="cls-10" d="M591,105s-20.66-7.25-18.2,18.2C572.77,123.16,579.34,109.2,591,105Z"/><circle class="cls-11" cx="585.24" cy="196.93" r="15.45"/><path class="cls-10" d="M591,185.91s-20.66-7.25-18.2,18.2C572.77,204.11,579.34,190.16,591,185.91Z"/><circle class="cls-11" cx="585.24" cy="277.89" r="15.45"/><path class="cls-10" d="M591,266.87s-20.66-7.25-18.2,18.19C572.77,285.06,579.34,271.11,591,266.87Z"/><circle class="cls-11" cx="585.24" cy="358.84" r="15.45"/><path class="cls-10" d="M591,347.82s-20.66-7.25-18.2,18.19C572.77,366,579.34,352.06,591,347.82Z"/><circle class="cls-11" cx="585.24" cy="439.79" r="15.45"/><path class="cls-10" d="M591,428.77s-20.66-7.25-18.2,18.2C572.77,447,579.34,433,591,428.77Z"/><circle class="cls-11" cx="585.24" cy="520.74" r="15.45"/><path class="cls-10" d="M591,509.73s-20.66-7.26-18.2,18.19C572.77,527.92,579.34,514,591,509.73Z"/><circle class="cls-11" cx="585.24" cy="601.7" r="15.45"/><path class="cls-10" d="M591,590.68s-20.66-7.25-18.2,18.19C572.77,608.87,579.34,594.92,591,590.68Z"/><circle class="cls-11" cx="585.24" cy="682.65" r="15.45"/><path class="cls-10" d="M591,671.63s-20.66-7.25-18.2,18.19C572.77,689.82,579.34,675.87,591,671.63Z"/><circle class="cls-11" cx="585.24" cy="763.6" r="15.45"/><path class="cls-10" d="M591,752.58s-20.66-7.25-18.2,18.2C572.77,770.78,579.34,756.82,591,752.58Z"/></svg>