<svg id="Layer_1" data-name="Layer 1" xmlns="http://www.w3.org/2000/svg" viewBox="0 0 216 108"><defs><style>.cls-1{fill:#302a1d;}.cls-2{fill:#1f1810;}.cls-3{fill:#201a12;}.cls-4{fill:#211c14;}.cls-5{fill:#1a1610;}.cls-6{fill:#262119;}.cls-7{fill:#452c60;}.cls-8{fill:#f9be3c;}.cls-9{fill:#f9bd3c;}.cls-10{fill:#f8bd3b;}.cls-11{fill:#f7bc3b;}.cls-12{fill:#fabf3c;}</style></defs><path class="cls-1" d="M210.92,48A15.51,15.51,0,0,0,209,41.6a8,8,0,0,0-1.52-2c-1.29-1.26-2.64-2.46-4-3.63a6.47,6.47,0,0,0-1.66-.94c-2-.9-4.1-1.75-6.15-2.63a8.54,8.54,0,0,1-1.43-.68c-1-.71-1.84-2.24-.4-3.49a15.12,15.12,0,0,0,1.19-1.07,4.49,4.49,0,0,1,2.82-1.34c2.9-.43,2.61-.72,5.8.83.58.28,1.1.67,1.68.92a7.1,7.1,0,0,0,1.51.45,1,1,0,0,0,1.13-.86,18.46,18.46,0,0,0-.2-4.45,4.88,4.88,0,0,0-3.71-4.29,15.82,15.82,0,0,0-6.4-.86,15.45,15.45,0,0,0-6.2.67,1.66,1.66,0,0,1-.62.11c-1.48-.14-2.67.62-3.87,1.28-.74.41-1.41,1-2.16,1.36a20,20,0,0,0-5.53,4.78,10.93,10.93,0,0,0-2.76,6.67,5.14,5.14,0,0,0,1.1,3.58,10.12,10.12,0,0,0,5.24,3.46,22.06,22.06,0,0,1,5.56,2.38c1.35.85,2.66,1.76,4,2.6a13,13,0,0,1,4.68,5.12,5.39,5.39,0,0,1,.63,3.39,18.93,18.93,0,0,0-.48,3.47,7.07,7.07,0,0,1-1.93,5.22c-.55.64-.93,1.43-1.46,2.09a9.71,9.71,0,0,1-1.57,1.57c-.66.53-1.43.92-2.13,1.4a9.38,9.38,0,0,1-6.06,1.61,25,25,0,0,0-2.87,0,1.74,1.74,0,0,0-1.44,1.12,2.25,2.25,0,0,0-.16,1.55A6.07,6.07,0,0,0,181,73.45a20.19,20.19,0,0,0,4.78,4.2,5.6,5.6,0,0,0,1.75.73c5.92,1.37,10.92-.31,15.1-4.63a28.38,28.38,0,0,0,4.14-6,35.69,35.69,0,0,0,4.14-14A42.43,42.43,0,0,0,210.92,48Z"/><path class="cls-1" d="M168.41,66c-.64,0-1.28,0-1.92,0-1,0-1.91,0-2.86-.13-.27,0-.69-.28-.73-.49a15.56,15.56,0,0,1-.64-5c.37-2.94-.17-2.75,2.69-3.41a2.64,2.64,0,0,0,.89-.33,1.58,1.58,0,0,0,.62-.69,20.94,20.94,0,0,0,1.25-9.08A2.76,2.76,0,0,0,166,44.37a4.52,4.52,0,0,0-2.13-.54c-.95,0-1.91.06-2.87.06-1.76,0-1.92-.15-1.5-1.77a15.67,15.67,0,0,0,.33-3.48,15,15,0,0,1,.25-2.2,1.68,1.68,0,0,1,.93-1.22c.76-.39,1.54-.72,2.29-1.12A1.91,1.91,0,0,0,164.46,32c0-.32-.14-.62-.17-.94-.17-1.48-.33-2.95-.42-3.76,0-1.64,0-2.6,0-3.55a1.58,1.58,0,0,0-1.7-1.53,15.26,15.26,0,0,0-5,.74,23.89,23.89,0,0,1-7.22,1.08,13.43,13.43,0,0,0-1.89.18,1,1,0,0,0-.72.91c0,.27.07.57.09.84h-.1l.1.09a.66.66,0,0,1-.07.32,7.61,7.61,0,0,0-.47,3.74A22.89,22.89,0,0,0,147,33c.57,4.53,1,9.08,1.94,13.57a68.81,68.81,0,0,1,1.65,10.7,81.58,81.58,0,0,0,.9,8.25,26.93,26.93,0,0,1,.41,4.74,34.92,34.92,0,0,0,.08,3.83,6.12,6.12,0,0,1-.05,2.79,4,4,0,0,0,.2,2.82c.88,2.14,2.09,3,4.41,2.86a31.56,31.56,0,0,0,9.91-2.22,4.61,4.61,0,0,0,2.28-2.14,15,15,0,0,0,1.56-3.83,50,50,0,0,0,1-5C171.59,66.93,171.23,66.13,168.41,66Z"/><path class="cls-1" d="M75.78,81.81a9.49,9.49,0,0,0-1.58-.2c-1.39,0-2.78,0-4.15,0a3.9,3.9,0,0,1-3.51-1.34V76.71a6.68,6.68,0,0,1,2.95-1.4,13.65,13.65,0,0,0,3.58-2,1.74,1.74,0,0,0,.63-1.42,2.27,2.27,0,0,0-.08-.94,12.24,12.24,0,0,1-.52-4.73c0-.64,0-1.28-.07-1.91a2.15,2.15,0,0,0-2.12-2,7.71,7.71,0,0,0-1.27.05,18.67,18.67,0,0,1-5-.16c-.2-.19-.41-.3-.5-.48-.79-1.61-.6-3.32-.48-5a1.37,1.37,0,0,1,.24-.59A6.06,6.06,0,0,1,66.4,53.7c.58-.27,1.22-.41,1.77-.73,1.7-1,3.19-2.13,3-4.45a21.05,21.05,0,0,1,.25-2.21,39.24,39.24,0,0,0,0-4.47,3.68,3.68,0,0,0-4.23-3.34,36.63,36.63,0,0,0-8.07,1.85,36.41,36.41,0,0,1-6,1.73c-.3-.22-.47-.36-.65-.47-.61-.39-1.13-.25-1.21.32s-.16,1.26-.18,1.89a128.38,128.38,0,0,0,.47,13.73,142.4,142.4,0,0,0,2.53,21.87c.68,3.12,1.19,6.28,1.75,9.42a5.56,5.56,0,0,0,1,2.66,2.53,2.53,0,0,1,.52,1.78,6.16,6.16,0,0,0,0,1,2.84,2.84,0,0,0,2.41,2.2,9.24,9.24,0,0,0,4.66-.86,9,9,0,0,1,2.69-.92c2.79-.24,5-1.66,7.18-3.19,1.29-.92,2.41-2.11,2.28-4a12,12,0,0,1,.3-2.2c.07-.64.11-1.28.12-1.91A1.66,1.66,0,0,0,75.78,81.81Z"/><path class="cls-1" d="M107.92,81.78c-2.8-4-6-7.77-8.4-12A9.3,9.3,0,0,0,95.71,66a1.49,1.49,0,0,1-.32-2,3.68,3.68,0,0,1,.62-.73c2-1.5,3.25-3.65,4.78-5.54a9.53,9.53,0,0,0,1.28-2.55c.35-.89.53-1.84.87-2.74a6.28,6.28,0,0,0,.13-3.76,32.63,32.63,0,0,0-1-3.36c-1.36-3.8-3.9-6.79-6.67-9.63a6.79,6.79,0,0,0-1.52-1.14,13.07,13.07,0,0,0-8-1.6,10,10,0,0,0-4,1.18,2.33,2.33,0,0,0-.72.6.6.6,0,0,0,.06.84,3.75,3.75,0,0,1,.38.51,98.28,98.28,0,0,0-.09,13.07c.22,3.72.46,7.45.76,11.16.52,6.26.92,12.53,1.77,18.76a11.93,11.93,0,0,0,1,3.67c.47,1,1,1.89.45,3a1,1,0,0,0,0,.63,20.32,20.32,0,0,0,1.81,4.76,2.48,2.48,0,0,0,2.1,1.21,8.36,8.36,0,0,0,4.31-.9,2.2,2.2,0,0,0,1.4-2A16.66,16.66,0,0,0,95.05,85a4.35,4.35,0,0,1,.13-2.84,3.2,3.2,0,0,1,.78.52c.44.6.81,1.25,1.22,1.87a8.08,8.08,0,0,0,2,2.08c1,.68,1.9,1.36,2.82,2.07a3.43,3.43,0,0,0,2.06.75c.53,0,1.07,0,1.6,0a3,3,0,0,0,2.53-1.1c.28-.33.59-.62.85-1a3.48,3.48,0,0,0,.07-4.17A18.93,18.93,0,0,1,107.92,81.78ZM89.24,54.64c.32-.06.69-.16.69-.51a12.46,12.46,0,0,0-.16-2.2,16.25,16.25,0,0,1-.22-3.48c0-1.23.47-1.88,2.11-1a1.6,1.6,0,0,1,1,1.19,9.78,9.78,0,0,1-1.86,7.21c-.22.3-.69.43-1,.65A3.51,3.51,0,0,1,89.24,54.64Z"/><path class="cls-1" d="M139,40.1A27,27,0,0,0,136,33.4c-1.59-2.46-3.53-4.51-6.5-5.28a18.42,18.42,0,0,0-2.18-.47c-2.28-.33-4.45-.19-6.3,1.42a7.73,7.73,0,0,1-1.59,1.06,7.43,7.43,0,0,0-1.66,1.45,2.58,2.58,0,0,0-.85,1.67,65.1,65.1,0,0,0-.81,8.25,56,56,0,0,1-.15,7.33,91.86,91.86,0,0,0-.35,9.23c0,1.71,0,3.41,0,5.11a9.15,9.15,0,0,0,.27,2.52c.66,2.15.91,4.37,1.37,6.54a46.45,46.45,0,0,0,2.85,8.11,9,9,0,0,0,1.35,2.16A7.21,7.21,0,0,0,123.1,84c1.24.82,2.54,1.55,3.83,2.29a6,6,0,0,0,5.2.06,14.19,14.19,0,0,0,4.77-4.15,18.8,18.8,0,0,0,3.5-7.44,53.23,53.23,0,0,0,.68-5.37c.17-1.48.26-3,.42-4.44a51.64,51.64,0,0,0-.85-18.38C140.1,44.41,139.63,42.23,139,40.1Zm-7.86,23.57c0,1.16-.18,2.33-.26,3.49A2.37,2.37,0,0,1,130,68.8a10.56,10.56,0,0,1-3.21,2c-.26.1-.62-.08-.93-.13l-.44-1.26a5,5,0,0,0,.7-.59,2.19,2.19,0,0,0,.38-.8,1,1,0,0,0-.07-.62,11.58,11.58,0,0,1-.71-5.31,21.9,21.9,0,0,0-.35-5.71c-.09-.41-.1-.84-.16-1.26A14.51,14.51,0,0,1,127,46.26a1.22,1.22,0,0,1,1.89-.32,2.74,2.74,0,0,1,.78,1,7.27,7.27,0,0,1,.48,1.83A103.43,103.43,0,0,1,131.11,63.67Z"/><path class="cls-1" d="M44.25,76.26a11.37,11.37,0,0,0-.13-2.54,30.61,30.61,0,0,1-.29-4.78,62.54,62.54,0,0,0-.27-8,39.34,39.34,0,0,0-.65-5.06,7.6,7.6,0,0,1-.09-1.59,67.31,67.31,0,0,0-1-9.82l-.27-.57,0-.61a1.07,1.07,0,0,0-.88-1.09A2.92,2.92,0,0,1,40.1,42l0-.1H40c-.07-.17-.13-.34-.21-.51-.38-.88-.61-1.06-1.35-1a30,30,0,0,0-3.42.5c-2.23.58-4.42,1.27-6.63,1.93-.18.06-.31.27-.46.41s-.57.39-.62.63a7.93,7.93,0,0,0,.05,3.75l.17,2.62a.86.86,0,0,0,.25,1c0,.07-.11.15-.1.22a2.54,2.54,0,0,0,.13.45c0,1.69,0,3.39.05,5.07a6.85,6.85,0,0,0,.39,1.51c0,.92-.09,1.84-.11,2.77a5.68,5.68,0,0,1-.38,2.41l-.07-.12-.05.17c-2,.13-3.7,1-5.54,1.58a.64.64,0,0,0-.54,0l-.71-1A1.64,1.64,0,0,0,20.27,63l-.33-1.21a.66.66,0,0,0-.29-.75h0c-.08-.51-.13-1-.24-1.54a38.26,38.26,0,0,1-1.16-9.29c0-1-.09-2.09-.14-3.13,0-.46.06-.93.06-1.4s-.42-.22-.65-.31c.19-.49-.33-.42-.47-.63-.59-.92-1.23-.86-2.13-.4-2.93,1.49-5.9,2.89-9,4.4a19.68,19.68,0,0,0-.57,2,13.46,13.46,0,0,0-.24,2.2A271.1,271.1,0,0,0,6.26,85c.23,2.64.67,5.27,1.15,7.87a31.91,31.91,0,0,0,1.32,4.58,5.56,5.56,0,0,0,1,1.56c.08.11.38.07.58.07,0,0,.11-.14.13-.22.06-.42.12-.84.17-1.26.26.16.53.46.79.46,1.27,0,2.55,0,3.81-.13a5.22,5.22,0,0,0,3-1A2.25,2.25,0,0,1,20,96.43a1.35,1.35,0,0,0,1.42-1,4.92,4.92,0,0,0,.23-1.25c0-1.38-.05-2.77-.1-4.15a45,45,0,0,1,.06-6.88,15,15,0,0,1,5.57-2.6,7.4,7.4,0,0,0,1.46-.61c.59-.26,1.16-.54,1.75-.79a.85.85,0,0,1,1.19.66,27,27,0,0,0,.32,2.85,110.81,110.81,0,0,1,1.69,11,26.67,26.67,0,0,0,.56,2.8,1.28,1.28,0,0,0,1.47,1,8.91,8.91,0,0,0,2.77-.65c1.41-.77,2.84-1.46,4.29-2.1a3.3,3.3,0,0,0,1.76-2.17,6.76,6.76,0,0,0,.28-1.89c0-2.24,0-4.48-.1-6.71A62.75,62.75,0,0,1,44.25,76.26Z"/><path class="cls-2" d="M197.68,17.52a15.82,15.82,0,0,1,6.4.86,4.88,4.88,0,0,1,3.71,4.29,18.46,18.46,0,0,1,.2,4.45,1,1,0,0,1-1.13.86,7.1,7.1,0,0,1-1.51-.45c-.58-.25-1.1-.64-1.68-.92-3.19-1.55-2.9-1.26-5.8-.83a4.49,4.49,0,0,0-2.82,1.34,15.12,15.12,0,0,1-1.19,1.07c-1.44,1.25-.65,2.78.4,3.49a8.54,8.54,0,0,0,1.43.68c2.05.88,4.11,1.73,6.15,2.63a6.47,6.47,0,0,1,1.66.94c1.38,1.17,2.73,2.37,4,3.63a8,8,0,0,1,1.52,2A15.51,15.51,0,0,1,210.92,48a42.43,42.43,0,0,1,0,5.75,35.69,35.69,0,0,1-4.14,14,28.38,28.38,0,0,1-4.14,6c-4.18,4.32-9.18,6-15.1,4.63a5.6,5.6,0,0,1-1.75-.73,20.19,20.19,0,0,1-4.78-4.2,6.07,6.07,0,0,1-1.32-2.54,2.25,2.25,0,0,1,.16-1.55,1.74,1.74,0,0,1,1.44-1.12,25,25,0,0,1,2.87,0,9.4,9.4,0,0,0,6.06-1.61c.7-.48,1.47-.87,2.13-1.4a9.71,9.71,0,0,0,1.57-1.57c.53-.66.91-1.45,1.46-2.09a7.07,7.07,0,0,0,1.93-5.22,18.93,18.93,0,0,1,.48-3.47,5.39,5.39,0,0,0-.63-3.39,13,13,0,0,0-4.68-5.12c-1.36-.84-2.67-1.75-4-2.6a22.06,22.06,0,0,0-5.56-2.38A10.12,10.12,0,0,1,177.64,36a5.14,5.14,0,0,1-1.1-3.58,10.93,10.93,0,0,1,2.76-6.67,20,20,0,0,1,5.53-4.78c.75-.4,1.42-1,2.16-1.36,1.2-.66,2.39-1.42,3.87-1.28a1.66,1.66,0,0,0,.62-.11A15.45,15.45,0,0,1,197.68,17.52Zm8.55,8.32a6.65,6.65,0,0,0-.35-3.74,2.24,2.24,0,0,0-1.24-1.37,12.17,12.17,0,0,0-5.24-1.22c-1.27,0-2.55,0-3.83,0a10.7,10.7,0,0,0-4.63,1,5,5,0,0,1-3,.83,1.67,1.67,0,0,0-.88.32,20.33,20.33,0,0,0-5.87,4.85,9.42,9.42,0,0,0-2.51,6.07,3.23,3.23,0,0,0,.82,2.33,8.59,8.59,0,0,0,4,2.54,23.66,23.66,0,0,1,7.7,3.75c.6.44,1.24.83,1.88,1.21a15.51,15.51,0,0,1,5.86,6.16,6.21,6.21,0,0,1,.92,3.65,12,12,0,0,1-.19,1.9,15.84,15.84,0,0,0-.44,4.11,4.87,4.87,0,0,1-1,3c-.94,1.29-1.82,2.62-2.77,3.9a6.19,6.19,0,0,1-1.29,1.41,24.2,24.2,0,0,1-4.59,2.87,10.24,10.24,0,0,1-5.9.87,7.71,7.71,0,0,0-1.27,0c-.38,0-.63.58-.48,1,.49,1.25,1.56,2,2.42,2.92a8.38,8.38,0,0,0,6.58,2.66,13.67,13.67,0,0,0,5.87-1.21,15.66,15.66,0,0,0,6.82-6.51c2.15-3.55,4.1-7.23,4.64-11.45a1.09,1.09,0,0,1,.08-.31,12.64,12.64,0,0,0,.66-4.4c.05-1.28,0-2.56,0-3.83a14.11,14.11,0,0,0-1.45-6.16,5.68,5.68,0,0,0-1.72-2.27,16.81,16.81,0,0,1-3-2.84,3,3,0,0,0-1.28-.92c-1.81-.62-3.4-1.74-5.27-2.24a23.82,23.82,0,0,1-2.36-1,4.14,4.14,0,0,1-2.06-1.92,3.47,3.47,0,0,1,.08-3.66,9.26,9.26,0,0,1,11.55-3.29c.66.34,1.32.68,2,1A2.3,2.3,0,0,0,206.23,25.84Z"/><path class="cls-3" d="M163.87,27.31c.09.81.25,2.28.42,3.76,0,.32.13.62.17.94a1.91,1.91,0,0,1-1.12,2.09c-.75.4-1.53.73-2.29,1.12a1.68,1.68,0,0,0-.93,1.22,15,15,0,0,0-.25,2.2,15.67,15.67,0,0,1-.33,3.48c-.42,1.62-.26,1.77,1.5,1.77,1,0,1.92,0,2.87-.06a4.52,4.52,0,0,1,2.13.54,2.76,2.76,0,0,1,1.67,2.51A20.94,20.94,0,0,1,166.46,56a1.58,1.58,0,0,1-.62.69A2.64,2.64,0,0,1,165,57c-2.86.66-2.32.47-2.69,3.41a15.56,15.56,0,0,0,.64,5c0,.21.46.46.73.49,1,.09,1.91.11,2.86.13.64,0,1.28,0,1.92,0,2.82.1,3.18.9,2.86,3.35a50,50,0,0,1-1,5,15,15,0,0,1-1.56,3.83,4.61,4.61,0,0,1-2.28,2.14,31.56,31.56,0,0,1-9.91,2.22c-2.32.16-3.53-.72-4.41-2.86a4,4,0,0,1-.2-2.82,6.12,6.12,0,0,0,.05-2.79,34.92,34.92,0,0,1-.08-3.83,26.93,26.93,0,0,0-.41-4.74,81.58,81.58,0,0,1-.9-8.25,68.81,68.81,0,0,0-1.65-10.7c-1-4.49-1.37-9-1.94-13.57a22.89,22.89,0,0,1-.14-2.87,7.61,7.61,0,0,1,.47-3.74c.17-.33,0-.83,0-1.25a1,1,0,0,1,.72-.91,13.43,13.43,0,0,1,1.89-.18A23.89,23.89,0,0,0,157.13,23a15.26,15.26,0,0,1,5-.74,1.58,1.58,0,0,1,1.7,1.53C163.91,24.71,163.87,25.67,163.87,27.31ZM147.29,26a3.52,3.52,0,0,1,1.32,3.12c-.08,3.32.62,6.57,1,9.84.16,1.37.4,2.74.66,4.1.55,2.92,1.17,5.84,1.7,8.77a23,23,0,0,1,.55,4.75c-.06,2.9.74,5.7.89,8.57a17.16,17.16,0,0,1,.51,5.71,30.83,30.83,0,0,0,0,3.19,7,7,0,0,1-.19,2.81,3.51,3.51,0,0,0,0,1.58,2.35,2.35,0,0,0,2.66,2.17,34.48,34.48,0,0,0,6.91-1.2,11.43,11.43,0,0,0,2.36-1,3.12,3.12,0,0,0,1.19-1,9.74,9.74,0,0,0,1.65-4.12,26.44,26.44,0,0,1,.66-3.44,4.1,4.1,0,0,0,0-1.26.62.62,0,0,0-.39-.44,9.08,9.08,0,0,0-1.56-.17,34.83,34.83,0,0,1-3.83-.07c-2-.29-2.7-.16-2.6-2.68a5.72,5.72,0,0,0-.21-1.58,14,14,0,0,1,.23-6.63,2,2,0,0,1,1.5-1.51c.71-.19,1.43-.32,2-.45,1.93-4,1.4-5.2,1.41-7.89a1.53,1.53,0,0,0-1.22-1.31c-.53-.06-1.06,0-1.59-.07-1.28,0-2.56,0-3.83-.08a1.86,1.86,0,0,1-1.87-2.12,3.76,3.76,0,0,1,.12-1.26,12.66,12.66,0,0,0,.52-4.1,14.26,14.26,0,0,1,.33-2.52,3.45,3.45,0,0,1,1.87-2.45c.29-.15.6-.24.88-.38,1.15-.58,1.35-.85,1.11-2a19,19,0,0,1-.4-4.45,10.83,10.83,0,0,0-.08-1.27.89.89,0,0,0-.91-.7,23.3,23.3,0,0,0-3.14.47,25.69,25.69,0,0,1-7.89,1C149.09,26,148.45,26,147.29,26Z"/><path class="cls-4" d="M66.54,76.71v3.61a3.9,3.9,0,0,0,3.51,1.34c1.37-.1,2.76-.06,4.15,0a9.49,9.49,0,0,1,1.58.2,1.66,1.66,0,0,1,1.33,1.58c0,.63,0,1.27-.12,1.91a12,12,0,0,0-.3,2.2c.13,1.86-1,3-2.28,4-2.15,1.53-4.39,3-7.18,3.19a9,9,0,0,0-2.69.92,9.24,9.24,0,0,1-4.66.86,2.84,2.84,0,0,1-2.41-2.2,6.16,6.16,0,0,1,0-1,2.53,2.53,0,0,0-.52-1.78,5.56,5.56,0,0,1-1-2.66c-.56-3.14-1.07-6.3-1.75-9.42a142.4,142.4,0,0,1-2.53-21.87,128.38,128.38,0,0,1-.47-13.73c0-.63.1-1.27.18-1.89s.6-.71,1.21-.32c.18.11.35.25.65.47a36.41,36.41,0,0,0,6-1.73,36.63,36.63,0,0,1,8.07-1.85,3.68,3.68,0,0,1,4.23,3.34,39.24,39.24,0,0,1,0,4.47,21.05,21.05,0,0,0-.25,2.21c.15,2.32-1.34,3.46-3,4.45-.55.32-1.19.46-1.77.73a6.06,6.06,0,0,0-2.52,2.37,1.37,1.37,0,0,0-.24.59c-.12,1.69-.31,3.4.48,5,.09.18.3.29.5.48a18.67,18.67,0,0,0,5,.16,7.71,7.71,0,0,1,1.27-.05,2.15,2.15,0,0,1,2.12,2c.07.63.06,1.27.07,1.91a12.24,12.24,0,0,0,.52,4.73,2.27,2.27,0,0,1,.08.94,1.74,1.74,0,0,1-.63,1.42,13.65,13.65,0,0,1-3.58,2A6.68,6.68,0,0,0,66.54,76.71ZM53.12,44.19a2.25,2.25,0,0,0-.27,1.54,67.3,67.3,0,0,0,.52,7.64c.54,5.3.9,10.61,1.39,15.91a58.48,58.48,0,0,0,.85,6.32c.75,3.76,1.45,7.52,2,11.31a10.05,10.05,0,0,0,1,3.68,4.48,4.48,0,0,1,.51,2.14c0,1.8.95,2,2.25,1.81a9.3,9.3,0,0,0,2.43-.71,9.45,9.45,0,0,1,3.34-1c2.58-.22,4.57-1.65,6.56-3.08A3.14,3.14,0,0,0,75,87.33c.06-1,.15-1.91.2-2.87a.92.92,0,0,0-1-1c-1.49,0-3,0-4.47.06a5.13,5.13,0,0,1-3-.75l-.83-.47a1.79,1.79,0,0,1-1-1.53,20.64,20.64,0,0,0-.47-4.43A1.33,1.33,0,0,1,65.12,75a5.61,5.61,0,0,1,1.14-.52c1-.39,2-.79,3-1.13a6.13,6.13,0,0,0,2.6-1.83,17.21,17.21,0,0,1-.52-2.15c-.1-.84,0-1.7-.07-2.55,0-.54,0-1.07,0-1.6,0-.75-.43-1-1.28-1-1.81,0-3.62,0-5.43,0-1.66-.05-1.66-.23-2.27-2a17.16,17.16,0,0,1-.46-5.7,1.82,1.82,0,0,1,.24-.91,7.92,7.92,0,0,1,3-3.24,15.18,15.18,0,0,1,1.74-.79,4.89,4.89,0,0,0,2-1.5,1.83,1.83,0,0,0,.44-.82,40.12,40.12,0,0,0,.28-7,1.74,1.74,0,0,0-1.94-1.67,34.28,34.28,0,0,0-6.26,1.21l-6.73,2C54.08,43.82,53.51,43.77,53.12,44.19Z"/><path class="cls-3" d="M81.61,36.08a3.75,3.75,0,0,0-.38-.51.6.6,0,0,1-.06-.84,2.33,2.33,0,0,1,.72-.6,10,10,0,0,1,4-1.18,13.07,13.07,0,0,1,8,1.6,6.79,6.79,0,0,1,1.52,1.14c2.77,2.84,5.31,5.83,6.67,9.63a32.63,32.63,0,0,1,1,3.36,6.28,6.28,0,0,1-.13,3.76c-.34.9-.52,1.85-.87,2.74a9.53,9.53,0,0,1-1.28,2.55c-1.53,1.89-2.78,4-4.78,5.54a3.68,3.68,0,0,0-.62.73,1.49,1.49,0,0,0,.32,2,9.3,9.3,0,0,1,3.81,3.75c2.43,4.27,5.6,8,8.4,12a18.93,18.93,0,0,0,1.15,1.52,3.48,3.48,0,0,1-.07,4.17c-.26.33-.57.62-.85,1a3,3,0,0,1-2.53,1.1c-.53,0-1.07,0-1.6,0a3.43,3.43,0,0,1-2.06-.75c-.92-.71-1.87-1.39-2.82-2.07a8.08,8.08,0,0,1-2-2.08c-.41-.62-.78-1.27-1.22-1.87a3.2,3.2,0,0,0-.78-.52A4.35,4.35,0,0,0,95.05,85a16.66,16.66,0,0,1,.12,4.46,2.2,2.2,0,0,1-1.4,2,8.36,8.36,0,0,1-4.31.9,2.48,2.48,0,0,1-2.1-1.21,20.32,20.32,0,0,1-1.81-4.76,1,1,0,0,1,0-.63c.51-1.11,0-2-.45-3a11.93,11.93,0,0,1-1-3.67c-.85-6.23-1.25-12.5-1.77-18.76-.3-3.71-.54-7.44-.76-11.16A98.28,98.28,0,0,1,81.61,36.08ZM83,42.53h-.14c.09,2.13.12,4.26.3,6.38.27,3.29.68,6.56,1,9.85s.52,6.37.79,9.55c.2,2.44.44,4.88.67,7.31,0,.53.15,1.06.23,1.58.34,2.21.84,4.4,1,6.62a17.48,17.48,0,0,0,1.63,5.79,1.45,1.45,0,0,0,1.5,1,6,6,0,0,0,1.59-.1c1.75-.6,2.17-.81,2.13-2.65a6.89,6.89,0,0,0-.09-1.58c-.72-2.62-.29-5.3-.47-8a1.21,1.21,0,0,1,.06-.31c.06-.33.76-.65,1-.45a4.78,4.78,0,0,1,1,.79c.52.67,1,1.4,1.44,2.1a35.11,35.11,0,0,0,2.75,3.91,23.19,23.19,0,0,0,3.22,2.58,8.39,8.39,0,0,0,.77.56,2.58,2.58,0,0,0,.58.28,2.4,2.4,0,0,0,2.65-.53c.29-.32.58-.62.85-.95a1.41,1.41,0,0,0,0-1.77c-.35-.53-.75-1-1.12-1.56-2.83-4-6-7.72-8.4-12a8.17,8.17,0,0,0-3.27-3.4,2.78,2.78,0,0,1-1.44-2.67,2.92,2.92,0,0,1,.89-2.3,40.57,40.57,0,0,0,4.6-5.29,8,8,0,0,0,1.6-3.09c.2-.82.49-1.63.76-2.43a4.51,4.51,0,0,0,.09-2.52,24,24,0,0,0-7.58-12.32,5.25,5.25,0,0,0-1.61-1,13.28,13.28,0,0,0-7.83-.73A1.39,1.39,0,0,0,83,36.45C83,38.48,83,40.5,83,42.53Z"/><path class="cls-5" d="M115.64,58.06a91.86,91.86,0,0,1,.35-9.23,56,56,0,0,0,.15-7.33,65.1,65.1,0,0,1,.81-8.25,2.58,2.58,0,0,1,.85-1.67,7.43,7.43,0,0,1,1.66-1.45,7.73,7.73,0,0,0,1.59-1.06c1.85-1.61,4-1.75,6.3-1.42a18.42,18.42,0,0,1,2.18.47c3,.77,4.91,2.82,6.5,5.28A27,27,0,0,1,139,40.1c.66,2.13,1.13,4.31,1.68,6.48A51.64,51.64,0,0,1,141.5,65c-.16,1.48-.25,3-.42,4.44a53.23,53.23,0,0,1-.68,5.37,18.8,18.8,0,0,1-3.5,7.44,14.19,14.19,0,0,1-4.77,4.15,6,6,0,0,1-5.2-.06c-1.29-.74-2.59-1.47-3.83-2.29a7.21,7.21,0,0,1-1.61-1.51,9,9,0,0,1-1.35-2.16,46.45,46.45,0,0,1-2.85-8.11c-.46-2.17-.71-4.39-1.37-6.54a9.15,9.15,0,0,1-.27-2.52C115.61,61.47,115.64,59.77,115.64,58.06Zm3.16-24.45a62.5,62.5,0,0,0-.71,8.62c.07,2.76,0,5.54-.12,8.3-.06,2.45-.23,4.89-.26,7.34,0,2,.07,4.05.16,6.07a8.12,8.12,0,0,0,.28,2.21,49.42,49.42,0,0,1,1.2,5.6,39.22,39.22,0,0,0,2.9,8.09A5.8,5.8,0,0,0,125.32,83a15.86,15.86,0,0,1,2.17,1.34,3.62,3.62,0,0,0,4.19,0,11.59,11.59,0,0,0,2.46-2,16.93,16.93,0,0,0,4.44-10c.23-2.75.43-5.51.77-8.26a43,43,0,0,0-.12-12.71c-.24-1.36-.43-2.73-.74-4.07a61.22,61.22,0,0,0-3.16-10.35,19.23,19.23,0,0,0-3.44-5,2.62,2.62,0,0,0-1-.73A22.27,22.27,0,0,0,127.25,30a7.65,7.65,0,0,0-3.16,0,5.55,5.55,0,0,0-2.89,1.85,10,10,0,0,1-1,1.2A6.62,6.62,0,0,1,118.8,33.61Z"/><path class="cls-4" d="M40,42a4,4,0,0,0,.57.22,1.07,1.07,0,0,1,.88,1.09l0,.61c-.16.31,0,.48.27.57a67.31,67.31,0,0,1,1,9.82,7.6,7.6,0,0,0,.09,1.59A39.34,39.34,0,0,1,43.56,61a62.54,62.54,0,0,1,.27,8,30.61,30.61,0,0,0,.29,4.78,11.37,11.37,0,0,1,.13,2.54,62.75,62.75,0,0,0,.38,7.64c.14,2.23.11,4.47.1,6.71a6.76,6.76,0,0,1-.28,1.89,3.3,3.3,0,0,1-1.76,2.17c-1.45.64-2.88,1.33-4.29,2.1a8.91,8.91,0,0,1-2.77.65,1.28,1.28,0,0,1-1.47-1,26.67,26.67,0,0,1-.56-2.8,110.81,110.81,0,0,0-1.69-11,27,27,0,0,1-.32-2.85.85.85,0,0,0-1.19-.66c-.59.25-1.16.53-1.75.79a7.4,7.4,0,0,1-1.46.61,15,15,0,0,0-5.57,2.6A45,45,0,0,0,21.56,90c.05,1.38.1,2.77.1,4.15a4.92,4.92,0,0,1-.23,1.25,1.35,1.35,0,0,1-1.42,1,2.25,2.25,0,0,0-1.78.45,5.22,5.22,0,0,1-3,1C14,98,12.7,98,11.43,98c-.26,0-.53-.3-.79-.46V97.3A3.7,3.7,0,0,1,13,96.4a9.34,9.34,0,0,0,5.42-1.6A7.3,7.3,0,0,1,20,94.23a13.5,13.5,0,0,0,0-2.54,39.94,39.94,0,0,1-.29-7.33A4,4,0,0,1,20,81.88c.47-.67,1.34-.61,2-1a5.23,5.23,0,0,0,.82-.49,8.42,8.42,0,0,1,2.89-1.31c.8-.24,1.59-.57,2.38-.88s1.57-.66,2.37-.93a5.73,5.73,0,0,1,1.25-.21A1.15,1.15,0,0,1,33,77.9c.1.52.18,1,.26,1.57.18,1.27.28,2.55.53,3.8a78.24,78.24,0,0,1,1.36,9.15,14.17,14.17,0,0,0,.6,2.79c.06.2.5.41.75.4a2.74,2.74,0,0,0,1.22-.32,28.42,28.42,0,0,1,4-2A1.93,1.93,0,0,0,42.8,91.9c.67-2.31.32-4.66.33-7a37.93,37.93,0,0,1-.64-8.58,10.91,10.91,0,0,0-.12-2.22A22.3,22.3,0,0,1,42,69c0-2.87,0-5.76-.27-8.61-.33-3.08-.48-6.15-.54-9.23a.76.76,0,0,0-.27-.9l-.27-2.81c0-.63,0-1.26-.15-1.88s-.32-1.21-.46-1.82.32-1.22,0-1.84Z"/><path class="cls-6" d="M10.64,97.3v.26c-.05.42-.11.84-.17,1.26,0,.08-.09.22-.13.22-.2,0-.5,0-.58-.07a5.56,5.56,0,0,1-1-1.56,31.91,31.91,0,0,1-1.32-4.58c-.48-2.6-.92-5.23-1.15-7.87A271.1,271.1,0,0,1,5.09,52.84a13.46,13.46,0,0,1,.24-2.2,19.68,19.68,0,0,1,.57-2c3.12-1.51,6.09-2.91,9-4.4.9-.46,1.54-.52,2.13.4.14.21.66.14.47.63h0l-.14-.17c-.18-.08-.47-.28-.53-.23a22.11,22.11,0,0,1-5.14,3.17c-1.13.58-2.31,1.07-3.46,1.62-.47.22-.92.48-1.29.67a3,3,0,0,0-.21.75c.07,4.57.07,9.15.28,13.72C7.28,70.58,7.69,76.31,8.1,82c.19,2.64.45,5.29.81,7.92.31,2.21.79,4.39,1.23,6.58C10.19,96.82,10.47,97.05,10.64,97.3Z"/><path class="cls-4" d="M17.37,45.15l.14.17c.24.56-.05,1.3.6,1.71.05,1,.17,2.09.14,3.13a38.26,38.26,0,0,0,1.16,9.29c.11.51.16,1,.24,1.54a.65.65,0,0,0,.29.75L20.27,63c-.06.56-.07,1.1.57,1.37l.71,1c.17.27.35.29.54,0,1.84-.54,3.58-1.45,5.54-1.58l.12,0a5.68,5.68,0,0,0,.38-2.41c0-.93.08-1.85.11-2.77.57-1.17.16-2.42.3-3.63a5.45,5.45,0,0,0-.74-3,2.54,2.54,0,0,1-.13-.45c0-.07.06-.15.1-.22a.82.82,0,0,0-.25-1c-.05-.87-.11-1.75-.17-2.62a1.13,1.13,0,0,0,.54-1c0-1.12,0-2.24,0-3.36.15-.14.28-.35.46-.41,2.21-.66,4.4-1.35,6.63-1.93a30,30,0,0,1,3.42-.5c.74-.09,1,.09,1.35,1,.09.2.16.39.24.59l0-.07c-1.1-.18-2,.47-3.07.59a40.14,40.14,0,0,0-7.06,1.87c-.9.27-1.16.66-1.1,1.67.13,2,.34,4,.44,6,.15,2.87.22,5.73.33,8.6a4.77,4.77,0,0,1-3.68,5.24,12.76,12.76,0,0,0-1.51.51,14.13,14.13,0,0,0-2.69,1c-.46.32-1.95-.5-2-1.12A12.63,12.63,0,0,0,18.62,63a38.3,38.3,0,0,1-2.09-9.3A21,21,0,0,1,17.37,45.15Z"/><path class="cls-1" d="M27.8,51.91a5.45,5.45,0,0,1,.74,3c-.14,1.21.27,2.46-.3,3.63A6.85,6.85,0,0,1,27.85,57C27.79,55.3,27.81,53.6,27.8,51.91Z"/><path class="cls-1" d="M27.92,43.28c0,1.12,0,2.24,0,3.36a1.13,1.13,0,0,1-.54,1,7.93,7.93,0,0,1-.05-3.75C27.35,43.67,27.71,43.49,27.92,43.28Z"/><path class="cls-1" d="M18.11,47c-.65-.41-.36-1.15-.6-1.71h0c.23.09.64-.16.65.31S18.13,46.57,18.11,47Z"/><path class="cls-1" d="M20.84,64.32c-.64-.27-.63-.81-.57-1.37A1.64,1.64,0,0,1,20.84,64.32Z"/><path class="cls-1" d="M27.52,50.28a.82.82,0,0,1,.25,1A.86.86,0,0,1,27.52,50.28Z"/><path class="cls-7" d="M41.77,44.49c-.32-.09-.43-.26-.27-.57Z"/><path class="cls-1" d="M22.09,65.3c-.19.27-.37.25-.54,0A.64.64,0,0,1,22.09,65.3Z"/><polygon class="cls-1" points="27.75 63.66 27.64 63.72 27.68 63.55 27.75 63.66"/><path class="cls-1" d="M19.94,61.74a.65.65,0,0,1-.29-.75A.66.66,0,0,1,19.94,61.74Z"/><path class="cls-8" d="M206.23,25.84a2.3,2.3,0,0,1-.71,0c-.68-.31-1.34-.65-2-1A9.26,9.26,0,0,0,192,28.13a3.47,3.47,0,0,0-.08,3.66A4.14,4.14,0,0,0,194,33.71a23.82,23.82,0,0,0,2.36,1c1.87.5,3.46,1.62,5.27,2.24a3,3,0,0,1,1.28.92,16.81,16.81,0,0,0,3,2.84,5.68,5.68,0,0,1,1.72,2.27A14.11,14.11,0,0,1,209,49.1c0,1.27,0,2.55,0,3.83a12.64,12.64,0,0,1-.66,4.4,1.09,1.09,0,0,0-.08.31c-.54,4.22-2.49,7.9-4.64,11.45a15.66,15.66,0,0,1-6.82,6.51,13.67,13.67,0,0,1-5.87,1.21,8.38,8.38,0,0,1-6.58-2.66c-.86-.93-1.93-1.67-2.42-2.92-.15-.39.1-1,.48-1a7.71,7.71,0,0,1,1.27,0,10.24,10.24,0,0,0,5.9-.87,24.2,24.2,0,0,0,4.59-2.87,6.19,6.19,0,0,0,1.29-1.41c.95-1.28,1.83-2.61,2.77-3.9a4.87,4.87,0,0,0,1-3,15.84,15.84,0,0,1,.44-4.11,12,12,0,0,0,.19-1.9,6.21,6.21,0,0,0-.92-3.65,15.51,15.51,0,0,0-5.86-6.16c-.64-.38-1.28-.77-1.88-1.21a23.66,23.66,0,0,0-7.7-3.75,8.59,8.59,0,0,1-4-2.54,3.23,3.23,0,0,1-.82-2.33,9.42,9.42,0,0,1,2.51-6.07,20.33,20.33,0,0,1,5.87-4.85,1.67,1.67,0,0,1,.88-.32,5,5,0,0,0,3-.83,10.7,10.7,0,0,1,4.63-1c1.28,0,2.56,0,3.83,0a12.17,12.17,0,0,1,5.24,1.22,2.24,2.24,0,0,1,1.24,1.37A6.65,6.65,0,0,1,206.23,25.84Z"/><path class="cls-9" d="M147.29,26c1.16,0,1.8,0,2.43,0a25.69,25.69,0,0,0,7.89-1,23.3,23.3,0,0,1,3.14-.47.89.89,0,0,1,.91.7,10.83,10.83,0,0,1,.08,1.27,19,19,0,0,0,.4,4.45c.24,1.11,0,1.38-1.11,2-.28.14-.59.23-.88.38a3.45,3.45,0,0,0-1.87,2.45,14.26,14.26,0,0,0-.33,2.52,12.66,12.66,0,0,1-.52,4.1,3.76,3.76,0,0,0-.12,1.26,1.86,1.86,0,0,0,1.87,2.12c1.27.07,2.55.06,3.83.08.53,0,1.06,0,1.59.07a1.53,1.53,0,0,1,1.22,1.31c0,2.69.52,3.94-1.41,7.89-.61.13-1.33.26-2,.45a2,2,0,0,0-1.5,1.51,14,14,0,0,0-.23,6.63,5.72,5.72,0,0,1,.21,1.58c-.1,2.52.6,2.39,2.6,2.68a34.83,34.83,0,0,0,3.83.07,9.08,9.08,0,0,1,1.56.17.62.62,0,0,1,.39.44,4.1,4.1,0,0,1,0,1.26,26.44,26.44,0,0,0-.66,3.44,9.74,9.74,0,0,1-1.65,4.12,3.12,3.12,0,0,1-1.19,1,11.43,11.43,0,0,1-2.36,1,34.48,34.48,0,0,1-6.91,1.2,2.35,2.35,0,0,1-2.66-2.17,3.51,3.51,0,0,1,0-1.58,7,7,0,0,0,.19-2.81,30.83,30.83,0,0,1,0-3.19,17.16,17.16,0,0,0-.51-5.71c-.15-2.87-.95-5.67-.89-8.57a23,23,0,0,0-.55-4.75c-.53-2.93-1.15-5.85-1.7-8.77-.26-1.36-.5-2.73-.66-4.1-.36-3.27-1.06-6.52-1-9.84A3.52,3.52,0,0,0,147.29,26Z"/><path class="cls-8" d="M53.12,44.19c.39-.42,1-.37,1.46-.52l6.73-2a34.28,34.28,0,0,1,6.26-1.21,1.74,1.74,0,0,1,1.94,1.67,40.12,40.12,0,0,1-.28,7,1.83,1.83,0,0,1-.44.82,4.89,4.89,0,0,1-2,1.5,15.18,15.18,0,0,0-1.74.79,7.92,7.92,0,0,0-3,3.24,1.82,1.82,0,0,0-.24.91,17.16,17.16,0,0,0,.46,5.7c.61,1.78.61,2,2.27,2,1.81.07,3.62,0,5.43,0,.85,0,1.24.28,1.28,1,0,.53,0,1.06,0,1.6,0,.85,0,1.71.07,2.55a17.21,17.21,0,0,0,.52,2.15,6.13,6.13,0,0,1-2.6,1.83c-1,.34-2,.74-3,1.13a5.61,5.61,0,0,0-1.14.52,1.33,1.33,0,0,0-.69,1.35,20.64,20.64,0,0,1,.47,4.43,1.79,1.79,0,0,0,1,1.53l.83.47a5.13,5.13,0,0,0,3,.75c1.49-.08,3-.06,4.47-.06a.92.92,0,0,1,1,1c0,1-.14,1.91-.2,2.87a3.14,3.14,0,0,1-1.35,2.44c-2,1.43-4,2.86-6.56,3.08a9.45,9.45,0,0,0-3.34,1,9.3,9.3,0,0,1-2.43.71c-1.3.21-2.23,0-2.25-1.81a4.48,4.48,0,0,0-.51-2.14,10.05,10.05,0,0,1-1-3.68c-.55-3.79-1.25-7.55-2-11.31a58.48,58.48,0,0,1-.85-6.32c-.49-5.3-.85-10.61-1.39-15.91a67.3,67.3,0,0,1-.52-7.64A2.25,2.25,0,0,1,53.12,44.19Z"/><path class="cls-10" d="M83,42.53c0-2,0-4.05,0-6.08a1.39,1.39,0,0,1,1.18-1.31,13.28,13.28,0,0,1,7.83.73,5.25,5.25,0,0,1,1.61,1,24,24,0,0,1,7.58,12.32,4.51,4.51,0,0,1-.09,2.52c-.27.8-.56,1.61-.76,2.43a8,8,0,0,1-1.6,3.09,40.57,40.57,0,0,1-4.6,5.29,2.92,2.92,0,0,0-.89,2.3,2.78,2.78,0,0,0,1.44,2.67,8.17,8.17,0,0,1,3.27,3.4c2.38,4.32,5.57,8,8.4,12,.37.52.77,1,1.12,1.56a1.41,1.41,0,0,1,0,1.77c-.27.33-.56.63-.85.95a2.4,2.4,0,0,1-2.65.53,2.58,2.58,0,0,1-.58-.28,8.39,8.39,0,0,1-.77-.56,23.19,23.19,0,0,1-3.22-2.58,35.11,35.11,0,0,1-2.75-3.91c-.48-.7-.92-1.43-1.44-2.1a4.78,4.78,0,0,0-1-.79c-.28-.2-1,.12-1,.45a1.21,1.21,0,0,0-.06.31c.18,2.65-.25,5.33.47,8a6.89,6.89,0,0,1,.09,1.58c0,1.84-.38,2-2.13,2.65a6,6,0,0,1-1.59.1,1.45,1.45,0,0,1-1.5-1,17.48,17.48,0,0,1-1.63-5.79c-.15-2.22-.65-4.41-1-6.62-.08-.52-.18-1-.23-1.58-.23-2.43-.47-4.87-.67-7.31-.27-3.18-.49-6.37-.79-9.55s-.71-6.56-1-9.85c-.18-2.12-.21-4.25-.3-6.38Zm6.75,13.95c.07,1,.59,1.42,1.31,1.08a4.1,4.1,0,0,0,1.62-1.47,11,11,0,0,0,1.82-6.91A3.4,3.4,0,0,0,92.26,46a6.28,6.28,0,0,0-2.13-.52A1.74,1.74,0,0,0,88,47.26c0,.85,0,1.69,0,2.54a9,9,0,0,0,1.26,4.84A3.51,3.51,0,0,0,89.71,56.48Z"/><path class="cls-11" d="M118.8,33.61a6.62,6.62,0,0,0,1.37-.64,10,10,0,0,0,1-1.2,5.55,5.55,0,0,1,2.89-1.85,7.65,7.65,0,0,1,3.16,0,22.27,22.27,0,0,1,3.61,1.23,2.62,2.62,0,0,1,1,.73,19.23,19.23,0,0,1,3.44,5,61.22,61.22,0,0,1,3.16,10.35c.31,1.34.5,2.71.74,4.07A43,43,0,0,1,139.35,64c-.34,2.75-.54,5.51-.77,8.26a16.93,16.93,0,0,1-4.44,10,11.59,11.59,0,0,1-2.46,2,3.62,3.62,0,0,1-4.19,0A15.86,15.86,0,0,0,125.32,83a5.8,5.8,0,0,1-3.07-3.11,39.22,39.22,0,0,1-2.9-8.09,49.42,49.42,0,0,0-1.2-5.6,8.12,8.12,0,0,1-.28-2.21c-.09-2-.18-4-.16-6.07,0-2.45.2-4.89.26-7.34.07-2.76.19-5.54.12-8.3A62.5,62.5,0,0,1,118.8,33.61Zm5.72,33.93a.94.94,0,0,0-.73.85A4.2,4.2,0,0,0,125.12,72c.19.23.34.59.59.67a1.93,1.93,0,0,0,1.23,0c1.16-.5,2.29-1.09,3.41-1.69a4.65,4.65,0,0,0,2.51-4.14,97.24,97.24,0,0,0-.71-18.76,10.67,10.67,0,0,0-.26-1.25,4.27,4.27,0,0,0-5.13-3.19,1.59,1.59,0,0,0-1.25.87,18.86,18.86,0,0,0-2.26,12c.08.52.2,1,.27,1.57a16.68,16.68,0,0,1,.25,2.53A25.67,25.67,0,0,0,124.52,67.54Z"/><path class="cls-12" d="M17.37,45.15a21,21,0,0,0-.84,8.51A38.3,38.3,0,0,0,18.62,63a12.63,12.63,0,0,1,1.1,3.31c.06.62,1.55,1.44,2,1.12a14.13,14.13,0,0,1,2.69-1,12.76,12.76,0,0,1,1.51-.51,4.77,4.77,0,0,0,3.68-5.24c-.11-2.87-.18-5.73-.33-8.6-.1-2-.31-4-.44-6-.06-1,.2-1.4,1.1-1.67A40.14,40.14,0,0,1,37,42.52c1-.12,2-.77,3.07-.59.3.62-.16,1.23,0,1.84s.36,1.2.46,1.82.1,1.25.15,1.88l.27,2.81a.83.83,0,0,0,.27.9c.06,3.08.21,6.15.54,9.23C42,63.26,42,66.15,42,69a22.3,22.3,0,0,0,.36,5.09,10.91,10.91,0,0,1,.12,2.22,37.93,37.93,0,0,0,.64,8.58c0,2.33.34,4.68-.33,7a1.93,1.93,0,0,1-1.13,1.44,28.42,28.42,0,0,0-4,2,2.74,2.74,0,0,1-1.22.32c-.25,0-.69-.2-.75-.4a14.17,14.17,0,0,1-.6-2.79,78.24,78.24,0,0,0-1.36-9.15c-.25-1.25-.35-2.53-.53-3.8-.08-.52-.16-1-.26-1.57a1.15,1.15,0,0,0-1.22-.81,5.73,5.73,0,0,0-1.25.21c-.8.27-1.58.62-2.37.93s-1.58.64-2.38.88a8.42,8.42,0,0,0-2.89,1.31,5.23,5.23,0,0,1-.82.49c-.64.36-1.51.3-2,1a4,4,0,0,0-.33,2.48A39.94,39.94,0,0,0,20,91.69a13.5,13.5,0,0,1,0,2.54,7.3,7.3,0,0,0-1.57.57A9.34,9.34,0,0,1,13,96.4a3.7,3.7,0,0,0-2.35.9c-.17-.25-.45-.48-.5-.76C9.7,94.35,9.22,92.17,8.91,90c-.36-2.63-.62-5.28-.81-7.92C7.69,76.31,7.28,70.58,7,64.85c-.21-4.57-.21-9.15-.28-13.72A3,3,0,0,1,7,50.38c.37-.19.82-.45,1.29-.67,1.15-.55,2.33-1,3.46-1.62a22.11,22.11,0,0,0,5.14-3.17C16.9,44.87,17.19,45.07,17.37,45.15Z"/><path class="cls-1" d="M41.2,51.18a.83.83,0,0,1-.27-.9A.76.76,0,0,1,41.2,51.18Z"/><path class="cls-6" d="M89.24,54.64A9,9,0,0,1,88,49.8c0-.85,0-1.69,0-2.54a1.74,1.74,0,0,1,2.12-1.78,6.28,6.28,0,0,1,2.13.52,3.4,3.4,0,0,1,2.2,3.18,11,11,0,0,1-1.82,6.91A4.1,4.1,0,0,1,91,57.56c-.72.34-1.24-.07-1.31-1.08.35-.22.82-.35,1-.65a9.78,9.78,0,0,0,1.86-7.21,1.6,1.6,0,0,0-1-1.19c-1.64-.86-2.07-.21-2.11,1a16.25,16.25,0,0,0,.22,3.48,12.46,12.46,0,0,1,.16,2.2C89.93,54.48,89.56,54.58,89.24,54.64Z"/><path class="cls-3" d="M124.52,67.54a25.67,25.67,0,0,1-.75-6.93,16.68,16.68,0,0,0-.25-2.53c-.07-.53-.19-1-.27-1.57a18.86,18.86,0,0,1,2.26-12,1.59,1.59,0,0,1,1.25-.87,4.27,4.27,0,0,1,5.13,3.19,10.67,10.67,0,0,1,.26,1.25,97.24,97.24,0,0,1,.71,18.76A4.65,4.65,0,0,1,130.35,71c-1.12.6-2.25,1.19-3.41,1.69a1.93,1.93,0,0,1-1.23,0c-.25-.08-.4-.44-.59-.67,0-.55,0-1.11.71-1.28.31,0,.67.23.93.13a10.56,10.56,0,0,0,3.21-2,2.37,2.37,0,0,0,.88-1.64c.08-1.16.22-2.33.26-3.49a103.43,103.43,0,0,0-.92-14.92,7.27,7.27,0,0,0-.48-1.83,2.74,2.74,0,0,0-.78-1,1.22,1.22,0,0,0-1.89.32,14.51,14.51,0,0,0-1.86,8.88c.06.42.07.85.16,1.26a21.9,21.9,0,0,1,.35,5.71,11.58,11.58,0,0,0,.71,5.31,1,1,0,0,1,.07.62,2.19,2.19,0,0,1-.38.8,5,5,0,0,1-.7.59,8.05,8.05,0,0,0-.3-1.22A3,3,0,0,0,124.52,67.54Z"/><path class="cls-1" d="M124.52,67.54a3,3,0,0,1,.57.67,8.05,8.05,0,0,1,.3,1.22c.14.42.29.84.44,1.26-.69.17-.7.73-.71,1.28a4.2,4.2,0,0,1-1.33-3.58A.94.94,0,0,1,124.52,67.54Z"/></svg>