<svg id="Layer_1" data-name="Layer 1" xmlns="http://www.w3.org/2000/svg" viewBox="0 0 612 792"><defs><style>.cls-1{fill:#060607;}.cls-2{fill:#8b6635;}.cls-3{fill:#6975a4;}.cls-4{fill:#6874a3;}.cls-5{fill:#fff;}.cls-6{fill:#060402;}.cls-7{fill:#050402;}.cls-8{fill:#070502;}.cls-9{fill:#070503;}.cls-10{fill:#fcfcfc;}.cls-11{fill:#060707;}.cls-12{fill:#030405;}.cls-13{fill:#050608;}.cls-14{fill:#060709;}.cls-15{fill:#a4a4a4;}</style></defs><path d="M473.43,501.49a77.89,77.89,0,0,0-6.9-5.78,12.84,12.84,0,0,0-5.74-2.29c-1.94-.33-3.9-.5-5.85-.75l-6-.76a27,27,0,0,1,2.72-1.7,45.24,45.24,0,0,1,9.48-3.27,13.25,13.25,0,0,0,2.67-.69,2.85,2.85,0,0,0,.89-4.62,7.71,7.71,0,0,0-1.65-1.25,28.19,28.19,0,0,0-7.92-3.45c-2.92-.67-5.87-1.22-8.82-1.77a30.53,30.53,0,0,0-14.74.61,22.88,22.88,0,0,1-2.71.45,31.67,31.67,0,0,0,1.87-2.93,2.33,2.33,0,0,0-2-3.52,9.69,9.69,0,0,0-3.09.21,49.27,49.27,0,0,0-27.89,18.78c-1.59,2.15-2.39,4.41-1.32,7.15-4,1.93-7.83,3.83-11.71,5.59a86.61,86.61,0,0,1-14.31,5.15l-.56-.44c1.24-7,2.57-14.09,3.68-21.16.92-5.91,2.38-11.8,1.53-17.87,0-.1.08-.22.18-.47.45-.11,1-.28,1.54-.36,3.65-.56,7.32-1.05,11-1.67,6.83-1.14,13.57-2.82,20.58-2.7,2.74,0,4.18-2,3.57-4.71a22.21,22.21,0,0,0-1.39-3.91c-1.57-3.6-3.14-7.2-4.8-10.75-3.39-7.22-6.77-14.46-12.44-20.29-.33-.34-.35-1-.55-1.59,2.33-.6,4.46-1.13,6.57-1.7a23.22,23.22,0,0,0,3.64-1.1,3.11,3.11,0,0,0,1.17-5.14,15.62,15.62,0,0,0-1.23-1.21,116.23,116.23,0,0,0-12.12-10.36c-2.79-2.05-5.49-4.25-8.1-6.53-3.49-3.06-6.14-6.86-9.14-10.52.88-.52,1.59-.85,2.21-1.31,1.31-1,1.31-2.26-.12-3a32.06,32.06,0,0,0-3.92-1.53c.24-9-.74-18,1.49-26.83,1.12-.61,2.28-1.36,3.52-1.89,1.7-.71,3.45-1.28,5.2-1.87a1.51,1.51,0,0,1,.94.15,6.71,6.71,0,0,0,5-.1c1.43-.45,2.89-.78,4.35-1.14,3.24-.78,6.5-1.51,9.74-2.33a11.35,11.35,0,0,0,2.57-1c4.19-2.19,8.39-4.38,12.54-6.64a51,51,0,0,0,6.53-3.9q6.22-4.68,12.16-9.75A94.71,94.71,0,0,0,449,309.24a14.31,14.31,0,0,0,1.54-2.69c.89-1.88,1.64-3.82,2.56-5.68a23.59,23.59,0,0,0,2-6.24,74,74,0,0,1,2.08-9.47,17.33,17.33,0,0,0,.29-9.88,16.21,16.21,0,0,0-.42-2,4.71,4.71,0,0,1,.27-4,11.79,11.79,0,0,0,.88-6.78c-.2-1.48-.38-3-.66-4.45-1-5-2.08-10-2.89-15-1-5.88-2.47-11.52-5.72-16.58-.13-.19-.18-.43-.31-.62a2.6,2.6,0,0,1-.33-2.32c1-3,.15-5.73-.94-8.43A43.42,43.42,0,0,0,439.93,203c-3.1-3.58-6.25-7.13-9.41-10.66a35.36,35.36,0,0,0-7.85-6.78,13.48,13.48,0,0,0-7.92-2.05,45.91,45.91,0,0,0-10.92,1.74,28.31,28.31,0,0,0-12.45,7.24c-1.86,1.9-3.69,3.83-5.4,5.87a188.27,188.27,0,0,1-24.6,23.89,28.64,28.64,0,0,1-12.66,6.13c-4.39.9-8.77,1.84-13.3,2.8-1.77-1.41-3.63-2.78-5.36-4.29a87,87,0,0,1-22-28.26,52.8,52.8,0,0,0-5.68-9.9,9.93,9.93,0,0,0-2.46-2.38,2.89,2.89,0,0,0-4.26,1.56,6,6,0,0,0-.27,1.35c-.92,6.87-1.8,13.75-2.78,20.62a35.28,35.28,0,0,1-1.38,7.4c-.33,0-.59.08-.77,0-4.92-2.29-9.79-4.69-14.75-6.88a64.49,64.49,0,0,1-25.23-19.54A201.85,201.85,0,0,1,238,172.12c-1-1.68-2.07-3.34-3.17-5a7.66,7.66,0,0,0-1.59-1.81,2.63,2.63,0,0,0-4,.53A11.07,11.07,0,0,0,228,168.3a84.32,84.32,0,0,0-5.36,17.89c-1.61,9.56-3,19.16-4.47,28.75-.41,2.74-.56,5.52-.83,8.28-.66,6.91-1.39,13.81-1.94,20.72-.48,5.91-.26,11.78,1.77,17.46l-.53.63-8.6-.86c-2.18-.22-4.4-.28-6.54-.7a70.3,70.3,0,0,0-14.83-1.11c-3.09.05-5.1,1.59-5.76,4.54a18.66,18.66,0,0,0,.34,10.26c.82,2.4,1.68,4.79,2.54,7.18a48.34,48.34,0,0,0,5.2,10.91,91.32,91.32,0,0,1,5.38,8.89,116.46,116.46,0,0,0,11.75,17.95,53.67,53.67,0,0,0,4.67,5.11c2.88,2.82,5.83,5.6,8.82,8.31a21.61,21.61,0,0,0,4.63,3.58c5.58,2.72,11.28,5.19,16.67,7.64l3.88,4.71c-1.68,6.52-1.5,13.25-2.38,19.36-3.13,2.12-5.89,4-8.68,5.84-.94.62-1.71,1.56-3,1.52-1,0-1.63.72-2.31,1.38-2.06,2-4.12,4-6.28,5.93-2.78,2.44-5.73,4.68-8.46,7.17-5.47,5-10.89,10-16.76,14.54a29.18,29.18,0,0,0-3.59,3.26c-2.24,2.46-1.48,4.81,1.72,5.62.56.14,1.14.22,1.69.38s1.39,0,2,.93a33.13,33.13,0,0,1-4.62,6.19c-2.25,2.49-4.59,4.9-6.77,7.44-6.18,7.19-12.28,14.45-18.46,21.63a106.24,106.24,0,0,0-14.26,20.42c-1,1.95-2.2,3.8-3.36,5.66-1.64,2.65-3.34,5.26-5,7.9a3.28,3.28,0,0,0,3.18,5.11c2.76-.24,5.54-.16,8.32-.18a16.86,16.86,0,0,1,2,.19,13.46,13.46,0,0,1-2.45,6.31,107.18,107.18,0,0,1-10.73,14,7.18,7.18,0,0,0-1.68,2.16,11.34,11.34,0,0,0-.29,3c-2.48.73-4.15,2.49-5.74,4.34q-7,8.16-14,16.34a20.85,20.85,0,0,0-2.53,3.72c-2.41,4.5-1,7.88,3.75,9.5,1.06.36,2.16.62,3.47,1a61,61,0,0,1-6.72,9c-3.91,4.26-7.93,8.42-11.85,12.66q-7.89,8.54-15.69,17.14a21.61,21.61,0,0,0-2.5,3.31c-1.63,2.75-1,4.81,1.79,6.3a29.41,29.41,0,0,0,7.82,2.73c3.72.79,7.44,1.6,11.11,2.62a32.3,32.3,0,0,0,18.78-.23c2.19-.69,4.33-1.57,6.42-2.33a20.23,20.23,0,0,0,2.13,3.47,28,28,0,0,1,5.41,9.2c1.13,2.9,2.22,5.82,3.44,8.69a45.09,45.09,0,0,0,9.12,13.82c5.1,5.26,7.19,5,12.62,2.72,6.5-2.7,12.94-5.56,19.4-8.35,4.56-2,9.1-4,13.67-5.92a17,17,0,0,1,10.22-.74c5.09,1,10.13,2.29,15.22,3.3A5.38,5.38,0,0,1,234,629.4c1.11,2.15,2.07,4.39,3.21,6.52a49.79,49.79,0,0,0,3.36,5.63c2.68,3.73,6.36,6.33,10.28,8.63a20.18,20.18,0,0,0,18,1.41c1.95-.72,3.87-1.51,5.74-2.4a53.83,53.83,0,0,1,9.46-3.3,34.66,34.66,0,0,0,12.28-5.44,16.77,16.77,0,0,1,3-1.64,8.22,8.22,0,0,0,4.42-4.18,4.13,4.13,0,0,1,1.35-2c2.2-1.2,4.51-2.19,7.22-3.47a12.41,12.41,0,0,0,1.4,1.9,1.48,1.48,0,0,0,2.38-.33,11.38,11.38,0,0,0,1.34-2.79,48.38,48.38,0,0,1,6.12-13.15c3.69-5.86,7.65-11.55,11.46-17.34,2-3,3.91-6,5.82-9,.8-1.25,1.12-2.81,2.57-3.61a.93.93,0,0,0,.37-.85c-.55-1.32.22-2.48.41-3.69a8.54,8.54,0,0,0-.82-5.38c-.25-.5-.56-1-.9-1.53a5.82,5.82,0,0,1,1.06-.41,32,32,0,0,0,11.75-3.94c4.94-2.76,9.93-5.47,14.7-8.49,15.54-9.82,30.71-20.18,45.67-30.85A129.73,129.73,0,0,0,432.9,515.2c1.2-1.22,2.33-2.5,3.57-3.84a11.3,11.3,0,0,0,6.89.27,54.39,54.39,0,0,0,6.72-1.63,50.18,50.18,0,0,1,16-2.8,24.24,24.24,0,0,0,6.16-.88A2.71,2.71,0,0,0,473.43,501.49ZM339.78,577.77a2.35,2.35,0,0,0,.06-.54A2.35,2.35,0,0,1,339.78,577.77Z"/><path class="cls-1" d="M217.18,261.4c-2-5.68-2.25-11.55-1.77-17.46.55-6.91,1.28-13.81,1.94-20.72.27-2.76.42-5.54.83-8.28,1.43-9.59,2.86-19.19,4.47-28.75A84.32,84.32,0,0,1,228,168.3a11.07,11.07,0,0,1,1.29-2.43,2.63,2.63,0,0,1,4-.53,7.66,7.66,0,0,1,1.59,1.81c1.1,1.63,2.13,3.29,3.17,5a201.85,201.85,0,0,0,12.46,18.75,64.49,64.49,0,0,0,25.23,19.54c5,2.19,9.83,4.59,14.75,6.88.18.09.44,0,.77,0a35.28,35.28,0,0,0,1.38-7.4c1-6.87,1.86-13.75,2.78-20.62a6,6,0,0,1,.27-1.35,2.89,2.89,0,0,1,4.26-1.56,9.93,9.93,0,0,1,2.46,2.38,52.8,52.8,0,0,1,5.68,9.9,87,87,0,0,0,22,28.26c1.73,1.51,3.59,2.88,5.36,4.29,4.53-1,8.91-1.9,13.3-2.8a28.64,28.64,0,0,0,12.66-6.13A188.27,188.27,0,0,0,386,198.38c1.71-2,3.54-4,5.4-5.87a28.31,28.31,0,0,1,12.45-7.24,45.91,45.91,0,0,1,10.92-1.74,13.48,13.48,0,0,1,7.92,2.05,35.36,35.36,0,0,1,7.85,6.78c3.16,3.53,6.31,7.08,9.41,10.66a43.42,43.42,0,0,1,7.38,12.08c1.09,2.7,1.91,5.47.94,8.43a2.6,2.6,0,0,0,.33,2.32c.13.19.18.43.31.62,3.25,5.06,4.76,10.7,5.72,16.58.81,5,1.93,10,2.89,15,.28,1.47.46,3,.66,4.45a11.79,11.79,0,0,1-.88,6.78,4.71,4.71,0,0,0-.27,4,16.21,16.21,0,0,1,.42,2,17.33,17.33,0,0,1-.29,9.88,74,74,0,0,0-2.08,9.47,23.59,23.59,0,0,1-2,6.24c-.92,1.86-1.67,3.8-2.56,5.68a14.31,14.31,0,0,1-1.54,2.69A94.71,94.71,0,0,1,435.77,323q-5.92,5.07-12.16,9.75a51,51,0,0,1-6.53,3.9c-4.15,2.26-8.35,4.45-12.54,6.64a11.35,11.35,0,0,1-2.57,1c-3.24.82-6.5,1.55-9.74,2.33-1.46.36-2.92.69-4.35,1.14a6.71,6.71,0,0,1-5,.1,1.51,1.51,0,0,0-.94-.15c-1.75.59-3.5,1.16-5.2,1.87-1.24.53-2.4,1.28-3.52,1.89-2.23,8.83-1.25,17.84-1.49,26.83a32.06,32.06,0,0,1,3.92,1.53c1.43.77,1.43,2.07.12,3-.62.46-1.33.79-2.21,1.31,3,3.66,5.65,7.46,9.14,10.52,2.61,2.28,5.31,4.48,8.1,6.53a116.23,116.23,0,0,1,12.12,10.36,15.62,15.62,0,0,1,1.23,1.21,3.11,3.11,0,0,1-1.17,5.14,23.22,23.22,0,0,1-3.64,1.1c-2.11.57-4.24,1.1-6.57,1.7.2.61.22,1.25.55,1.59,5.67,5.83,9.05,13.07,12.44,20.29,1.66,3.55,3.23,7.15,4.8,10.75a22.21,22.21,0,0,1,1.39,3.91c.61,2.72-.83,4.76-3.57,4.71-7-.12-13.75,1.56-20.58,2.7-3.64.62-7.31,1.11-11,1.67-.55.08-1.09.25-1.54.36-.1.25-.2.37-.18.47.85,6.07-.61,12-1.53,17.87-1.11,7.07-2.44,14.11-3.68,21.16l0,.82.58-.38a86.61,86.61,0,0,0,14.31-5.15c3.88-1.76,7.69-3.66,11.71-5.59-1.07-2.74-.27-5,1.32-7.15A49.27,49.27,0,0,1,425.68,470a9.69,9.69,0,0,1,3.09-.21,2.33,2.33,0,0,1,2,3.52,31.67,31.67,0,0,1-1.87,2.93,22.88,22.88,0,0,0,2.71-.45,30.53,30.53,0,0,1,14.74-.61c2.95.55,5.9,1.1,8.82,1.77a28.19,28.19,0,0,1,7.92,3.45,7.71,7.71,0,0,1,1.65,1.25,2.85,2.85,0,0,1-.89,4.62,13.25,13.25,0,0,1-2.67.69,45.24,45.24,0,0,0-9.48,3.27,27,27,0,0,0-2.72,1.7l6,.76c1.95.25,3.91.42,5.85.75a12.84,12.84,0,0,1,5.74,2.29,77.89,77.89,0,0,1,6.9,5.78,2.71,2.71,0,0,1-1.23,4.83,24.24,24.24,0,0,1-6.16.88,50.18,50.18,0,0,0-16,2.8,54.39,54.39,0,0,1-6.72,1.63,11.3,11.3,0,0,1-6.89-.27c-1.24,1.34-2.37,2.62-3.57,3.84a129.73,129.73,0,0,1-17.21,14.53c-15,10.67-30.13,21-45.67,30.85-4.77,3-9.76,5.73-14.7,8.49A32,32,0,0,1,343.57,573a5.82,5.82,0,0,0-1.06.41c.34.56.65,1,.9,1.53a8.54,8.54,0,0,1,.82,5.38c-.19,1.21-1,2.37-.41,3.69a.93.93,0,0,1-.37.85c-1.45.8-1.77,2.36-2.57,3.61-1.91,3-3.84,6-5.82,9-3.81,5.79-7.77,11.48-11.46,17.34A48.38,48.38,0,0,0,317.48,628a11.38,11.38,0,0,1-1.34,2.79,1.48,1.48,0,0,1-2.38.33,12.41,12.41,0,0,1-1.4-1.9c-2.71,1.28-5,2.27-7.22,3.47a4.13,4.13,0,0,0-1.35,2,8.22,8.22,0,0,1-4.42,4.18,16.77,16.77,0,0,0-3,1.64,34.66,34.66,0,0,1-12.28,5.44,53.83,53.83,0,0,0-9.46,3.3c-1.87.89-3.79,1.68-5.74,2.4a20.18,20.18,0,0,1-18-1.41c-3.92-2.3-7.6-4.9-10.28-8.63a49.79,49.79,0,0,1-3.36-5.63c-1.14-2.13-2.1-4.37-3.21-6.52a5.38,5.38,0,0,0-4.06-2.87c-5.09-1-10.13-2.27-15.22-3.3a17,17,0,0,0-10.22.74c-4.57,1.95-9.11,3.95-13.67,5.92-6.46,2.79-12.9,5.65-19.4,8.35-5.43,2.25-7.52,2.54-12.62-2.72a45.09,45.09,0,0,1-9.12-13.82c-1.22-2.87-2.31-5.79-3.44-8.69a28,28,0,0,0-5.41-9.2,20.23,20.23,0,0,1-2.13-3.47c-2.09.76-4.23,1.64-6.42,2.33a32.3,32.3,0,0,1-18.78.23c-3.67-1-7.39-1.83-11.11-2.62a29.41,29.41,0,0,1-7.82-2.73c-2.81-1.49-3.42-3.55-1.79-6.3a21.61,21.61,0,0,1,2.5-3.31q7.81-8.6,15.69-17.14c3.92-4.24,7.94-8.4,11.85-12.66a61,61,0,0,0,6.72-9c-1.31-.37-2.41-.63-3.47-1-4.8-1.62-6.16-5-3.75-9.5a20.85,20.85,0,0,1,2.53-3.72q6.93-8.21,14-16.34c1.59-1.85,3.26-3.61,5.74-4.34a11.34,11.34,0,0,1,.29-3,7.18,7.18,0,0,1,1.68-2.16,107.18,107.18,0,0,0,10.73-14,13.46,13.46,0,0,0,2.45-6.31,16.86,16.86,0,0,0-2-.19c-2.78,0-5.56-.06-8.32.18a3.28,3.28,0,0,1-3.18-5.11c1.67-2.64,3.37-5.25,5-7.9,1.16-1.86,2.36-3.71,3.36-5.66a106.24,106.24,0,0,1,14.26-20.42c6.18-7.18,12.28-14.44,18.46-21.63,2.18-2.54,4.52-4.95,6.77-7.44a33.13,33.13,0,0,0,4.62-6.19c-.59-.94-1.36-.74-2-.93s-1.13-.24-1.69-.38c-3.2-.81-4-3.16-1.72-5.62a29.18,29.18,0,0,1,3.59-3.26c5.87-4.52,11.29-9.56,16.76-14.54,2.73-2.49,5.68-4.73,8.46-7.17,2.16-1.9,4.22-3.93,6.28-5.93.68-.66,1.3-1.41,2.31-1.38,1.31,0,2.08-.9,3-1.52,2.79-1.84,5.55-3.72,8.68-5.84.88-6.11.7-12.84,2.38-19.36l-3.88-4.71c-5.39-2.45-11.09-4.92-16.67-7.64a21.61,21.61,0,0,1-4.63-3.58c-3-2.71-5.94-5.49-8.82-8.31a53.67,53.67,0,0,1-4.67-5.11,116.46,116.46,0,0,1-11.75-17.95,91.32,91.32,0,0,0-5.38-8.89,48.34,48.34,0,0,1-5.2-10.91c-.86-2.39-1.72-4.78-2.54-7.18a18.66,18.66,0,0,1-.34-10.26c.66-2.95,2.67-4.49,5.76-4.54a70.3,70.3,0,0,1,14.83,1.11c2.14.42,4.36.48,6.54.7l8.6.86.84.14ZM418.71,478.58a6.62,6.62,0,0,0-1.62.49,60.72,60.72,0,0,0-15.46,13.24,6.22,6.22,0,0,0-.67,1.42,4.31,4.31,0,0,0,.87.27c1.39.07,2.67.56,2.85,2a3,3,0,0,1-1.95,3c-.41.2-.8.46-1.21.66-3,1.47-6,3-9,4.37-7.71,3.4-15.47,6.62-24.16,7.69-.69,2-1.41,4-2.13,6.08a30.16,30.16,0,0,1-4.12,8,11,11,0,0,1-2.21,2.15,1.12,1.12,0,0,1-1.82-.8,16.75,16.75,0,0,1,.09-4.13,50.36,50.36,0,0,1,1.58-5.65,161.72,161.72,0,0,0,5.15-20.44c1.32-7.37,2.74-14.72,4.63-22,.6-2.31,1.09-4.64,1.67-7.15-2.36-.34-4.32-.29-5.75,1.71a85,85,0,0,1-8.86,10.19,13.9,13.9,0,0,0-3.6,6.22,47.36,47.36,0,0,0-2,13.28c.09,4.39-.08,8.79.08,13.18a29.69,29.69,0,0,1-2.16,11.84,32.7,32.7,0,0,1-6.26,9.9,3.88,3.88,0,0,1-4.68,1.16c-3-1.18-6-2.29-9.07-3.41-1.06-.39-2.14-.71-3.35-1.1-.55.88-1.1,1.61-1.5,2.42q-3.36,6.84-6.65,13.7a4.06,4.06,0,0,0-.37,1.32c-.26,2.18-.47,4.36-.74,6.53a117.65,117.65,0,0,1-2.76,16.36,13.86,13.86,0,0,1-.79,2.27,2.09,2.09,0,0,1-1.92,1.27,2.27,2.27,0,0,1-2.17-1.42c-.91-1.76-.66-3.62-.41-5.44s.73-3.85,1-5.79c.09-.56.39-1.27-.52-1.94-2.07,2.9-4,5.72-6.08,8.49a4.13,4.13,0,0,0-.36,4.79c2.95,5.89,4.82,12.21,6.81,18.47,1,3.08-.38,4.87-3.68,5-.75,0-1.5.1-2.35.16a38,38,0,0,1,.62,5,164.26,164.26,0,0,0,.78,16.6c.25,2.7.67,5.38,1,7.94.4.12.54.22.62.18,2-1.1,4-2.18,6-3.34a2.21,2.21,0,0,0,.74-1.11c.73-1.81,1.42-3.64,2.16-5.56-3.41-2.64-6.8-5.25-6.95-10.28a5,5,0,0,1,1.48.2,15.61,15.61,0,0,1,4.56,3.08c.92,1,1.75,2.16,3.36,2.49,1.59-2.43,3.23-4.8,4.73-7.25s3.63-4.66,4.66-7.35c-2.3-1.07-4.43-1.93-6.42-3-3.1-1.71-4.15-4.63-4.53-8.29a7.41,7.41,0,0,1,2.14.52c1.44,1,2.79,2,4.19,3.05a13.81,13.81,0,0,0,6.63,2.77,2.89,2.89,0,0,0,3-1.28c1.15-1.73,2.41-3.39,3.54-5.13a8.48,8.48,0,0,0,.67-2,39.08,39.08,0,0,1-3.43-2,16.93,16.93,0,0,1-3.05-2.74,1.64,1.64,0,0,1,.27-2.21,1.45,1.45,0,0,1,1.89-.18c1.32.72,2.64,1.43,4,2.1.9.44,1.85.79,2.74,1.17,1.64-2.55,1.64-2.55,1.15-5.56-6.21.66-12.43.42-18.65.41a5.08,5.08,0,0,1-3.69-1.65,7.21,7.21,0,0,1-2.15-3.37c.8-1.59,1.93-2.18,3.46-1.41,2.07,1,4.26.93,6.45.92,3.12,0,6.25-.06,9.37-.05a16,16,0,0,0,6.38-1.33,12.11,12.11,0,0,1,4.29-1.17,10.14,10.14,0,0,0,5.23-1.56c6.13-3.69,12.34-7.26,18.33-11.17,9.67-6.32,19.2-12.84,28.76-19.32,7.54-5.13,15-10.32,22.56-15.49,4.94-3.4,9.87-6.84,14.82-10.22a11.86,11.86,0,0,1,4.11-1.75c3-.7,6-1.57,9-2.49,5.08-1.58,10.13-3.2,15.56-2.9a7.14,7.14,0,0,0,2.11-.62,12.58,12.58,0,0,0-7.69-3.44c-1.49-.13-3-.38-4.45-.58-3.53-.46-7-1.29-10.64-.45-.8.18-1.76-.36-2.55-.55-1.55-3.27-1.5-4,.75-6.23a17.85,17.85,0,0,1,3.2-2.63c2.06-1.27,4.24-2.34,6.34-3.55.64-.37,1.62-.35,1.86-1.62a9.41,9.41,0,0,0-1.13-.41,41.07,41.07,0,0,0-5.75-1.11c-3.34-.19-6.8-.61-10,0a42.56,42.56,0,0,0-18.48,8.24,16,16,0,0,1-2,1.34,2,2,0,0,1-2.79-.35,1.94,1.94,0,0,1-.12-2.81,16.45,16.45,0,0,1,4-4.24,5.68,5.68,0,0,0,3-4.41c.15-.16.45-.42.42-.45C419.09,477.94,418.91,478.3,418.71,478.58ZM368.8,352.31c-1.24.21-2.48.47-3.73.62a17.22,17.22,0,0,1-3.43.2,1.9,1.9,0,0,1-1.47-2.86,4.71,4.71,0,0,1,1.7-1.65,12.92,12.92,0,0,1,2.93-1c2.67-.7,5.38-1.25,8-2,4.3-1.3,8.71-2.26,12.78-4.29a19.24,19.24,0,0,1,3.95-1.2c3.35-.83,6.71-1.6,10.06-2.42a9.74,9.74,0,0,0,2-.7c4.31-2.2,8.63-4.39,12.91-6.65a74.89,74.89,0,0,0,9.43-6.41A139,139,0,0,0,441,308.69a20.57,20.57,0,0,0,4.66-6.8c.72-1.82,1.7-3.54,2.54-5.31a6.22,6.22,0,0,0,.61-1.6,78.4,78.4,0,0,1,3.75-14.36,7.35,7.35,0,0,0-.47-6.44,11,11,0,0,0-2.76,0c-4.89,1.32-9.78,2.69-14.63,4.15a4.82,4.82,0,0,0-3.52,3.51,9.73,9.73,0,0,1-.7,1.59c-2.78,6.14-7.73,9.74-14.09,11.21a15.57,15.57,0,0,0-8.1,4.25,39.23,39.23,0,0,1-7.6,6c-4.7,2.94-9.42,5.83-14.16,8.71a5.21,5.21,0,0,1-1.93.66,2,2,0,0,1-2.35-2,6.78,6.78,0,0,1,.44-2.34,6.17,6.17,0,0,1,2.68-3.09c1.94-1.24,3.91-2.45,5.9-3.61,4.7-2.74,9.42-5.45,13.21-9.42a18.8,18.8,0,0,1,9.91-5.27c5-1.12,8.78-3.86,10.62-8.91a12.16,12.16,0,0,1,9.17-8.17c5.61-1.23,10.87-3.85,16.6-3.89,1.63-3.13,2-4.59,1.23-7.48a123.8,123.8,0,0,1-3-17.7,48.19,48.19,0,0,0-2.75-12.1,22.26,22.26,0,0,1-1.52-4.95,22.91,22.91,0,0,0-4-9.77c-.44-.68-.79-1.41-1.21-2.1a45.8,45.8,0,0,0-5.23-7.32c-2.65-2.89-5.13-5.94-7.74-8.87a33.86,33.86,0,0,0-6.64-6.06,8.34,8.34,0,0,0-4.56-1.38,28.71,28.71,0,0,0-10.52,1.74,19.52,19.52,0,0,0-7.47,4.28c-2.51,2.55-4.94,5.19-7.37,7.81-3.38,3.64-6.54,7.51-10.14,10.92-4.7,4.44-9.68,8.58-14.64,12.73a28.47,28.47,0,0,1-8.67,5,37.55,37.55,0,0,1-9.77,2.1c-1.95.17-3.91.24-6.24.38a16.45,16.45,0,0,0,1.56,1.39,132.26,132.26,0,0,1,14.15,11.14c3.24,2.83,6.07,6,7.56,10.17a10.35,10.35,0,0,1,.25,1.93c-3.26-1.61-6.24-2.64-8.68-4.89-3.23-3-6.63-5.76-10.1-8.44-6.21-4.81-12.61-9.37-18.77-14.23a76.44,76.44,0,0,1-18.42-21c-2.36-4-4.27-8.18-6.42-12.27a14.51,14.51,0,0,0-1.28-1.72c-.5,3.66-.92,6.85-1.39,10q-1.62,11.11-3.29,22.23c-.53,3.53-1.12,7.06-1.69,10.59-.72,4.43-1.38,8.88-2.2,13.3s-1.79,9-2.75,13.55a5.11,5.11,0,0,1-.83,1.86,1.67,1.67,0,0,1-2.85-.38,7.2,7.2,0,0,1-.34-1.33c-.53-2.42,0-4.82.31-7.2.48-4.35,1.21-8.67,1.86-13,.82-5.48,1.72-10.93,2.48-16.41.35-2.59.75-5.19.85-7.84-1.16-.4-2.14-.72-3.1-1.08a161.57,161.57,0,0,1-22.43-10,63.37,63.37,0,0,1-21.65-20.07c-3.51-5.17-6.39-10.7-9.41-16.15-.59-1-.9-2.32-2.22-3.15-.3.66-.59,1.14-.77,1.66a121.86,121.86,0,0,0-4.9,22.26c-.7,5-1.52,10-2.28,15a41,41,0,0,0-.5,4.1c-.3,6.81-.56,13.62-.83,20.43q0,.34,0,.69a158,158,0,0,0-1.14,19.69c0,3.24-.08,6.48-.14,9.71,0,.15-.22.3-.41.54l-1.89-1.65c-1,2.13-2.78,2.68-4.81,2.72-2.31,0-4.63.11-6.94,0a61.94,61.94,0,0,1-6.52-.6,54.82,54.82,0,0,0-11.72-.79,14.85,14.85,0,0,0-2,.39,11.14,11.14,0,0,0,.22,5.94c1.11,3,2.17,6.08,3.23,9.13a41,41,0,0,0,4.7,9.23c1.46,2.21,2.82,4.5,4.07,6.84a109.91,109.91,0,0,0,12.72,19.35,57.1,57.1,0,0,0,4.21,4.58c2.68,2.55,5.43,5,8.21,7.45a18.93,18.93,0,0,0,3.63,2.6c3.06,1.61,6.21,3.07,9.33,4.57a7.78,7.78,0,0,1,4,3.71,3.71,3.71,0,0,0,1.24,1.58c3.23,2,6.54,3.84,9.79,5.8a14,14,0,0,1,2.42,1.92A1.64,1.64,0,0,1,255,351a2.28,2.28,0,0,1-1.75.75c-1.59-.18-3.16-.59-4.73-.91l-.73-.25.26.72a66.34,66.34,0,0,1-.26,13.14c-.3,3-.58,6,.68,8.86a9,9,0,0,1,.42,1.66c1.2,5.16,2.37,10.32,3.6,15.47a10,10,0,0,0,1,1.95c2.21-1.09,4.32-2,6.32-3.14,4.52-2.54,9-5.22,13.49-7.77a32.71,32.71,0,0,1,4.7-2.16,5.73,5.73,0,0,1,2.69-.28c1.7.22,3.37.71,5.06,1a16.41,16.41,0,0,1,5.2,1.81c3,1.55,6,3.06,8.9,4.66,3.24,1.76,6.56,3.37,9.42,5.78a20.9,20.9,0,0,0,3.78,2c1.18-.87,2.35-1.61,3.36-2.52a22.86,22.86,0,0,0,2.56-2.82,8.69,8.69,0,0,1,4.93-3c4.5-1.06,8.91-1,13.12,1.26,2.34,1.25,4.69,2.5,7.09,3.63,2.61,1.23,3.62,1.09,5.46-1.11a12.77,12.77,0,0,1,7.08-4.64,3.45,3.45,0,0,0,2.68-3.24c.16-1.14.33-2.28.49-3.42a3.81,3.81,0,0,1,2.81-3.19c.94-.33,1.91-.59,3-.92,0-2.09-.14-4.06,0-6,.46-5.38.81-10.8,3.44-15.71l.47-.41Zm-68.27,276c-2.66-5-3-10.66-3-16.33,0-2.43,0-4.86,0-7.28a22.9,22.9,0,0,0-1.66-9.46,7.62,7.62,0,0,1-.47-2.69,3,3,0,0,1,3.07-3.41c1-.09,2-.09,3.2-.13-.59-4.8-2.58-9-3.61-13.31-3.34-1.47-3.89-2.42-2.73-5.6a32.24,32.24,0,0,1,3-6.2c3.43-5.47,7-10.86,10.58-16.23a22.54,22.54,0,0,0,4-9.11,6.09,6.09,0,0,1,1.15-2.84,47.53,47.53,0,0,0,5.37-8.43c1.71-3.25,4.28-3.91,7.53-3.27a8.76,8.76,0,0,1,1.32.41c1.94.73,3.86,1.51,5.81,2.19a31.84,31.84,0,0,0,3.31.92,2.06,2.06,0,0,0,2.33-1.11c2.66-4.28,4.41-8.84,4.34-14,0-2.89.07-5.78,0-8.67a73,73,0,0,1,1.39-15.81A25.66,25.66,0,0,1,352.47,474a94.41,94.41,0,0,0,7.45-8.64,11.32,11.32,0,0,1,7.15-4.49c3.4-.55,6.82-1,10.23-1.49q5.46-.81,10.92-1.64c4-.62,7.86-1.77,11.91-1.91a10,10,0,0,0,3.75-1.08c-3-6.37-5.72-12.58-8.72-18.67a41,41,0,0,0-6.39-9.43,38.41,38.41,0,0,1-3.8-4.92c-1.61-2.52-1-4.75,1.73-5.94,2.1-.92,4.35-1.51,6.52-2.27a2.85,2.85,0,0,0,2.15-1.56c-.54-.38-1.13-.75-1.68-1.18-2.88-2.3-5.77-4.6-8.62-6.93-4.39-3.58-8.6-7.32-11.7-12.16-1.73-2.71-3.6-5.34-5.45-8a2.36,2.36,0,0,0-2.74-1.21c-.41,1.36-.72,2.82-1.28,4.18-.81,2-2,3.66-4.3,4.13a9.82,9.82,0,0,0-6,3.83c-.35.45-.83.81-1.21,1.23a6.74,6.74,0,0,1-6.23,2.31,18.09,18.09,0,0,1-4.31-1.11,40.06,40.06,0,0,1-4.88-2.6A15.9,15.9,0,0,0,327.1,392a4.56,4.56,0,0,0-3.54,1.79,23.68,23.68,0,0,1-5.27,5c-3.09,2.18-6.22,2.18-9.48.7a20.65,20.65,0,0,1-5.59-3.42A17.28,17.28,0,0,0,300,394c-3.61-2-7.23-4.09-10.88-6a17.45,17.45,0,0,0-3.83-1.48,34.59,34.59,0,0,0-4.08-.61,5.67,5.67,0,0,0-3.72.3c-2.73,1.5-5.49,2.95-8.17,4.54a123.15,123.15,0,0,1-14,7.55c-4,1.71-7.05.39-8.5-3.71a24.29,24.29,0,0,1-.9-3c-1-4.38-1.95-8.74-3.32-13-.33-1.05-.31-2.23-1.07-3.15-2.68,1.16-5.23,2.21-7.71,3.4a7.32,7.32,0,0,0-1.7,1.6c-2.45,2.45-4.73,5.09-7.37,7.32s-5.5,4.55-8.08,7c-4.56,4.42-9.21,8.73-13.84,13.11a20,20,0,0,1,2.63,1,2.93,2.93,0,0,1,1.34,4.12c-.19.42-.42.82-.65,1.22a86.94,86.94,0,0,1-11.84,15.29c-2.19,2.38-4.28,4.84-6.35,7.32-5.17,6.2-10.29,12.45-15.46,18.64A92.7,92.7,0,0,0,164,466.76c-3,5-6,10.13-8.94,15.21a2.76,2.76,0,0,0-.13.81,13.24,13.24,0,0,0,4-.13,11.37,11.37,0,0,1,4.07.15,3.29,3.29,0,0,1,2.72,3.52c0,2.79,0,5.54-1.59,8-1.18,1.85-2.24,3.77-3.39,5.63-2,3.24-4.6,6-6.76,9.18a44,44,0,0,1-7.65,8.41,45,45,0,0,0-6.45,7.16c-2.59,3.39-5,6.88-7.63,10.28-1,1.28-2.21,2.36-3.22,3.62s-2.16,2.46-1.47,4.41c1,.27,2,.59,3,.81.67.14,1.37.12,2.06.2,3.48.36,4.77,2.56,3.31,5.84-.66,1.46-1.5,2.85-2.3,4.25-3.66,6.37-8.76,11.59-13.63,17s-10.15,10.74-15.19,16.15c-1.71,1.83-3.25,3.8-5,5.88a20.62,20.62,0,0,0,2.52.89c5.19,1,10.39,1.92,15.51,3.32a20.83,20.83,0,0,0,6.86.6,54.44,54.44,0,0,0,8.46-1.54c3.55-.86,7-1.32,10.4.48.12.06.13.35.2.58-.26.19-.54.38-.8.6a5.15,5.15,0,0,0-.45.43c1.61,1.7,3.18,3.21,4.58,4.86,3.1,3.68,4.88,8.1,6.72,12.45a53.44,53.44,0,0,0,7.42,12.83,48.31,48.31,0,0,0,3.38,3.49,2.47,2.47,0,0,0,2.85.63c.75-.29,1.52-.54,2.26-.85q7.17-3,14.33-6.06c6-2.57,12.06-5.21,18.14-7.68A22.75,22.75,0,0,1,217.36,617a93.24,93.24,0,0,0,12.78,2.86c3.49.51,6.69,1.76,8.85,4.82a17.18,17.18,0,0,1,1,1.42,73.62,73.62,0,0,1,3.77,7c2.18,5.19,6.26,8.45,10.82,11.3a12.25,12.25,0,0,0,6.91,1.81,17.59,17.59,0,0,0,6.71-1.42c4.35-1.83,8.63-3.83,13.25-5,3.92-1,7.78-2.08,11-4.69a12.4,12.4,0,0,1,3-1.63A8.64,8.64,0,0,0,300.53,628.27Z"/><path class="cls-2" d="M300.53,628.27a8.64,8.64,0,0,1-5,5.24,12.4,12.4,0,0,0-3,1.63c-3.25,2.61-7.11,3.73-11,4.69-4.62,1.13-8.9,3.13-13.25,5a17.59,17.59,0,0,1-6.71,1.42,12.25,12.25,0,0,1-6.91-1.81c-4.56-2.85-8.64-6.11-10.82-11.3a73.62,73.62,0,0,0-3.77-7,17.18,17.18,0,0,0-1-1.42c-2.16-3.06-5.36-4.31-8.85-4.82A93.24,93.24,0,0,1,217.36,617a22.75,22.75,0,0,0-15.21,1.16c-6.08,2.47-12.1,5.11-18.14,7.68q-7.17,3-14.33,6.06c-.74.31-1.51.56-2.26.85a2.47,2.47,0,0,1-2.85-.63,48.31,48.31,0,0,1-3.38-3.49,53.44,53.44,0,0,1-7.42-12.83c-1.84-4.35-3.62-8.77-6.72-12.45-1.4-1.65-3-3.16-4.58-4.86a5.15,5.15,0,0,1,.45-.43c.26-.22.54-.41.8-.6-.07-.23-.08-.52-.2-.58-3.38-1.8-6.85-1.34-10.4-.48a54.44,54.44,0,0,1-8.46,1.54,20.83,20.83,0,0,1-6.86-.6c-5.12-1.4-10.32-2.3-15.51-3.32a20.62,20.62,0,0,1-2.52-.89c1.77-2.08,3.31-4,5-5.88,5-5.41,10.23-10.67,15.19-16.15s10-10.61,13.63-17c.8-1.4,1.64-2.79,2.3-4.25,1.46-3.28.17-5.48-3.31-5.84-.69-.08-1.39-.06-2.06-.2-1-.22-2-.54-3-.81-.69-1.95.49-3.18,1.47-4.41s2.25-2.34,3.22-3.62c2.59-3.4,5-6.89,7.63-10.28a45,45,0,0,1,6.45-7.16,44,44,0,0,0,7.65-8.41c2.16-3.14,4.77-5.94,6.76-9.18,1.15-1.86,2.21-3.78,3.39-5.63,1.58-2.48,1.62-5.23,1.59-8A3.29,3.29,0,0,0,163,482.8a11.37,11.37,0,0,0-4.07-.15,13.24,13.24,0,0,1-4,.13,2.76,2.76,0,0,1,.13-.81c3-5.08,5.9-10.18,8.94-15.21a92.7,92.7,0,0,1,8.55-11.31c5.17-6.19,10.29-12.44,15.46-18.64,2.07-2.48,4.16-4.94,6.35-7.32A86.94,86.94,0,0,0,206.2,414.2c.23-.4.46-.8.65-1.22a2.93,2.93,0,0,0-1.34-4.12,20,20,0,0,0-2.63-1c4.63-4.38,9.28-8.69,13.84-13.11,2.58-2.49,5.35-4.73,8.08-7s4.92-4.87,7.37-7.32a7.32,7.32,0,0,1,1.7-1.6c2.48-1.19,5-2.24,7.71-3.4.76.92.74,2.1,1.07,3.15,1.37,4.27,2.36,8.63,3.32,13a24.29,24.29,0,0,0,.9,3c1.45,4.1,4.53,5.42,8.5,3.71a123.15,123.15,0,0,0,14-7.55c2.68-1.59,5.44-3,8.17-4.54a5.67,5.67,0,0,1,3.72-.3,34.59,34.59,0,0,1,4.08.61,17.45,17.45,0,0,1,3.83,1.48c3.65,2,7.27,4,10.88,6a17.28,17.28,0,0,1,3.18,2.05,20.65,20.65,0,0,0,5.59,3.42c3.26,1.48,6.39,1.48,9.48-.7a23.68,23.68,0,0,0,5.27-5A4.56,4.56,0,0,1,327.1,392a15.9,15.9,0,0,1,9.89,2.48,40.06,40.06,0,0,0,4.88,2.6,18.09,18.09,0,0,0,4.31,1.11,6.74,6.74,0,0,0,6.23-2.31c.38-.42.86-.78,1.21-1.23a9.82,9.82,0,0,1,6-3.83c2.29-.47,3.49-2.16,4.3-4.13.56-1.36.87-2.82,1.28-4.18a2.36,2.36,0,0,1,2.74,1.21c1.85,2.65,3.72,5.28,5.45,8,3.1,4.84,7.31,8.58,11.7,12.16,2.85,2.33,5.74,4.63,8.62,6.93.55.43,1.14.8,1.68,1.18a2.85,2.85,0,0,1-2.15,1.56c-2.17.76-4.42,1.35-6.52,2.27-2.7,1.19-3.34,3.42-1.73,5.94a38.41,38.41,0,0,0,3.8,4.92,41,41,0,0,1,6.39,9.43c3,6.09,5.76,12.3,8.72,18.67a10,10,0,0,1-3.75,1.08c-4.05.14-7.94,1.29-11.91,1.91q-5.46.84-10.92,1.64c-3.41.5-6.83.94-10.23,1.49a11.32,11.32,0,0,0-7.15,4.49,94.41,94.41,0,0,1-7.45,8.64,25.66,25.66,0,0,0-7.09,13.93A73,73,0,0,0,344,503.74c.07,2.89,0,5.78,0,8.67.07,5.14-1.68,9.7-4.34,14a2.06,2.06,0,0,1-2.33,1.11,31.84,31.84,0,0,1-3.31-.92c-1.95-.68-3.87-1.46-5.81-2.19a8.76,8.76,0,0,0-1.32-.41c-3.25-.64-5.82,0-7.53,3.27a47.53,47.53,0,0,1-5.37,8.43,6.09,6.09,0,0,0-1.15,2.84,22.54,22.54,0,0,1-4,9.11c-3.58,5.37-7.15,10.76-10.58,16.23a32.24,32.24,0,0,0-3,6.2c-1.16,3.18-.61,4.13,2.73,5.6,1,4.33,3,8.51,3.61,13.31-1.18,0-2.19,0-3.2.13a3,3,0,0,0-3.07,3.41,7.62,7.62,0,0,0,.47,2.69,22.9,22.9,0,0,1,1.66,9.46c0,2.42,0,4.85,0,7.28C297.53,617.61,297.87,623.23,300.53,628.27Zm-88-157.48c.24-1.22.4-2.33.67-3.42,1.8-7.5,4.43-14.75,6.88-22.05,1.76-5.23,3.37-10.52,6-15.4a5.77,5.77,0,0,0,.43-.95,1.81,1.81,0,0,0-1.27-2.15,2.14,2.14,0,0,0-2.25.49,14.19,14.19,0,0,0-1.42,1.94,86.23,86.23,0,0,0-6.15,12.36A179.25,179.25,0,0,0,206.36,468a16.26,16.26,0,0,0-.39,4.79,5.3,5.3,0,0,0,6.15,5.06,28.09,28.09,0,0,0,7.53-2.35,131.73,131.73,0,0,0,11.82-7.16,66.38,66.38,0,0,0,6.16-5,5.64,5.64,0,0,0,1.28-1.63,2,2,0,0,0-1.62-3.05,5.81,5.81,0,0,0-3.95.94c-1.64,1.08-3.24,2.22-4.9,3.24-4,2.48-8.06,4.94-12.14,7.31C215.37,470.7,214.37,471.51,212.57,470.79ZM198,565.74a12.24,12.24,0,0,0-7,.68c-3.37,1.15-6.76,2.25-10.12,3.43-2.71.95-5.48.59-8.22.44-.7,0-1.37-.65-2.24-1.11A50.23,50.23,0,0,1,173,563c1.41-2.5,3.19-4.79,4.8-7.17q3.8-5.58,7.56-11.16a7.71,7.71,0,0,0,.81-1.53,5.2,5.2,0,0,0-1.44-6,48.78,48.78,0,0,0-3.79,4q-5.29,6.82-10.39,13.8a40.44,40.44,0,0,0-5.58,9.52c-.69,1.8-1.46,3.62-1.09,5.66.69,3.84,3.31,5.85,6.82,6.36a28.64,28.64,0,0,0,9-.05,38.36,38.36,0,0,0,14.86-6.25C196,569.13,197.46,568,198,565.74Zm95.27-102.1a11.64,11.64,0,0,0-4.52,6.49,92.72,92.72,0,0,0-3,19.38,43,43,0,0,0,0,5.2c.25,4.19,4.45,7.16,8,5.63a24.36,24.36,0,0,0,4.66-2.13c4.39-3.16,8.65-6.51,12.94-9.8a4,4,0,0,0,.9-1,2.61,2.61,0,0,0-.07-3.21,2.58,2.58,0,0,0-3.37-.86,14.19,14.19,0,0,0-2.33,1.46c-4,2.87-8.05,5.76-12.1,8.61a9.5,9.5,0,0,1-1.75.67c0-1.42-.11-2.56-.1-3.7a106.15,106.15,0,0,1,.72-13.45c.22-1.71.39-3.42.61-5.13s.53-3.64.73-5.46C294.71,465.27,294.74,464.19,293.23,463.64Zm48.94-30.41a7.62,7.62,0,0,0-5.35,5.86,25.09,25.09,0,0,0-.32,8.93,9.24,9.24,0,0,0,1.51,3.46,4.36,4.36,0,0,0,5.39,1.84,13.07,13.07,0,0,0,4-2c3.75-3.06,7.38-6.25,11-9.44a3,3,0,0,0,.57-3.77c-.67-1-2.38-1.26-3.75-.51a6.27,6.27,0,0,0-.84.62c-1.06.88-2.13,1.75-3.18,2.65-2.09,1.8-4.14,3.66-6.28,5.41-.74.61-1.52,1.46-3,.88,0-2.24,0-4.54-.16-6.82S343.34,435.73,342.17,433.23Zm-98.93,81.58c-.18-2-.37-3.68-.49-5.39-.08-1.15,0-2.32-.14-3.46a2,2,0,0,0-.83-1.33,1.28,1.28,0,0,0-1.77.57,16.54,16.54,0,0,0-2.77,10.16,5.44,5.44,0,0,0,3.94,5.13,9.5,9.5,0,0,0,6.11.25c3.4-1.06,6.73-2.35,10.06-3.62a6.74,6.74,0,0,0,2-1.37,2,2,0,0,0,.55-2.22,1.83,1.83,0,0,0-1.8-1.38,16,16,0,0,0-3.72.42,49.06,49.06,0,0,0-5.57,1.84A10.36,10.36,0,0,1,243.24,514.81Zm.12,53.62c-3.18,2.27-4.41,4.21-4.76,7.7a39.18,39.18,0,0,0-.15,4.85c.08,3,1.85,4.65,4.83,4.65a9,9,0,0,0,4.86-1.59,45,45,0,0,0,8.7-7.36,7.2,7.2,0,0,0,.65-.81,1.45,1.45,0,0,0,0-1.91,1.53,1.53,0,0,0-1.85-.56,29.26,29.26,0,0,0-3.36,1.79c-1.76,1.1-3.44,2.33-5.21,3.42a12.68,12.68,0,0,1-2.36.79c0-1.71,0-3.08,0-4.45s.08-3,.1-4.51A1.93,1.93,0,0,0,243.36,568.43Z"/><path class="cls-3" d="M248.49,350.83c1.57.32,3.14.73,4.73.91A2.28,2.28,0,0,0,255,351a1.64,1.64,0,0,0-.47-2.17,14,14,0,0,0-2.42-1.92c-3.25-2-6.56-3.82-9.79-5.8a3.71,3.71,0,0,1-1.24-1.58,7.78,7.78,0,0,0-4-3.71c-3.12-1.5-6.27-3-9.33-4.57a18.93,18.93,0,0,1-3.63-2.6c-2.78-2.43-5.53-4.9-8.21-7.45a57.1,57.1,0,0,1-4.21-4.58A109.91,109.91,0,0,1,199,297.26c-1.25-2.34-2.61-4.63-4.07-6.84a41,41,0,0,1-4.7-9.23c-1.06-3.05-2.12-6.1-3.23-9.13a11.14,11.14,0,0,1-.22-5.94,14.85,14.85,0,0,1,2-.39,54.82,54.82,0,0,1,11.72.79,61.94,61.94,0,0,0,6.52.6c2.31.1,4.63,0,6.94,0,2,0,3.83-.59,4.81-2.72l1.89,1.65c.19-.24.41-.39.41-.54.06-3.23.16-6.47.14-9.71a158,158,0,0,1,1.14-19.69q0-.34,0-.69c.27-6.81.53-13.62.83-20.43a41,41,0,0,1,.5-4.1c.76-5,1.58-10,2.28-15a121.86,121.86,0,0,1,4.9-22.26c.18-.52.47-1,.77-1.66,1.32.83,1.63,2.1,2.22,3.15,3,5.45,5.9,11,9.41,16.15a63.37,63.37,0,0,0,21.65,20.07,161.57,161.57,0,0,0,22.43,10c1,.36,1.94.68,3.1,1.08-.1,2.65-.5,5.25-.85,7.84-.76,5.48-1.66,10.93-2.48,16.41-.65,4.33-1.38,8.65-1.86,13-.27,2.38-.84,4.78-.31,7.2a7.2,7.2,0,0,0,.34,1.33,1.67,1.67,0,0,0,2.85.38,5.11,5.11,0,0,0,.83-1.86c1-4.51,1.92-9,2.75-13.55s1.48-8.87,2.2-13.3c.57-3.53,1.16-7.06,1.69-10.59q1.67-11.12,3.29-22.23c.47-3.19.89-6.38,1.39-10a14.51,14.51,0,0,1,1.28,1.72c2.15,4.09,4.06,8.31,6.42,12.27a76.44,76.44,0,0,0,18.42,21c6.16,4.86,12.56,9.42,18.77,14.23,3.47,2.68,6.87,5.47,10.1,8.44,2.44,2.25,5.42,3.28,8.68,4.89a10.35,10.35,0,0,0-.25-1.93c-1.49-4.15-4.32-7.34-7.56-10.17A132.26,132.26,0,0,0,342,236.23a16.45,16.45,0,0,1-1.56-1.39c2.33-.14,4.29-.21,6.24-.38a37.55,37.55,0,0,0,9.77-2.1,28.47,28.47,0,0,0,8.67-5c5-4.15,9.94-8.29,14.64-12.73,3.6-3.41,6.76-7.28,10.14-10.92,2.43-2.62,4.86-5.26,7.37-7.81a19.52,19.52,0,0,1,7.47-4.28,28.71,28.71,0,0,1,10.52-1.74,8.34,8.34,0,0,1,4.56,1.38,33.86,33.86,0,0,1,6.64,6.06c2.61,2.93,5.09,6,7.74,8.87a45.8,45.8,0,0,1,5.23,7.32c.42.69.77,1.42,1.21,2.1a22.91,22.91,0,0,1,4,9.77,22.26,22.26,0,0,0,1.52,4.95,48.19,48.19,0,0,1,2.75,12.1,123.8,123.8,0,0,0,3,17.7c.74,2.89.4,4.35-1.23,7.48-5.73,0-11,2.66-16.6,3.89a12.16,12.16,0,0,0-9.17,8.17c-1.84,5.05-5.61,7.79-10.62,8.91a18.8,18.8,0,0,0-9.91,5.27c-3.79,4-8.51,6.68-13.21,9.42-2,1.16-4,2.37-5.9,3.61a6.17,6.17,0,0,0-2.68,3.09,6.78,6.78,0,0,0-.44,2.34,2,2,0,0,0,2.35,2,5.21,5.21,0,0,0,1.93-.66c4.74-2.88,9.46-5.77,14.16-8.71a39.23,39.23,0,0,0,7.6-6,15.57,15.57,0,0,1,8.1-4.25c6.36-1.47,11.31-5.07,14.09-11.21a9.73,9.73,0,0,0,.7-1.59,4.82,4.82,0,0,1,3.52-3.51c4.85-1.46,9.74-2.83,14.63-4.15a11,11,0,0,1,2.76,0,7.35,7.35,0,0,1,.47,6.44A78.4,78.4,0,0,0,448.78,295a6.22,6.22,0,0,1-.61,1.6c-.84,1.77-1.82,3.49-2.54,5.31a20.57,20.57,0,0,1-4.66,6.8,139,139,0,0,1-17.06,15.18,74.89,74.89,0,0,1-9.43,6.41c-4.28,2.26-8.6,4.45-12.91,6.65a9.74,9.74,0,0,1-2,.7c-3.35.82-6.71,1.59-10.06,2.42a19.24,19.24,0,0,0-3.95,1.2c-4.07,2-8.48,3-12.78,4.29-2.64.79-5.35,1.34-8,2a12.92,12.92,0,0,0-2.93,1,4.71,4.71,0,0,0-1.7,1.65,1.9,1.9,0,0,0,1.47,2.86,17.22,17.22,0,0,0,3.43-.2c1.25-.15,2.49-.41,3.73-.62a3.57,3.57,0,0,0,.28.27c-2.63,4.91-3,10.33-3.44,15.71-.16,1.94,0,3.91,0,6-1.09.33-2.06.59-3,.92a3.81,3.81,0,0,0-2.81,3.19c-.16,1.14-.33,2.28-.49,3.42a3.45,3.45,0,0,1-2.68,3.24,12.77,12.77,0,0,0-7.08,4.64c-1.84,2.2-2.85,2.34-5.46,1.11-2.4-1.13-4.75-2.38-7.09-3.63-4.21-2.24-8.62-2.32-13.12-1.26a8.69,8.69,0,0,0-4.93,3,22.86,22.86,0,0,1-2.56,2.82c-1,.91-2.18,1.65-3.36,2.52a20.9,20.9,0,0,1-3.78-2c-2.86-2.41-6.18-4-9.42-5.78-2.94-1.6-5.93-3.11-8.9-4.66a16.41,16.41,0,0,0-5.2-1.81c-1.69-.26-3.36-.75-5.06-1a5.73,5.73,0,0,0-2.69.28,32.71,32.71,0,0,0-4.7,2.16c-4.52,2.55-9,5.23-13.49,7.77-2,1.13-4.11,2.05-6.32,3.14a10,10,0,0,1-1-1.95c-1.23-5.15-2.4-10.31-3.6-15.47a9,9,0,0,0-.42-1.66c-1.26-2.88-1-5.88-.68-8.86A66.34,66.34,0,0,0,248,351.3Zm62.91-71.26a32.19,32.19,0,0,0-5.67,11.23c-.81-.19-1.59-.3-2.13.58a11.93,11.93,0,0,0-1.84,5.17,32.38,32.38,0,0,0,.63,11.35c1.93,7.08,6.36,11.57,13.52,13.36a33.24,33.24,0,0,0,13.42.45,38.74,38.74,0,0,0,20.75-10.31,12.79,12.79,0,0,0,4.06-7.84,40.52,40.52,0,0,0-.23-13.09,65.61,65.61,0,0,0-3.42-10.87c-.36-.91-.57-1.89-.88-2.94a15.18,15.18,0,0,0,2.19-.72,24.68,24.68,0,0,0,3.88-2.22c1.47-1.14,1.76-2.43,1.18-3.62-.67-1.38-1.93-1.93-3.83-1.56a14.58,14.58,0,0,0-2.3.72c-2.33.86-4.53,1.35-6.87-.28-1.42-1-2.54-.44-3.4,1.08-.33.58-.57,1.2-.73,1.53-2.46.52-4.58,1-6.72,1.41-5.65,1-11.14,3-17,2.65a1.6,1.6,0,0,0-.69,0,14.26,14.26,0,0,0-2.83,1.12C311.51,277.38,311.45,278.52,311.4,279.57Zm-36.48,62.06c-1.32-1.86-3.05-2.29-4.63-2.85a23.79,23.79,0,0,1-5.65-2.57,25.15,25.15,0,0,1-6.84-6.8c-3.38-5.1-6.6-10.3-9.8-15.52-2-3.24-3.86-6.56-5.67-9.91a14.47,14.47,0,0,1-1.67-8.37c.54-5.72,2.61-8,8.21-9l.34,0c3.5-.72,7-1.37,10.48-2.18a50.35,50.35,0,0,0,15.05-6,60.91,60.91,0,0,0,6.34-4.79,3,3,0,0,0,.89-3.86c-1.76-.92-3.07-.17-4.41.55-2.45,1.29-4.88,2.62-7.38,3.8a75.78,75.78,0,0,1-15.49,4.82c-3.48.8-7,1.38-10.48,2.14a11,11,0,0,0-8.05,6.52c-2.21,5-3.09,10.15-1.42,15.49a26.68,26.68,0,0,0,1.95,4.8c3.23,5.86,6.46,11.73,9.89,17.48,2.9,4.86,6,9.59,10.32,13.41a20.64,20.64,0,0,0,9.35,5A9.31,9.31,0,0,0,274.92,341.63ZM364,249.57a4,4,0,0,0,5.09,1,31.75,31.75,0,0,0,3-1.62,65.6,65.6,0,0,0,14.32-12.42,62.16,62.16,0,0,0,9.25-13.31,17.75,17.75,0,0,0,1.35-3.89,1.84,1.84,0,0,0-.73-1.4,1.3,1.3,0,0,0-1.24.19,35,35,0,0,0-3.13,3.2c-2.9,3.44-5.56,7.09-8.63,10.36C378.05,237.3,372.66,242.87,366,247A3.72,3.72,0,0,0,364,249.57Zm59.82-13.64v-.12a11.77,11.77,0,0,0-2.74.19,2.73,2.73,0,0,0-1.54,4.38c.65.77,1.09,1.72,1.68,2.55a2.59,2.59,0,0,0,3.36.84,15.15,15.15,0,0,0,3.6-2.61c2-2.16.62-4.51-1.61-5A19.25,19.25,0,0,0,423.83,235.93Z"/><path class="cls-4" d="M419,478.87a5.68,5.68,0,0,1-3,4.41,16.45,16.45,0,0,0-4,4.24,1.94,1.94,0,0,0,.12,2.81,2,2,0,0,0,2.79.35,16,16,0,0,0,2-1.34,42.56,42.56,0,0,1,18.48-8.24c3.22-.63,6.68-.21,10,0a41.07,41.07,0,0,1,5.75,1.11,9.41,9.41,0,0,1,1.13.41c-.24,1.27-1.22,1.25-1.86,1.62-2.1,1.21-4.28,2.28-6.34,3.55a17.85,17.85,0,0,0-3.2,2.63c-2.25,2.24-2.3,3-.75,6.23.79.19,1.75.73,2.55.55,3.61-.84,7.11,0,10.64.45,1.48.2,3,.45,4.45.58a12.58,12.58,0,0,1,7.69,3.44,7.14,7.14,0,0,1-2.11.62c-5.43-.3-10.48,1.32-15.56,2.9-3,.92-6,1.79-9,2.49a11.86,11.86,0,0,0-4.11,1.75c-5,3.38-9.88,6.82-14.82,10.22-7.52,5.17-15,10.36-22.56,15.49-9.56,6.48-19.09,13-28.76,19.32-6,3.91-12.2,7.48-18.33,11.17a10.14,10.14,0,0,1-5.23,1.56,12.11,12.11,0,0,0-4.29,1.17,16,16,0,0,1-6.38,1.33c-3.12,0-6.25,0-9.37.05-2.19,0-4.38.11-6.45-.92-1.53-.77-2.66-.18-3.46,1.41a7.21,7.21,0,0,0,2.15,3.37,5.08,5.08,0,0,0,3.69,1.65c6.22,0,12.44.25,18.65-.41.49,3,.49,3-1.15,5.56-.89-.38-1.84-.73-2.74-1.17-1.35-.67-2.67-1.38-4-2.1a1.45,1.45,0,0,0-1.89.18,1.64,1.64,0,0,0-.27,2.21,16.93,16.93,0,0,0,3.05,2.74,39.08,39.08,0,0,0,3.43,2,8.48,8.48,0,0,1-.67,2c-1.13,1.74-2.39,3.4-3.54,5.13a2.89,2.89,0,0,1-3,1.28,13.81,13.81,0,0,1-6.63-2.77c-1.4-1-2.75-2.1-4.19-3.05a7.41,7.41,0,0,0-2.14-.52c.38,3.66,1.43,6.58,4.53,8.29,2,1.1,4.12,2,6.42,3-1,2.69-3.13,4.85-4.66,7.35s-3.14,4.82-4.73,7.25c-1.61-.33-2.44-1.51-3.36-2.49a15.61,15.61,0,0,0-4.56-3.08,5,5,0,0,0-1.48-.2c.15,5,3.54,7.64,6.95,10.28-.74,1.92-1.43,3.75-2.16,5.56a2.21,2.21,0,0,1-.74,1.11c-2,1.16-4,2.24-6,3.34-.08,0-.22-.06-.62-.18-.32-2.56-.74-5.24-1-7.94a164.26,164.26,0,0,1-.78-16.6,38,38,0,0,0-.62-5c.85-.06,1.6-.14,2.35-.16,3.3-.11,4.67-1.9,3.68-5-2-6.26-3.86-12.58-6.81-18.47a4.13,4.13,0,0,1,.36-4.79c2-2.77,4-5.59,6.08-8.49.91.67.61,1.38.52,1.94-.31,1.94-.78,3.85-1,5.79s-.5,3.68.41,5.44a2.27,2.27,0,0,0,2.17,1.42,2.09,2.09,0,0,0,1.92-1.27,13.86,13.86,0,0,0,.79-2.27,117.65,117.65,0,0,0,2.76-16.36c.27-2.17.48-4.35.74-6.53a4.06,4.06,0,0,1,.37-1.32q3.3-6.86,6.65-13.7c.4-.81.95-1.54,1.5-2.42,1.21.39,2.29.71,3.35,1.1,3,1.12,6.06,2.23,9.07,3.41a3.88,3.88,0,0,0,4.68-1.16,32.7,32.7,0,0,0,6.26-9.9A29.69,29.69,0,0,0,351,512.37c-.16-4.39,0-8.79-.08-13.18a47.36,47.36,0,0,1,2-13.28,13.9,13.9,0,0,1,3.6-6.22,85,85,0,0,0,8.86-10.19c1.43-2,3.39-2.05,5.75-1.71-.58,2.51-1.07,4.84-1.67,7.15-1.89,7.25-3.31,14.6-4.63,22a161.72,161.72,0,0,1-5.15,20.44,50.36,50.36,0,0,0-1.58,5.65,16.75,16.75,0,0,0-.09,4.13,1.12,1.12,0,0,0,1.82.8,11,11,0,0,0,2.21-2.15,30.16,30.16,0,0,0,4.12-8c.72-2,1.44-4.1,2.13-6.08,8.69-1.07,16.45-4.29,24.16-7.69,3.05-1.35,6-2.9,9-4.37.41-.2.8-.46,1.21-.66a3,3,0,0,0,1.95-3c-.18-1.45-1.46-1.94-2.85-2a4.31,4.31,0,0,1-.87-.27,6.22,6.22,0,0,1,.67-1.42,60.72,60.72,0,0,1,15.46-13.24,6.62,6.62,0,0,1,1.62-.49Z"/><path class="cls-5" d="M217.18,261.4l.31.77-.84-.14Z"/><path class="cls-3" d="M248,351.3l-.26-.72.73.25Z"/><path class="cls-3" d="M368.8,352.31l.75-.14-.47.41A3.57,3.57,0,0,1,368.8,352.31Z"/><path class="cls-4" d="M418.71,478.58c.2-.28.38-.64.72-.16,0,0-.27.29-.42.45Z"/><path class="cls-5" d="M370.45,506.65l-.58.38,0-.82Z"/><path class="cls-6" d="M212.57,470.79c1.8.72,2.8-.09,3.73-.63,4.08-2.37,8.11-4.83,12.14-7.31,1.66-1,3.26-2.16,4.9-3.24a5.81,5.81,0,0,1,3.95-.94,2,2,0,0,1,1.62,3.05,5.64,5.64,0,0,1-1.28,1.63,66.38,66.38,0,0,1-6.16,5,131.73,131.73,0,0,1-11.82,7.16,28.09,28.09,0,0,1-7.53,2.35,5.3,5.3,0,0,1-6.15-5.06,16.26,16.26,0,0,1,.39-4.79,179.25,179.25,0,0,1,9.14-26.38,86.23,86.23,0,0,1,6.15-12.36,14.19,14.19,0,0,1,1.42-1.94,2.14,2.14,0,0,1,2.25-.49,1.81,1.81,0,0,1,1.27,2.15,5.77,5.77,0,0,1-.43.95c-2.67,4.88-4.28,10.17-6,15.4-2.45,7.3-5.08,14.55-6.88,22.05C213,468.46,212.81,469.57,212.57,470.79Z"/><path class="cls-7" d="M198,565.74c-.5,2.23-2,3.39-3.49,4.41a38.36,38.36,0,0,1-14.86,6.25,28.64,28.64,0,0,1-9,.05c-3.51-.51-6.13-2.52-6.82-6.36-.37-2,.4-3.86,1.09-5.66a40.44,40.44,0,0,1,5.58-9.52q5.12-7,10.39-13.8a48.78,48.78,0,0,1,3.79-4,5.2,5.2,0,0,1,1.44,6,7.71,7.71,0,0,1-.81,1.53q-3.76,5.6-7.56,11.16c-1.61,2.38-3.39,4.67-4.8,7.17a50.23,50.23,0,0,0-2.55,6.19c.87.46,1.54,1.08,2.24,1.11,2.74.15,5.51.51,8.22-.44,3.36-1.18,6.75-2.28,10.12-3.43A12.24,12.24,0,0,1,198,565.74Z"/><path class="cls-6" d="M293.23,463.64c1.51.55,1.48,1.63,1.36,2.67-.2,1.82-.5,3.64-.73,5.46s-.39,3.42-.61,5.13a106.15,106.15,0,0,0-.72,13.45c0,1.14.06,2.28.1,3.7a9.5,9.5,0,0,0,1.75-.67c4.05-2.85,8.06-5.74,12.1-8.61a14.19,14.19,0,0,1,2.33-1.46,2.58,2.58,0,0,1,3.37.86,2.61,2.61,0,0,1,.07,3.21,4,4,0,0,1-.9,1c-4.29,3.29-8.55,6.64-12.94,9.8a24.36,24.36,0,0,1-4.66,2.13c-3.55,1.53-7.75-1.44-8-5.63a43,43,0,0,1,0-5.2,92.72,92.72,0,0,1,3-19.38A11.64,11.64,0,0,1,293.23,463.64Z"/><path class="cls-8" d="M342.17,433.23c1.17,2.5-.62,4.74-.43,7.09s.12,4.58.16,6.82c1.46.58,2.24-.27,3-.88,2.14-1.75,4.19-3.61,6.28-5.41,1-.9,2.12-1.77,3.18-2.65a6.27,6.27,0,0,1,.84-.62c1.37-.75,3.08-.51,3.75.51a3,3,0,0,1-.57,3.77c-3.63,3.19-7.26,6.38-11,9.44a13.07,13.07,0,0,1-4,2,4.36,4.36,0,0,1-5.39-1.84A9.24,9.24,0,0,1,336.5,448a25.09,25.09,0,0,1,.32-8.93A7.62,7.62,0,0,1,342.17,433.23Z"/><path class="cls-8" d="M243.24,514.81a10.36,10.36,0,0,0,5.53-.4,49.06,49.06,0,0,1,5.57-1.84,16,16,0,0,1,3.72-.42,1.83,1.83,0,0,1,1.8,1.38,2,2,0,0,1-.55,2.22,6.74,6.74,0,0,1-2,1.37c-3.33,1.27-6.66,2.56-10.06,3.62a9.5,9.5,0,0,1-6.11-.25,5.44,5.44,0,0,1-3.94-5.13A16.54,16.54,0,0,1,240,505.2a1.28,1.28,0,0,1,1.77-.57,2,2,0,0,1,.83,1.33c.14,1.14.06,2.31.14,3.46C242.87,511.13,243.06,512.83,243.24,514.81Z"/><path class="cls-9" d="M243.36,568.43a1.93,1.93,0,0,1,1.44,2c0,1.5-.08,3-.1,4.51s0,2.74,0,4.45a12.68,12.68,0,0,0,2.36-.79c1.77-1.09,3.45-2.32,5.21-3.42a29.26,29.26,0,0,1,3.36-1.79,1.53,1.53,0,0,1,1.85.56,1.45,1.45,0,0,1,0,1.91,7.2,7.2,0,0,1-.65.81,45,45,0,0,1-8.7,7.36,9,9,0,0,1-4.86,1.59c-3,0-4.75-1.68-4.83-4.65a39.18,39.18,0,0,1,.15-4.85C239,572.64,240.18,570.7,243.36,568.43Z"/><path class="cls-10" d="M305.73,290.8a32.19,32.19,0,0,1,5.67-11.23,6.8,6.8,0,0,0,5.21,2.16,47.28,47.28,0,0,0,12-1.06c2-.47,4-.71,6-1.05.61,2.11,1.08,4,1.71,5.82a37.38,37.38,0,0,0,1.91,4.41,6,6,0,0,0,1.54,1.82c1.37,1.1,2.8.63,3.5-1.06.17-.42.16-1,.45-1.25,1.58-1.34,1.28-3.08,1.15-4.8l1.12-.05a38.5,38.5,0,0,1,2.18,17.38,8.54,8.54,0,0,1-2.86,6.1c-7.77,6.35-16.36,9.81-26.62,7.85a12.92,12.92,0,0,1-10.2-8.38,30.08,30.08,0,0,1-2-9.09C306.29,295.84,306,293.32,305.73,290.8Z"/><path class="cls-11" d="M344.89,284.56c.13,1.72.43,3.46-1.15,4.8-.29.25-.28.83-.45,1.25-.7,1.69-2.13,2.16-3.5,1.06a6,6,0,0,1-1.54-1.82,37.38,37.38,0,0,1-1.91-4.41c-.63-1.83-1.1-3.71-1.71-5.82-2,.34-4.06.58-6,1.05a47.28,47.28,0,0,1-12,1.06,6.8,6.8,0,0,1-5.21-2.16c.05-1.05.11-2.19,1.08-2.78a14.26,14.26,0,0,1,2.83-1.12,1.6,1.6,0,0,1,.69,0c5.87.39,11.36-1.64,17-2.65,2.14-.38,4.26-.89,6.72-1.41.16-.33.4-.95.73-1.53.86-1.52,2-2.07,3.4-1.08,2.34,1.63,4.54,1.14,6.87.28a14.58,14.58,0,0,1,2.3-.72c1.9-.37,3.16.18,3.83,1.56.58,1.19.29,2.48-1.18,3.62a24.68,24.68,0,0,1-3.88,2.22,15.18,15.18,0,0,1-2.19.72c.31,1,.52,2,.88,2.94a65.61,65.61,0,0,1,3.42,10.87,40.52,40.52,0,0,1,.23,13.09,12.79,12.79,0,0,1-4.06,7.84,38.74,38.74,0,0,1-20.75,10.31,33.24,33.24,0,0,1-13.42-.45c-7.16-1.79-11.59-6.28-13.52-13.36a32.38,32.38,0,0,1-.63-11.35,11.93,11.93,0,0,1,1.84-5.17c.54-.88,1.32-.77,2.13-.58.25,2.52.56,5,.74,7.57a30.08,30.08,0,0,0,2,9.09,12.92,12.92,0,0,0,10.2,8.38c10.26,2,18.85-1.5,26.62-7.85a8.54,8.54,0,0,0,2.86-6.1A38.5,38.5,0,0,0,346,284.51a12.86,12.86,0,0,0-2.65-6.16A32.21,32.21,0,0,0,344.89,284.56Z"/><path class="cls-12" d="M274.92,341.63a9.31,9.31,0,0,1-8.67,2.08,20.64,20.64,0,0,1-9.35-5c-4.32-3.82-7.42-8.55-10.32-13.41-3.43-5.75-6.66-11.62-9.89-17.48a26.68,26.68,0,0,1-1.95-4.8c-1.67-5.34-.79-10.54,1.42-15.49a11,11,0,0,1,8.05-6.52c3.48-.76,7-1.34,10.48-2.14a75.78,75.78,0,0,0,15.49-4.82c2.5-1.18,4.93-2.51,7.38-3.8,1.34-.72,2.65-1.47,4.41-.55a3,3,0,0,1-.89,3.86,60.91,60.91,0,0,1-6.34,4.79,50.35,50.35,0,0,1-15.05,6c-3.47.81-7,1.46-10.48,2.18l-.34,0c-5.6,1-7.67,3.32-8.21,9a14.47,14.47,0,0,0,1.67,8.37c1.81,3.35,3.69,6.67,5.67,9.91,3.2,5.22,6.42,10.42,9.8,15.52a25.15,25.15,0,0,0,6.84,6.8,23.79,23.79,0,0,0,5.65,2.57C271.87,339.34,273.6,339.77,274.92,341.63Z"/><path class="cls-13" d="M364,249.57a3.72,3.72,0,0,1,2-2.62c6.67-4.08,12.06-9.65,17.35-15.27,3.07-3.27,5.73-6.92,8.63-10.36a35,35,0,0,1,3.13-3.2,1.3,1.3,0,0,1,1.24-.19,1.84,1.84,0,0,1,.73,1.4,17.75,17.75,0,0,1-1.35,3.89,62.16,62.16,0,0,1-9.25,13.31A65.6,65.6,0,0,1,372.15,249a31.75,31.75,0,0,1-3,1.62A4,4,0,0,1,364,249.57Z"/><path class="cls-14" d="M423.83,235.93a19.25,19.25,0,0,1,2.75.22c2.23.5,3.61,2.85,1.61,5a15.15,15.15,0,0,1-3.6,2.61,2.59,2.59,0,0,1-3.36-.84c-.59-.83-1-1.78-1.68-2.55a2.73,2.73,0,0,1,1.54-4.38,11.77,11.77,0,0,1,2.74-.19Z"/><path class="cls-15" d="M344.89,284.56a32.21,32.21,0,0,1-1.53-6.21,12.86,12.86,0,0,1,2.65,6.16Z"/></svg>