<svg id="Layer_1" data-name="Layer 1" xmlns="http://www.w3.org/2000/svg" viewBox="0 0 360 108"><defs><style>.cls-1{fill:#130f12;}.cls-2{fill:#121013;}.cls-3{fill:#141214;}.cls-4{fill:#0f0d0f;}.cls-5{fill:#452d60;}.cls-6{fill:#161316;}.cls-7{fill:#131013;}.cls-8{fill:#442c5f;}.cls-9{fill:#462d61;}.cls-10{fill:#452c60;}</style></defs><path class="cls-1" d="M186.94,85.15a2.55,2.55,0,0,1-.45-2.12,3,3,0,0,0-.65-2.66,1.76,1.76,0,0,1-.34-1.51,18.08,18.08,0,0,1,.39-2.2c.61-2.47,1.28-4.93,1.9-7.41A96.34,96.34,0,0,0,190.1,57.7a7.46,7.46,0,0,1,.1-1c1.22-5.17,2-10.44,3.39-15.56a19.92,19.92,0,0,1,1.92-4.71c.49-.82.88-1.69,1.34-2.53a1.14,1.14,0,0,1,1.66-.27,4.62,4.62,0,0,1,1.63,1.93,34.06,34.06,0,0,1,2.2,5.63c.95,3.37,2,6.71,2.91,10.1A43.72,43.72,0,0,0,213,66.92a22.81,22.81,0,0,1,4.09,7.86,12.17,12.17,0,0,0,1.54,3.48,2.83,2.83,0,0,1,.22.9,1.93,1.93,0,0,1-2.28-.68,6.88,6.88,0,0,1-.82-1.34c-.42-1.09-.79-2.19-1.11-3.31a11,11,0,0,0-1.8-3.68c-1.45-2-2.8-4-4.17-6a35.58,35.58,0,0,1-4.78-10c-.79-2.73-1.52-5.49-2.25-8.25a65.47,65.47,0,0,0-1.94-6.69c-.37-1-.83-1.94-1.27-2.9-.07-.14-.29-.22-.44-.32-.18.14-.41.23-.5.39-.55,1.15-1.1,2.29-1.59,3.46a43.12,43.12,0,0,0-1.9,7.35,13.07,13.07,0,0,0-.68,3.73,6.67,6.67,0,0,1-.34,1.54,37.44,37.44,0,0,0-.87,4.66,39.63,39.63,0,0,1-1.1,6.23c-.72,3.08-1.47,6.15-2.2,9.23a10.14,10.14,0,0,0,0,3.3,7.75,7.75,0,0,1,.09,1.27c0,1.07-.06,2.13-.05,3.2a2.22,2.22,0,0,0,.19.91c.06.12.45.24.51.18.67-.67,1.27-1.4,1.95-2.06a22.54,22.54,0,0,0,5-6.52,7.9,7.9,0,0,1,3.84-3.68,2.6,2.6,0,0,1,2.45,0,11.89,11.89,0,0,1,3.74,2.37c2.08,2.41,4.72,4.28,6.46,7a4,4,0,0,0,3.85,1.82c.74,0,1.49,0,2.23-.07l.13.14c1.44-1.7,2.89-3.4,4.3-5.13a3.33,3.33,0,0,0,.7-1.39c.54-2.6,1.08-5.21,1.49-7.84a32.18,32.18,0,0,0,.14-7.66,13,13,0,0,0-.72-3.1c-.71-2.12-1.51-4.21-2.28-6.3-.22-.6-.52-1.17-.75-1.76A4.3,4.3,0,0,0,220.05,45c-4.46-2.36-6.11-6.27-6.15-11.08a1.47,1.47,0,0,1,.26-.88c.17-.21.58-.46.77-.38a13.84,13.84,0,0,1,3.64,1.93l1.5,1.19a8,8,0,0,0,5.59,1.9c2.65-.1,5.3.08,8-.14a15.09,15.09,0,0,0,8.89-3.89,15.69,15.69,0,0,0,3.66-4.4c.24-.45.77-.68,1-.48a1.28,1.28,0,0,1,.55.7,19.49,19.49,0,0,1-.6,7.89,5.3,5.3,0,0,1-1.72,2.62,11.11,11.11,0,0,1-4.15,2.31c-1.43.4-2.84.87-4.25,1.3a12.11,12.11,0,0,0-1.81,5.75c-.63,5.5-1.42,11-1.26,16.56a19.5,19.5,0,0,0,.23,2.53,2.13,2.13,0,0,0,1.57,1.83,15.38,15.38,0,0,1,2.1.74,8.25,8.25,0,0,1,4.72,4.51c.5,1.29,1.06,2.56,1.45,3.89a12.63,12.63,0,0,0,2,4.31A.86.86,0,0,1,246,84.8a1.15,1.15,0,0,1-1.2.2,2.73,2.73,0,0,1-.81-.47c-.41-.34-.76-.75-1.16-1.09a5.18,5.18,0,0,0-1.3-.91,20,20,0,0,1-4.34-2.67,3.25,3.25,0,0,0-2.09-.64c-1.49,0-3,0-4.47,0a3.75,3.75,0,0,0-2.39.74c-2.57,1.89-5.13,3.8-7.7,5.68a7.39,7.39,0,0,1-1.37.77c-.53.24-1-.36-.89-1.13l.12-1.93-.29-.62c-.7-.09-1.43-.2-2.16-.27a6.28,6.28,0,0,1-4.74-2.88,12.49,12.49,0,0,0-3.43-3.7,1.35,1.35,0,0,1-.45-.44,12.51,12.51,0,0,0-5.44-4.32c-.68-.12-1.14.38-1.62.77a10.33,10.33,0,0,0-2.79,3.44A15.08,15.08,0,0,1,194.88,79c-1.95,2.1-3.9,4.2-5.88,6.26-.66.69-1,.61-2.16-.23ZM225.81,77a7.83,7.83,0,0,0-1.74.65,7.06,7.06,0,0,0-2.44,3.28.65.65,0,0,0,.17.54.58.58,0,0,0,.55.12q2.4-1.56,4.76-3.19a5.78,5.78,0,0,1,3.56-1.14c2.12.08,4.24,0,6.1.06,1.78,1.11,3.3,2.07,4.84,3,.12.07.37-.06.55-.13a.3.3,0,0,0,.11-.25,18.43,18.43,0,0,0-1.64-4.13,6,6,0,0,0-3.19-2.94,7.83,7.83,0,0,0-2.43-.69,2.47,2.47,0,0,1-2.3-1.88,11.09,11.09,0,0,1-1-4.62c.09-1.59,0-3.19,0-4.79a4.32,4.32,0,0,1,.11-1.58,11.63,11.63,0,0,0,.52-4.09c.17-2.22.8-4.38.72-6.63,0-.19.15-.39.18-.6.31-1.89,1.22-3.6,1.71-5.43a1.41,1.41,0,0,1,1.16-1,21.14,21.14,0,0,0,4.88-1.4,22,22,0,0,0,3.15-1.48,2.18,2.18,0,0,0,.88-.9,10.55,10.55,0,0,0,1.33-4.2c0-.29.06-.64-.42-.68a6.31,6.31,0,0,0-1.85,1.68,16.68,16.68,0,0,1-7.57,4.5,7.92,7.92,0,0,1-2.48.45c-3.31,0-6.61,0-9.91,0A5.09,5.09,0,0,1,221.7,39a10.37,10.37,0,0,1-3-1.85,5.78,5.78,0,0,0-1-.77c-.53-.36-1.07-.68-1.61-1-.53,1.16-.19,2.24,1.78,5.74,1.34.84,2.71,1.64,4,2.54a4.78,4.78,0,0,1,2.33,3.27,14.8,14.8,0,0,0,.84,2.39c.7,2.22,1.74,4.32,2.39,6.56a8.58,8.58,0,0,1,.44,2.49c0,2.56,0,5.11,0,7.67a7.42,7.42,0,0,1-.39,2.5,12.15,12.15,0,0,0-.8,3.38C226.63,73.58,226.07,75.17,225.81,77Zm-38.59,1.18c.08,0,.18,0,.25,0a1.27,1.27,0,0,0,.69-1.54.51.51,0,0,0-.43-.23,1.28,1.28,0,0,0-.71,1.54C187,78,187.15,78.05,187.22,78.13Z"/><path class="cls-2" d="M75.64,33.55c0,.43,0,.85,0,1.28a36,36,0,0,1-1.09,10.11c-1,3.92-1.59,7.93-2.32,11.91a161.24,161.24,0,0,1-7.32,26.43,118.6,118.6,0,0,1-7.66,16.83c-1.49,2.67-2.32,2.39-4.18.28A15.74,15.74,0,0,1,50.55,96q-1.26-2.93-2.41-5.9c-3.68-9.42-7-19-10.1-28.59a45.75,45.75,0,0,1-2.25-10.27,4,4,0,0,0-.31-1.55,15.83,15.83,0,0,1-1.26-5.24c-.2-1.25-.33-2.53-.55-3.78a6,6,0,0,1,.27-3.44,60.17,60.17,0,0,1,4.54-8.77c1.28-1.26,2.56-2.54,3.87-3.78.35-.34,1.17,0,1.25.52A5.78,5.78,0,0,1,43.39,28c-.44,1.42-.88,2.85-1.27,4.29a7,7,0,0,0-.3,1.87c0,2.66.09,5.32.21,8a13.43,13.43,0,0,0,1.17,4.94c.67,1.45,1.29,2.92,1.93,4.38l1.25,2.94a12,12,0,0,0,.51,1.16,4.61,4.61,0,0,0,.82,1.36c1.95,1.73,2.57,4.42,4.49,6.16a.86.86,0,0,0,1.36,0,7.51,7.51,0,0,0,.72-1c1.62-3.23,3.21-6.48,4.84-9.71s2.94-6.83,4.42-10.24a53,53,0,0,0,2.78-8.13c.67-2.68,1.55-5.31,2.3-8,.43-1.54.8-3.09,1.13-4.65.42-2,.76-4,1.15-6a5.94,5.94,0,0,1,.3-.9.86.86,0,0,1,1.09-.35,2.3,2.3,0,0,1,1.2,1.43c.35,1.23.67,2.47.9,3.72A79.26,79.26,0,0,1,75.64,33.55ZM40.5,29.24c-.33.26-.78.45-1,.79-1.27,2.45-2.48,4.94-3.73,7.39a3.65,3.65,0,0,0-.2,3.09,8.06,8.06,0,0,1,.4,2.82c0,1.06,0,2.13,0,3.17a3.1,3.1,0,0,1,1.36,2.78,6.71,6.71,0,0,0,.12,2.53c.59,1.92.59,4,1.5,5.82.2,1.94,1.18,3.62,1.79,5.42,1.78,5.31,3.66,10.6,5.51,15.89.13.4.32.79.47,1.18,1,2.58,1.93,5.16,2.9,7.73q1.73,4.62,3.85,9.07l.44.85c.1.18.21.36.32.54a.72.72,0,0,0,1.28,0,120.43,120.43,0,0,0,7.39-16.53c1.82-5.08,3.38-10.24,4.78-15.45,1.12-4.18,1.86-8.45,2.82-12.67-.16-1.21.68-2.24.64-3.42s.51-2.29.58-3.43a16.91,16.91,0,0,1,.87-3.7c1.07-3.72,1.11-3.71,1.11-7.17,0-2,0-4.05,0-6.07a5.67,5.67,0,0,0-.11-1.9,14.58,14.58,0,0,1-.52-4.09,29,29,0,0,0-.66-3.42c0-.15-.2-.27-.35-.46-.48,1.2-.23,2.39-.57,3.54-1,3.24-1.77,6.52-2.84,9.73-.3.9-.38,1.88-.74,2.75-.52,1.28-.49,2.7-1.15,3.95-2.21,4.12-3.39,8.7-5.71,12.77-.17,1.45-1.29,2.41-1.87,3.66-1,2.12-2.12,4.17-3.12,6.28a9,9,0,0,1-2.18,2.71,1.46,1.46,0,0,1-1.77.07,14.24,14.24,0,0,1-3.7-4.33A5.75,5.75,0,0,0,47,59.06a8.22,8.22,0,0,1-2.35-3.74c-.57-1.61-1.35-3.11-2.06-4.65A39,39,0,0,1,40.63,46a11.45,11.45,0,0,1-.76-4c.1-2.23,0-4.47,0-6.71a9.47,9.47,0,0,1,.53-4.07,5.39,5.39,0,0,0,.11-1.9c.22-.08.62-.07.24-.46Z"/><path class="cls-3" d="M278.9,49.91a27.17,27.17,0,0,0,.4-4.31c.08-4.58-.08-9.16-.25-13.73-.08-2-.28-4-.39-6.06-.08-1.27-.14-2.55-.16-3.82a20.9,20.9,0,0,0-.33-4.46,4.83,4.83,0,0,1,0-1.26c0-.38.49-.9.82-.85a1.61,1.61,0,0,1,.84.33,18.35,18.35,0,0,1,4.25,7.05,47.1,47.1,0,0,1,2.07,8q1,6,2.26,11.92a36.13,36.13,0,0,1,.81,9.83,19.53,19.53,0,0,1-.74,4.08,90.65,90.65,0,0,0-2.33,10.92c-.16,1-.36,1.88-.51,2.83a15,15,0,0,1-1.55,4.52c-.86,1.7-1.8,3.38-2.71,5.06a.69.69,0,0,1-.19.25,3.55,3.55,0,0,1-.84.39.9.9,0,0,1-1-.67,15.56,15.56,0,0,0-1.82-4.4,13.58,13.58,0,0,1-.73-1.76c-.79-2.32-1.56-4.64-2.34-7a18.54,18.54,0,0,0-3-6A13.15,13.15,0,0,1,269.4,57a9.55,9.55,0,0,0-.89-1.67c-.07-.11-.41-.13-.57-.06a1,1,0,0,0-.46.43,22,22,0,0,0-3,5.64c-1.14,3.32-2.17,6.67-3.27,10-.44,1.31-.89,2.62-1.42,3.89a28.19,28.19,0,0,0-1.92,6.07,22.2,22.2,0,0,1-.78,2.76.54.54,0,0,1-.51.2.6.6,0,0,1-.37-.43,38.25,38.25,0,0,1,.14-7.64c.16-3,.49-5.94.65-8.92a31.92,31.92,0,0,0,0-4.79,51,51,0,0,1,0-9.88,42.45,42.45,0,0,0,.1-4.79,24,24,0,0,1,.42-5.08,15.19,15.19,0,0,0,.14-3.81c-.13-2.23-.08-4.47-.05-6.7a1.15,1.15,0,0,1,1.87-.88,2.4,2.4,0,0,1,.26.18,70.58,70.58,0,0,1,9.06,8,15.44,15.44,0,0,0,2.4,2.09,7.93,7.93,0,0,1,2.71,3.48c.19.5.42,1,.62,1.47A7.66,7.66,0,0,0,277.31,50,1.29,1.29,0,0,0,278.9,49.91Zm1.51-29.48v4.22c.76,1.72.44,3.55.56,5.34.15,2.22-.25,4.47.55,6.64a3.82,3.82,0,0,1,.05,1.27c0,2.55,0,5.11,0,7.66a5.34,5.34,0,0,1-.17,1.89,6.38,6.38,0,0,0-.39,2.82,12.6,12.6,0,0,1-.8,3.39,1.1,1.1,0,0,1-1.37.45,6.84,6.84,0,0,1-1-.76c-1.14-1.12-2.25-2.27-3.4-3.38a7.66,7.66,0,0,1-2-3.15,6.23,6.23,0,0,0-3-4,7.22,7.22,0,0,1-1.64-1.5c-1.13-1.12-2.3-2.22-3.37-3.4a23.23,23.23,0,0,0-3.93-3.22c-.55-.39-1.15-.16-1.17.44a7.82,7.82,0,0,0,.26,3.15,5.63,5.63,0,0,1,.13,3.77,19.18,19.18,0,0,0-.5,5c-.11,2.43.34,4.89-.5,7.28a4.11,4.11,0,0,0-.05,1.27c0,.85,0,1.7,0,2.55a7.08,7.08,0,0,0,.43,3.44c.1,2.22.42,4.45-.2,6.65a4.62,4.62,0,0,0-.07,2.78,2.65,2.65,0,0,0,.38-.53c1.18-3,1.8-6.28,3.09-9.32a46.81,46.81,0,0,1,3.93-7.61c1.86-2.78,2.34-2.12,4.17,0a8.76,8.76,0,0,1,1,2.3,12.62,12.62,0,0,0,2.11,3.9,11.05,11.05,0,0,1,2.38,4.45c.94,3.14,2.35,6.12,3.28,9.27.23.76.46,1.9,1.35,2,1.05.14,1.13-1.1,1.48-1.79a13.66,13.66,0,0,0,1.37-3.54,37.54,37.54,0,0,0,.69-3.73c.11-1.39.64-2.7.67-4a17.54,17.54,0,0,1,1-4.33,20.19,20.19,0,0,0,1.08-6.86c-.1-1.7,0-3.41-.06-5.11a10.75,10.75,0,0,0-.39-2.5,17.57,17.57,0,0,1-.94-5.29,5.69,5.69,0,0,0-.31-1.55,23.77,23.77,0,0,1-.84-4c-.05-1.31-.66-2.46-.69-3.74a18.24,18.24,0,0,0-.92-4A10.73,10.73,0,0,0,280.41,20.43Z"/><path class="cls-4" d="M304.05,77.52c-1.05-.18-2.21-.33-3.35-.57a6.6,6.6,0,0,1-4.25-3.13,10,10,0,0,1-1.57-4.47c-.11-1.14.84-2,1.79-1.48a8.26,8.26,0,0,0,4.33.8,9.11,9.11,0,0,1,1.28,0c2.5.34,4.51-.7,6.51-2a13.14,13.14,0,0,0,5-6,17.72,17.72,0,0,1,2-3.6,6.17,6.17,0,0,0,.93-5.75c-.22-.71-.44-1.42-.62-2.15A12.47,12.47,0,0,0,309,40.6c-1.72-.84-3.48-1.59-5.25-2.33a27.22,27.22,0,0,1-5.09-2.62,4.26,4.26,0,0,1-1.88-4.13,9.71,9.71,0,0,1,1.35-4.22,40.92,40.92,0,0,1,8.11-9.81,16.21,16.21,0,0,1,2.39-1.58,5.42,5.42,0,0,1,4.9-.44,5.28,5.28,0,0,0,2.17.31,8.84,8.84,0,0,1,6.21,2A24.59,24.59,0,0,1,326.71,22a12.18,12.18,0,0,1,1.63,2.73,66.92,66.92,0,0,0,3.12,7,7.72,7.72,0,0,1,.74,4.66,2,2,0,0,1-.29.9,2,2,0,0,1-.72.59,1.17,1.17,0,0,1-1.1-.48,3.68,3.68,0,0,1-.47-1.16,3.89,3.89,0,0,0-1.49-2.72l-3.3-3a4.82,4.82,0,0,0-2.25-1.14c-1.34-.31-2.68-.66-4-1.08a4.16,4.16,0,0,0-2.2-.16,16,16,0,0,0-3.91,1.34.82.82,0,0,0-.2,1.11,10.06,10.06,0,0,0,3.09,2.71,14.14,14.14,0,0,1,3.07,2.26,8.26,8.26,0,0,1,2.73,3.85,11,11,0,0,0,.89,2.05A32.77,32.77,0,0,1,324.42,48c1.14,3.63.95,7.37.91,11.08a19.28,19.28,0,0,1-1.41,6.2,8.4,8.4,0,0,1-1.94,2.9c-1.4,1.47-2.8,2.93-4.27,4.32a13.81,13.81,0,0,1-7,3.65c-1.25.24-2.48.62-3.73.88C306.08,77.26,305.13,77.36,304.05,77.52Zm-6-6.6c0,.19-.1.3-.07.39.61,1.82,1.64,3.18,3.71,3.42a3.81,3.81,0,0,1,.92.25A4.83,4.83,0,0,0,306,75a13.56,13.56,0,0,1,3.37-.85,11.28,11.28,0,0,0,5.52-2.23c2.1-1.35,3.61-3.28,5.38-5,.37-1,1.27-1.67,1.63-2.72a15.16,15.16,0,0,0,1.25-7.14c0-.64-.05-1.28,0-1.92a17.15,17.15,0,0,0-.72-6,30.59,30.59,0,0,0-2.6-7.48c-.35-.64-.51-1.39-.8-2.07a4.06,4.06,0,0,0-1.43-2.07c-1.37-.82-2.37-2.14-3.87-2.77A10.71,10.71,0,0,1,310.33,32a2,2,0,0,1-.61-1.43,3.84,3.84,0,0,1,.38-2.35c.78-.4,1.69-1,2.66-1.35a11,11,0,0,1,8.07-.19,11.37,11.37,0,0,0,2.45.66,5.83,5.83,0,0,1,2.82,1.37c.41.34.81.69,1.22,1,.07.06.25.09.3,0s.32-.32.29-.42c-.5-1.4-1.14-2.75-1.73-4.1a10,10,0,0,0-3.12-4c-.76-.58-1.55-1.12-2.3-1.71a10.79,10.79,0,0,0-4.39-1.73,2.71,2.71,0,0,0-1.25.15c-1,.31-2,.68-3,1-.54.18-1-.26-.91-.88.09-.85-.26-1.2-.93-.91a7.86,7.86,0,0,0-2.66,1.7c-1.67,1.78-3.61,3.32-4.86,5.47-1.14,1-1.56,2.53-2.46,3.7a9.87,9.87,0,0,0-1.3,3.22,2,2,0,0,0,.7,2.3,5.68,5.68,0,0,0,1,.76,49,49,0,0,0,5.17,2.48,50.39,50.39,0,0,1,5.46,2.57,7.36,7.36,0,0,1,1.56,1.08c.87.78,1.67,1.64,2.52,2.45a11.16,11.16,0,0,1,1.82,2.6c.81,1.41.84,3.06,1.47,4.52a10.31,10.31,0,0,1,.64,4.37,4,4,0,0,1-.57,2.12c-.27.46-.56.9-.85,1.35A22.9,22.9,0,0,0,315.66,62a10.26,10.26,0,0,1-1.55,2.76,20,20,0,0,1-6.4,5.18,6.43,6.43,0,0,1-3.64.92,27.48,27.48,0,0,0-2.87,0Z"/><path class="cls-3" d="M100.84,65.84c-.66,4.38-1.77,19.79-1.66,23.12.29.15.63.38,1,.53,3.11,1.18,5.3,3.48,7.27,6a2.52,2.52,0,0,1,.5,2.1,1.1,1.1,0,0,1-1.15.88,4,4,0,0,1-.92-.2,11.44,11.44,0,0,1-1.71-.87,6.51,6.51,0,0,0-4.5-1.27A4.73,4.73,0,0,1,98.09,96a7.59,7.59,0,0,0-4.09.23,3.79,3.79,0,0,1-1.26.21c-3,0-5.52,1.4-8.17,2.45a10.92,10.92,0,0,0-2.09,1.43c-.78.55-1.55,1.12-2.35,1.65-.52.34-1.33-.18-1.4-.83a5.18,5.18,0,0,1,.41-2.49,14.35,14.35,0,0,1,2.68-4.32,54.51,54.51,0,0,1,5.66-5.61,3.26,3.26,0,0,1,2-.83.79.79,0,0,0,.83-1A69.21,69.21,0,0,1,88.49,68.5c0-.42,0-.85,0-1.27a1.59,1.59,0,0,0-.11-.39,2,2,0,0,0-.81-.07,9.43,9.43,0,0,1-4.41.36,1.88,1.88,0,0,1-1.51-1,10.72,10.72,0,0,1-.82-2.39,36.33,36.33,0,0,0-1.05-4A17,17,0,0,1,78.88,54c.05-1.49,0-3,0-4.47a6.61,6.61,0,0,1,1-3.33,1.61,1.61,0,0,1,.79-.48,1,1,0,0,1,1,.56c.35,1,.71,2,1,3a27.77,27.77,0,0,0,2.06,5.35,6.08,6.08,0,0,0,7.44,2.62,2.6,2.6,0,0,0,1.26-.91,6.66,6.66,0,0,1,2.06-2,19.18,19.18,0,0,0,3.61-3.59c.4-.5.77-1,1.19-1.51a16.57,16.57,0,0,0,3.61-7,6.56,6.56,0,0,1,.63-1.44,1.13,1.13,0,0,1,1.43-.22,4.69,4.69,0,0,1,.89.89,34.81,34.81,0,0,1,2.9,5.67,3.28,3.28,0,0,1,.23.59c.77,4.48,1,8.89-1.53,13a9.45,9.45,0,0,1-5.59,4.46ZM83.41,96.48a9.08,9.08,0,0,0,4.29-1,9.16,9.16,0,0,1,4.29-1,3.47,3.47,0,0,0,1.55-.28,5.51,5.51,0,0,1,2.19-.33c1.6,0,3.2.07,4.8,0a5.94,5.94,0,0,1,2.47.47c.12,0,.33-.12.48-.22s0-.22-.09-.29c-1.38-1.33-2.76-2.65-4.9-2.54a1.49,1.49,0,0,1-.62-.12c-.5-.23-1-.6-1-1.14,0-1.91,0-3.83,0-5.75.73-1.62.45-3.35.55-5a7.66,7.66,0,0,1,.18-2.21,9.65,9.65,0,0,0,.43-3.14c0-2-.14-4,.59-6a1.65,1.65,0,0,0,0-.63,6.63,6.63,0,0,1,1.6-4.38,4,4,0,0,0,4.41-1,10,10,0,0,0,3.63-7.49c0-1.07-.06-2.14,0-3.2a11.38,11.38,0,0,0-1.56-6.41c-.22-.41-.25-1-.9-1.13-.17.15-.44.26-.48.42-.7,2.88-2.53,5.11-4.3,7.35a33.33,33.33,0,0,1-8.83,7.24,3.75,3.75,0,0,1-2.42.66,9.11,9.11,0,0,0-1.28,0,5.37,5.37,0,0,1-3.76-1.47,8.34,8.34,0,0,1-1.9-2.54A14.69,14.69,0,0,0,81,51.9a7.39,7.39,0,0,0-.17,1c0,1.17,0,2.34,0,3.51A1.86,1.86,0,0,0,81,57c.53,1.38.54,2.93,1.37,4.21a2.51,2.51,0,0,1,.32,1.54,10.88,10.88,0,0,0,0,1.28,1.62,1.62,0,0,0,1.64,1.62,5.09,5.09,0,0,0,1.88-.17c1.15-.45,2.56-.32,3.43-1.44,0,0,.44.14.48.28a4.23,4.23,0,0,1,.21,1.23c0,2.77,0,5.54.06,8.31a5.76,5.76,0,0,0,.09,1.91,14.53,14.53,0,0,1,.54,4.72,8.33,8.33,0,0,0,.2,1.58c.59,2.14.79,4.36,1.52,6.48a6.4,6.4,0,0,1,0,2.18c0,.09-.11.24-.17.24s-.47,0-.57-.08a5.2,5.2,0,0,1-1.12-2.25c-.07-.23-.43-.38-.59-.52-.75.86-1.42,1.68-2.14,2.45-1.33,1.39-2.68,2.74-4,4.11a2.37,2.37,0,0,0-.83,1.67c-.18.12-.62.14-.21.51Z"/><path class="cls-5" d="M219.11,80.32c-.74,0-1.49,0-2.23.07A4,4,0,0,1,213,78.57c-1.74-2.75-4.38-4.62-6.46-7a11.89,11.89,0,0,0-3.74-2.37,2.6,2.6,0,0,0-2.45,0,7.9,7.9,0,0,0-3.84,3.68,22.54,22.54,0,0,1-5,6.52c-.68.66-1.28,1.39-1.95,2.06-.06.06-.45-.06-.51-.18a2.22,2.22,0,0,1-.19-.91c0-1.07,0-2.13.05-3.2a7.75,7.75,0,0,0-.09-1.27,10.14,10.14,0,0,1,0-3.3c.73-3.08,1.48-6.15,2.2-9.23a39.63,39.63,0,0,0,1.1-6.23,37.44,37.44,0,0,1,.87-4.66,6.67,6.67,0,0,0,.34-1.54,13.07,13.07,0,0,1,.68-3.73,43.12,43.12,0,0,1,1.9-7.35c.49-1.17,1-2.31,1.59-3.46.09-.16.32-.25.5-.39.15.1.37.18.44.32.44,1,.9,1.92,1.27,2.9a65.47,65.47,0,0,1,1.94,6.69c.73,2.76,1.46,5.52,2.25,8.25a35.58,35.58,0,0,0,4.78,10c1.37,2,2.72,4,4.17,6a11,11,0,0,1,1.8,3.68c.32,1.12.69,2.22,1.11,3.31a6.88,6.88,0,0,0,.82,1.34,1.93,1.93,0,0,0,2.28.68l.26,1.08ZM197.22,63.17a.3.3,0,0,1,.19.35,8.21,8.21,0,0,0-1.1.58c-.12.09-.12.37-.12.56s.14.17.23.2c1.7.57,3.07-.13,4.34-1.16a2.33,2.33,0,0,0,.77-2.58,28.15,28.15,0,0,0-1-2.65,6.22,6.22,0,0,0-2.47-2.8,1.43,1.43,0,0,0-1.48.22,3.63,3.63,0,0,0-.41.47,13.53,13.53,0,0,0-1.46,3.82,2.24,2.24,0,0,0,.78,2.28A3.06,3.06,0,0,0,197.22,63.17Z"/><path class="cls-6" d="M118.6,43.77a5.35,5.35,0,0,1,.49-.39c2.83-1.52,4.47-.49,6.28,1.8a12.67,12.67,0,0,1,1.61,3.1,15.39,15.39,0,0,1,1.07,5.93c0,3.83.08,7.66-.15,11.49a66.6,66.6,0,0,0,.17,8.93c.15,1.8.19,3.61.19,5.42a14.58,14.58,0,0,0,.56,3.78,1.94,1.94,0,0,0,2.47,1.41c1.45-.34,2.91-.61,4.33-1a17.08,17.08,0,0,0,2.9-1.29c2.17-1.14,4.3-2.33,6.46-3.47a.58.58,0,0,1,.57.08,1.26,1.26,0,0,1,.46.77,2.51,2.51,0,0,1-.39,1.18A37.14,37.14,0,0,1,138,90.37a21.94,21.94,0,0,1-7.64,4.49c-1.11.35-2.19.81-3.29,1.19a5.46,5.46,0,0,1-3.15.15c-1.13-.28-2.25-.63-3.39-.89a2.47,2.47,0,0,1-1.78-1.67,11.31,11.31,0,0,1-.9-4c0-5.54-.08-11.08.33-16.6.15-2,.19-4,.23-6a41,41,0,0,0-.48-6.36,48,48,0,0,1,.32-14.94C118.32,45.05,118.46,44.42,118.6,43.77Zm20.34,41.72a4.68,4.68,0,0,0-1.26.16c-1.66.73-3.47.93-5.16,1.55a7.34,7.34,0,0,1-2.83.23,1.59,1.59,0,0,1-.88-.33,5.12,5.12,0,0,1-2.07-2.72,15.36,15.36,0,0,1-.56-3.43c-.07-2.86.37-5.75-.55-8.56a3.33,3.33,0,0,1,0-1c0-1.71,0-3.41,0-5.11a4.27,4.27,0,0,1,.19-1.57,7,7,0,0,0,.37-2.83c0-2.13,0-4.26,0-6.39a18.84,18.84,0,0,0-1.08-6.22,12.7,12.7,0,0,0-.92-2.36,4.77,4.77,0,0,0-3.29-2.3c-.33-.07-1,.32-1,.64a18.61,18.61,0,0,1-.69,5c.17,3.06-.46,6.16.5,9.19a9.15,9.15,0,0,1,.13,1.9,5.78,5.78,0,0,0,.23,1.57,6.34,6.34,0,0,1,.34,2.51c0,1.7,0,3.41,0,5.11a3.92,3.92,0,0,1-.11,1.58,9.52,9.52,0,0,0-.44,4.09c0,4,0,7.89-.05,11.83a9.53,9.53,0,0,0,1,4.82c1.25,1.12,2.88.86,4.24,1.45a1.5,1.5,0,0,0,.92-.1,22.77,22.77,0,0,0,3.84-1.53c2.73-.52,4.68-2.4,6.82-3.93a12.24,12.24,0,0,0,2-2,3.72,3.72,0,0,0,.43-1.16,1.67,1.67,0,0,0,1.51-.86.27.27,0,0,0-.05-.24.32.32,0,0,0-.23-.14A1.75,1.75,0,0,0,138.94,85.49Z"/><path class="cls-3" d="M158.58,55.54c0,2.34,0,4.69,0,7,0,1.8-.19,3.61-.21,5.41a8.6,8.6,0,0,0,.33,2.19,2.64,2.64,0,0,0,2.5,2.12,11.31,11.31,0,0,0,6.54-.94,49.74,49.74,0,0,1,7.63-3.23,20.82,20.82,0,0,0,3.61-2,5.54,5.54,0,0,1,.8-.49.66.66,0,0,1,.6.07c.2.2.46.56.4.76a12.32,12.32,0,0,1-.93,2.36,13.06,13.06,0,0,1-1.46,2.09c-3.12,3.78-6.2,7.6-9.68,11.06a25.58,25.58,0,0,1-3.87,3.33,5.21,5.21,0,0,1-3.65.85,8.7,8.7,0,0,1-6-3.2,10,10,0,0,1-2.32-4.83c-.31-2.21-.71-4.42-1-6.64-.31-2.64-.51-5.3-.77-7.95a13.15,13.15,0,0,0-.21-1.9,31.71,31.71,0,0,1-.66-8.9c.08-1.7.06-3.41.13-5.11a21,21,0,0,1,.29-3.18,10.15,10.15,0,0,0,.29-3.47,3.61,3.61,0,0,1,1.29-3.13,1.1,1.1,0,0,1,1.17-.28l1.78.64a1.83,1.83,0,0,1,1.14,1.05c1.19,3.09,2.28,6.21,2.26,9.58,0,2.24,0,4.48,0,6.72Zm17.26,14.92c-.34-.07-.66-.25-.89-.17a21.91,21.91,0,0,0-2.33,1,59.66,59.66,0,0,1-6.39,2.83,5.55,5.55,0,0,1-1.5.47,18.71,18.71,0,0,1-3.51,0,5.08,5.08,0,0,1-4.19-3,6.9,6.9,0,0,1-.78-3.38c.09-1.17,0-2.34,0-3.51a9.14,9.14,0,0,1,.38-3.15,5.63,5.63,0,0,0,.17-1.89q0-5.12,0-10.23a6.46,6.46,0,0,0-.06-1.59A56,56,0,0,0,155,41.09a1.34,1.34,0,0,0-1.73-.92.93.93,0,0,0-.81.83,9,9,0,0,1-.18,2.52,8.43,8.43,0,0,0-.45,3.13q0,4.64,0,9.27a3.85,3.85,0,0,0,.11,1.57c.6,1.19.29,2.54.79,3.73s.23,2.73.38,4.1a2.07,2.07,0,0,0,.12.62c.6,1.21.4,2.5.47,3.77a14.68,14.68,0,0,0,.28,2.83,18.55,18.55,0,0,1,.37,2.19c.37,2.4.64,4.85,2.44,6.74a3.69,3.69,0,0,0,2.36,2c.58.25,1.21.38,1.81.6a2.13,2.13,0,0,0,1.84-.18,16.42,16.42,0,0,0,3.88-2.74c.82-.84,1.68-1.63,2.46-2.5s1.56-2,2.44-2.93A38.51,38.51,0,0,0,175.84,70.46Z"/><path class="cls-7" d="M218.35,83.36l-.12,1.93C217.61,84.6,218.07,84,218.35,83.36Z"/><polygon class="cls-7" points="219.11 80.32 219.13 80.24 219.24 80.47 219.11 80.32"/><path class="cls-7" d="M186.94,85.15l-.1-.16Z"/><path class="cls-8" d="M225.81,77c.26-1.78.82-3.37.9-5.09a12.15,12.15,0,0,1,.8-3.38,7.42,7.42,0,0,0,.39-2.5c0-2.56,0-5.11,0-7.67a8.58,8.58,0,0,0-.44-2.49c-.65-2.24-1.69-4.34-2.39-6.56a14.8,14.8,0,0,1-.84-2.39,4.78,4.78,0,0,0-2.33-3.27c-1.3-.9-2.67-1.7-4-2.54-2-3.5-2.31-4.58-1.78-5.74.54.34,1.08.66,1.61,1a5.78,5.78,0,0,1,1,.77,10.37,10.37,0,0,0,3,1.85,5.09,5.09,0,0,0,2.45.55c3.3,0,6.6,0,9.91,0a7.92,7.92,0,0,0,2.48-.45,16.68,16.68,0,0,0,7.57-4.5A6.31,6.31,0,0,1,246,32.86c.48,0,.43.39.42.68a10.55,10.55,0,0,1-1.33,4.2,2.18,2.18,0,0,1-.88.9A22,22,0,0,1,241,40.12a21.14,21.14,0,0,1-4.88,1.4,1.41,1.41,0,0,0-1.16,1c-.49,1.83-1.4,3.54-1.71,5.43,0,.21-.19.41-.18.6.08,2.25-.55,4.41-.72,6.63a11.63,11.63,0,0,1-.52,4.09,4.32,4.32,0,0,0-.11,1.58c0,1.6.07,3.2,0,4.79a11.09,11.09,0,0,0,1,4.62,2.47,2.47,0,0,0,2.3,1.88,7.83,7.83,0,0,1,2.43.69,6,6,0,0,1,3.19,2.94,18.43,18.43,0,0,1,1.64,4.13.3.3,0,0,1-.11.25c-.18.07-.43.2-.55.13-1.54-.94-3.06-1.9-4.84-3-1.86-.09-4,0-6.1-.06a5.78,5.78,0,0,0-3.56,1.14q-2.36,1.64-4.76,3.19a.58.58,0,0,1-.55-.12.65.65,0,0,1-.17-.54,7.06,7.06,0,0,1,2.44-3.28A7.83,7.83,0,0,1,225.81,77Z"/><path class="cls-7" d="M187.22,78.13c-.07-.08-.19-.16-.2-.24a1.28,1.28,0,0,1,.71-1.54.51.51,0,0,1,.43.23,1.27,1.27,0,0,1-.69,1.54C187.4,78.16,187.3,78.13,187.22,78.13Z"/><path class="cls-9" d="M40.52,29.26a5.39,5.39,0,0,1-.11,1.9,9.47,9.47,0,0,0-.53,4.07c0,2.24.09,4.48,0,6.71a11.45,11.45,0,0,0,.76,4,39,39,0,0,0,1.95,4.69c.71,1.54,1.49,3,2.06,4.65A8.22,8.22,0,0,0,47,59.06a5.75,5.75,0,0,1,1.45,2.08,14.24,14.24,0,0,0,3.7,4.33,1.46,1.46,0,0,0,1.77-.07,9,9,0,0,0,2.18-2.71c1-2.11,2.14-4.16,3.12-6.28.58-1.25,1.7-2.21,1.87-3.66,2.32-4.07,3.5-8.65,5.71-12.77.66-1.25.63-2.67,1.15-3.95.36-.87.44-1.85.74-2.75,1.07-3.21,1.87-6.49,2.84-9.73.34-1.15.09-2.34.57-3.54.15.19.32.31.35.46a29,29,0,0,1,.66,3.42A14.58,14.58,0,0,0,73.62,28a5.67,5.67,0,0,1,.11,1.9c0,2,0,4.05,0,6.07,0,3.46,0,3.45-1.11,7.17a16.91,16.91,0,0,0-.87,3.7c-.07,1.14-.63,2.23-.58,3.43s-.8,2.21-.64,3.42c-1,4.22-1.7,8.49-2.82,12.67-1.4,5.21-3,10.37-4.78,15.45a120.43,120.43,0,0,1-7.39,16.53.72.72,0,0,1-1.28,0c-.11-.18-.22-.36-.32-.54l-.44-.85q-2.13-4.45-3.85-9.07c-1-2.57-1.93-5.15-2.9-7.73-.15-.39-.34-.78-.47-1.18-1.85-5.29-3.73-10.58-5.51-15.89-.61-1.8-1.59-3.48-1.79-5.42-.91-1.83-.91-3.9-1.5-5.82a6.71,6.71,0,0,1-.12-2.53A3.1,3.1,0,0,0,36,46.5c0-1,0-2.11,0-3.17a8.06,8.06,0,0,0-.4-2.82,3.65,3.65,0,0,1,.2-3.09C37.06,35,38.27,32.48,39.54,30c.18-.34.63-.53,1-.79Z"/><path class="cls-9" d="M40.5,29.24l.26-.44c.38.39,0,.38-.24.46Z"/><path class="cls-10" d="M280.41,20.43a10.73,10.73,0,0,1,2.21,4.66,18.24,18.24,0,0,1,.92,4c0,1.28.64,2.43.69,3.74a23.77,23.77,0,0,0,.84,4,5.69,5.69,0,0,1,.31,1.55,17.57,17.57,0,0,0,.94,5.29,10.75,10.75,0,0,1,.39,2.5c0,1.7,0,3.41.06,5.11a20.19,20.19,0,0,1-1.08,6.86,17.54,17.54,0,0,0-1,4.33c0,1.35-.56,2.66-.67,4a37.54,37.54,0,0,1-.69,3.73A13.66,13.66,0,0,1,282,73.82c-.35.69-.43,1.93-1.48,1.79-.89-.13-1.12-1.27-1.35-2-.93-3.15-2.34-6.13-3.28-9.27a11.05,11.05,0,0,0-2.38-4.45A12.62,12.62,0,0,1,271.4,56a8.76,8.76,0,0,0-1-2.3c-1.83-2.14-2.31-2.8-4.17,0a46.81,46.81,0,0,0-3.93,7.61c-1.29,3-1.91,6.27-3.09,9.32a2.65,2.65,0,0,1-.38.53,4.62,4.62,0,0,1,.07-2.78c.62-2.2.3-4.43.2-6.65a7.08,7.08,0,0,1-.43-3.44c0-.85,0-1.7,0-2.55a4.11,4.11,0,0,1,.05-1.27c.84-2.39.39-4.85.5-7.28a19.18,19.18,0,0,1,.5-5,5.63,5.63,0,0,0-.13-3.77,7.82,7.82,0,0,1-.26-3.15c0-.6.62-.83,1.17-.44A23.23,23.23,0,0,1,264.4,38c1.07,1.18,2.24,2.28,3.37,3.4a7.22,7.22,0,0,0,1.64,1.5,6.23,6.23,0,0,1,3,4,7.66,7.66,0,0,0,2,3.15c1.15,1.11,2.26,2.26,3.4,3.38a6.84,6.84,0,0,0,1,.76,1.1,1.1,0,0,0,1.37-.45,12.6,12.6,0,0,0,.8-3.39,6.38,6.38,0,0,1,.39-2.82,5.34,5.34,0,0,0,.17-1.89c0-2.55,0-5.11,0-7.66a3.82,3.82,0,0,0-.05-1.27c-.8-2.17-.4-4.42-.55-6.64-.12-1.79.2-3.62-.56-5.34Z"/><path class="cls-5" d="M298,70.92l3.16,0a27.48,27.48,0,0,1,2.87,0,6.43,6.43,0,0,0,3.64-.92,20,20,0,0,0,6.4-5.18A10.26,10.26,0,0,0,315.66,62a22.9,22.9,0,0,1,2.26-4.16c.29-.45.58-.89.85-1.35a4,4,0,0,0,.57-2.12A10.31,10.31,0,0,0,318.7,50c-.63-1.46-.66-3.11-1.47-4.52a11.16,11.16,0,0,0-1.82-2.6c-.85-.81-1.65-1.67-2.52-2.45a7.36,7.36,0,0,0-1.56-1.08,50.39,50.39,0,0,0-5.46-2.57,49,49,0,0,1-5.17-2.48,5.68,5.68,0,0,1-1-.76,2,2,0,0,1-.7-2.3,9.87,9.87,0,0,1,1.3-3.22c.9-1.17,1.32-2.68,2.46-3.7,1.25-2.15,3.19-3.69,4.86-5.47a7.86,7.86,0,0,1,2.66-1.7c.67-.29,1,.06.93.91-.07.62.37,1.06.91.88,1-.32,2-.69,3-1a2.71,2.71,0,0,1,1.25-.15,10.79,10.79,0,0,1,4.39,1.73c.75.59,1.54,1.13,2.3,1.71a10,10,0,0,1,3.12,4c.59,1.35,1.23,2.7,1.73,4.1,0,.1-.16.31-.29.42s-.23,0-.3,0c-.41-.33-.81-.68-1.22-1a5.83,5.83,0,0,0-2.82-1.37,11.37,11.37,0,0,1-2.45-.66,11,11,0,0,0-8.07.19c-1,.39-1.88.95-2.66,1.35a3.84,3.84,0,0,0-.38,2.35,2,2,0,0,0,.61,1.43,10.71,10.71,0,0,0,3.42,2.82c1.5.63,2.5,2,3.87,2.77a4.06,4.06,0,0,1,1.43,2.07c.29.68.45,1.43.8,2.07a30.59,30.59,0,0,1,2.6,7.48,17.15,17.15,0,0,1,.72,6c-.06.64,0,1.28,0,1.92a15.16,15.16,0,0,1-1.25,7.14c-.36,1.05-1.26,1.71-1.63,2.72-1.77,1.68-3.28,3.61-5.38,5a11.28,11.28,0,0,1-5.52,2.23A13.56,13.56,0,0,0,306,75a4.83,4.83,0,0,1-3.41,0,3.81,3.81,0,0,0-.92-.25c-2.07-.24-3.1-1.6-3.71-3.42C297.94,71.22,298,71.11,298,70.92Z"/><path class="cls-5" d="M83.3,96.38a2.37,2.37,0,0,1,.83-1.67c1.35-1.37,2.7-2.72,4-4.11.72-.77,1.39-1.59,2.14-2.45.16.14.52.29.59.52A5.2,5.2,0,0,0,92,90.92c.1.11.38.09.57.08s.17-.15.17-.24a6.4,6.4,0,0,0,0-2.18c-.73-2.12-.93-4.34-1.52-6.48a8.33,8.33,0,0,1-.2-1.58,14.53,14.53,0,0,0-.54-4.72,5.76,5.76,0,0,1-.09-1.91c0-2.77,0-5.54-.06-8.31a4.23,4.23,0,0,0-.21-1.23c0-.14-.46-.3-.48-.28-.87,1.12-2.28,1-3.43,1.44a5.09,5.09,0,0,1-1.88.17,1.62,1.62,0,0,1-1.64-1.62,10.88,10.88,0,0,1,0-1.28,2.51,2.51,0,0,0-.32-1.54C81.53,60,81.52,58.41,81,57a1.86,1.86,0,0,1-.13-.62c0-1.17,0-2.34,0-3.51a7.39,7.39,0,0,1,.17-1,14.69,14.69,0,0,1,1.91,3.45,8.34,8.34,0,0,0,1.9,2.54,5.37,5.37,0,0,0,3.76,1.47,9.11,9.11,0,0,1,1.28,0,3.75,3.75,0,0,0,2.42-.66,33.33,33.33,0,0,0,8.83-7.24c1.77-2.24,3.6-4.47,4.3-7.35,0-.16.31-.27.48-.42.65.09.68.72.9,1.13a11.38,11.38,0,0,1,1.56,6.41c-.08,1.06,0,2.13,0,3.2a10,10,0,0,1-3.63,7.49,4,4,0,0,1-4.41,1,6.63,6.63,0,0,0-1.6,4.38,1.65,1.65,0,0,1,0,.63c-.73,2-.55,4-.59,6a9.65,9.65,0,0,1-.43,3.14,7.66,7.66,0,0,0-.18,2.21c-.1,1.69.18,3.42-.55,5,0,1.92-.08,3.84,0,5.75,0,.54.52.91,1,1.14a1.49,1.49,0,0,0,.62.12c2.14-.11,3.52,1.21,4.9,2.54.07.07.12.28.09.29s-.36.27-.48.22a5.94,5.94,0,0,0-2.47-.47c-1.6,0-3.2,0-4.8,0a5.51,5.51,0,0,0-2.19.33,3.47,3.47,0,0,1-1.55.28,9.16,9.16,0,0,0-4.29,1,9.08,9.08,0,0,1-4.29,1Z"/><path class="cls-5" d="M83.41,96.48l-.32.41c-.41-.37,0-.39.21-.51Z"/><path class="cls-7" d="M197.22,63.17a3.06,3.06,0,0,1-1.72-.71,2.24,2.24,0,0,1-.78-2.28,13.53,13.53,0,0,1,1.46-3.82,3.63,3.63,0,0,1,.41-.47,1.43,1.43,0,0,1,1.48-.22,6.22,6.22,0,0,1,2.47,2.8,28.15,28.15,0,0,1,1,2.65,2.33,2.33,0,0,1-.77,2.58c-1.27,1-2.64,1.73-4.34,1.16-.09,0-.23-.13-.23-.2s0-.47.12-.56a8.21,8.21,0,0,1,1.1-.58c.38-.17.77-.32,1.14-.52a1.59,1.59,0,0,0,.87-2.09,7.05,7.05,0,0,0-1.17-2.55,3.17,3.17,0,0,0-.7-.61c-.17-.12-.65.36-.79.81a11.91,11.91,0,0,0-.31,1.21,1.8,1.8,0,0,0,1,2.1c.55.31.14.69-.06,1Z"/><path class="cls-5" d="M139.07,85.63a3.72,3.72,0,0,1-.43,1.16,12.24,12.24,0,0,1-2,2c-2.14,1.53-4.09,3.41-6.82,3.93a22.77,22.77,0,0,1-3.84,1.53,1.5,1.5,0,0,1-.92.1c-1.36-.59-3-.33-4.24-1.45a9.53,9.53,0,0,1-1-4.82c.06-3.94,0-7.88.05-11.83a9.52,9.52,0,0,1,.44-4.09,3.92,3.92,0,0,0,.11-1.58c0-1.7,0-3.41,0-5.11a6.34,6.34,0,0,0-.34-2.51,5.78,5.78,0,0,1-.23-1.57,9.15,9.15,0,0,0-.13-1.9c-1-3-.33-6.13-.5-9.19a18.61,18.61,0,0,0,.69-5c0-.32.65-.71,1-.64a4.77,4.77,0,0,1,3.29,2.3,12.7,12.7,0,0,1,.92,2.36,18.84,18.84,0,0,1,1.08,6.22c-.06,2.13,0,4.26,0,6.39a7,7,0,0,1-.37,2.83,4.27,4.27,0,0,0-.19,1.57c0,1.7,0,3.4,0,5.11a3.33,3.33,0,0,0,0,1c.92,2.81.48,5.7.55,8.56a15.36,15.36,0,0,0,.56,3.43,5.12,5.12,0,0,0,2.07,2.72,1.59,1.59,0,0,0,.88.33,7.34,7.34,0,0,0,2.83-.23c1.69-.62,3.5-.82,5.16-1.55a4.68,4.68,0,0,1,1.26-.16Z"/><path class="cls-5" d="M138.94,85.49a1.75,1.75,0,0,1,1.36-1.1.32.32,0,0,1,.23.14.27.27,0,0,1,.05.24,1.67,1.67,0,0,1-1.51.86Z"/><path class="cls-8" d="M175.84,70.46a38.51,38.51,0,0,1-4.25,5.25c-.88.91-1.59,2-2.44,2.93s-1.64,1.66-2.46,2.5a16.42,16.42,0,0,1-3.88,2.74,2.13,2.13,0,0,1-1.84.18c-.6-.22-1.23-.35-1.81-.6a3.69,3.69,0,0,1-2.36-2c-1.8-1.89-2.07-4.34-2.44-6.74a18.55,18.55,0,0,0-.37-2.19,14.68,14.68,0,0,1-.28-2.83c-.07-1.27.13-2.56-.47-3.77a2.07,2.07,0,0,1-.12-.62c-.15-1.37.18-2.78-.38-4.1s-.19-2.54-.79-3.73a3.85,3.85,0,0,1-.11-1.57q0-4.64,0-9.27a8.43,8.43,0,0,1,.45-3.13,9,9,0,0,0,.18-2.52.93.93,0,0,1,.81-.83,1.34,1.34,0,0,1,1.73.92,56,56,0,0,1,1.78,6.73,6.46,6.46,0,0,1,.06,1.59q0,5.12,0,10.23a5.63,5.63,0,0,1-.17,1.89,9.14,9.14,0,0,0-.38,3.15c0,1.17.06,2.34,0,3.51a6.9,6.9,0,0,0,.78,3.38,5.08,5.08,0,0,0,4.19,3,18.71,18.71,0,0,0,3.51,0,5.55,5.55,0,0,0,1.5-.47,59.66,59.66,0,0,0,6.39-2.83,21.91,21.91,0,0,1,2.33-1C175.18,70.21,175.5,70.39,175.84,70.46Z"/></svg>