<svg id="Layer_1" data-name="Layer 1" xmlns="http://www.w3.org/2000/svg" viewBox="0 0 360 108"><defs><style>.cls-1{fill:#130f12;}.cls-2{fill:#121013;}.cls-3{fill:#141214;}.cls-4{fill:#0f0d0f;}.cls-5{fill:#99265d;}.cls-6{fill:#161316;}.cls-7{fill:#131013;}.cls-8{fill:#462d61;}.cls-9{fill:#452d60;}</style></defs><path class="cls-1" d="M252.63,29.16c-.28-.2-.81,0-1,.49A15.79,15.79,0,0,1,247.92,34,14.94,14.94,0,0,1,239,37.93c-2.66.22-5.31,0-8,.14a8,8,0,0,1-5.59-1.9L224,35a13.53,13.53,0,0,0-3.64-1.93c-.18-.07-.6.17-.76.38a1.5,1.5,0,0,0-.27.88c0,4.81,1.7,8.72,6.15,11.08a4.32,4.32,0,0,1,2.08,2.33c.22.59.52,1.16.74,1.76.78,2.09,1.57,4.18,2.28,6.3a13.52,13.52,0,0,1,.73,3.11,33.17,33.17,0,0,1-.14,7.65c-.41,2.63-1,5.24-1.49,7.85a3.5,3.5,0,0,1-.71,1.38c-1.41,1.73-2.86,3.43-4.3,5.14l-.11-.23c-.09-.36-.17-.72-.26-1.07h0a2.89,2.89,0,0,0-.22-.91,12.45,12.45,0,0,1-1.54-3.48,22.73,22.73,0,0,0-4.09-7.86,43.88,43.88,0,0,1-7.77-15.58c-.88-3.39-2-6.73-2.91-10.1a33.2,33.2,0,0,0-2.2-5.63,4.59,4.59,0,0,0-1.62-1.93,1.15,1.15,0,0,0-1.66.27c-.46.84-.85,1.71-1.34,2.53A19.28,19.28,0,0,0,199,41.63c-1.44,5.12-2.17,10.39-3.39,15.56a7.46,7.46,0,0,0-.11,1,93.09,93.09,0,0,1-2.31,11.56c-.61,2.47-1.28,4.93-1.9,7.4a18.06,18.06,0,0,0-.38,2.2,1.73,1.73,0,0,0,.33,1.51,3,3,0,0,1,.65,2.66,2.52,2.52,0,0,0,.46,2.12l-.1-.16c1.13.84,1.5.92,2.15.23,2-2.06,3.93-4.16,5.88-6.25a15.67,15.67,0,0,0,2.56-3.63,10.21,10.21,0,0,1,2.79-3.44c.47-.39.93-.88,1.61-.77,2.15,1.07,4.15,2.25,5.44,4.32a1.61,1.61,0,0,0,.45.45,12.29,12.29,0,0,1,3.44,3.7,6.27,6.27,0,0,0,4.74,2.87c.73.07,1.45.18,2.16.27l.29.62c-.29.63-.75,1.24-.13,1.93-.1.77.36,1.37.89,1.13a7.08,7.08,0,0,0,1.37-.77c2.58-1.88,5.14-3.79,7.71-5.67a3.66,3.66,0,0,1,2.38-.75c1.49,0,3,0,4.48,0a3.17,3.17,0,0,1,2.09.64A19.61,19.61,0,0,0,246.88,83a5.18,5.18,0,0,1,1.3.91c.41.34.75.75,1.16,1.09a2.91,2.91,0,0,0,.82.47,1.13,1.13,0,0,0,1.19-.2.88.88,0,0,0,.1-1.14,12.26,12.26,0,0,1-2-4.31c-.39-1.32-.95-2.6-1.45-3.88a8.24,8.24,0,0,0-4.72-4.51,14.3,14.3,0,0,0-2.11-.75,2.11,2.11,0,0,1-1.56-1.82,16.66,16.66,0,0,1-.23-2.54c-.16-5.56.62-11.06,1.25-16.56A12.22,12.22,0,0,1,242.46,44c1.41-.43,2.82-.9,4.25-1.29a11.31,11.31,0,0,0,4.15-2.31,5.34,5.34,0,0,0,1.72-2.62,19.2,19.2,0,0,0,.6-7.9C253.16,29.61,252.87,29.33,252.63,29.16Zm-50,34.45.15-.28c.2-.33.62-.71.07-1a1.8,1.8,0,0,1-1-2.1c.08-.41.19-.81.31-1.21s.62-.92.79-.81a3,3,0,0,1,.7.61,7.25,7.25,0,0,1,1.18,2.55,1.59,1.59,0,0,1-.88,2.09c-.36.2-.76.35-1.14.52A.29.29,0,0,0,202.62,63.61Z"/><path class="cls-1" d="M79.79,19.69c-.23-1.25-.55-2.49-.9-3.72a2.3,2.3,0,0,0-1.2-1.43.86.86,0,0,0-1.09.35,5.94,5.94,0,0,0-.3.9c-.38,2-.73,4-1.14,5.95q-.5,2.34-1.14,4.65c-.74,2.66-1.62,5.29-2.3,8A53,53,0,0,1,69,42.49c-1.49,3.41-2.74,6.92-4.43,10.24s-3.21,6.48-4.83,9.72a8.12,8.12,0,0,1-.73,1,.85.85,0,0,1-1.35,0c-1.93-1.74-2.55-4.43-4.5-6.16A4.61,4.61,0,0,1,52.29,56c-.19-.37-.34-.77-.51-1.16-.42-1-.83-2-1.25-2.93-.63-1.47-1.26-2.94-1.92-4.39a13,13,0,0,1-1.17-4.94c-.12-2.65-.18-5.32-.21-8a7,7,0,0,1,.29-1.87c.4-1.44.83-2.86,1.28-4.28A6,6,0,0,0,49,25.61c-.09-.48-.91-.86-1.26-.52-1.3,1.24-2.58,2.52-3.87,3.78a59.14,59.14,0,0,0-4.53,8.77,6,6,0,0,0-.28,3.44c.22,1.26.35,2.53.55,3.78a16.2,16.2,0,0,0,1.26,5.25,3.92,3.92,0,0,1,.31,1.54,45.11,45.11,0,0,0,2.26,10.27c3.11,9.62,6.42,19.17,10.09,28.59.77,2,1.58,3.95,2.41,5.91a16,16,0,0,0,2.52,4.42c1.87,2.1,2.69,2.38,4.18-.29a117.49,117.49,0,0,0,7.66-16.83,162.27,162.27,0,0,0,7.33-26.43c.73-4,1.33-8,2.31-11.91a36,36,0,0,0,1.1-10.11c0-.43,0-.85,0-1.28A78.36,78.36,0,0,0,79.79,19.69Z"/><path class="cls-1" d="M291.56,31.27a47.72,47.72,0,0,0-2.08-8,18.19,18.19,0,0,0-4.25-7.06,1.61,1.61,0,0,0-.84-.33c-.33,0-.79.47-.81.85a4.5,4.5,0,0,0,0,1.27,20.75,20.75,0,0,1,.32,4.45c0,1.28.08,2.55.16,3.83.12,2,.31,4,.39,6.05.18,4.58.34,9.15.26,13.74a28.25,28.25,0,0,1-.41,4.3,1.28,1.28,0,0,1-1.59.08A7.73,7.73,0,0,1,279.94,47c-.2-.49-.43-1-.62-1.47a8,8,0,0,0-2.71-3.48,16.44,16.44,0,0,1-2.4-2.08,70.57,70.57,0,0,0-9-8l-.27-.17a1.14,1.14,0,0,0-1.87.87c0,2.23-.07,4.47.05,6.7a15.18,15.18,0,0,1-.14,3.81,24.66,24.66,0,0,0-.41,5.08,44.94,44.94,0,0,1-.1,4.79,51,51,0,0,0,0,9.88,31.92,31.92,0,0,1,0,4.79c-.17,3-.5,5.94-.66,8.92a39,39,0,0,0-.14,7.64.67.67,0,0,0,.38.44.56.56,0,0,0,.5-.21,19.22,19.22,0,0,0,.78-2.76,28.19,28.19,0,0,1,1.92-6.07c.54-1.27,1-2.58,1.42-3.89,1.1-3.33,2.14-6.69,3.27-10a22.82,22.82,0,0,1,2.95-5.64,1.18,1.18,0,0,1,.46-.43c.17-.07.51-.05.57.06a8.38,8.38,0,0,1,.89,1.67,13.15,13.15,0,0,0,2.11,3.92,18.34,18.34,0,0,1,3,6c.78,2.32,1.55,4.64,2.35,7A12.31,12.31,0,0,0,283,76a15.54,15.54,0,0,1,1.81,4.4.91.91,0,0,0,1,.67,3.37,3.37,0,0,0,.84-.39.62.62,0,0,0,.2-.25c.9-1.68,1.84-3.35,2.71-5.06A15.3,15.3,0,0,0,291,70.85c.15-.94.36-1.88.51-2.83a92.62,92.62,0,0,1,2.33-10.92,18.81,18.81,0,0,0,.75-4.08,36.13,36.13,0,0,0-.82-9.83Q292.58,37.25,291.56,31.27Z"/><path class="cls-1" d="M336.86,32.18a69.25,69.25,0,0,1-3.12-7,11.48,11.48,0,0,0-1.63-2.73,24.15,24.15,0,0,0-4.76-4.21,8.83,8.83,0,0,0-6.22-2,5.23,5.23,0,0,1-2.16-.31,5.45,5.45,0,0,0-4.91.44,15,15,0,0,0-2.38,1.59,40.45,40.45,0,0,0-8.11,9.8A9.76,9.76,0,0,0,302.21,32a4.25,4.25,0,0,0,1.89,4.13,26.91,26.91,0,0,0,5.09,2.62c1.76.74,3.53,1.49,5.24,2.33a12.48,12.48,0,0,1,7.14,8.51c.17.72.4,1.43.62,2.14a6.19,6.19,0,0,1-.93,5.75,17.76,17.76,0,0,0-2,3.6,13.12,13.12,0,0,1-5,6c-2,1.35-4,2.39-6.52,2a9,9,0,0,0-1.27,0,8.26,8.26,0,0,1-4.33-.8c-1-.51-1.9.35-1.79,1.48a9.83,9.83,0,0,0,1.56,4.47,6.64,6.64,0,0,0,4.26,3.13c1.14.24,2.29.4,3.35.57,1.07-.16,2-.26,3-.45,1.25-.26,2.47-.64,3.73-.88a13.7,13.7,0,0,0,7-3.65c1.47-1.39,2.88-2.85,4.27-4.32a8.27,8.27,0,0,0,1.94-2.9,19.56,19.56,0,0,0,1.42-6.2c0-3.71.22-7.45-.92-11.08a32.74,32.74,0,0,0-2.35-6.59,10.34,10.34,0,0,1-.89-2A8.2,8.2,0,0,0,323.84,36a13.87,13.87,0,0,0-3.07-2.27A10,10,0,0,1,317.68,31a.83.83,0,0,1,.2-1.11,16,16,0,0,1,3.91-1.34,4.15,4.15,0,0,1,2.2.16c1.32.42,2.65.77,4,1.08A4.84,4.84,0,0,1,330.23,31c1.11,1,2.2,2,3.3,3a3.92,3.92,0,0,1,1.5,2.72,3.26,3.26,0,0,0,.47,1.16,1.15,1.15,0,0,0,1.09.48,1.93,1.93,0,0,0,.73-.59,2.08,2.08,0,0,0,.29-.89A7.71,7.71,0,0,0,336.86,32.18Z"/><path class="cls-1" d="M115.19,47.62a34,34,0,0,0-2.9-5.67,4.41,4.41,0,0,0-.89-.89,1.13,1.13,0,0,0-1.42.22,6.22,6.22,0,0,0-.64,1.45,16.59,16.59,0,0,1-3.61,7c-.41.49-.79,1-1.18,1.51a19.53,19.53,0,0,1-3.62,3.59,6.63,6.63,0,0,0-2.05,2,2.7,2.7,0,0,1-1.26.91,6.07,6.07,0,0,1-7.44-2.62,27.52,27.52,0,0,1-2.06-5.35c-.28-1-.64-2-1-3a1,1,0,0,0-1.05-.55,1.53,1.53,0,0,0-.79.47,6.53,6.53,0,0,0-1,3.33c0,1.49,0,3,0,4.47a16.92,16.92,0,0,0,.87,5.66,39.33,39.33,0,0,1,1,4A10.72,10.72,0,0,0,87,66.52a1.91,1.91,0,0,0,1.51,1,9.28,9.28,0,0,0,4.41-.36,2,2,0,0,1,.81.07,2.52,2.52,0,0,1,.12.39c0,.43,0,.85,0,1.27a69.74,69.74,0,0,0,1.83,18.38.79.79,0,0,1-.82,1,3.24,3.24,0,0,0-2,.83,54.61,54.61,0,0,0-5.67,5.61,14.89,14.89,0,0,0-2.68,4.32,5.3,5.3,0,0,0-.41,2.49c.07.65.89,1.17,1.41.83.79-.53,1.56-1.1,2.34-1.65A12,12,0,0,1,90,99.36c2.65-1,5.2-2.44,8.17-2.45a4.15,4.15,0,0,0,1.26-.2,7.36,7.36,0,0,1,4.08-.23,5,5,0,0,0,1.59.13,6.59,6.59,0,0,1,4.5,1.27,11.83,11.83,0,0,0,1.7.87,4.17,4.17,0,0,0,.93.2,1.1,1.1,0,0,0,1.15-.88,2.53,2.53,0,0,0-.51-2.1c-2-2.56-4.15-4.85-7.26-6a9.21,9.21,0,0,1-1-.53c-.12-3.33,1-18.74,1.66-23.12l2.06-.61a9.45,9.45,0,0,0,5.59-4.46c2.51-4.11,2.29-8.52,1.52-13A2.67,2.67,0,0,0,115.19,47.62Z"/><path class="cls-1" d="M150.38,79.87c-2.16,1.14-4.29,2.33-6.45,3.47a17.82,17.82,0,0,1-2.9,1.29c-1.42.44-2.89.72-4.34,1.05a1.94,1.94,0,0,1-2.47-1.41,14.57,14.57,0,0,1-.55-3.78c0-1.81,0-3.62-.19-5.42a63.4,63.4,0,0,1-.17-8.93c.22-3.83.11-7.66.15-11.49a15.4,15.4,0,0,0-1.08-5.93,12.3,12.3,0,0,0-1.6-3.1c-1.81-2.29-3.45-3.32-6.29-1.8-.09,0-.16.13-.49.39-.13.66-.28,1.28-.39,1.9a47.7,47.7,0,0,0-.32,14.94,39.79,39.79,0,0,1,.47,6.36c0,2-.08,4-.23,6-.41,5.52-.31,11.06-.32,16.6a10.9,10.9,0,0,0,.9,4,2.43,2.43,0,0,0,1.78,1.67c1.13.26,2.25.61,3.39.89a5.51,5.51,0,0,0,3.14-.14c1.1-.39,2.18-.85,3.29-1.2a22,22,0,0,0,7.65-4.49A37.59,37.59,0,0,0,151,81.9a2.49,2.49,0,0,0,.38-1.18A1.27,1.27,0,0,0,151,80,.6.6,0,0,0,150.38,79.87Z"/><path class="cls-1" d="M185.17,66.06a5.54,5.54,0,0,0-.8.49,20.45,20.45,0,0,1-3.61,2,50.16,50.16,0,0,0-7.63,3.23,11.31,11.31,0,0,1-6.54.94,2.66,2.66,0,0,1-2.5-2.12,8.59,8.59,0,0,1-.33-2.18c0-1.81.18-3.62.22-5.42,0-2.35,0-4.69,0-7h0c0-2.24,0-4.48,0-6.72a26.44,26.44,0,0,0-2.26-9.58,1.86,1.86,0,0,0-1.14-1L158.78,38a1.09,1.09,0,0,0-1.16.28,3.6,3.6,0,0,0-1.3,3.13,10.38,10.38,0,0,1-.28,3.47,19.79,19.79,0,0,0-.29,3.18c-.08,1.7-.06,3.41-.13,5.11a31.31,31.31,0,0,0,.65,8.9,12,12,0,0,1,.22,1.9c.25,2.65.46,5.31.77,8,.26,2.22.66,4.42,1,6.63a10,10,0,0,0,2.32,4.83,8.72,8.72,0,0,0,6,3.2,5.21,5.21,0,0,0,3.65-.85,25.58,25.58,0,0,0,3.87-3.33c3.49-3.46,6.56-7.28,9.68-11.06a12.68,12.68,0,0,0,1.47-2.09,12.49,12.49,0,0,0,.93-2.35c.06-.21-.21-.57-.41-.77A.66.66,0,0,0,185.17,66.06Z"/><path class="cls-1" d="M192.35,85.59a2.52,2.52,0,0,1-.46-2.12,3,3,0,0,0-.65-2.66,1.73,1.73,0,0,1-.33-1.51,18.06,18.06,0,0,1,.38-2.2c.62-2.47,1.29-4.93,1.9-7.4a93.09,93.09,0,0,0,2.31-11.56,7.46,7.46,0,0,1,.11-1c1.22-5.17,1.95-10.44,3.39-15.56a19.28,19.28,0,0,1,1.92-4.71c.49-.82.88-1.69,1.34-2.53a1.15,1.15,0,0,1,1.66-.27,4.59,4.59,0,0,1,1.62,1.93,33.2,33.2,0,0,1,2.2,5.63c1,3.37,2,6.71,2.91,10.1a43.88,43.88,0,0,0,7.77,15.58,22.73,22.73,0,0,1,4.09,7.86,12.45,12.45,0,0,0,1.54,3.48,2.89,2.89,0,0,1,.22.91,2,2,0,0,1-2.28-.69,6.38,6.38,0,0,1-.81-1.34c-.42-1.08-.79-2.19-1.11-3.31a11.36,11.36,0,0,0-1.8-3.68c-1.45-2-2.81-4-4.17-6a35.3,35.3,0,0,1-4.78-10c-.8-2.73-1.53-5.49-2.25-8.25a68.11,68.11,0,0,0-1.94-6.69c-.38-1-.83-1.94-1.28-2.9-.07-.14-.29-.22-.43-.32-.18.14-.42.23-.5.4-.55,1.14-1.11,2.28-1.6,3.45a43.1,43.1,0,0,0-1.89,7.35,12.75,12.75,0,0,0-.69,3.73,6.67,6.67,0,0,1-.34,1.54,39.75,39.75,0,0,0-.87,4.66,39.61,39.61,0,0,1-1.09,6.23c-.72,3.08-1.47,6.16-2.21,9.23a10.16,10.16,0,0,0,0,3.3,7.79,7.79,0,0,1,.08,1.28c0,1.06-.05,2.12-.05,3.19a2.23,2.23,0,0,0,.2.91.61.61,0,0,0,.5.19c.67-.67,1.28-1.41,2-2.07a22.54,22.54,0,0,0,5-6.52,7.88,7.88,0,0,1,3.85-3.68,2.58,2.58,0,0,1,2.44,0A12,12,0,0,1,212,72c2.08,2.41,4.71,4.28,6.45,7a4,4,0,0,0,3.86,1.82c.74,0,1.48,0,2.22-.07l.13.15c1.44-1.71,2.89-3.41,4.3-5.14a3.5,3.5,0,0,0,.71-1.38c.53-2.61,1.08-5.22,1.49-7.85a33.17,33.17,0,0,0,.14-7.65,13.52,13.52,0,0,0-.73-3.11c-.71-2.12-1.5-4.21-2.28-6.3-.22-.6-.52-1.17-.74-1.76a4.32,4.32,0,0,0-2.08-2.33C221,43,219.34,39.12,219.3,34.31a1.5,1.5,0,0,1,.27-.88c.16-.21.58-.45.76-.38A13.53,13.53,0,0,1,224,35c.5.4,1,.79,1.5,1.19a8,8,0,0,0,5.59,1.9c2.66-.09,5.31.08,8-.14A14.94,14.94,0,0,0,247.92,34a15.79,15.79,0,0,0,3.66-4.39c.24-.46.77-.69,1-.49s.53.45.55.7a19.2,19.2,0,0,1-.6,7.9,5.34,5.34,0,0,1-1.72,2.62,11.31,11.31,0,0,1-4.15,2.31c-1.43.39-2.84.86-4.25,1.29a12.22,12.22,0,0,0-1.81,5.75c-.63,5.5-1.41,11-1.25,16.56a16.66,16.66,0,0,0,.23,2.54,2.11,2.11,0,0,0,1.56,1.82,14.3,14.3,0,0,1,2.11.75A8.24,8.24,0,0,1,248,75.91c.5,1.28,1.06,2.56,1.45,3.88a12.26,12.26,0,0,0,2,4.31.88.88,0,0,1-.1,1.14,1.13,1.13,0,0,1-1.19.2,2.91,2.91,0,0,1-.82-.47c-.41-.34-.75-.75-1.16-1.09a5.18,5.18,0,0,0-1.3-.91,19.61,19.61,0,0,1-4.33-2.66,3.17,3.17,0,0,0-2.09-.64c-1.49,0-3,0-4.48,0a3.66,3.66,0,0,0-2.38.75c-2.57,1.88-5.13,3.79-7.71,5.67a7.08,7.08,0,0,1-1.37.77c-.53.24-1-.36-.89-1.13s.09-1.29.13-1.93l-.29-.62c-.71-.09-1.43-.2-2.16-.27A6.27,6.27,0,0,1,216.57,80a12.29,12.29,0,0,0-3.44-3.7,1.61,1.61,0,0,1-.45-.45c-1.29-2.07-3.29-3.25-5.44-4.32-.68-.11-1.14.38-1.61.77a10.21,10.21,0,0,0-2.79,3.44,15.4,15.4,0,0,1-2.56,3.62c-1.95,2.1-3.9,4.2-5.88,6.26-.65.69-1,.61-2.15-.23Zm38.87-8.2a7.64,7.64,0,0,0-1.74.65A7.2,7.2,0,0,0,227,81.32a.65.65,0,0,0,.17.54.6.6,0,0,0,.56.12c1.59-1,3.18-2.1,4.75-3.19a5.73,5.73,0,0,1,3.56-1.13c2.12.07,4.25,0,6.11,0,1.77,1.11,3.29,2.08,4.83,3,.12.07.38-.06.55-.13a.29.29,0,0,0,.12-.25A18.82,18.82,0,0,0,246,76.21a6,6,0,0,0-3.2-2.93,7.32,7.32,0,0,0-2.43-.69,2.48,2.48,0,0,1-2.29-1.89,11.22,11.22,0,0,1-1-4.62c.09-1.59,0-3.19,0-4.79a4.11,4.11,0,0,1,.11-1.58,11.86,11.86,0,0,0,.51-4.09c.17-2.22.8-4.38.72-6.62,0-.2.15-.4.19-.61.3-1.89,1.21-3.6,1.71-5.43a1.38,1.38,0,0,1,1.16-1,21,21,0,0,0,4.87-1.39,23.92,23.92,0,0,0,3.16-1.49,2.22,2.22,0,0,0,.87-.9,10.36,10.36,0,0,0,1.34-4.2c0-.28.05-.64-.42-.67A6.18,6.18,0,0,0,249.51,35a16.63,16.63,0,0,1-7.57,4.5,7.86,7.86,0,0,1-2.48.45c-3.3,0-6.6,0-9.9,0a5.28,5.28,0,0,1-2.46-.56,10.32,10.32,0,0,1-2.95-1.85,6.41,6.41,0,0,0-1-.77c-.52-.35-1.06-.68-1.6-1-.54,1.16-.2,2.24,1.77,5.74,1.34.84,2.72,1.64,4,2.54a4.77,4.77,0,0,1,2.32,3.27,17,17,0,0,0,.84,2.39c.7,2.22,1.74,4.32,2.4,6.56a9,9,0,0,1,.44,2.49c0,2.56,0,5.11,0,7.67a7.41,7.41,0,0,1-.38,2.5,11.83,11.83,0,0,0-.81,3.38C232,74,231.47,75.61,231.22,77.39Zm-38.6,1.18a.76.76,0,0,0,.26,0,1.29,1.29,0,0,0,.68-1.55.5.5,0,0,0-.43-.23,1.28,1.28,0,0,0-.7,1.54C192.44,78.42,192.55,78.49,192.62,78.57Z"/><path class="cls-2" d="M81,34c0,.43,0,.85,0,1.28A36,36,0,0,1,80,45.38c-1,3.92-1.58,7.93-2.31,11.91a162.27,162.27,0,0,1-7.33,26.43,117.49,117.49,0,0,1-7.66,16.83c-1.49,2.67-2.31,2.39-4.18.29A16,16,0,0,1,56,96.42c-.83-2-1.64-3.93-2.41-5.91-3.67-9.42-7-19-10.09-28.59a45.11,45.11,0,0,1-2.26-10.27,3.92,3.92,0,0,0-.31-1.54,16.2,16.2,0,0,1-1.26-5.25c-.2-1.25-.33-2.52-.55-3.78a6,6,0,0,1,.28-3.44,59.14,59.14,0,0,1,4.53-8.77c1.29-1.26,2.57-2.54,3.87-3.78.35-.34,1.17,0,1.26.52a6,6,0,0,1-.21,2.84c-.45,1.42-.88,2.84-1.28,4.28a7,7,0,0,0-.29,1.87c0,2.66.09,5.33.21,8a13,13,0,0,0,1.17,4.94c.66,1.45,1.29,2.92,1.92,4.39.42,1,.83,2,1.25,2.93.17.39.32.79.51,1.16a4.61,4.61,0,0,0,.82,1.36c2,1.73,2.57,4.42,4.5,6.16a.85.85,0,0,0,1.35,0,8.12,8.12,0,0,0,.73-1c1.62-3.24,3.2-6.49,4.83-9.72S67.46,45.9,69,42.49a53,53,0,0,0,2.77-8.13c.68-2.68,1.56-5.31,2.3-8q.65-2.31,1.14-4.65c.41-2,.76-4,1.14-5.95a5.94,5.94,0,0,1,.3-.9.86.86,0,0,1,1.09-.35A2.3,2.3,0,0,1,78.89,16c.35,1.23.67,2.47.9,3.72A78.36,78.36,0,0,1,81,34ZM45.9,29.68c-.32.26-.78.45-.95.79-1.28,2.45-2.48,4.94-3.74,7.4A3.7,3.7,0,0,0,41,41a7.84,7.84,0,0,1,.4,2.82c0,1.07,0,2.13,0,3.17a3.11,3.11,0,0,1,1.35,2.78,6.51,6.51,0,0,0,.13,2.53c.58,1.92.58,4,1.49,5.83.21,1.93,1.19,3.61,1.79,5.41,1.79,5.31,3.66,10.6,5.51,15.89.14.4.32.79.47,1.18,1,2.58,1.93,5.16,2.9,7.73q1.74,4.62,3.86,9.07c.13.28.28.57.43.85s.22.36.33.54a.71.71,0,0,0,1.27,0,120.55,120.55,0,0,0,7.39-16.54c1.82-5.08,3.39-10.24,4.79-15.45,1.12-4.18,1.85-8.45,2.81-12.67-.15-1.21.69-2.24.64-3.42s.51-2.29.58-3.42A17.45,17.45,0,0,1,78,43.56c1.07-3.72,1.12-3.7,1.12-7.17,0-2,0-4,0-6.07a5.42,5.42,0,0,0-.11-1.9,14.57,14.57,0,0,1-.51-4.09,31.24,31.24,0,0,0-.66-3.42c0-.15-.2-.27-.35-.45-.49,1.2-.23,2.39-.58,3.53-1,3.24-1.76,6.52-2.84,9.73-.3.9-.38,1.88-.73,2.75-.52,1.28-.49,2.7-1.16,4-2.21,4.12-3.39,8.7-5.7,12.77-.17,1.45-1.3,2.41-1.87,3.66-1,2.12-2.13,4.17-3.13,6.28a9.28,9.28,0,0,1-2.17,2.72,1.47,1.47,0,0,1-1.78.06,14.13,14.13,0,0,1-3.7-4.33,5.71,5.71,0,0,0-1.45-2.08A8.31,8.31,0,0,1,50,55.76c-.57-1.61-1.35-3.11-2.06-4.65A42.54,42.54,0,0,1,46,46.42a11.6,11.6,0,0,1-.76-4c.1-2.23,0-4.47,0-6.71a9.46,9.46,0,0,1,.52-4.07,5.59,5.59,0,0,0,.12-1.89c.21-.09.61-.08.24-.47Z"/><path class="cls-3" d="M284.3,50.35a28.25,28.25,0,0,0,.41-4.3c.08-4.59-.08-9.16-.26-13.74-.08-2-.27-4-.39-6.05-.08-1.28-.14-2.56-.16-3.83a20.75,20.75,0,0,0-.32-4.45,4.5,4.5,0,0,1,0-1.27c0-.38.48-.9.81-.85a1.61,1.61,0,0,1,.84.33,18.19,18.19,0,0,1,4.25,7.06,47.72,47.72,0,0,1,2.08,8q1,6,2.25,11.92a36.13,36.13,0,0,1,.82,9.83,18.81,18.81,0,0,1-.75,4.08A92.62,92.62,0,0,0,291.55,68c-.15,1-.36,1.89-.51,2.83a15.3,15.3,0,0,1-1.54,4.52c-.87,1.71-1.81,3.38-2.71,5.06a.62.62,0,0,1-.2.25,3.37,3.37,0,0,1-.84.39.91.91,0,0,1-1-.67A15.54,15.54,0,0,0,283,76a12.31,12.31,0,0,1-.73-1.76c-.8-2.32-1.57-4.64-2.35-7a18.34,18.34,0,0,0-3-6,13.15,13.15,0,0,1-2.11-3.92,8.38,8.38,0,0,0-.89-1.67c-.06-.11-.4-.13-.57-.06a1.18,1.18,0,0,0-.46.43,22.82,22.82,0,0,0-2.95,5.64c-1.13,3.32-2.17,6.68-3.27,10-.43,1.31-.88,2.62-1.42,3.89a28.19,28.19,0,0,0-1.92,6.07,19.22,19.22,0,0,1-.78,2.76.56.56,0,0,1-.5.21.67.67,0,0,1-.38-.44,39,39,0,0,1,.14-7.64c.16-3,.49-5.94.66-8.92a31.92,31.92,0,0,0,0-4.79,51,51,0,0,1,0-9.88,44.94,44.94,0,0,0,.1-4.79,24.66,24.66,0,0,1,.41-5.08,15.18,15.18,0,0,0,.14-3.81c-.12-2.23-.08-4.47-.05-6.7a1.14,1.14,0,0,1,1.87-.87l.27.17a70.57,70.57,0,0,1,9,8,16.44,16.44,0,0,0,2.4,2.08,8,8,0,0,1,2.71,3.48c.19.5.42,1,.62,1.47a7.73,7.73,0,0,0,2.77,3.42A1.28,1.28,0,0,0,284.3,50.35Zm1.52-29.48v4.22c.75,1.72.43,3.56.55,5.35.15,2.21-.25,4.46.55,6.63a3.82,3.82,0,0,1,.05,1.27c0,2.55,0,5.11,0,7.66a5.58,5.58,0,0,1-.18,1.89,6.68,6.68,0,0,0-.39,2.82,12.22,12.22,0,0,1-.79,3.39c-.1.42-1,.7-1.38.45a6.84,6.84,0,0,1-1-.76c-1.14-1.11-2.25-2.27-3.4-3.37a7.76,7.76,0,0,1-2-3.16,6.22,6.22,0,0,0-3-4,7.18,7.18,0,0,1-1.63-1.5c-1.14-1.12-2.31-2.21-3.38-3.4a22.47,22.47,0,0,0-3.93-3.22c-.55-.39-1.15-.16-1.16.44a7.64,7.64,0,0,0,.25,3.15,5.69,5.69,0,0,1,.14,3.77,18.4,18.4,0,0,0-.5,5c-.11,2.42.33,4.88-.5,7.27a3.81,3.81,0,0,0-.06,1.27q0,1.27,0,2.55a7.21,7.21,0,0,0,.44,3.44c.1,2.22.42,4.46-.21,6.65a4.73,4.73,0,0,0-.07,2.79,3,3,0,0,0,.38-.54c1.19-3.05,1.8-6.28,3.1-9.32a46,46,0,0,1,3.92-7.61c1.86-2.78,2.35-2.12,4.17,0a8.41,8.41,0,0,1,1,2.3,12.5,12.5,0,0,0,2.11,3.9,11.05,11.05,0,0,1,2.38,4.45c.95,3.14,2.35,6.12,3.29,9.27.23.77.45,1.9,1.35,2s1.12-1.1,1.47-1.79a13.19,13.19,0,0,0,1.37-3.54,34.87,34.87,0,0,0,.69-3.73c.12-1.39.64-2.7.68-4a16.68,16.68,0,0,1,1-4.33,20.18,20.18,0,0,0,1.07-6.86c-.09-1.7,0-3.4-.06-5.11a11.29,11.29,0,0,0-.38-2.5,17.9,17.9,0,0,1-1-5.29,6.15,6.15,0,0,0-.3-1.55,22.86,22.86,0,0,1-.85-4c0-1.31-.66-2.46-.69-3.74a17.92,17.92,0,0,0-.91-4A11,11,0,0,0,285.82,20.87Z"/><path class="cls-4" d="M309.46,78c-1.06-.17-2.21-.33-3.35-.57a6.64,6.64,0,0,1-4.26-3.13,9.83,9.83,0,0,1-1.56-4.47c-.11-1.13.83-2,1.79-1.48a8.26,8.26,0,0,0,4.33.8,9.11,9.11,0,0,1,1.28,0c2.49.34,4.5-.7,6.51-2a13.12,13.12,0,0,0,5-6,17.76,17.76,0,0,1,2-3.6,6.19,6.19,0,0,0,.93-5.75c-.22-.71-.45-1.42-.62-2.14A12.48,12.48,0,0,0,314.43,41c-1.71-.84-3.48-1.59-5.24-2.33a26.91,26.91,0,0,1-5.09-2.62A4.25,4.25,0,0,1,302.21,32a9.76,9.76,0,0,1,1.36-4.22,40.45,40.45,0,0,1,8.11-9.8,15,15,0,0,1,2.38-1.59,5.45,5.45,0,0,1,4.91-.44,5.23,5.23,0,0,0,2.16.31,8.83,8.83,0,0,1,6.22,2,24.15,24.15,0,0,1,4.76,4.21,11.48,11.48,0,0,1,1.63,2.73,69.25,69.25,0,0,0,3.12,7,7.71,7.71,0,0,1,.75,4.66,2.08,2.08,0,0,1-.29.89,1.93,1.93,0,0,1-.73.59,1.15,1.15,0,0,1-1.09-.48,3.26,3.26,0,0,1-.47-1.16,3.92,3.92,0,0,0-1.5-2.72c-1.1-1-2.19-2-3.3-3A4.84,4.84,0,0,0,328,29.81c-1.35-.31-2.68-.66-4-1.08a4.15,4.15,0,0,0-2.2-.16,16,16,0,0,0-3.91,1.34.83.83,0,0,0-.2,1.11,10,10,0,0,0,3.09,2.71A13.87,13.87,0,0,1,323.84,36a8.2,8.2,0,0,1,2.74,3.84,10.34,10.34,0,0,0,.89,2,32.74,32.74,0,0,1,2.35,6.59c1.14,3.63,1,7.37.92,11.08a19.56,19.56,0,0,1-1.42,6.2,8.27,8.27,0,0,1-1.94,2.9c-1.39,1.47-2.8,2.93-4.27,4.32a13.7,13.7,0,0,1-7,3.65c-1.26.24-2.48.62-3.73.88C311.48,77.7,310.53,77.8,309.46,78Zm-6-6.6c0,.19-.1.3-.08.39.61,1.82,1.64,3.18,3.72,3.42a3.62,3.62,0,0,1,.91.25,4.85,4.85,0,0,0,3.42,0,13,13,0,0,1,3.37-.84,11.34,11.34,0,0,0,5.52-2.24c2.1-1.34,3.61-3.28,5.37-5,.38-1,1.27-1.67,1.64-2.71a15.21,15.21,0,0,0,1.24-7.15c0-.64-.05-1.28,0-1.92a17.4,17.4,0,0,0-.72-6,30.59,30.59,0,0,0-2.6-7.48,20.61,20.61,0,0,1-.8-2.07A4.12,4.12,0,0,0,323,38c-1.38-.81-2.37-2.14-3.88-2.77a10.82,10.82,0,0,1-3.42-2.82,2,2,0,0,1-.6-1.43,3.77,3.77,0,0,1,.38-2.35c.77-.4,1.68-.95,2.66-1.35a10.14,10.14,0,0,1,2.74-.75,10.55,10.55,0,0,1,5.33.56,11.13,11.13,0,0,0,2.44.66,5.79,5.79,0,0,1,2.82,1.37c.41.34.81.69,1.23,1,.07.06.25.09.3,0s.32-.32.28-.42c-.5-1.4-1.14-2.75-1.73-4.1a10,10,0,0,0-3.12-4c-.76-.58-1.54-1.12-2.29-1.71a10.67,10.67,0,0,0-4.4-1.72,2.59,2.59,0,0,0-1.25.14c-1,.31-2,.68-3,1-.54.18-1-.26-.91-.87.09-.86-.26-1.21-.92-.92A7.77,7.77,0,0,0,313,19.33c-1.67,1.77-3.61,3.31-4.86,5.46-1.14,1-1.56,2.53-2.46,3.7a9.87,9.87,0,0,0-1.3,3.22,2.06,2.06,0,0,0,.7,2.3,5.75,5.75,0,0,0,1,.76,48.83,48.83,0,0,0,5.16,2.48,50.54,50.54,0,0,1,5.47,2.57,7.62,7.62,0,0,1,1.56,1.08c.87.79,1.67,1.64,2.51,2.45a10.87,10.87,0,0,1,1.82,2.6c.81,1.41.85,3.06,1.47,4.52a10.32,10.32,0,0,1,.65,4.37,4.21,4.21,0,0,1-.57,2.12c-.28.46-.56.9-.85,1.35a22.07,22.07,0,0,0-2.26,4.17,10.12,10.12,0,0,1-1.56,2.75,19.94,19.94,0,0,1-6.39,5.18,6.4,6.4,0,0,1-3.65.92c-1-.09-1.91,0-2.87,0Z"/><path class="cls-3" d="M106.25,66.28c-.67,4.38-1.78,19.79-1.66,23.12a9.21,9.21,0,0,0,1,.53c3.11,1.19,5.3,3.48,7.26,6a2.53,2.53,0,0,1,.51,2.1,1.1,1.1,0,0,1-1.15.88,4.17,4.17,0,0,1-.93-.2,11.83,11.83,0,0,1-1.7-.87,6.59,6.59,0,0,0-4.5-1.27,5,5,0,0,1-1.59-.13,7.36,7.36,0,0,0-4.08.23,4.15,4.15,0,0,1-1.26.2c-3,0-5.52,1.4-8.17,2.45a12,12,0,0,0-2.1,1.43c-.78.55-1.55,1.12-2.34,1.65-.52.34-1.34-.18-1.41-.83a5.3,5.3,0,0,1,.41-2.49,14.89,14.89,0,0,1,2.68-4.32,54.61,54.61,0,0,1,5.67-5.61,3.24,3.24,0,0,1,2-.83.79.79,0,0,0,.82-1,69.74,69.74,0,0,1-1.83-18.38c0-.42,0-.84,0-1.27a2.52,2.52,0,0,0-.12-.39,2,2,0,0,0-.81-.07,9.28,9.28,0,0,1-4.41.36,1.91,1.91,0,0,1-1.51-1,10.72,10.72,0,0,1-.82-2.39,39.33,39.33,0,0,0-1-4,16.92,16.92,0,0,1-.87-5.66c0-1.49,0-3,0-4.47a6.53,6.53,0,0,1,1-3.33,1.53,1.53,0,0,1,.79-.47,1,1,0,0,1,1.05.55c.36,1,.72,2,1,3a27.52,27.52,0,0,0,2.06,5.35,6.07,6.07,0,0,0,7.44,2.62,2.7,2.7,0,0,0,1.26-.91,6.63,6.63,0,0,1,2.05-2,19.53,19.53,0,0,0,3.62-3.59c.39-.5.77-1,1.18-1.51a16.59,16.59,0,0,0,3.61-7,6.22,6.22,0,0,1,.64-1.45,1.13,1.13,0,0,1,1.42-.22,4.41,4.41,0,0,1,.89.89,34,34,0,0,1,2.9,5.67,2.67,2.67,0,0,1,.23.59c.77,4.48,1,8.89-1.52,13a9.45,9.45,0,0,1-5.59,4.46ZM88.81,96.93a9.36,9.36,0,0,0,4.3-1,9,9,0,0,1,4.29-1A3.49,3.49,0,0,0,99,94.63a5.46,5.46,0,0,1,2.19-.33c1.59,0,3.19.07,4.79,0a6.15,6.15,0,0,1,2.48.47c.11,0,.33-.12.48-.21a.46.46,0,0,0-.09-.3c-1.38-1.33-2.77-2.65-4.9-2.54a1.46,1.46,0,0,1-.62-.12c-.51-.22-1-.6-1-1.14-.05-1.91,0-3.83,0-5.75.73-1.62.46-3.35.55-5a8,8,0,0,1,.18-2.21,9.38,9.38,0,0,0,.43-3.14c0-2-.13-4,.59-6a1.7,1.7,0,0,0,0-.64,6.52,6.52,0,0,1,1.59-4.37,4,4,0,0,0,4.41-1,10,10,0,0,0,3.63-7.49c0-1.07,0-2.14,0-3.2a11.49,11.49,0,0,0-1.57-6.41c-.22-.41-.25-1-.89-1.13-.18.15-.44.26-.48.42-.71,2.88-2.53,5.12-4.31,7.35a33.13,33.13,0,0,1-8.82,7.24,3.87,3.87,0,0,1-2.43.67,10.76,10.76,0,0,0-1.27,0,5.33,5.33,0,0,1-3.77-1.47,8.15,8.15,0,0,1-1.89-2.54,14.59,14.59,0,0,0-1.92-3.45,7.39,7.39,0,0,0-.17,1c0,1.17,0,2.34,0,3.51a1.72,1.72,0,0,0,.12.63c.54,1.37.55,2.92,1.38,4.21a2.61,2.61,0,0,1,.32,1.53,10.88,10.88,0,0,0,0,1.28,1.61,1.61,0,0,0,1.63,1.62A4.94,4.94,0,0,0,91.65,66c1.14-.45,2.55-.31,3.43-1.44,0,0,.43.14.47.28A3.92,3.92,0,0,1,95.76,66c0,2.77,0,5.54.06,8.31a5.75,5.75,0,0,0,.1,1.91A14.56,14.56,0,0,1,96.46,81a7,7,0,0,0,.2,1.57c.58,2.14.79,4.36,1.51,6.48a6.15,6.15,0,0,1,0,2.18c0,.09-.11.24-.18.25s-.47,0-.57-.09a5.31,5.31,0,0,1-1.12-2.25c-.07-.23-.43-.38-.59-.52-.75.86-1.41,1.69-2.14,2.45-1.32,1.39-2.68,2.75-4,4.11a2.4,2.4,0,0,0-.82,1.67c-.18.12-.62.14-.21.51Z"/><path class="cls-5" d="M224.51,80.76c-.74,0-1.48,0-2.22.07A4,4,0,0,1,218.43,79c-1.74-2.75-4.37-4.62-6.45-7a12,12,0,0,0-3.75-2.37,2.58,2.58,0,0,0-2.44,0,7.88,7.88,0,0,0-3.85,3.68,22.54,22.54,0,0,1-5,6.52c-.67.66-1.28,1.4-2,2.07a.61.61,0,0,1-.5-.19,2.23,2.23,0,0,1-.2-.91c0-1.07,0-2.13.05-3.19a7.79,7.79,0,0,0-.08-1.28,10.16,10.16,0,0,1,0-3.3c.74-3.07,1.49-6.15,2.21-9.23a39.61,39.61,0,0,0,1.09-6.23,39.75,39.75,0,0,1,.87-4.66,6.67,6.67,0,0,0,.34-1.54,12.75,12.75,0,0,1,.69-3.73,43.1,43.1,0,0,1,1.89-7.35c.49-1.17,1.05-2.31,1.6-3.45.08-.17.32-.26.5-.4.14.1.36.18.43.32.45,1,.9,1.92,1.28,2.9a68.11,68.11,0,0,1,1.94,6.69c.72,2.76,1.45,5.52,2.25,8.25a35.3,35.3,0,0,0,4.78,10c1.36,2,2.72,4,4.17,6a11.36,11.36,0,0,1,1.8,3.68c.32,1.12.69,2.23,1.11,3.31a6.38,6.38,0,0,0,.81,1.34,2,2,0,0,0,2.28.69l.26,1.07ZM202.62,63.61a.29.29,0,0,1,.19.35,10.45,10.45,0,0,0-1.1.58c-.12.09-.11.37-.12.56s.14.17.24.2c1.7.57,3.07-.12,4.34-1.16a2.31,2.31,0,0,0,.76-2.58,25.56,25.56,0,0,0-1-2.65,6.35,6.35,0,0,0-2.48-2.8,1.42,1.42,0,0,0-1.47.22,3.21,3.21,0,0,0-.42.48,13,13,0,0,0-1.45,3.81,2.24,2.24,0,0,0,.77,2.28A3.12,3.12,0,0,0,202.62,63.61Z"/><path class="cls-6" d="M124,44.21c.33-.26.4-.34.49-.39,2.84-1.52,4.48-.49,6.29,1.8a12.3,12.3,0,0,1,1.6,3.1,15.4,15.4,0,0,1,1.08,5.93c0,3.83.07,7.66-.15,11.49a63.4,63.4,0,0,0,.17,8.93c.14,1.8.18,3.62.19,5.42a14.57,14.57,0,0,0,.55,3.78,1.94,1.94,0,0,0,2.47,1.41c1.45-.33,2.92-.61,4.34-1.05a17.82,17.82,0,0,0,2.9-1.29c2.16-1.14,4.29-2.33,6.45-3.47A.6.6,0,0,1,151,80a1.27,1.27,0,0,1,.45.77A2.49,2.49,0,0,1,151,81.9a37.59,37.59,0,0,1-7.67,8.91,22,22,0,0,1-7.65,4.49c-1.11.35-2.19.81-3.29,1.2a5.51,5.51,0,0,1-3.14.14c-1.14-.28-2.26-.63-3.39-.89a2.43,2.43,0,0,1-1.78-1.67,10.9,10.9,0,0,1-.9-4c0-5.54-.09-11.08.32-16.6.15-2,.19-4,.23-6a39.79,39.79,0,0,0-.47-6.36,47.7,47.7,0,0,1,.32-14.94C123.72,45.49,123.87,44.87,124,44.21Zm20.34,41.72a4.36,4.36,0,0,0-1.26.17c-1.66.72-3.47.92-5.15,1.54a7.22,7.22,0,0,1-2.84.23,1.62,1.62,0,0,1-.87-.32,5.13,5.13,0,0,1-2.07-2.73,14.8,14.8,0,0,1-.56-3.43c-.08-2.86.36-5.75-.55-8.55a3.07,3.07,0,0,1,0-1c0-1.7,0-3.41,0-5.11a4.27,4.27,0,0,1,.18-1.57,6.83,6.83,0,0,0,.37-2.83c0-2.13,0-4.26,0-6.39a19.14,19.14,0,0,0-1.07-6.22,12.32,12.32,0,0,0-.93-2.36,4.75,4.75,0,0,0-3.28-2.29c-.33-.08-1,.31-1,.63a18.55,18.55,0,0,1-.68,5c.17,3.06-.47,6.16.49,9.19a9.19,9.19,0,0,1,.14,1.91,5.08,5.08,0,0,0,.23,1.56,6.52,6.52,0,0,1,.34,2.51c0,1.7,0,3.41,0,5.11a4.12,4.12,0,0,1-.1,1.58,9.52,9.52,0,0,0-.45,4.09c0,4,0,7.89,0,11.83a9.54,9.54,0,0,0,1,4.82c1.25,1.13,2.88.86,4.23,1.45a1.46,1.46,0,0,0,.93-.1,23.11,23.11,0,0,0,3.84-1.53c2.72-.52,4.68-2.4,6.82-3.93a11.82,11.82,0,0,0,2-2,3.72,3.72,0,0,0,.43-1.16,1.68,1.68,0,0,0,1.52-.86.3.3,0,0,0-.05-.24.38.38,0,0,0-.24-.14A1.78,1.78,0,0,0,144.34,85.93Z"/><path class="cls-3" d="M164,56c0,2.35,0,4.69,0,7,0,1.8-.2,3.61-.22,5.42a8.59,8.59,0,0,0,.33,2.18,2.66,2.66,0,0,0,2.5,2.12,11.31,11.31,0,0,0,6.54-.94,50.16,50.16,0,0,1,7.63-3.23,20.45,20.45,0,0,0,3.61-2,5.54,5.54,0,0,1,.8-.49.66.66,0,0,1,.6.07c.2.2.47.56.41.77a12.49,12.49,0,0,1-.93,2.35,12.68,12.68,0,0,1-1.47,2.09c-3.12,3.78-6.19,7.6-9.68,11.06a25.58,25.58,0,0,1-3.87,3.33,5.21,5.21,0,0,1-3.65.85,8.72,8.72,0,0,1-6-3.2,10,10,0,0,1-2.32-4.83c-.3-2.21-.7-4.41-1-6.63-.31-2.65-.52-5.31-.77-8a12,12,0,0,0-.22-1.9,31.31,31.31,0,0,1-.65-8.9c.07-1.7,0-3.41.13-5.11a19.79,19.79,0,0,1,.29-3.18,10.38,10.38,0,0,0,.28-3.47,3.6,3.6,0,0,1,1.3-3.13,1.09,1.09,0,0,1,1.16-.28l1.79.64a1.86,1.86,0,0,1,1.14,1A26.44,26.44,0,0,1,164,49.26c0,2.24,0,4.48,0,6.72ZM181.24,70.9c-.33-.07-.66-.25-.89-.16a22.6,22.6,0,0,0-2.32,1,57.73,57.73,0,0,1-6.39,2.83,6.22,6.22,0,0,1-1.5.48,19.59,19.59,0,0,1-3.51,0,5.09,5.09,0,0,1-4.2-3,7,7,0,0,1-.78-3.38c.1-1.16,0-2.34,0-3.51a9.14,9.14,0,0,1,.38-3.15,5.39,5.39,0,0,0,.17-1.89q0-5.11,0-10.22a6,6,0,0,0-.07-1.59,55.65,55.65,0,0,0-1.77-6.74,1.36,1.36,0,0,0-1.74-.92,1,1,0,0,0-.81.84,8.39,8.39,0,0,1-.18,2.52,8.38,8.38,0,0,0-.45,3.12q0,4.63,0,9.27a3.68,3.68,0,0,0,.11,1.57c.59,1.19.29,2.54.79,3.73s.22,2.74.38,4.1a1.8,1.8,0,0,0,.11.62c.6,1.21.4,2.5.48,3.77A14.1,14.1,0,0,0,159.4,73a20.63,20.63,0,0,1,.36,2.18c.37,2.4.64,4.85,2.44,6.74a3.68,3.68,0,0,0,2.37,2c.58.25,1.21.38,1.81.6a2.11,2.11,0,0,0,1.83-.18,16.73,16.73,0,0,0,3.89-2.73c.81-.84,1.68-1.64,2.46-2.51s1.55-2,2.44-2.93A36.57,36.57,0,0,0,181.24,70.9Z"/><path class="cls-7" d="M223.76,83.8c0,.64-.09,1.29-.13,1.93C223,85,223.47,84.43,223.76,83.8Z"/><polygon class="cls-7" points="224.51 80.76 224.53 80.68 224.65 80.91 224.51 80.76"/><path class="cls-7" d="M192.35,85.59l-.1-.16Z"/><path class="cls-5" d="M231.22,77.39c.25-1.78.81-3.37.89-5.09a11.83,11.83,0,0,1,.81-3.38,7.41,7.41,0,0,0,.38-2.5c0-2.56,0-5.11,0-7.67a9,9,0,0,0-.44-2.49c-.66-2.24-1.7-4.34-2.4-6.56a17,17,0,0,1-.84-2.39A4.77,4.77,0,0,0,227.33,44c-1.3-.9-2.68-1.7-4-2.54-2-3.5-2.31-4.58-1.77-5.74.54.34,1.08.67,1.6,1a6.41,6.41,0,0,1,1,.77,10.32,10.32,0,0,0,2.95,1.85,5.28,5.28,0,0,0,2.46.56c3.3,0,6.6,0,9.9,0a7.86,7.86,0,0,0,2.48-.45,16.63,16.63,0,0,0,7.57-4.5,6.18,6.18,0,0,1,1.86-1.67c.47,0,.43.39.42.67a10.36,10.36,0,0,1-1.34,4.2,2.22,2.22,0,0,1-.87.9,23.92,23.92,0,0,1-3.16,1.49A21,21,0,0,1,241.55,42a1.38,1.38,0,0,0-1.16,1c-.5,1.83-1.41,3.54-1.71,5.43,0,.21-.2.41-.19.61.08,2.24-.55,4.4-.72,6.62a11.86,11.86,0,0,1-.51,4.09,4.11,4.11,0,0,0-.11,1.58c0,1.6.06,3.2,0,4.79a11.22,11.22,0,0,0,1,4.62,2.48,2.48,0,0,0,2.29,1.89,7.32,7.32,0,0,1,2.43.69,6,6,0,0,1,3.2,2.93,18.82,18.82,0,0,1,1.64,4.13.29.29,0,0,1-.12.25c-.17.07-.43.2-.55.13-1.54-.93-3.06-1.9-4.83-3-1.86-.08-4,0-6.11,0a5.73,5.73,0,0,0-3.56,1.13c-1.57,1.09-3.16,2.15-4.75,3.19a.6.6,0,0,1-.56-.12.65.65,0,0,1-.17-.54A7.2,7.2,0,0,1,229.48,78,7.64,7.64,0,0,1,231.22,77.39Z"/><path class="cls-7" d="M192.62,78.57c-.07-.08-.18-.15-.19-.24a1.28,1.28,0,0,1,.7-1.54.5.5,0,0,1,.43.23,1.29,1.29,0,0,1-.68,1.55A.76.76,0,0,1,192.62,78.57Z"/><path class="cls-5" d="M45.93,29.71a5.59,5.59,0,0,1-.12,1.89,9.46,9.46,0,0,0-.52,4.07c0,2.24.08,4.48,0,6.71a11.6,11.6,0,0,0,.76,4A42.54,42.54,0,0,0,48,51.11c.71,1.54,1.49,3,2.06,4.65a8.31,8.31,0,0,0,2.35,3.74,5.71,5.71,0,0,1,1.45,2.08,14.13,14.13,0,0,0,3.7,4.33,1.47,1.47,0,0,0,1.78-.06,9.28,9.28,0,0,0,2.17-2.72c1-2.11,2.15-4.16,3.13-6.28.57-1.25,1.7-2.21,1.87-3.66,2.31-4.07,3.49-8.65,5.7-12.77.67-1.25.64-2.67,1.16-4,.35-.87.43-1.85.73-2.75C75.16,30.51,76,27.23,76.92,24c.35-1.14.09-2.33.58-3.53.15.18.31.3.35.45a31.24,31.24,0,0,1,.66,3.42A14.57,14.57,0,0,0,79,28.42a5.42,5.42,0,0,1,.11,1.9c0,2,0,4,0,6.07,0,3.47-.05,3.45-1.12,7.17a17.45,17.45,0,0,0-.87,3.71c-.07,1.13-.63,2.22-.58,3.42s-.79,2.21-.64,3.42c-1,4.22-1.69,8.49-2.81,12.67-1.4,5.21-3,10.37-4.79,15.45A120.55,120.55,0,0,1,61,98.77a.71.71,0,0,1-1.27,0c-.11-.18-.23-.36-.33-.54s-.3-.57-.43-.85q-2.13-4.45-3.86-9.07c-1-2.57-1.93-5.15-2.9-7.73-.15-.39-.33-.78-.47-1.18C49.84,74.09,48,68.8,46.18,63.49c-.6-1.8-1.58-3.48-1.79-5.41-.91-1.84-.91-3.91-1.49-5.83a6.51,6.51,0,0,1-.13-2.53,3.11,3.11,0,0,0-1.35-2.78c0-1,0-2.1,0-3.17A7.84,7.84,0,0,0,41,41a3.7,3.7,0,0,1,.2-3.08c1.26-2.46,2.46-4.95,3.74-7.4.17-.34.63-.53.95-.79Z"/><path class="cls-8" d="M45.9,29.68l.27-.44c.37.39,0,.38-.24.47Z"/><path class="cls-5" d="M285.82,20.87A11,11,0,0,1,288,25.53a17.92,17.92,0,0,1,.91,4c0,1.28.65,2.43.69,3.74a22.86,22.86,0,0,0,.85,4,6.15,6.15,0,0,1,.3,1.55,17.9,17.9,0,0,0,1,5.29,11.29,11.29,0,0,1,.38,2.5c0,1.71,0,3.41.06,5.11a20.18,20.18,0,0,1-1.07,6.86,16.68,16.68,0,0,0-1,4.33c0,1.35-.56,2.66-.68,4a34.87,34.87,0,0,1-.69,3.73,13.19,13.19,0,0,1-1.37,3.54c-.35.69-.42,1.93-1.47,1.79s-1.12-1.26-1.35-2c-.94-3.15-2.34-6.13-3.29-9.27a11.05,11.05,0,0,0-2.38-4.45,12.5,12.5,0,0,1-2.11-3.9,8.41,8.41,0,0,0-1-2.3c-1.82-2.14-2.31-2.8-4.17,0a46,46,0,0,0-3.92,7.61c-1.3,3-1.91,6.27-3.1,9.32a3,3,0,0,1-.38.54,4.73,4.73,0,0,1,.07-2.79c.63-2.19.31-4.43.21-6.65a7.21,7.21,0,0,1-.44-3.44q0-1.28,0-2.55a3.81,3.81,0,0,1,.06-1.27c.83-2.39.39-4.85.5-7.27a18.4,18.4,0,0,1,.5-5,5.69,5.69,0,0,0-.14-3.77,7.64,7.64,0,0,1-.25-3.15c0-.6.61-.83,1.16-.44a22.47,22.47,0,0,1,3.93,3.22c1.07,1.19,2.24,2.28,3.38,3.4a7.18,7.18,0,0,0,1.63,1.5,6.22,6.22,0,0,1,3,4,7.76,7.76,0,0,0,2,3.16c1.15,1.1,2.26,2.26,3.4,3.37a6.84,6.84,0,0,0,1,.76c.38.25,1.28,0,1.38-.45a12.22,12.22,0,0,0,.79-3.39,6.68,6.68,0,0,1,.39-2.82A5.58,5.58,0,0,0,287,46c0-2.55,0-5.11,0-7.66a3.82,3.82,0,0,0-.05-1.27c-.8-2.17-.4-4.42-.55-6.63-.12-1.79.2-3.63-.55-5.35Z"/><path class="cls-5" d="M303.45,71.36l3.15,0c1,0,1.92-.07,2.87,0a6.4,6.4,0,0,0,3.65-.92,19.94,19.94,0,0,0,6.39-5.18,10.12,10.12,0,0,0,1.56-2.75,22.07,22.07,0,0,1,2.26-4.17c.29-.45.57-.89.85-1.35a4.21,4.21,0,0,0,.57-2.12,10.32,10.32,0,0,0-.65-4.37c-.62-1.46-.66-3.11-1.47-4.52a10.87,10.87,0,0,0-1.82-2.6c-.84-.81-1.64-1.66-2.51-2.45a7.62,7.62,0,0,0-1.56-1.08,50.54,50.54,0,0,0-5.47-2.57,48.83,48.83,0,0,1-5.16-2.48,5.75,5.75,0,0,1-1-.76,2.06,2.06,0,0,1-.7-2.3,9.87,9.87,0,0,1,1.3-3.22c.9-1.17,1.32-2.67,2.46-3.7,1.25-2.15,3.19-3.69,4.86-5.46a7.77,7.77,0,0,1,2.67-1.71c.66-.29,1,.06.92.92-.06.61.37,1.05.91.87,1-.32,2-.69,3-1a2.59,2.59,0,0,1,1.25-.14,10.67,10.67,0,0,1,4.4,1.72c.75.59,1.53,1.13,2.29,1.71a10,10,0,0,1,3.12,4c.59,1.35,1.23,2.7,1.73,4.1,0,.1-.16.31-.28.42s-.23,0-.3,0c-.42-.33-.82-.68-1.23-1a5.79,5.79,0,0,0-2.82-1.37,11.13,11.13,0,0,1-2.44-.66,10.55,10.55,0,0,0-5.33-.56,10.14,10.14,0,0,0-2.74.75c-1,.4-1.89.95-2.66,1.35a3.77,3.77,0,0,0-.38,2.35,2,2,0,0,0,.6,1.43,10.82,10.82,0,0,0,3.42,2.82c1.51.63,2.5,2,3.88,2.77a4.12,4.12,0,0,1,1.43,2.07,20.61,20.61,0,0,0,.8,2.07,30.59,30.59,0,0,1,2.6,7.48,17.4,17.4,0,0,1,.72,6c-.07.64,0,1.28,0,1.92a15.21,15.21,0,0,1-1.24,7.15c-.37,1-1.26,1.7-1.64,2.71-1.76,1.68-3.27,3.62-5.37,5a11.34,11.34,0,0,1-5.52,2.24,13,13,0,0,0-3.37.84,4.85,4.85,0,0,1-3.42,0,3.62,3.62,0,0,0-.91-.25c-2.08-.24-3.11-1.6-3.72-3.42C303.35,71.66,303.41,71.55,303.45,71.36Z"/><path class="cls-5" d="M88.71,96.82a2.4,2.4,0,0,1,.82-1.67c1.35-1.36,2.71-2.72,4-4.11.73-.76,1.39-1.59,2.14-2.45.16.14.52.29.59.52a5.31,5.31,0,0,0,1.12,2.25c.1.11.38.09.57.09s.17-.16.18-.25a6.15,6.15,0,0,0,0-2.18c-.72-2.12-.93-4.34-1.51-6.48a7,7,0,0,1-.2-1.57,14.56,14.56,0,0,0-.54-4.73,5.75,5.75,0,0,1-.1-1.91c0-2.77,0-5.54-.06-8.31a3.92,3.92,0,0,0-.21-1.23c0-.14-.45-.3-.47-.28-.88,1.13-2.29,1-3.43,1.44a4.94,4.94,0,0,1-1.89.17,1.61,1.61,0,0,1-1.63-1.62,10.88,10.88,0,0,1,0-1.28,2.61,2.61,0,0,0-.32-1.53c-.83-1.29-.84-2.84-1.38-4.21a1.72,1.72,0,0,1-.12-.63c0-1.17,0-2.34,0-3.51a7.39,7.39,0,0,1,.17-1,14.59,14.59,0,0,1,1.92,3.45,8.15,8.15,0,0,0,1.89,2.54A5.33,5.33,0,0,0,94,59.8a10.76,10.76,0,0,1,1.27,0,3.87,3.87,0,0,0,2.43-.67,33.13,33.13,0,0,0,8.82-7.24c1.78-2.23,3.6-4.47,4.31-7.35,0-.16.3-.27.48-.42.64.09.67.72.89,1.13a11.49,11.49,0,0,1,1.57,6.41c-.08,1.06,0,2.13,0,3.2a10,10,0,0,1-3.63,7.49,4,4,0,0,1-4.41,1,6.52,6.52,0,0,0-1.59,4.37,1.7,1.7,0,0,1,0,.64c-.72,1.94-.55,4-.59,6a9.38,9.38,0,0,1-.43,3.14,8,8,0,0,0-.18,2.21c-.09,1.69.18,3.42-.55,5,0,1.92-.08,3.84,0,5.75,0,.54.51.92,1,1.14a1.46,1.46,0,0,0,.62.12c2.13-.11,3.52,1.21,4.9,2.54a.46.46,0,0,1,.09.3c-.15.09-.37.26-.48.21a6.15,6.15,0,0,0-2.48-.47c-1.6,0-3.2,0-4.79,0a5.46,5.46,0,0,0-2.19.33,3.49,3.49,0,0,1-1.55.28,9,9,0,0,0-4.29,1,9.36,9.36,0,0,1-4.3,1Z"/><path class="cls-9" d="M88.81,96.93l-.31.4c-.41-.37,0-.39.21-.51Z"/><path class="cls-7" d="M202.62,63.61a3.12,3.12,0,0,1-1.72-.71,2.24,2.24,0,0,1-.77-2.28,13,13,0,0,1,1.45-3.81,3.21,3.21,0,0,1,.42-.48,1.42,1.42,0,0,1,1.47-.22,6.35,6.35,0,0,1,2.48,2.8,25.56,25.56,0,0,1,1,2.65,2.31,2.31,0,0,1-.76,2.58c-1.27,1-2.64,1.73-4.34,1.16-.1,0-.24-.13-.24-.2s0-.47.12-.56a10.45,10.45,0,0,1,1.1-.58c.38-.17.78-.32,1.14-.52a1.59,1.59,0,0,0,.88-2.09,7.25,7.25,0,0,0-1.18-2.55,3,3,0,0,0-.7-.61c-.17-.11-.65.37-.79.81s-.23.8-.31,1.21a1.8,1.8,0,0,0,1,2.1c.55.31.13.69-.07,1Z"/><path class="cls-5" d="M144.47,86.07a3.72,3.72,0,0,1-.43,1.16,11.82,11.82,0,0,1-2,2c-2.14,1.53-4.1,3.41-6.82,3.93a23.11,23.11,0,0,1-3.84,1.53,1.46,1.46,0,0,1-.93.1c-1.35-.59-3-.32-4.23-1.45a9.54,9.54,0,0,1-1-4.82c.06-3.94,0-7.88,0-11.83a9.52,9.52,0,0,1,.45-4.09,4.12,4.12,0,0,0,.1-1.58c0-1.7,0-3.41,0-5.11a6.52,6.52,0,0,0-.34-2.51,5.08,5.08,0,0,1-.23-1.56,9.19,9.19,0,0,0-.14-1.91c-1-3-.32-6.13-.49-9.19a18.55,18.55,0,0,0,.68-5c0-.32.66-.71,1-.63a4.75,4.75,0,0,1,3.28,2.29,12.32,12.32,0,0,1,.93,2.36A19.14,19.14,0,0,1,131.58,56c-.05,2.13,0,4.26,0,6.39a6.83,6.83,0,0,1-.37,2.83,4.27,4.27,0,0,0-.18,1.57c0,1.7,0,3.41,0,5.11a3.07,3.07,0,0,0,0,1c.91,2.8.47,5.69.55,8.55a14.8,14.8,0,0,0,.56,3.43,5.13,5.13,0,0,0,2.07,2.73,1.62,1.62,0,0,0,.87.32,7.22,7.22,0,0,0,2.84-.23c1.68-.62,3.49-.82,5.15-1.54a4.36,4.36,0,0,1,1.26-.17Z"/><path class="cls-9" d="M144.34,85.93a1.78,1.78,0,0,1,1.36-1.1.38.38,0,0,1,.24.14.3.3,0,0,1,.05.24,1.68,1.68,0,0,1-1.52.86Z"/><path class="cls-5" d="M181.24,70.9A36.57,36.57,0,0,1,177,76.15c-.89.91-1.6,2-2.44,2.93s-1.65,1.67-2.46,2.51a16.73,16.73,0,0,1-3.89,2.73,2.11,2.11,0,0,1-1.83.18c-.6-.22-1.23-.35-1.81-.6a3.68,3.68,0,0,1-2.37-2c-1.8-1.89-2.07-4.34-2.44-6.74A20.63,20.63,0,0,0,159.4,73a14.1,14.1,0,0,1-.28-2.84c-.08-1.27.12-2.56-.48-3.77a1.8,1.8,0,0,1-.11-.62c-.16-1.36.17-2.78-.38-4.1s-.2-2.54-.79-3.73a3.68,3.68,0,0,1-.11-1.57q0-4.63,0-9.27a8.38,8.38,0,0,1,.45-3.12,8.39,8.39,0,0,0,.18-2.52,1,1,0,0,1,.81-.84,1.36,1.36,0,0,1,1.74.92,55.65,55.65,0,0,1,1.77,6.74,6,6,0,0,1,.07,1.59q0,5.1,0,10.22a5.39,5.39,0,0,1-.17,1.89,9.14,9.14,0,0,0-.38,3.15c0,1.17.07,2.35,0,3.51a7,7,0,0,0,.78,3.38,5.09,5.09,0,0,0,4.2,3,19.59,19.59,0,0,0,3.51,0,6.22,6.22,0,0,0,1.5-.48A57.73,57.73,0,0,0,178,71.75a22.6,22.6,0,0,1,2.32-1C180.58,70.65,180.91,70.83,181.24,70.9Z"/></svg>