<svg id="Layer_1" data-name="Layer 1" xmlns="http://www.w3.org/2000/svg" viewBox="0 0 144 108"><defs><style>.cls-1{fill:#181717;}.cls-2{fill:#1e1b1b;}.cls-3{fill:#b4b4b4;}.cls-4{fill:#b5b6b6;}</style></defs><path class="cls-1" d="M68.59,68.76c-.09,1.59-.17,3.18-.27,4.78-.13,2-.25,4-.4,6a1.53,1.53,0,0,1-1.29,1.25c-1.48.07-3,.19-4.46.13a6.2,6.2,0,0,1-2.07-.67,1.18,1.18,0,0,1-.58-.66,10.56,10.56,0,0,1-.38-3.79q0-8,.17-16A90.16,90.16,0,0,1,60,49.36a38,38,0,0,0,.11-4.14A15,15,0,0,1,60.25,43c.24-1.31.79-1.76,1.87-1.81a12.26,12.26,0,0,0,3.35-1,2.47,2.47,0,0,1,3.26,1.2,15,15,0,0,1,1.75,4.44,40.12,40.12,0,0,0,2.29,6.95c1,2.36,1.9,4.74,2.88,7.1a13.9,13.9,0,0,0,.88,1.66c0,.08.22.19.25.17a1.41,1.41,0,0,0,.46-.41,1.81,1.81,0,0,0,.12-.63c.4-3.7.84-7.39,1.19-11.1.2-2.11.23-4.25.35-6.37a8.13,8.13,0,0,1,.2-1.57,1.56,1.56,0,0,1,1.05-1.12A12.15,12.15,0,0,1,82.63,40c1.8-.11,3.61-.12,5.42-.14a1.09,1.09,0,0,1,1,1c0,1.28.06,2.55.06,3.83,0,2.23,0,4.47,0,6.7a23.07,23.07,0,0,1-.21,3.82c-.34,1.79-.35,3.6-.53,5.4a42.16,42.16,0,0,1-.71,5A31.69,31.69,0,0,0,87,69.75a34.57,34.57,0,0,1-.54,3.79c-.33,1.57-.5,3.15-.72,4.73-.39,2.81-.53,3.79-4.31,3.73-3.25,0-7-1.79-8.27-5-.16-.39-.39-.76-.54-1.16-.55-1.38-1.07-2.77-1.61-4.16-.39-1-.79-2-1.19-3a2.53,2.53,0,0,0-1-2.24,6,6,0,0,0-.23,1C68.52,67.91,68.57,68.34,68.59,68.76ZM86.94,41.5c-1.1.06-2.25.09-3.4.19A10.76,10.76,0,0,0,82,42c-.81.19-1.13.54-1.17,1.27,0,.31,0,.63,0,.95.06,3.84-.58,7.64-.79,11.46-.07,1.27-.45,2.52-.48,3.79a61.73,61.73,0,0,1-.82,6.64,8.51,8.51,0,0,1-.88,2.37c-.25.56-1.24.48-1.62-.06a6.7,6.7,0,0,1-1.08-3.3,13.13,13.13,0,0,0-1-3.66q-2.2-5.48-4.36-11a14.74,14.74,0,0,1-.57-1.82c-.21-.83-.34-1.68-.6-2.48-.38-1.22-.82-2.42-1.27-3.61A1.1,1.1,0,0,0,66,41.88c-1.23.32-2.46.63-3.67,1a1,1,0,0,0-.73,1,6.16,6.16,0,0,0,0,1c0,2.54.05,5.09-.11,7.63-.11,1.81-.2,3.62-.19,5.43,0,6.81.21,13.62-.35,20.42,0,.26.22.54.32.75l3.92-.17a.92.92,0,0,0,.87-.75c.1-1.38.2-2.76.27-4.14.14-2.76.21-5.53.42-8.28a18.73,18.73,0,0,1,.66-3.11,1.87,1.87,0,0,1,.33-.53A1.17,1.17,0,0,1,69.17,62a4.2,4.2,0,0,1,.53.79C71,65.45,72,68.21,73,71c.57,1.6,1.22,3.17,1.9,4.73a5.1,5.1,0,0,0,1.85,2.55,8.15,8.15,0,0,0,4.15,1.44c2.11,0,2.35.11,2.61-2.19.32-2.85,1-5.65,1.23-8.52a32.26,32.26,0,0,1,.69-3.76c.14-.73.3-1.46.42-2.19.54-3.15.41-6.37,1.16-9.49a5.11,5.11,0,0,0,.06-1c.07-3.19.15-6.38.22-9.57A1.94,1.94,0,0,0,86.94,41.5Z"/><path class="cls-2" d="M38.31,64.79c-1.28,0-2.55,0-3.81,0a1.39,1.39,0,0,0-1.36,1.14,19.44,19.44,0,0,1-1.38,3.56,12.38,12.38,0,0,0-.92,2.71,24.8,24.8,0,0,1-2.07,5.35A2.5,2.5,0,0,1,26.17,79a27.31,27.31,0,0,1-2.87-.24,39.46,39.46,0,0,0-6.05-.34c-1.44,0-1.72-.26-1.77-1.52a7.85,7.85,0,0,1,.45-3.15c.85-2.17,1.62-4.39,2.56-6.53,2.94-6.73,6-13.43,8.9-20.16,1-2.24,1.86-4.53,2.79-6.8a9.5,9.5,0,0,1,.64-1.46,2.39,2.39,0,0,1,2.06-1.29c3.62,0,7.24,0,10.86-.08a4.58,4.58,0,0,1,.64,0A2.07,2.07,0,0,1,46.26,39a29.24,29.24,0,0,1,.84,3.41,81.71,81.71,0,0,1,1.14,10.48c.09,3.62.46,7.22.48,10.85a39.06,39.06,0,0,0,1,8.88A12.12,12.12,0,0,1,50,75.79a1.76,1.76,0,0,1-1.44,1.85c-1.7.2-3.32.76-5,1a10.56,10.56,0,0,1-1.58.15,1.81,1.81,0,0,1-1.7-1.22,21.49,21.49,0,0,1-1-5.33c-.13-1.81-.17-3.62-.27-5.42a5.27,5.27,0,0,0-.21-1.25A4.51,4.51,0,0,0,38.31,64.79ZM48,75.72a11.88,11.88,0,0,0,0-2.19,53.75,53.75,0,0,1-1.18-12.06c0-.53,0-1.07-.06-1.6-.18-3.19-.41-6.37-.54-9.57-.11-2.77-.67-5.49-1-8.23a12.47,12.47,0,0,0-.56-2.16.71.71,0,0,0-.46-.4,5.37,5.37,0,0,0-1.26-.16c-3,0-6,.12-8.94.19-.21,0-.43,0-.64.06a1.74,1.74,0,0,0-1.67,1.24c-2.46,7.84-5.89,15.29-9.23,22.77-1.13,2.53-2.33,5-3.45,7.55-.56,1.26-1,2.56-1.5,3.86a4.22,4.22,0,0,0-.08,1.17,2.3,2.3,0,0,0,.69.28,47.17,47.17,0,0,1,8,.5,1,1,0,0,0,1.07-.53,19.29,19.29,0,0,0,1.79-4.08,26.59,26.59,0,0,1,1-3,31.05,31.05,0,0,0,1.68-4.13,2.87,2.87,0,0,1,2.85-2.16c1.28,0,2.55-.11,3.83-.14a1.84,1.84,0,0,1,1.92,1.38,14.08,14.08,0,0,1,.63,2.79,47.51,47.51,0,0,1,.22,4.78,17.28,17.28,0,0,0,.64,4.41,1,1,0,0,0,1.17.78C44.62,77,46.15,76.14,48,75.72Z"/><path class="cls-1" d="M96.18,80.77A9.89,9.89,0,0,1,95.92,77c0-2.23.19-4.47.13-6.7q-.28-10.53.47-21c.15-2.23.12-4.47.19-6.7,0-.74.09-1.48.16-2.21a.84.84,0,0,1,.92-.67,3.41,3.41,0,0,0,1.85,0,12.14,12.14,0,0,1,2.2-.28,8.37,8.37,0,0,1,5.5,1.13,22.24,22.24,0,0,0,2.88,1.36A12,12,0,0,1,115,45.5c1.29,1.56,2.53,3.15,3.75,4.76a12.43,12.43,0,0,1,2.14,4.25c.67,2.46,1.17,5,1.67,7.47a5.88,5.88,0,0,1-.48,3.73,66.56,66.56,0,0,1-5,9.24A17,17,0,0,1,111,80.39c-1.5.79-3,1.66-4.42,2.53a8.79,8.79,0,0,1-3.23,1.28c-1.47.23-2.93.55-4.39.82a7.46,7.46,0,0,1-1,.1,1.51,1.51,0,0,1-1.48-1.38c0-.74.16-1.47.24-2.21C96.91,81,96.56,80.88,96.18,80.77Zm2.55-39.43a9.77,9.77,0,0,0-.15,2c0,2.24,0,4.47-.11,6.71-.14,4.9-.56,9.79-.37,14.69.07,1.7.06,3.4.23,5.1a30.77,30.77,0,0,1,0,5.43A40.09,40.09,0,0,0,98,80.06a2.18,2.18,0,0,1-.45,1.15,1,1,0,0,0,1,1.49c1-.16,2.08-.39,3.13-.57a11.24,11.24,0,0,0,4.13-1.61,42.59,42.59,0,0,1,3.9-2.18,14.43,14.43,0,0,0,5.49-4.76A71.5,71.5,0,0,0,120,65a4.09,4.09,0,0,0,.44-2.16,19.53,19.53,0,0,0-.27-2.54c-.28-1.35-.71-2.67-1-4a12.62,12.62,0,0,0-2.43-5.15q-1.65-2.15-3.38-4.25a10,10,0,0,0-3.78-2.88c-.49-.21-1-.46-1.45-.66-1.48-.59-2.75-1.75-4.36-1.91S100.63,41.34,98.73,41.34Z"/><path class="cls-3" d="M68.59,68.76c0-.42-.07-.85,0-1.27a6,6,0,0,1,.23-1,2.53,2.53,0,0,1,1,2.24Z"/><path class="cls-4" d="M96.18,80.77c.38.11.73.25.54.76A.67.67,0,0,1,96.18,80.77Z"/><path class="cls-3" d="M86.94,41.5a1.94,1.94,0,0,1,.39,1.56c-.07,3.19-.15,6.38-.22,9.57a5.11,5.11,0,0,1-.06,1c-.75,3.12-.62,6.34-1.16,9.49-.12.73-.28,1.46-.42,2.19A32.26,32.26,0,0,0,84.78,69c-.22,2.87-.91,5.67-1.23,8.52-.26,2.3-.5,2.17-2.61,2.19a8.15,8.15,0,0,1-4.15-1.44,5.1,5.1,0,0,1-1.85-2.55c-.68-1.56-1.33-3.13-1.9-4.73-1-2.81-2.09-5.57-3.34-8.27a4.2,4.2,0,0,0-.53-.79,1.17,1.17,0,0,0-1.45.07,1.87,1.87,0,0,0-.33.53,18.73,18.73,0,0,0-.66,3.11c-.21,2.75-.28,5.52-.42,8.28-.07,1.38-.17,2.76-.27,4.14a.92.92,0,0,1-.87.75L61.25,79c-.1-.21-.34-.49-.32-.75.56-6.8.37-13.61.35-20.42,0-1.81.08-3.62.19-5.43.16-2.54.11-5.09.11-7.63a6.16,6.16,0,0,1,0-1,1,1,0,0,1,.73-1c1.21-.36,2.44-.67,3.67-1a1.1,1.1,0,0,1,1.27.71c.45,1.19.89,2.39,1.27,3.61.26.8.39,1.65.6,2.48a14.74,14.74,0,0,0,.57,1.82q2.16,5.47,4.36,11a13.13,13.13,0,0,1,1,3.66,6.7,6.7,0,0,0,1.08,3.3c.38.54,1.37.62,1.62.06a8.51,8.51,0,0,0,.88-2.37,61.73,61.73,0,0,0,.82-6.64c0-1.27.41-2.52.48-3.79.21-3.82.85-7.62.79-11.46,0-.32,0-.64,0-.95,0-.73.36-1.08,1.17-1.27a10.76,10.76,0,0,1,1.56-.31C84.69,41.59,85.84,41.56,86.94,41.5Z"/><path class="cls-4" d="M48,75.72c-1.83.42-3.36,1.25-5.09,1.35a1,1,0,0,1-1.17-.78,17.28,17.28,0,0,1-.64-4.41,47.51,47.51,0,0,0-.22-4.78,14.08,14.08,0,0,0-.63-2.79,1.84,1.84,0,0,0-1.92-1.38c-1.28,0-2.55.09-3.83.14a2.87,2.87,0,0,0-2.85,2.16A31.05,31.05,0,0,1,30,69.36a26.59,26.59,0,0,0-1,3,19.29,19.29,0,0,1-1.79,4.08,1,1,0,0,1-1.07.53,47.17,47.17,0,0,0-8-.5,2.3,2.3,0,0,1-.69-.28A4.22,4.22,0,0,1,17.48,75c.46-1.3.94-2.6,1.5-3.86,1.12-2.53,2.32-5,3.45-7.55,3.34-7.48,6.77-14.93,9.23-22.77a1.74,1.74,0,0,1,1.67-1.24c.21,0,.43-.06.64-.06,3-.07,6-.14,8.94-.19a5.37,5.37,0,0,1,1.26.16.71.71,0,0,1,.46.4,12.47,12.47,0,0,1,.56,2.16c.32,2.74.88,5.46,1,8.23.13,3.2.36,6.38.54,9.57,0,.53.06,1.07.06,1.6A53.75,53.75,0,0,0,48,73.53,11.88,11.88,0,0,1,48,75.72ZM34.83,45.32c-.5,1.09-1,2.14-1.47,3.2-.59,1.37-1.18,2.74-1.68,4.13a7.84,7.84,0,0,0-.29,1.88,1,1,0,0,0,.6,1,25.72,25.72,0,0,0,3.31,1.11,2.8,2.8,0,0,0,3.19-1.54A4.83,4.83,0,0,0,39,54c.29-1.35.61-2.7.77-4.07a17.77,17.77,0,0,0,0-3.18A1.66,1.66,0,0,0,38,45.18C37.08,45.2,36.14,45.26,34.83,45.32Z"/><path class="cls-4" d="M98.73,41.34c1.9,0,3.5-.13,5.08,0s2.88,1.32,4.36,1.91c.49.2,1,.45,1.45.66a10,10,0,0,1,3.78,2.88q1.72,2.1,3.38,4.25a12.62,12.62,0,0,1,2.43,5.15c.28,1.36.71,2.68,1,4a19.53,19.53,0,0,1,.27,2.54A4.09,4.09,0,0,1,120,65a71.5,71.5,0,0,1-4.83,8.63,14.43,14.43,0,0,1-5.49,4.76,42.59,42.59,0,0,0-3.9,2.18,11.24,11.24,0,0,1-4.13,1.61c-1.05.18-2.08.41-3.13.57a1,1,0,0,1-1-1.49A2.18,2.18,0,0,0,98,80.06a40.09,40.09,0,0,1,.33-4.77,30.77,30.77,0,0,0,0-5.43c-.17-1.7-.16-3.4-.23-5.1-.19-4.9.23-9.79.37-14.69.07-2.24.08-4.47.11-6.71A9.77,9.77,0,0,1,98.73,41.34Zm4.34,22.29H103a6,6,0,0,1,0,.95,56.82,56.82,0,0,0-.48,7.6c0,.2-.13.4-.15.61a1,1,0,0,0,1.05.93,4.7,4.7,0,0,0,1.24-.24,17.84,17.84,0,0,0,8.09-6.42,6.84,6.84,0,0,0-.1-8,9.38,9.38,0,0,0-1.92-2.1c-1.51-1.16-3.11-2.2-4.7-3.26a4.25,4.25,0,0,0-1.18-.42,1.34,1.34,0,0,0-1.51.87,9.22,9.22,0,0,0-.24,1.88C103.05,58.54,103.07,61.08,103.07,63.63Z"/><path class="cls-2" d="M34.83,45.32c1.31-.06,2.25-.12,3.2-.14a1.66,1.66,0,0,1,1.73,1.53,17.77,17.77,0,0,1,0,3.18c-.16,1.37-.48,2.72-.77,4.07a4.83,4.83,0,0,1-.49,1.18,2.8,2.8,0,0,1-3.19,1.54A25.72,25.72,0,0,1,32,55.57a1,1,0,0,1-.6-1,7.84,7.84,0,0,1,.29-1.88c.5-1.39,1.09-2.76,1.68-4.13C33.82,47.46,34.33,46.41,34.83,45.32Zm.61,2.49a19.06,19.06,0,0,0-2.13,5.49,1,1,0,0,0,.29.81,15.65,15.65,0,0,0,2,1,1.72,1.72,0,0,0,1.37-.64,4,4,0,0,0,.26-.56,23.23,23.23,0,0,0,1-5.6c0-.94-.45-1.32-1.41-.89C36.38,47.55,36,47.64,35.44,47.81Z"/><path class="cls-2" d="M103.07,63.63c0-2.55,0-5.09,0-7.63a9.22,9.22,0,0,1,.24-1.88,1.34,1.34,0,0,1,1.51-.87,4.25,4.25,0,0,1,1.18.42c1.59,1.06,3.19,2.1,4.7,3.26a9.38,9.38,0,0,1,1.92,2.1,6.84,6.84,0,0,1,.1,8,17.84,17.84,0,0,1-8.09,6.42,4.7,4.7,0,0,1-1.24.24,1,1,0,0,1-1.05-.93c0-.21.15-.41.15-.61a56.82,56.82,0,0,1,.48-7.6,6,6,0,0,0,0-.95Zm1.52,7.13a3.07,3.07,0,0,0,1-.15,22,22,0,0,0,5.11-4.7,5.54,5.54,0,0,0,.07-6A14.46,14.46,0,0,0,105,55.52c-.19,2.57.12,5.08,0,7.59S104.73,68.16,104.59,70.76Z"/></svg>