<svg id="Layer_1" data-name="Layer 1" xmlns="http://www.w3.org/2000/svg" viewBox="0 0 216 108"><defs><style>.cls-1{fill:#1f1810;}.cls-2{fill:#201a12;}.cls-3{fill:#211c14;}.cls-4{fill:#1a1610;}.cls-5{fill:#262119;}.cls-6{fill:#302a1d;}.cls-7{fill:#452c60;}.cls-8{fill:#f9be3c;}.cls-9{fill:#f9bd3c;}.cls-10{fill:#f8bd3b;}.cls-11{fill:#f7bc3b;}.cls-12{fill:#fabf3c;}</style></defs><path class="cls-1" d="M199.12,14.26a15.82,15.82,0,0,1,6.4.86,4.89,4.89,0,0,1,3.71,4.29,18.44,18.44,0,0,1,.2,4.45,1,1,0,0,1-1.13.86,7.74,7.74,0,0,1-1.51-.45c-.59-.25-1.11-.64-1.68-.92-3.19-1.55-2.9-1.26-5.81-.83a4.54,4.54,0,0,0-2.82,1.34,13.39,13.39,0,0,1-1.18,1.07c-1.44,1.25-.65,2.78.4,3.48a7.86,7.86,0,0,0,1.43.69c2.05.88,4.11,1.73,6.15,2.63a6.75,6.75,0,0,1,1.66.93c1.37,1.17,2.73,2.38,4,3.64a7.72,7.72,0,0,1,1.51,2,15.38,15.38,0,0,1,1.89,6.38,40.86,40.86,0,0,1,0,5.75,35.31,35.31,0,0,1-4.14,14,28,28,0,0,1-4.13,6c-4.18,4.32-9.18,6-15.1,4.63a5.51,5.51,0,0,1-1.75-.73,20.19,20.19,0,0,1-4.78-4.2,6.13,6.13,0,0,1-1.32-2.54,2.24,2.24,0,0,1,.16-1.55A1.74,1.74,0,0,1,182.71,65a27.51,27.51,0,0,1,2.87,0,9.33,9.33,0,0,0,6.06-1.6c.7-.48,1.46-.88,2.13-1.4a10.13,10.13,0,0,0,1.57-1.57c.53-.66.91-1.45,1.46-2.09a7.15,7.15,0,0,0,1.93-5.22,18.2,18.2,0,0,1,.48-3.48,5.42,5.42,0,0,0-.63-3.38,13,13,0,0,0-4.68-5.12c-1.36-.84-2.67-1.75-4-2.6a22.45,22.45,0,0,0-5.56-2.39,10,10,0,0,1-5.24-3.46,5.11,5.11,0,0,1-1.1-3.57,10.85,10.85,0,0,1,2.76-6.67,19.83,19.83,0,0,1,5.53-4.78c.75-.4,1.42-.95,2.16-1.36A6.77,6.77,0,0,1,192.29,15a1.36,1.36,0,0,0,.63-.11A15.45,15.45,0,0,1,199.12,14.26Zm8.55,8.32a6.73,6.73,0,0,0-.35-3.74,2.24,2.24,0,0,0-1.24-1.37,12.18,12.18,0,0,0-5.24-1.23c-1.27.06-2.55.05-3.83,0a10.85,10.85,0,0,0-4.63,1,5.05,5.05,0,0,1-3,.83,1.66,1.66,0,0,0-.87.32,20.33,20.33,0,0,0-5.87,4.85,9.36,9.36,0,0,0-2.51,6.06,3.21,3.21,0,0,0,.82,2.34,8.59,8.59,0,0,0,4,2.54,23.63,23.63,0,0,1,7.7,3.74,20.71,20.71,0,0,0,1.88,1.21,15.53,15.53,0,0,1,5.86,6.17,6.21,6.21,0,0,1,.92,3.65,12,12,0,0,1-.19,1.9,15.42,15.42,0,0,0-.44,4.11,4.87,4.87,0,0,1-1,3c-.94,1.29-1.82,2.62-2.77,3.9a6.16,6.16,0,0,1-1.29,1.4A23.23,23.23,0,0,1,191,66.17a10.18,10.18,0,0,1-5.91.88,7.55,7.55,0,0,0-1.26,0c-.38,0-.63.58-.48,1,.49,1.25,1.56,2,2.42,2.92a8.38,8.38,0,0,0,6.58,2.66,13.82,13.82,0,0,0,5.87-1.21,15.66,15.66,0,0,0,6.82-6.51c2.15-3.56,4.1-7.23,4.64-11.45a1,1,0,0,1,.08-.31,12.44,12.44,0,0,0,.65-4.4c.06-1.28,0-2.56,0-3.83A14.11,14.11,0,0,0,209,39.68a5.68,5.68,0,0,0-1.72-2.27,16.48,16.48,0,0,1-3-2.84,3,3,0,0,0-1.28-.92c-1.81-.62-3.4-1.74-5.27-2.24a23.82,23.82,0,0,1-2.36-1,4.08,4.08,0,0,1-2.06-1.93,3.45,3.45,0,0,1,.08-3.65A8.77,8.77,0,0,1,197,21.73a8.87,8.87,0,0,1,8-.15c.66.34,1.32.68,2,1A2.29,2.29,0,0,0,207.67,22.58Z"/><path class="cls-2" d="M165.31,24.05c.09.81.24,2.28.41,3.76,0,.31.14.62.18.94a1.92,1.92,0,0,1-1.12,2.09c-.75.39-1.53.73-2.29,1.12a1.68,1.68,0,0,0-.93,1.22,16.49,16.49,0,0,0-.26,2.2,15.09,15.09,0,0,1-.32,3.48c-.42,1.62-.26,1.77,1.5,1.77,1,0,1.92,0,2.87-.06a4.55,4.55,0,0,1,2.13.54,2.76,2.76,0,0,1,1.67,2.51,20.9,20.9,0,0,1-1.25,9.07,1.53,1.53,0,0,1-.62.69,2.89,2.89,0,0,1-.89.34c-2.86.66-2.32.46-2.69,3.41a15.29,15.29,0,0,0,.64,5c0,.21.46.46.73.49,1,.09,1.91.11,2.86.13.64,0,1.28,0,1.92,0,2.82.1,3.18.9,2.86,3.35-.22,1.68-.61,3.34-1,5a15,15,0,0,1-1.56,3.83,4.69,4.69,0,0,1-2.28,2.14A31.56,31.56,0,0,1,158,79.3c-2.33.16-3.53-.72-4.41-2.87a3.92,3.92,0,0,1-.2-2.81,6,6,0,0,0,0-2.79,37.6,37.6,0,0,1-.07-3.83,27.13,27.13,0,0,0-.41-4.75A78.32,78.32,0,0,1,152,54a70,70,0,0,0-1.65-10.7c-1-4.49-1.37-9-1.94-13.57a23,23,0,0,1-.14-2.87,7.66,7.66,0,0,1,.47-3.75c.17-.32,0-.82,0-1.24a1,1,0,0,1,.72-.91,13.43,13.43,0,0,1,1.89-.18,24.2,24.2,0,0,0,7.22-1.08,15,15,0,0,1,5-.74,1.58,1.58,0,0,1,1.7,1.53C165.34,21.45,165.31,22.41,165.31,24.05Zm-16.58-1.33a3.52,3.52,0,0,1,1.32,3.12c-.08,3.32.62,6.56,1,9.84.16,1.37.4,2.74.66,4.1.55,2.92,1.17,5.84,1.7,8.77a23.7,23.7,0,0,1,.55,4.75c-.06,2.9.74,5.7.89,8.57a17.13,17.13,0,0,1,.51,5.7,31,31,0,0,0,0,3.2,7.21,7.21,0,0,1-.19,2.81,3.51,3.51,0,0,0,0,1.58,2.35,2.35,0,0,0,2.66,2.17,34.48,34.48,0,0,0,6.91-1.2,12,12,0,0,0,2.36-1,3,3,0,0,0,1.19-1A9.7,9.7,0,0,0,170,70a23.47,23.47,0,0,1,.66-3.44,4.16,4.16,0,0,0,0-1.27.6.6,0,0,0-.39-.43,10.2,10.2,0,0,0-1.57-.18,32.6,32.6,0,0,1-3.83-.06c-2-.29-2.69-.17-2.59-2.69a5.6,5.6,0,0,0-.21-1.57,14,14,0,0,1,.23-6.63,2,2,0,0,1,1.5-1.51c.71-.2,1.43-.32,2-.45,1.93-4,1.4-5.2,1.41-7.89A1.55,1.55,0,0,0,166,42.6c-.53-.05-1.06-.05-1.59-.06-1.28,0-2.56,0-3.83-.09a1.86,1.86,0,0,1-1.88-2.11,4.1,4.1,0,0,1,.13-1.27,12.35,12.35,0,0,0,.51-4.1,15.56,15.56,0,0,1,.34-2.52A3.44,3.44,0,0,1,161.59,30c.28-.14.6-.23.88-.37,1.15-.58,1.35-.85,1.11-2a18.41,18.41,0,0,1-.4-4.44A10.83,10.83,0,0,0,163.1,22a.88.88,0,0,0-.91-.7,20.5,20.5,0,0,0-3.14.47,25.38,25.38,0,0,1-7.89,1C150.52,22.7,149.89,22.72,148.73,22.72Z"/><path class="cls-3" d="M68,73.45v3.61a3.89,3.89,0,0,0,3.5,1.34c1.38-.1,2.77-.06,4.15-.05a9.47,9.47,0,0,1,1.59.2,1.67,1.67,0,0,1,1.33,1.58c0,.63,0,1.27-.12,1.9a12.09,12.09,0,0,0-.3,2.21,4.45,4.45,0,0,1-2.28,4c-2.15,1.53-4.39,3-7.18,3.19a8.67,8.67,0,0,0-2.69.92,9.26,9.26,0,0,1-4.66.86A2.84,2.84,0,0,1,58.91,91a5.14,5.14,0,0,1,0-1,2.53,2.53,0,0,0-.52-1.78,5.57,5.57,0,0,1-1-2.66c-.55-3.14-1.06-6.3-1.74-9.42a142.4,142.4,0,0,1-2.53-21.87,131.05,131.05,0,0,1-.48-13.73c0-.63.11-1.27.19-1.9s.6-.71,1.21-.31a7.77,7.77,0,0,1,.65.47,37.41,37.41,0,0,0,6-1.73,36.63,36.63,0,0,1,8.07-1.85,3.68,3.68,0,0,1,4.23,3.34,39.24,39.24,0,0,1,0,4.47,21.05,21.05,0,0,0-.25,2.21c.15,2.32-1.34,3.45-3,4.45a18.21,18.21,0,0,1-1.77.72,6.15,6.15,0,0,0-2.52,2.38,1.22,1.22,0,0,0-.24.59c-.12,1.69-.31,3.4.48,5,.08.18.3.29.5.48a18.67,18.67,0,0,0,5,.16A9,9,0,0,1,72.35,59a2.16,2.16,0,0,1,2.12,2c.06.63.06,1.27.07,1.91a12.24,12.24,0,0,0,.52,4.73,2.27,2.27,0,0,1,.08.94A1.74,1.74,0,0,1,74.51,70a13.65,13.65,0,0,1-3.58,2A6.68,6.68,0,0,0,68,73.45ZM54.56,40.93a2.2,2.2,0,0,0-.27,1.54,69.84,69.84,0,0,0,.51,7.64c.55,5.29.9,10.61,1.4,15.9a58.33,58.33,0,0,0,.85,6.33c.75,3.76,1.45,7.52,2,11.31a10,10,0,0,0,1,3.67,4.67,4.67,0,0,1,.51,2.15c0,1.8.95,2,2.24,1.8a9,9,0,0,0,2.44-.7,9.46,9.46,0,0,1,3.34-1c2.57-.21,4.57-1.64,6.56-3.07a3.14,3.14,0,0,0,1.35-2.44c.06-1,.15-1.91.2-2.87a.92.92,0,0,0-1-1c-1.49,0-3,0-4.47.06a5.11,5.11,0,0,1-3-.75c-.27-.17-.56-.31-.84-.47a1.8,1.8,0,0,1-1-1.53,20.64,20.64,0,0,0-.47-4.43,1.33,1.33,0,0,1,.69-1.35,6.25,6.25,0,0,1,1.14-.53c1-.38,2-.78,3-1.12a6.13,6.13,0,0,0,2.6-1.83,17.21,17.21,0,0,1-.52-2.15c-.1-.84,0-1.7-.07-2.56,0-.53,0-1.06,0-1.59,0-.75-.43-1-1.29-1-1.8,0-3.61,0-5.42,0-1.66,0-1.66-.23-2.27-2a16.9,16.9,0,0,1-.46-5.7,1.86,1.86,0,0,1,.23-.91,8,8,0,0,1,3-3.24,12.38,12.38,0,0,1,1.74-.79,4.79,4.79,0,0,0,2-1.5,1.75,1.75,0,0,0,.45-.83,40,40,0,0,0,.28-7A1.75,1.75,0,0,0,69,37.23a35.14,35.14,0,0,0-6.26,1.21l-6.73,2C55.52,40.56,55,40.51,54.56,40.93Z"/><path class="cls-2" d="M83.05,32.82a3.75,3.75,0,0,0-.38-.51.6.6,0,0,1-.06-.84,2.33,2.33,0,0,1,.72-.6,10,10,0,0,1,4-1.18,13,13,0,0,1,8,1.6,7,7,0,0,1,1.52,1.14c2.77,2.83,5.31,5.83,6.67,9.63a33.23,33.23,0,0,1,1,3.35,6.31,6.31,0,0,1-.13,3.77c-.34.89-.52,1.85-.87,2.74a9.84,9.84,0,0,1-1.28,2.55c-1.53,1.89-2.78,4-4.78,5.54a3.62,3.62,0,0,0-.62.72,1.49,1.49,0,0,0,.32,2A9.38,9.38,0,0,1,101,66.48c2.43,4.27,5.59,8,8.39,12,.37.53.75,1,1.16,1.53a3.46,3.46,0,0,1-.07,4.16c-.26.34-.57.63-.85,1a3,3,0,0,1-2.53,1.1c-.53,0-1.07,0-1.6,0a3.43,3.43,0,0,1-2.06-.75c-.92-.72-1.87-1.39-2.82-2.07a8,8,0,0,1-2-2.09c-.41-.62-.78-1.27-1.22-1.86a2.94,2.94,0,0,0-.78-.52,4.35,4.35,0,0,0-.13,2.84,16.6,16.6,0,0,1,.12,4.45,2.21,2.21,0,0,1-1.4,2,8.47,8.47,0,0,1-4.31.9,2.48,2.48,0,0,1-2.1-1.22A20.08,20.08,0,0,1,87,83.11a1.06,1.06,0,0,1,0-.63c.52-1.11,0-2-.44-3a11.93,11.93,0,0,1-1-3.67c-.85-6.23-1.25-12.5-1.77-18.76-.31-3.72-.54-7.44-.76-11.16A96.62,96.62,0,0,1,83.05,32.82Zm1.35,6.44h-.14c.09,2.13.12,4.26.29,6.38.28,3.29.69,6.56,1,9.85s.51,6.37.79,9.55c.2,2.44.44,4.88.67,7.31,0,.53.15,1.06.23,1.58.34,2.21.84,4.4,1,6.62a17.13,17.13,0,0,0,1.63,5.78,1.45,1.45,0,0,0,1.5,1,5.87,5.87,0,0,0,1.58-.1c1.76-.6,2.18-.81,2.14-2.65A7,7,0,0,0,95,83c-.72-2.62-.29-5.3-.48-7.94a1.73,1.73,0,0,1,.07-.31c.06-.33.76-.65,1-.45a4.47,4.47,0,0,1,1,.79c.52.67,1,1.4,1.44,2.1a35.11,35.11,0,0,0,2.75,3.91A23.19,23.19,0,0,0,104,83.64a8.39,8.39,0,0,0,.77.56,2,2,0,0,0,.58.27A2.4,2.4,0,0,0,108,84c.29-.32.58-.62.85-1a1.43,1.43,0,0,0,.05-1.78c-.35-.53-.75-1-1.12-1.55-2.83-4-6-7.72-8.4-12a8.17,8.17,0,0,0-3.27-3.4,2.79,2.79,0,0,1-1.44-2.67,2.88,2.88,0,0,1,.89-2.3,41.34,41.34,0,0,0,4.6-5.29,8,8,0,0,0,1.6-3.09c.2-.82.49-1.63.76-2.44a4.47,4.47,0,0,0,.09-2.51A24,24,0,0,0,95,33.61a5.37,5.37,0,0,0-1.61-1,13.29,13.29,0,0,0-7.83-.73,1.38,1.38,0,0,0-1.18,1.31C84.39,35.22,84.4,37.24,84.4,39.26Z"/><path class="cls-4" d="M117.07,54.8c0-3.08,0-6.15.36-9.23a56.14,56.14,0,0,0,.15-7.34,64.76,64.76,0,0,1,.81-8.24,2.57,2.57,0,0,1,.84-1.67,8,8,0,0,1,1.67-1.46,7,7,0,0,0,1.58-1.05c1.86-1.61,4-1.76,6.31-1.43a20.7,20.7,0,0,1,2.18.48c3,.77,4.91,2.82,6.5,5.28a27,27,0,0,1,2.93,6.7c.67,2.13,1.14,4.31,1.68,6.47a51.7,51.7,0,0,1,.86,18.39c-.16,1.48-.25,3-.42,4.44-.19,1.8-.32,3.61-.68,5.37a18.87,18.87,0,0,1-3.5,7.44,14,14,0,0,1-4.77,4.14,6,6,0,0,1-5.21,0c-1.28-.74-2.58-1.47-3.82-2.29a7.22,7.22,0,0,1-1.61-1.51,9.19,9.19,0,0,1-1.35-2.16A46.45,46.45,0,0,1,118.73,69c-.46-2.18-.71-4.4-1.37-6.54a9.19,9.19,0,0,1-.27-2.52C117.05,58.21,117.07,56.51,117.07,54.8Zm3.17-24.45a62.5,62.5,0,0,0-.71,8.62c.07,2.76,0,5.53-.12,8.3-.07,2.45-.23,4.89-.26,7.34,0,2,.07,4,.16,6.06a8.19,8.19,0,0,0,.28,2.22,51.2,51.2,0,0,1,1.2,5.6,38.65,38.65,0,0,0,2.9,8.09,5.85,5.85,0,0,0,3.06,3.11A15.38,15.38,0,0,1,128.93,81a3.62,3.62,0,0,0,4.18,0,11.4,11.4,0,0,0,2.47-2A16.93,16.93,0,0,0,140,69c.23-2.76.43-5.52.77-8.26A42.64,42.64,0,0,0,140.66,48c-.23-1.36-.42-2.73-.73-4.08a61.39,61.39,0,0,0-3.16-10.34,19.23,19.23,0,0,0-3.44-5,2.62,2.62,0,0,0-1-.73,22.6,22.6,0,0,0-3.61-1.23,7.83,7.83,0,0,0-3.16-.05,5.69,5.69,0,0,0-2.9,1.86,9.1,9.1,0,0,1-1,1.2A6.88,6.88,0,0,1,120.24,30.35Z"/><path class="cls-3" d="M41.46,38.73A3.31,3.31,0,0,0,42,39a1.08,1.08,0,0,1,.89,1.09l0,.61c-.16.31,0,.48.26.57a67.32,67.32,0,0,1,1.06,9.82,7,7,0,0,0,.09,1.59A40.94,40.94,0,0,1,45,57.7a62.38,62.38,0,0,1,.27,8,29.37,29.37,0,0,0,.29,4.78A11.49,11.49,0,0,1,45.69,73a62.85,62.85,0,0,0,.38,7.64c.14,2.23.11,4.47.1,6.71a6.42,6.42,0,0,1-.29,1.89,3.26,3.26,0,0,1-1.75,2.17c-1.45.64-2.88,1.33-4.29,2.1a8.91,8.91,0,0,1-2.77.65,1.29,1.29,0,0,1-1.47-1c-.22-.92-.44-1.86-.57-2.8a107.93,107.93,0,0,0-1.68-11A27,27,0,0,1,33,76.53a.85.85,0,0,0-1.19-.66c-.59.25-1.16.53-1.75.79a7.4,7.4,0,0,1-1.46.61,14.91,14.91,0,0,0-5.57,2.6A45,45,0,0,0,23,86.75c.05,1.38.09,2.77.1,4.15a4.92,4.92,0,0,1-.23,1.25,1.34,1.34,0,0,1-1.43,1,2.32,2.32,0,0,0-1.78.46,5.24,5.24,0,0,1-3,1c-1.27.1-2.54.14-3.81.13-.27,0-.53-.3-.79-.47V94a3.64,3.64,0,0,1,2.34-.9,9.42,9.42,0,0,0,5.43-1.6A7.3,7.3,0,0,1,21.42,91a13.5,13.5,0,0,0,0-2.54,40,40,0,0,1-.29-7.33,4,4,0,0,1,.33-2.49c.47-.66,1.34-.6,2-1a5.23,5.23,0,0,0,.82-.49,8.27,8.27,0,0,1,2.88-1.31c.81-.24,1.6-.58,2.39-.88s1.57-.66,2.37-.94a6.39,6.39,0,0,1,1.25-.2,1.15,1.15,0,0,1,1.22.81c.1.52.18,1,.26,1.57.17,1.27.28,2.54.53,3.8a78.38,78.38,0,0,1,1.36,9.14,14.11,14.11,0,0,0,.6,2.8.91.91,0,0,0,.75.4A2.74,2.74,0,0,0,39.11,92a27.9,27.9,0,0,1,4-2,1.93,1.93,0,0,0,1.13-1.44c.67-2.31.32-4.66.33-7a38,38,0,0,1-.64-8.58,10.91,10.91,0,0,0-.12-2.22,22.3,22.3,0,0,1-.36-5.09c0-2.87,0-5.76-.27-8.61-.33-3.08-.48-6.15-.54-9.23a.75.75,0,0,0-.27-.9c-.09-.94-.19-1.87-.27-2.81-.05-.63-.05-1.26-.15-1.88s-.32-1.21-.46-1.82.32-1.23,0-1.84Z"/><path class="cls-5" d="M12.08,94v.25c-.06.42-.11.85-.17,1.26,0,.09-.09.23-.13.23-.2,0-.5,0-.59-.07a5.75,5.75,0,0,1-1-1.56,31.91,31.91,0,0,1-1.32-4.58C8.37,87,7.93,84.34,7.7,81.7A271.17,271.17,0,0,1,6.53,49.58a14.92,14.92,0,0,1,.23-2.21,20.08,20.08,0,0,1,.58-1.94c3.12-1.51,6.09-2.91,9-4.4.91-.46,1.55-.52,2.14.4.13.21.66.14.47.63h0l-.14-.18c-.18-.08-.47-.27-.53-.22a22.11,22.11,0,0,1-5.14,3.17c-1.13.58-2.31,1.07-3.46,1.62-.47.22-.92.48-1.29.67a3,3,0,0,0-.21.75c.07,4.57.07,9.15.28,13.72.26,5.73.67,11.46,1.08,17.18.19,2.65.45,5.3.81,7.93.31,2.21.79,4.39,1.22,6.58C11.63,93.55,11.91,93.79,12.08,94Z"/><path class="cls-3" d="M18.81,41.88l.14.18c.24.56-.05,1.3.6,1.71.05,1,.17,2.09.14,3.12a38.28,38.28,0,0,0,1.16,9.3c.11.51.16,1,.24,1.54a.65.65,0,0,0,.29.75l.33,1.21c-.06.56-.07,1.1.56,1.37L23,62c.17.27.35.29.54,0,1.84-.54,3.58-1.45,5.54-1.59l.12-.05A5.79,5.79,0,0,0,29.57,58c0-.92.07-1.84.11-2.76.57-1.17.16-2.42.29-3.63a5.35,5.35,0,0,0-.73-3,2.54,2.54,0,0,1-.13-.45c0-.07.06-.15.1-.22A.82.82,0,0,0,29,47c-.05-.87-.11-1.75-.17-2.62a1.13,1.13,0,0,0,.54-1c0-1.12,0-2.24,0-3.36.15-.14.28-.35.46-.41,2.21-.66,4.4-1.35,6.63-1.93a27.9,27.9,0,0,1,3.42-.5c.74-.1,1,.09,1.35,1,.09.19.16.39.24.58l0-.06c-1.09-.18-2,.47-3.06.59a40.14,40.14,0,0,0-7.06,1.87c-.9.27-1.16.66-1.1,1.66.13,2,.34,4,.44,6,.14,2.86.22,5.73.33,8.59a4.78,4.78,0,0,1-3.69,5.25,13.24,13.24,0,0,0-1.5.51,14.13,14.13,0,0,0-2.69.95c-.46.32-2-.5-2-1.12a13,13,0,0,0-1.1-3.31A38.27,38.27,0,0,1,18,50.39,20.84,20.84,0,0,1,18.81,41.88Z"/><path class="cls-6" d="M29.24,48.65a5.35,5.35,0,0,1,.73,3c-.13,1.21.28,2.46-.29,3.63a6.88,6.88,0,0,1-.4-1.51C29.23,52,29.25,50.34,29.24,48.65Z"/><path class="cls-6" d="M29.36,40c0,1.12,0,2.24,0,3.36a1.13,1.13,0,0,1-.54,1,7.93,7.93,0,0,1-.05-3.75C28.78,40.41,29.15,40.23,29.36,40Z"/><path class="cls-6" d="M19.55,43.77c-.65-.41-.36-1.15-.6-1.71h0c.23.09.64-.16.64.31S19.57,43.3,19.55,43.77Z"/><path class="cls-6" d="M22.27,61.06c-.63-.27-.62-.81-.56-1.37A1.6,1.6,0,0,1,22.27,61.06Z"/><path class="cls-6" d="M29,47a.82.82,0,0,1,.25,1A.86.86,0,0,1,29,47Z"/><path class="cls-7" d="M43.2,41.23c-.31-.09-.42-.26-.26-.57Z"/><path class="cls-6" d="M23.53,62c-.19.27-.37.25-.54,0A.64.64,0,0,1,23.53,62Z"/><polygon class="cls-6" points="29.19 60.4 29.07 60.45 29.11 60.28 29.19 60.4"/><path class="cls-6" d="M21.38,58.48a.65.65,0,0,1-.29-.75A.66.66,0,0,1,21.38,58.48Z"/><path class="cls-8" d="M207.67,22.58a2.29,2.29,0,0,1-.71,0c-.68-.31-1.34-.65-2-1a8.87,8.87,0,0,0-8,.15,8.77,8.77,0,0,0-3.55,3.14,3.45,3.45,0,0,0-.08,3.65,4.08,4.08,0,0,0,2.06,1.93,23.82,23.82,0,0,0,2.36,1c1.87.5,3.46,1.62,5.27,2.24a3,3,0,0,1,1.28.92,16.48,16.48,0,0,0,3,2.84A5.68,5.68,0,0,1,209,39.68a14.11,14.11,0,0,1,1.45,6.16c0,1.27,0,2.55,0,3.83a12.44,12.44,0,0,1-.65,4.4,1,1,0,0,0-.08.31c-.54,4.22-2.49,7.89-4.64,11.45a15.66,15.66,0,0,1-6.82,6.51,13.82,13.82,0,0,1-5.87,1.21,8.38,8.38,0,0,1-6.58-2.66c-.86-.93-1.93-1.67-2.42-2.92-.15-.39.1-1,.48-1a7.55,7.55,0,0,1,1.26,0,10.18,10.18,0,0,0,5.91-.88,23.23,23.23,0,0,0,4.59-2.87,6.16,6.16,0,0,0,1.29-1.4c.95-1.28,1.83-2.61,2.77-3.9a4.87,4.87,0,0,0,1-3,15.42,15.42,0,0,1,.44-4.11,12,12,0,0,0,.19-1.9,6.21,6.21,0,0,0-.92-3.65,15.53,15.53,0,0,0-5.86-6.17A20.71,20.71,0,0,1,192.63,38a23.63,23.63,0,0,0-7.7-3.74,8.59,8.59,0,0,1-4-2.54,3.21,3.21,0,0,1-.82-2.34,9.36,9.36,0,0,1,2.51-6.06,20.33,20.33,0,0,1,5.87-4.85,1.66,1.66,0,0,1,.87-.32,5.05,5.05,0,0,0,3-.83,10.85,10.85,0,0,1,4.63-1c1.28,0,2.56,0,3.83,0a12.18,12.18,0,0,1,5.24,1.23,2.24,2.24,0,0,1,1.24,1.37A6.73,6.73,0,0,1,207.67,22.58Z"/><path class="cls-9" d="M148.73,22.72c1.16,0,1.79,0,2.43,0a25.38,25.38,0,0,0,7.89-1,20.5,20.5,0,0,1,3.14-.47.88.88,0,0,1,.91.7,10.83,10.83,0,0,1,.08,1.27,18.41,18.41,0,0,0,.4,4.44c.24,1.12,0,1.39-1.11,2-.28.14-.6.23-.88.37a3.44,3.44,0,0,0-1.87,2.45,15.56,15.56,0,0,0-.34,2.52,12.35,12.35,0,0,1-.51,4.1,4.1,4.1,0,0,0-.13,1.27,1.86,1.86,0,0,0,1.88,2.11c1.27.08,2.55.06,3.83.09.53,0,1.06,0,1.59.06a1.55,1.55,0,0,1,1.22,1.32c0,2.69.52,3.94-1.41,7.89-.61.13-1.33.25-2,.45a2,2,0,0,0-1.5,1.51,14,14,0,0,0-.23,6.63,5.6,5.6,0,0,1,.21,1.57c-.1,2.52.6,2.4,2.59,2.69a32.6,32.6,0,0,0,3.83.06,10.2,10.2,0,0,1,1.57.18.6.6,0,0,1,.39.43,4.16,4.16,0,0,1,0,1.27A23.47,23.47,0,0,0,170,70a9.7,9.7,0,0,1-1.65,4.11,3,3,0,0,1-1.19,1,12,12,0,0,1-2.36,1,34.48,34.48,0,0,1-6.91,1.2,2.35,2.35,0,0,1-2.66-2.17,3.51,3.51,0,0,1,0-1.58,7.21,7.21,0,0,0,.19-2.81,31,31,0,0,1,0-3.2,17.13,17.13,0,0,0-.51-5.7c-.15-2.87-1-5.67-.89-8.57a23.7,23.7,0,0,0-.55-4.75c-.53-2.93-1.15-5.85-1.7-8.77-.26-1.36-.5-2.73-.66-4.1-.36-3.28-1.06-6.52-1-9.84A3.52,3.52,0,0,0,148.73,22.72Z"/><path class="cls-8" d="M54.56,40.93c.39-.42,1-.37,1.46-.52l6.73-2A35.14,35.14,0,0,1,69,37.23,1.75,1.75,0,0,1,71,38.9a40,40,0,0,1-.28,7,1.75,1.75,0,0,1-.45.83,4.79,4.79,0,0,1-2,1.5,12.38,12.38,0,0,0-1.74.79,8,8,0,0,0-3,3.24,1.86,1.86,0,0,0-.23.91,16.9,16.9,0,0,0,.46,5.7c.61,1.78.61,2,2.27,2,1.81.06,3.62,0,5.42,0,.86,0,1.25.28,1.29,1,0,.53,0,1.06,0,1.59,0,.86,0,1.72.07,2.56a17.21,17.21,0,0,0,.52,2.15,6.13,6.13,0,0,1-2.6,1.83c-1,.34-2,.74-3,1.12a6.25,6.25,0,0,0-1.14.53,1.33,1.33,0,0,0-.69,1.35,20.64,20.64,0,0,1,.47,4.43,1.8,1.8,0,0,0,1,1.53c.28.16.57.3.84.47a5.11,5.11,0,0,0,3,.75c1.49-.08,3-.06,4.47-.06a.92.92,0,0,1,1,1c0,1-.14,1.91-.2,2.87a3.14,3.14,0,0,1-1.35,2.44c-2,1.43-4,2.86-6.56,3.07a9.46,9.46,0,0,0-3.34,1,9,9,0,0,1-2.44.7c-1.29.22-2.22,0-2.24-1.8A4.67,4.67,0,0,0,60,87.32a10,10,0,0,1-1-3.67c-.55-3.79-1.25-7.55-2-11.31A58.33,58.33,0,0,1,56.2,66c-.5-5.29-.85-10.61-1.4-15.9a69.84,69.84,0,0,1-.51-7.64A2.2,2.2,0,0,1,54.56,40.93Z"/><path class="cls-10" d="M84.4,39.26c0-2,0-4,0-6.07a1.38,1.38,0,0,1,1.18-1.31,13.29,13.29,0,0,1,7.83.73,5.37,5.37,0,0,1,1.61,1,24,24,0,0,1,7.58,12.32,4.47,4.47,0,0,1-.09,2.51c-.27.81-.56,1.62-.76,2.44a8,8,0,0,1-1.6,3.09,41.34,41.34,0,0,1-4.6,5.29,2.88,2.88,0,0,0-.89,2.3,2.79,2.79,0,0,0,1.44,2.67,8.17,8.17,0,0,1,3.27,3.4c2.37,4.32,5.57,8.05,8.4,12,.37.52.77,1,1.12,1.55a1.43,1.43,0,0,1-.05,1.78c-.27.33-.56.63-.85,1a2.4,2.4,0,0,1-2.65.52,2,2,0,0,1-.58-.27,8.39,8.39,0,0,1-.77-.56,23.19,23.19,0,0,1-3.22-2.58A35.11,35.11,0,0,1,98,77.15c-.48-.7-.92-1.43-1.44-2.1a4.47,4.47,0,0,0-1-.79c-.28-.2-1,.12-1,.45a1.73,1.73,0,0,0-.07.31c.19,2.64-.24,5.32.48,7.94a7,7,0,0,1,.09,1.59c0,1.84-.38,2-2.14,2.65a5.87,5.87,0,0,1-1.58.1,1.45,1.45,0,0,1-1.5-1,17.13,17.13,0,0,1-1.63-5.78c-.15-2.22-.65-4.41-1-6.62-.08-.52-.18-1-.23-1.58-.23-2.43-.47-4.87-.67-7.31-.28-3.18-.49-6.37-.79-9.55s-.71-6.56-1-9.85c-.17-2.12-.2-4.25-.29-6.38Zm6.75,14c.07,1,.59,1.42,1.3,1.08a4.13,4.13,0,0,0,1.63-1.47,11,11,0,0,0,1.82-6.91,3.42,3.42,0,0,0-2.2-3.19,6.79,6.79,0,0,0-2.13-.52A1.76,1.76,0,0,0,89.44,44c0,.84,0,1.69,0,2.54a9,9,0,0,0,1.26,4.84A3.51,3.51,0,0,0,91.15,53.22Z"/><path class="cls-11" d="M120.24,30.35a6.88,6.88,0,0,0,1.37-.64,9.1,9.1,0,0,0,1-1.2,5.69,5.69,0,0,1,2.9-1.86,7.83,7.83,0,0,1,3.16.05,22.6,22.6,0,0,1,3.61,1.23,2.62,2.62,0,0,1,1,.73,19.23,19.23,0,0,1,3.44,5A61.39,61.39,0,0,1,139.93,44c.31,1.35.5,2.72.73,4.08a42.64,42.64,0,0,1,.13,12.71c-.34,2.74-.54,5.5-.77,8.26a16.93,16.93,0,0,1-4.44,10,11.4,11.4,0,0,1-2.47,2,3.62,3.62,0,0,1-4.18,0,15.38,15.38,0,0,0-2.18-1.34,5.85,5.85,0,0,1-3.06-3.11,38.65,38.65,0,0,1-2.9-8.09,51.2,51.2,0,0,0-1.2-5.6,8.19,8.19,0,0,1-.28-2.22c-.09-2-.18-4-.16-6.06,0-2.45.19-4.89.26-7.34.07-2.77.19-5.54.12-8.3A62.5,62.5,0,0,1,120.24,30.35ZM126,64.28a1,1,0,0,0-.73.85,4.24,4.24,0,0,0,1.34,3.58c.19.23.34.59.59.67a1.93,1.93,0,0,0,1.23.05c1.16-.51,2.29-1.1,3.41-1.7a4.62,4.62,0,0,0,2.51-4.13,96.45,96.45,0,0,0-.72-18.76,8.92,8.92,0,0,0-.25-1.25,4.28,4.28,0,0,0-5.13-3.2,1.63,1.63,0,0,0-1.25.87,18.91,18.91,0,0,0-2.26,12c.08.52.2,1,.27,1.57a16.55,16.55,0,0,1,.25,2.53A26.11,26.11,0,0,0,126,64.28Z"/><path class="cls-12" d="M18.81,41.88A20.84,20.84,0,0,0,18,50.39a38.27,38.27,0,0,0,2.09,9.31A13,13,0,0,1,21.16,63c.06.62,1.55,1.44,2,1.12a14.13,14.13,0,0,1,2.69-.95,13.24,13.24,0,0,1,1.5-.51,4.78,4.78,0,0,0,3.69-5.25c-.11-2.86-.19-5.73-.33-8.59-.1-2-.31-4-.44-6-.06-1,.2-1.39,1.1-1.66a40.14,40.14,0,0,1,7.06-1.87c1-.12,2-.77,3.06-.59.31.61-.16,1.23,0,1.84s.36,1.2.46,1.82.1,1.25.15,1.88c.08.94.18,1.87.27,2.81a.82.82,0,0,0,.27.9c.06,3.08.21,6.15.54,9.23.3,2.85.23,5.74.27,8.61a22.3,22.3,0,0,0,.36,5.09,10.91,10.91,0,0,1,.12,2.22,38,38,0,0,0,.64,8.58c0,2.33.34,4.68-.33,7a1.93,1.93,0,0,1-1.13,1.44,27.9,27.9,0,0,0-4,2,2.74,2.74,0,0,1-1.22.32.91.91,0,0,1-.75-.4,14.11,14.11,0,0,1-.6-2.8A78.38,78.38,0,0,0,35.18,80c-.25-1.26-.36-2.53-.53-3.8-.08-.52-.16-1-.26-1.57a1.15,1.15,0,0,0-1.22-.81,6.39,6.39,0,0,0-1.25.2c-.8.28-1.58.63-2.37.94s-1.58.64-2.39.88a8.27,8.27,0,0,0-2.88,1.31,5.23,5.23,0,0,1-.82.49c-.64.36-1.51.3-2,1a4,4,0,0,0-.33,2.49,40,40,0,0,0,.29,7.33,13.5,13.5,0,0,1,0,2.54,7.3,7.3,0,0,0-1.57.57,9.42,9.42,0,0,1-5.43,1.6,3.64,3.64,0,0,0-2.34.9c-.17-.25-.45-.49-.51-.76-.43-2.19-.91-4.37-1.22-6.58-.36-2.63-.62-5.28-.81-7.93-.41-5.72-.82-11.45-1.08-17.18-.21-4.57-.21-9.15-.28-13.72a3,3,0,0,1,.21-.75c.37-.19.82-.45,1.29-.67,1.15-.55,2.33-1,3.46-1.62a22.11,22.11,0,0,0,5.14-3.17C18.34,41.61,18.63,41.8,18.81,41.88Z"/><path class="cls-6" d="M42.64,47.92a.82.82,0,0,1-.27-.9A.75.75,0,0,1,42.64,47.92Z"/><path class="cls-5" d="M90.68,51.38a9,9,0,0,1-1.26-4.84c0-.85,0-1.7,0-2.54a1.76,1.76,0,0,1,2.13-1.79,6.79,6.79,0,0,1,2.13.52,3.42,3.42,0,0,1,2.2,3.19,11,11,0,0,1-1.82,6.91,4.13,4.13,0,0,1-1.63,1.47c-.71.34-1.23-.07-1.3-1.08.35-.22.82-.35,1-.66a9.75,9.75,0,0,0,1.86-7.2,1.58,1.58,0,0,0-1-1.19c-1.65-.86-2.07-.22-2.11,1a16.25,16.25,0,0,0,.22,3.48,12.39,12.39,0,0,1,.16,2.2C91.37,51.22,91,51.32,90.68,51.38Z"/><path class="cls-2" d="M126,64.28a26.11,26.11,0,0,1-.74-6.93,16.55,16.55,0,0,0-.25-2.53c-.07-.53-.19-1-.27-1.57a18.91,18.91,0,0,1,2.26-12,1.63,1.63,0,0,1,1.25-.87,4.28,4.28,0,0,1,5.13,3.2,8.92,8.92,0,0,1,.25,1.25,96.45,96.45,0,0,1,.72,18.76,4.62,4.62,0,0,1-2.51,4.13c-1.12.6-2.25,1.19-3.41,1.7a1.93,1.93,0,0,1-1.23-.05c-.25-.08-.4-.44-.59-.67,0-.56,0-1.11.71-1.28.31,0,.67.23.92.13a10.6,10.6,0,0,0,3.22-2,2.41,2.41,0,0,0,.88-1.64c.07-1.17.21-2.33.26-3.49a104.88,104.88,0,0,0-.92-14.92,7.34,7.34,0,0,0-.48-1.84,2.79,2.79,0,0,0-.78-1,1.22,1.22,0,0,0-1.89.32,14.51,14.51,0,0,0-1.86,8.88c.06.42.07.85.16,1.26a21.87,21.87,0,0,1,.35,5.71,11.58,11.58,0,0,0,.71,5.31,1,1,0,0,1,.07.62,2.19,2.19,0,0,1-.38.8,4.54,4.54,0,0,1-.71.59,7,7,0,0,0-.29-1.22A2.79,2.79,0,0,0,126,64.28Z"/><path class="cls-6" d="M126,64.28a2.79,2.79,0,0,1,.58.67,7,7,0,0,1,.29,1.22l.45,1.26c-.69.17-.7.72-.71,1.28a4.24,4.24,0,0,1-1.34-3.58A1,1,0,0,1,126,64.28Z"/></svg>