<svg id="Layer_1" data-name="Layer 1" xmlns="http://www.w3.org/2000/svg" viewBox="0 0 612 792"><defs><style>.cls-1{fill:#070707;}.cls-2{fill:#a64929;}.cls-3{fill:#969696;}.cls-4{fill:#c6c6c6;}.cls-5{fill:#c5c5c5;}.cls-6{fill:#a64829;}.cls-7{fill:#0035d2;}.cls-8{fill:#a54828;}.cls-9{fill:#f5c696;}.cls-10{fill:#c4c4c4;}.cls-11{fill:#a34728;}.cls-12{fill:#a44828;}.cls-13{fill:#c3c3c3;}.cls-14{fill:#c2c2c2;}.cls-15{fill:silver;}.cls-16{fill:#0033cb;}.cls-17{fill:#bbb;}.cls-18{fill:#0030c1;}.cls-19{fill:#9f4527;}.cls-20{fill:#fff;}.cls-21{fill:#0a0908;}.cls-22{fill:#0e0b09;}.cls-23{fill:#101010;}.cls-24{fill:#f4c596;}</style></defs><path d="M571.79,62.06a6.07,6.07,0,0,0-5.93-5.48c-1.42,0-2.84,0-4.25,0a12.78,12.78,0,0,0-7.71,2.3,61.22,61.22,0,0,0-6.26,4.7q-15,13.41-29.86,27c-3.15,2.86-6.28,5.75-9.25,8.79-3.64,3.74-7.22,7.55-9.86,12.15a11,11,0,0,1-3.21,3.74c-4.17-6.51-9.39-11.94-14.31-17.61a42.74,42.74,0,0,0-4.8-4.9,35.39,35.39,0,0,0-5.46-3.53,8.67,8.67,0,0,0-3.11-.9,3.2,3.2,0,0,0-3.89,3.33,19.38,19.38,0,0,0,.27,4.23c.53,3.11,1.17,6.2,1.84,9.29a47.31,47.31,0,0,0,5.24,13.67c1.62,2.83,3.26,5.66,4.89,8.49a19.56,19.56,0,0,1,2.23,5.94c-3.45,2.41-6.79,4.67-10,7-12.06,8.8-24.17,17.53-36.12,26.49-10.32,7.73-21,15-29.85,25-2.72-6.27-6.79-10.87-13-13.32s-12.55-1.73-18.69,1c-.36-1.09-.69-2-1-3-2.18-7.08-4.46-14.12-6.5-21.24-5.3-18.54-11.56-36.76-18.33-54.81-.88-2.34-1.83-4.66-2.61-7q-5-15.21-9.89-30.44a5,5,0,0,0-4.94-4,13.54,13.54,0,0,0-5.18.48,28.15,28.15,0,0,1-3.46,1,37.6,37.6,0,0,0-8.12,2.43c-7.33,3.07-14.72,6-22,9.25-16,7.19-31.54,15.33-46.95,23.69-9.37,5.09-18.54,10.58-27.77,15.92a14.1,14.1,0,0,0-2.83,2.21A6.38,6.38,0,0,0,209,119.8c.36,2,.56,4.11,1,6.13.69,3.31,1.54,6.58,2.25,9.88,1.39,6.49,2.53,13.05,4.15,19.49,2.91,11.51,6.08,22.95,9.18,34.4,1.53,5.67,3.15,11.32,4.73,17-1,1-1.91,1.9-1.86,3.41.2,6.42-.47,12.87.67,19.25.31,1.72.62,3.44.87,5.16a5.16,5.16,0,0,1-.41,1.44,20.73,20.73,0,0,1-1.6-1.55c-2.2-2.7-4.45-5.38-6.54-8.16-3-4-5.87-8.13-8.86-12.16a36.57,36.57,0,0,0-3.43-3.93,3.13,3.13,0,0,0-3.6-.81,3.24,3.24,0,0,0-1.94,3.15c-.16,4.16,0,8.25,1.57,12.22,2.43,6.18,4.69,12.42,7,18.63a38.34,38.34,0,0,0,7.17,12c1,1.13,2,2.26,3,3.44a13.14,13.14,0,0,1,1,1.62,20.38,20.38,0,0,1-2,.89,27.63,27.63,0,0,0-10.81,6.55q-4.95,4.76-9.67,9.74a22.22,22.22,0,0,0-3.52,4.69,82.86,82.86,0,0,0-5.85,15.2c-2,6.84-.89,13.61.89,20.31a10.49,10.49,0,0,0,.79,1.79c2.47,5.15,6.42,9,11,12.3.6.43,1.21.84,1.9,1.32-.64,1.3-1.23,2.46-1.79,3.64-1.89,3.91-3.8,7.82-5.65,11.76s-3.71,7.88-5.42,11.88a119.59,119.59,0,0,1-5.76,11c-2.59,4.65-4.93,9.44-7.46,14.14-1.75,3.26-3.7,6.41-5.42,9.69a85.36,85.36,0,0,1-6.27,9.55c-.31.44-.56.91-.8,1.31L166.28,405c-1.94,2.25-3.89,4.44-5.77,6.7-8.31,10-16.57,20-24.9,29.91-2.16,2.59-4.5,5-6.7,7.46-3.56.25-6.93.44-10.29.75a5.77,5.77,0,0,0-2.72.85,3.72,3.72,0,0,1-2.75.57,44.77,44.77,0,0,0-15.25,1.1c-1.88.52-3.81.91-5.7,1.42a159.91,159.91,0,0,0-18.53,6.33,19.68,19.68,0,0,0-3.5,1.74,4,4,0,0,0-.85,6.43,12.74,12.74,0,0,0,2.24,1.89,14.71,14.71,0,0,0,6.64,2.56,55.63,55.63,0,0,0,7.16.61c3.26,0,6.52-.28,9.78-.51a5.34,5.34,0,0,1,3.69.53c-1.83,1.34-3.59,2.59-5.32,3.89-3.84,2.87-7.7,5.72-11.48,8.66a32.47,32.47,0,0,0-7.3,7.9c-2.6,4-1.22,7.11,3.54,7.55a36.08,36.08,0,0,0,9.11-.26c3.52-.57,7-1.76,10.42-2.68.59-.16,1.21-.44,1.74.47-.62.57-1.26,1.12-1.86,1.72-2.23,2.23-4.58,4.37-6.63,6.76a23.86,23.86,0,0,0-3.47,5.5c-1.9,4.18-.11,7.91,4.24,9.28a12.44,12.44,0,0,0,1.91.39c5.23.78,10.19-.32,15-2.28,1.51-.61,2.94-1.42,4.44-2.07a5.62,5.62,0,0,1,1.67-.1c-.63,1.18-1.08,2-1.56,2.88a56.53,56.53,0,0,0-4.81,11.77,14.74,14.74,0,0,0-.61,3.85c-.07,3.22,1.44,4.87,4.7,5a14,14,0,0,0,4.5-.54,24.77,24.77,0,0,0,5.12-2.11c3.53-1.93,7-3.9,10.43-6.07,6.32-4.07,12.55-8.28,18.79-12.48a35.14,35.14,0,0,0,2.93-2.42c.71,1.17,1.4,2.53,2.29,3.74a6.11,6.11,0,0,1,1.25,3,8.93,8.93,0,0,0,1.79,4.84,15.61,15.61,0,0,1,3.09,4.94c.56,1.64,1.88,2.22,3.71,1.9a40.44,40.44,0,0,0,4.72-1.24,4.67,4.67,0,0,0,1.66-1c2.5-2.33,4.62-4.92,5.41-8.38.29-1.27.7-2.52,1-3.79.8-3.5,1.38-7.07,2.4-10.5a80.58,80.58,0,0,0,3.63-26.26c1.53-1.48,2.76-2.69,4-3.87a12.06,12.06,0,0,1,1.36-.93,90,90,0,0,1-3.2,16.05c-2.19,8.33-4.22,16.68-4.73,25.32a13.09,13.09,0,0,1-.63,2.86c-.8,2.71-1.77,5.38-1.54,8.29a6.89,6.89,0,0,1-.35,1.92c-.74,3.63-1.52,7.22-3.35,10.52a25.65,25.65,0,0,0-1.77,4.56c-2.65,8.3-4.87,16.72-6.9,25.19a15.25,15.25,0,0,1-.56,1.68c-1.73.27-3.11.39-4.44.71-2.58.62-4.85,2.47-7.74,1.91-.26,0-.61.21-.89.37a24.34,24.34,0,0,1-7.74,2.38,137.09,137.09,0,0,0-29.54,9.25c-1.59.7-3,1.61-4.93.8a4,4,0,0,0-2.22.26c-3.71.88-7.4,1.81-11.1,2.71-6.24,1.51-11.79,4.6-17,8.09a43.48,43.48,0,0,0-13.89,15.39,22.49,22.49,0,0,0-2.56,7c-.77,4.28-1.4,8.6-2.34,12.85a165.59,165.59,0,0,0-3.37,20.28c-.45,4.78-1.17,9.54-1.32,14.32-.2,6.54,0,13.09.08,19.63a20.41,20.41,0,0,0,1.37,8,38.42,38.42,0,0,1,2.36,8.48,21.75,21.75,0,0,0,3,7.88A36.74,36.74,0,0,0,73.48,726a11.49,11.49,0,0,0,4.09,1.92c4.67,1.3,9.31.56,13.85-.68,2.83-.78,5.57-1.86,8.36-2.79a12.58,12.58,0,0,0,4.71-2.84c2.23-2.09,4.51-4.12,6.79-6.15a17.49,17.49,0,0,0,4.77-6.54,161.64,161.64,0,0,0,7.3-21.3,23.73,23.73,0,0,0,.22-8.77q-.34-2.74-.8-5.49c-.15-1-.38-1.91-.57-2.86l.32-1.92c3.92,0,7.84-.1,11.76-.09a8.69,8.69,0,0,1,2.23.42,41,41,0,0,0,12.61,1.42,143.12,143.12,0,0,0,20.13-2.21c11.78-2.14,23.45-4.77,35.08-7.62a13.74,13.74,0,0,0,3-1.16,13.45,13.45,0,0,1,6.61-1.53,30,30,0,0,0,3.91-.11,3.34,3.34,0,0,0,3-3.89,4.5,4.5,0,0,1,.2-2.2c.42-1.24.81-2.48,1.26-3.71a259.25,259.25,0,0,1,15-32.25C245,601.23,253,587,260.9,572.68c6.46-11.73,12.87-23.48,17.38-36.16a6.53,6.53,0,0,1,.86-1.21c8.86,15.4,20.61,27.63,36.23,35.84a1.54,1.54,0,0,1-.18.44c-10.53,11.49-21.12,22.93-31.58,34.48-7.91,8.72-15.68,17.56-23.46,26.39a71.22,71.22,0,0,0-4.42,5.67c-1.08,1.51-2,3.11-1.58,5.15a3.75,3.75,0,0,1-.47,1.83,26.45,26.45,0,0,0-1.73,8.6c-.16,3.15-.16,6.32-.17,9.48a40.41,40.41,0,0,0,2,13.18,28.78,28.78,0,0,1,.9,4.14,141.6,141.6,0,0,0,4.49,19.71c1.87,5.69,4.14,11.21,6.55,16.7A95.26,95.26,0,0,0,276.09,735a52.76,52.76,0,0,0,21.51,17c2.28,1,4.65,1.85,6.94,2.86a49.76,49.76,0,0,0,13.87,3.49,14.46,14.46,0,0,0,2.94.07c3.79-.28,7.56-.73,11.32-1.38a45.4,45.4,0,0,0,17.23-6.63c3.39-2.18,6.73-4.43,10-6.72a35.15,35.15,0,0,0,12.71-16.61c1.2-3,2.08-6.18,3.19-9.25A21.76,21.76,0,0,0,377,705.93c-.54-2.66-.94-5.37-1.23-8.07a29.54,29.54,0,0,0-2.43-8.78c-1.14-2.58-2.48-5.08-3.71-7.63-2-4.12-5.42-6.72-9.31-8.84a9.92,9.92,0,0,0-5-1.23c-2.73,0-5.45,0-8.18,0a35.28,35.28,0,0,0-9.37,1.16c-2.11.54-4.22,1-6.34,1.53l-.63-.68c1.21-1.67,2.36-3.39,3.65-5a228.08,228.08,0,0,1,15.63-17.54c1-1,2.17-1.78,3.24-2.69.57-.49,1.34-.92,1.61-1.55a12.65,12.65,0,0,1,3.28-4c14.28-13.75,27.86-28.17,41-43,8.26-9.26,16.43-18.59,23.8-28.6,1.74-2.36,3.14-5,5.12-7.15,2.31-2.48,3.43-5.52,4.85-8.41s2.42-6,3.61-9.07a1.82,1.82,0,0,1,.34-.55c.49-.56.95-.29,1.39.08.17.64.64.84,1.13.5.19-.14.21-.79.06-1.08s-.6-.49-.92-.72l-1-2.41a2.22,2.22,0,0,0-.44-.82c-2.51-2.07-5-4.19-7.6-6.13q-9.71-7.23-19.5-14.32c-9.61-7-19.38-13.74-29.41-20.11-10.5-6.67-21.62-12.18-32.77-17.64-6.85-3.35-13.72-6.67-20-11.09-1.34-.94-2.72-1.82-4.05-2.77a3.89,3.89,0,0,0-3.63-.86c-.1,0-.3-.26-.6-.53a5,5,0,0,1,.4-1.39,36.12,36.12,0,0,1,2.4-3.5c1.44-1.82,2.19-3.76,1.38-5.94a10.11,10.11,0,0,0,1.36-2.37,11.78,11.78,0,0,0,.05-2.78c1.56-2.34,3.12-4.57,4.57-6.88,4.88-7.79,9-15.92,11.32-24.88,1-4,2-8,3.09-12a10.48,10.48,0,0,1,1.53-3.9,34,34,0,0,0,5.71-10.94c2-6,4-12,5.89-18,1.05-3.3,2.06-6.63,1.84-10.2,1.85-.14,3.57-.23,5.28-.42,3.46-.38,6.94-.74,10.38-1.25a54.69,54.69,0,0,0,6.7-1.43c3.55-1,7.08-2.13,10.58-3.32a29.84,29.84,0,0,0,5.68-2.44,70.41,70.41,0,0,0,7.21-5.08,28.36,28.36,0,0,0,4.14-4.13c2-2.43,3.86-5,5.79-7.5a6.82,6.82,0,0,0,1.55-3.55c.24-2.74-1.08-4.32-3.83-4.61-1.18-.13-2.37-.3-3.54-.51-4.94-.9-9.88-1.75-14.93-1.44-1.63.1-3.27,0-4.91,0a22.15,22.15,0,0,1-9.23-1.78c-5.95-2.46-10.69-6.65-15.4-10.87a3.74,3.74,0,0,1-1.16-3.22c.18-3.59.15-7.19.2-10.79,0-.63,0-1.25,0-2a4.72,4.72,0,0,1,1.06-.12,8,8,0,0,0,5.52-1.48c6.66-4.34,13.49-8.43,20.09-12.86,24-16.12,47.43-33,69.51-51.65,17.25-14.58,34.19-29.48,49-46.65a15,15,0,0,1,1.42-1.3l1.92.83c3,1.34,4.37,1,6.79-1.09a77.45,77.45,0,0,1,6.84-5.55,38.58,38.58,0,0,0,12.07-13.11c.68-1.24,1.28-2.53,2.05-3.71a14.39,14.39,0,0,0,2.06-9.71c-.13-1.19-.35-2.38-.45-3.57-.22-2.49-.57-5-.56-7.47a92.61,92.61,0,0,0-.67-14,43.51,43.51,0,0,0-1.25-5.74,6.57,6.57,0,0,0-4.25-4.64c-1.64-.58-3.35-.95-5-1.49a9.58,9.58,0,0,1-1.66-1c.66-.66,1.09-1.13,1.57-1.55q7.53-6.56,15.06-13.08a133.21,133.21,0,0,0,20.85-22.06,45.91,45.91,0,0,0,5.08-8.74A17.3,17.3,0,0,0,571.79,62.06Z"/><path class="cls-1" d="M438.36,545.91c-.44-.37-.9-.64-1.39-.08a1.82,1.82,0,0,0-.34.55c-1.19,3-2.18,6.15-3.61,9.07s-2.54,5.93-4.85,8.41c-2,2.12-3.38,4.79-5.12,7.15-7.37,10-15.54,19.34-23.8,28.6-13.18,14.79-26.76,29.21-41,43a12.65,12.65,0,0,0-3.28,4c-.27.63-1,1.06-1.61,1.55-1.07.91-2.26,1.69-3.24,2.69a228.08,228.08,0,0,0-15.63,17.54c-1.29,1.6-2.44,3.32-3.65,5l-.25.76.88-.08c2.12-.51,4.23-1,6.34-1.53a35.28,35.28,0,0,1,9.37-1.16c2.73,0,5.45.08,8.18,0a9.92,9.92,0,0,1,5,1.23c3.89,2.12,7.32,4.72,9.31,8.84,1.23,2.55,2.57,5,3.71,7.63a29.54,29.54,0,0,1,2.43,8.78c.29,2.7.69,5.41,1.23,8.07a21.76,21.76,0,0,1-1.17,11.87c-1.11,3.07-2,6.22-3.19,9.25a35.15,35.15,0,0,1-12.71,16.61c-3.31,2.29-6.65,4.54-10,6.72A45.4,45.4,0,0,1,332.67,757c-3.76.65-7.53,1.1-11.32,1.38a14.46,14.46,0,0,1-2.94-.07,49.76,49.76,0,0,1-13.87-3.49c-2.29-1-4.66-1.83-6.94-2.86a52.76,52.76,0,0,1-21.51-17,95.26,95.26,0,0,1-10.4-18.05c-2.41-5.49-4.68-11-6.55-16.7a141.6,141.6,0,0,1-4.49-19.71,28.78,28.78,0,0,0-.9-4.14,40.41,40.41,0,0,1-2-13.18c0-3.16,0-6.33.17-9.48a26.45,26.45,0,0,1,1.73-8.6,3.75,3.75,0,0,0,.47-1.83c-.41-2,.5-3.64,1.58-5.15a71.22,71.22,0,0,1,4.42-5.67c7.78-8.83,15.55-17.67,23.46-26.39,10.46-11.55,21.05-23,31.58-34.48a1.54,1.54,0,0,0,.18-.44c-15.62-8.21-27.37-20.44-36.23-35.84a6.53,6.53,0,0,0-.86,1.21c-4.51,12.68-10.92,24.43-17.38,36.16C253,587,245,601.23,237.28,615.61a259.25,259.25,0,0,0-15,32.25c-.45,1.23-.84,2.47-1.26,3.71a4.5,4.5,0,0,0-.2,2.2,3.34,3.34,0,0,1-3,3.89,30,30,0,0,1-3.91.11,13.45,13.45,0,0,0-6.61,1.53,13.74,13.74,0,0,1-3,1.16c-11.63,2.85-23.3,5.48-35.08,7.62a143.12,143.12,0,0,1-20.13,2.21,41,41,0,0,1-12.61-1.42,8.69,8.69,0,0,0-2.23-.42c-3.92,0-7.84,0-11.76.09A42,42,0,0,1,111.25,667a43.45,43.45,0,0,1-5.18-1.91,2,2,0,1,1,1.19-3.77c2.46.43,4.93.8,7.36,1.35,3.88.87,7.8.42,11.71.52a2.7,2.7,0,0,0,1.24-.3,7.13,7.13,0,0,1,5.11-.28,20.37,20.37,0,0,0,7.74.17c3.34-.39,6.7-.6,9.85,1.19,1.59.9,2.69.61,4.73-.7-1.32-1.83-3.43-2.65-5.08-4a15.54,15.54,0,0,1-4.83-6.06,92.4,92.4,0,0,1-4.33-13,151.25,151.25,0,0,1-2.51-15.72,24.67,24.67,0,0,1,.11-7.18,95.89,95.89,0,0,1,6.25-20.85,59.79,59.79,0,0,0,3.1-8,14.83,14.83,0,0,0-2.17.12c-4.24.92-8.51,1.71-12.68,2.88-6.37,1.78-12.66,3.87-19,5.77a84.19,84.19,0,0,1-8.79,2.31c-5.06.93-10,2-14.34,5A26.72,26.72,0,0,1,88.12,606a15.51,15.51,0,0,0-2.77,1.63c-2.38,2.07-4.73,4.18-6.95,6.42-2.64,2.65-4.32,6-6.05,9.25a11.87,11.87,0,0,0-.91,3.44c-.91,5.13-1.67,10.28-2.69,15.38-.85,4.26-1.61,8.53-2,12.85-.27,2.7-.72,5.38-1,8.07-.32,2.92-.74,5.84-.79,8.76-.12,7.08,0,14.17-.06,21.26a14.75,14.75,0,0,0,1.25,6,25.2,25.2,0,0,1,2,7.19c.66,5.92,3.9,10.26,8.28,13.93a8.34,8.34,0,0,0,2.27,1.24,11.21,11.21,0,0,0,6.1.48,78.69,78.69,0,0,0,13.14-3.71,7.07,7.07,0,0,0,2.3-1.18c2.89-2.48,5.72-5,8.56-7.57a9.17,9.17,0,0,0,2.51-3.77c2.07-5.83,4.19-11.65,6.17-17.51a24.2,24.2,0,0,0,1.1-5.4c.33-3.35.44-6.72.67-10.08.15-2.07.5-2.31,3-2.18.19.95.42,1.9.57,2.86q.45,2.74.8,5.49a23.73,23.73,0,0,1-.22,8.77,161.64,161.64,0,0,1-7.3,21.3,17.49,17.49,0,0,1-4.77,6.54c-2.28,2-4.56,4.06-6.79,6.15a12.58,12.58,0,0,1-4.71,2.84c-2.79.93-5.53,2-8.36,2.79-4.54,1.24-9.18,2-13.85.68A11.49,11.49,0,0,1,73.48,726a36.74,36.74,0,0,1-8.15-8.85,21.75,21.75,0,0,1-3-7.88A38.42,38.42,0,0,0,60,700.75a20.41,20.41,0,0,1-1.37-8c-.08-6.54-.28-13.09-.08-19.63.15-4.78.87-9.54,1.32-14.32a165.59,165.59,0,0,1,3.37-20.28c.94-4.25,1.57-8.57,2.34-12.85a22.49,22.49,0,0,1,2.56-7A43.48,43.48,0,0,1,82,603.27c5.23-3.49,10.78-6.58,17-8.09,3.7-.9,7.39-1.83,11.1-2.71a4,4,0,0,1,2.22-.26c1.89.81,3.34-.1,4.93-.8a137.09,137.09,0,0,1,29.54-9.25,24.34,24.34,0,0,0,7.74-2.38c.28-.16.63-.42.89-.37,2.89.56,5.16-1.29,7.74-1.91,1.33-.32,2.71-.44,4.44-.71a15.25,15.25,0,0,0,.56-1.68c2-8.47,4.25-16.89,6.9-25.19a25.65,25.65,0,0,1,1.77-4.56c1.83-3.3,2.61-6.89,3.35-10.52a6.89,6.89,0,0,0,.35-1.92c-.23-2.91.74-5.58,1.54-8.29a13.09,13.09,0,0,0,.63-2.86c.51-8.64,2.54-17,4.73-25.32a90,90,0,0,0,3.2-16.05,12.06,12.06,0,0,0-1.36.93c-1.26,1.18-2.49,2.39-4,3.87a80.58,80.58,0,0,1-3.63,26.26c-1,3.43-1.6,7-2.4,10.5-.29,1.27-.7,2.52-1,3.79-.79,3.46-2.9,6-5.41,8.38a4.67,4.67,0,0,1-1.66,1,40.44,40.44,0,0,1-4.72,1.24c-1.83.32-3.15-.26-3.71-1.9a15.61,15.61,0,0,0-3.09-4.94,8.93,8.93,0,0,1-1.79-4.84,6.11,6.11,0,0,0-1.25-3c-.89-1.21-1.58-2.57-2.29-3.74a35.14,35.14,0,0,1-2.93,2.42c-6.24,4.2-12.47,8.41-18.79,12.48-3.38,2.17-6.9,4.14-10.43,6.07a24.77,24.77,0,0,1-5.12,2.11,14,14,0,0,1-4.5.54c-3.26-.15-4.77-1.8-4.7-5a14.74,14.74,0,0,1,.61-3.85A56.53,56.53,0,0,1,113.28,521c.48-.84.93-1.7,1.56-2.88a5.62,5.62,0,0,0-1.67.1c-1.5.65-2.93,1.46-4.44,2.07-4.81,2-9.77,3.06-15,2.28a12.44,12.44,0,0,1-1.91-.39c-4.35-1.37-6.14-5.1-4.24-9.28a23.86,23.86,0,0,1,3.47-5.5c2-2.39,4.4-4.53,6.63-6.76.6-.6,1.24-1.15,1.86-1.72-.53-.91-1.15-.63-1.74-.47-3.47.92-6.9,2.11-10.42,2.68a36.08,36.08,0,0,1-9.11.26c-4.76-.44-6.14-3.56-3.54-7.55a32.47,32.47,0,0,1,7.3-7.9c3.78-2.94,7.64-5.79,11.48-8.66,1.73-1.3,3.49-2.55,5.32-3.89a5.34,5.34,0,0,0-3.69-.53c-3.26.23-6.52.5-9.78.51a55.63,55.63,0,0,1-7.16-.61,14.71,14.71,0,0,1-6.64-2.56,12.74,12.74,0,0,1-2.24-1.89,4,4,0,0,1,.85-6.43,19.68,19.68,0,0,1,3.5-1.74A159.91,159.91,0,0,1,92.2,453.8c1.89-.51,3.82-.9,5.7-1.42a44.77,44.77,0,0,1,15.25-1.1,3.72,3.72,0,0,0,2.75-.57,5.77,5.77,0,0,1,2.72-.85c3.36-.31,6.73-.5,10.29-.75,2.2-2.44,4.54-4.87,6.7-7.46,8.33-9.95,16.59-19.95,24.9-29.91,1.88-2.26,3.83-4.45,5.77-6.7l1.23,1.07c.24-.4.49-.87.8-1.31a85.36,85.36,0,0,0,6.27-9.55c1.72-3.28,3.67-6.43,5.42-9.69,2.53-4.7,4.87-9.49,7.46-14.14a119.59,119.59,0,0,0,5.76-11c1.71-4,3.57-7.94,5.42-11.88s3.76-7.85,5.65-11.76c.56-1.18,1.15-2.34,1.79-3.64-.69-.48-1.3-.89-1.9-1.32-4.55-3.3-8.5-7.15-11-12.3a10.49,10.49,0,0,1-.79-1.79c-1.78-6.7-2.93-13.47-.89-20.31a82.86,82.86,0,0,1,5.85-15.2,22.22,22.22,0,0,1,3.52-4.69q4.72-5,9.67-9.74a27.63,27.63,0,0,1,10.81-6.55,20.38,20.38,0,0,0,2-.89,13.14,13.14,0,0,0-1-1.62c-1-1.18-2-2.31-3-3.44a38.34,38.34,0,0,1-7.17-12c-2.36-6.21-4.62-12.45-7-18.63-1.56-4-1.73-8.06-1.57-12.22a3.24,3.24,0,0,1,1.94-3.15,3.13,3.13,0,0,1,3.6.81,36.57,36.57,0,0,1,3.43,3.93c3,4,5.85,8.15,8.86,12.16,2.09,2.78,4.34,5.46,6.54,8.16a20.73,20.73,0,0,0,1.6,1.55,5.16,5.16,0,0,0,.41-1.44c-.25-1.72-.56-3.44-.87-5.16-1.14-6.38-.47-12.83-.67-19.25,0-1.52.83-2.41,1.86-3.41-1.58-5.63-3.2-11.28-4.73-17-3.1-11.45-6.27-22.89-9.18-34.4-1.62-6.44-2.76-13-4.15-19.49-.71-3.3-1.56-6.57-2.25-9.88-.42-2-.62-4.09-1-6.13a6.38,6.38,0,0,1,2.15-5.87,14.1,14.1,0,0,1,2.83-2.21c9.23-5.34,18.4-10.83,27.77-15.92,15.41-8.36,30.94-16.5,46.95-23.69,7.24-3.25,14.63-6.18,22-9.25a37.6,37.6,0,0,1,8.12-2.43,28.15,28.15,0,0,0,3.46-1,13.54,13.54,0,0,1,5.18-.48,5,5,0,0,1,4.94,4q4.92,15.22,9.89,30.44c.78,2.38,1.73,4.7,2.61,7,6.77,18,13,36.27,18.33,54.81,2,7.12,4.32,14.16,6.5,21.24.29.93.62,1.86,1,3,6.14-2.74,12.31-3.51,18.69-1s10.32,7.05,13,13.32c8.81-10,19.53-17.28,29.85-25,11.95-9,24.06-17.69,36.12-26.49,3.25-2.37,6.59-4.63,10-7a19.56,19.56,0,0,0-2.23-5.94c-1.63-2.83-3.27-5.66-4.89-8.49A47.31,47.31,0,0,1,466,105.1c-.67-3.09-1.31-6.18-1.84-9.29a19.38,19.38,0,0,1-.27-4.23,3.2,3.2,0,0,1,3.89-3.33,8.67,8.67,0,0,1,3.11.9,35.39,35.39,0,0,1,5.46,3.53,42.74,42.74,0,0,1,4.8,4.9c4.92,5.67,10.14,11.1,14.31,17.61a11,11,0,0,0,3.21-3.74c2.64-4.6,6.22-8.41,9.86-12.15,3-3,6.1-5.93,9.25-8.79Q532.66,77,547.64,63.56a60.26,60.26,0,0,1,6.27-4.7,12.73,12.73,0,0,1,7.7-2.3c1.41,0,2.83,0,4.25,0a6.07,6.07,0,0,1,5.93,5.48,17.3,17.3,0,0,1-1,9,45.91,45.91,0,0,1-5.08,8.74,133.21,133.21,0,0,1-20.85,22.06q-7.53,6.53-15.06,13.08c-.48.42-.91.89-1.57,1.55a9.58,9.58,0,0,0,1.66,1c1.65.54,3.36.91,5,1.49a6.57,6.57,0,0,1,4.25,4.64,43.51,43.51,0,0,1,1.25,5.74,92.61,92.61,0,0,1,.67,14c0,2.49.34,5,.56,7.47.1,1.19.32,2.38.45,3.57a14.39,14.39,0,0,1-2.06,9.71c-.77,1.18-1.37,2.47-2.05,3.71A38.58,38.58,0,0,1,525.84,181a77.45,77.45,0,0,0-6.84,5.55c-2.42,2.13-3.76,2.43-6.79,1.09l-1.92-.83a15,15,0,0,0-1.42,1.3c-14.78,17.17-31.72,32.07-49,46.65-22.08,18.67-45.53,35.53-69.51,51.65-6.6,4.43-13.43,8.52-20.09,12.86a8,8,0,0,1-5.52,1.48,4.72,4.72,0,0,0-1.06.12c0,.71,0,1.33,0,2-.05,3.6,0,7.2-.2,10.79a3.74,3.74,0,0,0,1.16,3.22c4.71,4.22,9.45,8.41,15.4,10.87a22.15,22.15,0,0,0,9.23,1.78c1.64,0,3.28.08,4.91,0,5-.31,10,.54,14.93,1.44,1.17.21,2.36.38,3.54.51,2.75.29,4.07,1.87,3.83,4.61a6.82,6.82,0,0,1-1.55,3.55c-1.93,2.5-3.77,5.07-5.79,7.5a28.36,28.36,0,0,1-4.14,4.13,70.41,70.41,0,0,1-7.21,5.08,29.84,29.84,0,0,1-5.68,2.44c-3.5,1.19-7,2.31-10.58,3.32a54.69,54.69,0,0,1-6.7,1.43c-3.44.51-6.92.87-10.38,1.25-1.71.19-3.43.28-5.28.42.22,3.57-.79,6.9-1.84,10.2-1.9,6-3.85,12-5.89,18a34,34,0,0,1-5.71,10.94,10.48,10.48,0,0,0-1.53,3.9c-1.08,4-2.06,8-3.09,12-2.31,9-6.44,17.09-11.32,24.88-1.45,2.31-3,4.54-4.57,6.88a11.78,11.78,0,0,1-.05,2.78,10.11,10.11,0,0,1-1.36,2.37c.81,2.18.06,4.12-1.38,5.94a36.12,36.12,0,0,0-2.4,3.5,5,5,0,0,0-.4,1.39c.3.27.5.56.6.53a3.89,3.89,0,0,1,3.63.86c1.33.95,2.71,1.83,4.05,2.77,6.25,4.42,13.12,7.74,20,11.09,11.15,5.46,22.27,11,32.77,17.64,10,6.37,19.8,13.13,29.41,20.11q9.78,7.11,19.5,14.32c2.61,1.94,5.09,4.06,7.6,6.13a2.22,2.22,0,0,1,.44.82l1,2.41ZM515,182.25c1.34-1.13,3.13-1.77,4-3.61-3,.42-3.46.8-4.05,3.58-1.17,0-1.35.63-1,2.12ZM245.28,250.42l.59.21-.4-.39c-1.3-3-2.71-5.91-3.9-8.93-3.06-7.78-5.84-15.65-8.13-23.69a11.59,11.59,0,0,0-1-1.88,59.61,59.61,0,0,0,2.91,21,30.72,30.72,0,0,0,4.49,9.35C241.24,248,242.75,249.87,245.28,250.42Zm276.17-74.78a3.8,3.8,0,0,0-2,2.61,3.88,3.88,0,0,0,2.73-1.86c1.92-1.42,4-2.69,5.73-4.28,3.89-3.5,6-8.19,8.32-12.78a2.77,2.77,0,0,0,.33-1.24,57.77,57.77,0,0,0-.31-6.85,59.86,59.86,0,0,1-.94-9.06c0-2.18,0-4.36,0-6.54A44,44,0,0,0,534,126a3.63,3.63,0,0,0-2.16-2.67c-2.27-1-4.56-2-6.57-2.8a80.33,80.33,0,0,0-15.68,10c-4.74,3.77-9.58,7.42-14.26,11.75,2.94.35,5.27-.67,7.57-1.5,3.78-1.37,7.47-3,11.21-4.46,3.12-1.23,6.17-2.69,9.53-3.27a3.59,3.59,0,0,1,4,1.44c.74,1.2.45,2.76-.76,4.17a13.13,13.13,0,0,1-6,3.81,11.23,11.23,0,0,0-3,1.27,59,59,0,0,0-8.31,6.82c-1.36,1.41-2.91,2.63-4.33,4a23.28,23.28,0,0,0-1.62,1.92c2,.39,3.51.54,5.07-.19,1.28-.6,2.64-1,3.91-1.63a7.61,7.61,0,0,1,4.49-.38,2.76,2.76,0,0,1,2,4.42,8,8,0,0,1-1.54,1.69c-2,1.69-4.07,3.27-6,5-2.27,2-4.45,4.17-6.63,6.29a2.78,2.78,0,0,0-1.06,2.94,4.5,4.5,0,0,0,3.23,1.17,17.39,17.39,0,0,0,9.2-1.63c1.83-1,3.74-1.74,5.64-2.56a9.42,9.42,0,0,1,1.84-.32C522.86,173,522.15,174.3,521.45,175.64Zm-15.07-30.1c-1.26.31-2.52.57-3.76.93a33.15,33.15,0,0,1-11.22,1.73c-1.84-.11-3.54-.61-4.33-2.4s0-3.45,1.3-4.75c1.6-1.62,3.29-3.17,5.05-4.63,2.51-2.08,5.07-4.11,7.7-6,6.14-4.49,12.16-9.19,19.28-12.12a3.21,3.21,0,0,0,1.7-1.36,16.43,16.43,0,0,1,4.46-5.58c6.22-5.77,12.4-11.61,18.8-17.2a115.22,115.22,0,0,0,14.55-15.41,44,44,0,0,0,6-9.32,12.85,12.85,0,0,0,1.25-6,1.54,1.54,0,0,0-1.64-1.65c-3.54-.18-7,.11-9.92,2.42-2.21,1.76-4.31,3.65-6.42,5.54q-6.23,5.53-12.39,11.13c-.73.66-1.4,1.37-2.13,2-5.51,4.94-11.08,9.83-16.53,14.83a136.16,136.16,0,0,0-11.15,11c-1.28,1.47-2.52,3-3.79,4.47q-1.7,2-3.44,3.92a20.23,20.23,0,0,0-2.4,2.61,6.51,6.51,0,0,1-4,2.75,3.73,3.73,0,0,0-1.33-4,15.64,15.64,0,0,1-2.43-2.65c-3.57-5.24-8-9.75-12.15-14.5-1.64-1.89-3.51-3.58-5.3-5.34a3.41,3.41,0,0,0-2.5-1.05c.33,1.94.57,3.64.9,5.33A56.41,56.41,0,0,0,476.65,118c1.3,2.26,2.52,4.58,3.63,6.94a14.24,14.24,0,0,1,1.24,4,5.52,5.52,0,0,0,1.43,3.51c.95.95.83,1.88,0,2.92a13,13,0,0,1-1.59,1.64c-3.55,3-7,6.17-10.7,9.08-5.62,4.46-11.37,8.78-17.06,13.16-.32.25-.62.55-1.09,1,6.86,7,13.13,14.34,17.27,23.23a68.61,68.61,0,0,1,6.65,28.3c6.4-4.47,11.38-10,16.84-14.87,7.84-7.07,14.42-14.06,15.4-15.93a11.68,11.68,0,0,1-1.68,0,30.23,30.23,0,0,1-4.77-.92c-3.38-1.14-5.65-4.7-3.42-8.68a11.11,11.11,0,0,1,2.17-2.82c2-1.74,4-3.31,6-5a11.68,11.68,0,0,0,1.28-1.57c-1.35,0-2.33,0-3.31,0a6.56,6.56,0,0,1-4-1.11c-3.6-2.34-4.21-6.08-1.27-8.71.73-.65,1.5-1.27,2.2-1.95,1.55-1.5,3.06-3,4.59-4.55.22-.11.72-.08.26-.53ZM280.82,528.42c10.87,18.38,20.76,29.28,38.2,39.52a15,15,0,0,1,2.44-.9,2,2,0,0,1,2.3,1.79,4.39,4.39,0,0,1-1.77,3.62,13.14,13.14,0,0,0-3.07,2.86c-2.85,3.3-5.61,6.68-8.41,10-2.25,2.68-4.53,5.31-6.74,8a4,4,0,0,0-1.14,2.23,46.27,46.27,0,0,0,1,8.74,39,39,0,0,0,4.46,10.13c5.05,8.52,11.57,15.81,18.55,22.73a11.62,11.62,0,0,0,7.52,3.56,45.81,45.81,0,0,1,10.57,2,4.19,4.19,0,0,0,4.64-1.29q28.41-27.81,54.82-57.53c7-7.93,13.87-15.95,20.24-24.41,3.68-4.88,5.67-10.45,7.95-16.09-1.86-1.23-3.6-2.32-5.27-3.51q-13-9.28-26.08-18.61a340.63,340.63,0,0,0-50.65-30.43c-6.08-2.92-12-6.17-17.93-9.4-2.29-1.25-4.36-2.89-6.58-4.28a43.29,43.29,0,0,1-4.51-2.59,36.44,36.44,0,0,1-3.78-4.1c-.74.58-1.53,1.16-2.28,1.78a17.74,17.74,0,0,1-6.32,3.34c-2.6.78-5.26,1.36-7.92,1.95a15,15,0,0,1-2.92.24c-8.4.07-16.79.16-25.18.16a26.59,26.59,0,0,1-5.18-.57c-3.09-.62-6.17-1.31-9.22-2.13-2.51-.68-5-1.51-7.44-2.39A63.05,63.05,0,0,1,232.83,463a5.44,5.44,0,0,0-2.33-1,6.24,6.24,0,0,1-3.31-1.93,17.71,17.71,0,0,0-3.54-2.85c-2.55-1.32-5-2.75-6.62-5.35-.73.64-1.31,1.1-1.84,1.62-4.43,4.36-8.52,9.05-13.46,12.88a11.2,11.2,0,0,0-3.51,5,59.75,59.75,0,0,0-3.33,12.94c-.22,1.51-.34,3-.7,4.52-1.54,6.46-3.18,12.9-4.73,19.36-.43,1.79-.69,3.63-1,5.46-.5,3.44-1,6.9-1.45,10.34a9.63,9.63,0,0,1-.52,1.89,24.23,24.23,0,0,0-1.72,7.93,12.23,12.23,0,0,1-.67,2.86c-.16.63-.61,1.31-.5,1.87.47,2.33-.55,4.3-1.36,6.29-2.24,5.57-3.8,11.36-5.54,17.09q-2.17,7.19-4.39,14.37a4.7,4.7,0,0,1-1,2c-.67.65-1.84.82-2.39,1.52s-.78,2-1.78,2.65a9.47,9.47,0,0,1-1.75.86,61.78,61.78,0,0,1-8,2.81,5.34,5.34,0,0,0-4.13,3.63c-.17.41-.36.8-.52,1.21a184.76,184.76,0,0,0-7.35,23,33.61,33.61,0,0,0-.85,10.38c.1,1.52.49,3,.6,4.53.55,7.15,2.68,13.88,5.24,20.5a11,11,0,0,0,4.31,5.61c3,1.86,5.2,5,8.86,5.86a1.83,1.83,0,0,1,.8.56,3.1,3.1,0,0,0,3.29.72c8.8-2,17.62-4,26.44-5.95,7-1.56,14-3.46,21.18-3.78.18,0,.35-.21.66-.41l.56-1.74c1.21-3.95,2.25-8,3.67-11.84a290.1,290.1,0,0,1,17.39-37.64q11.32-21,22.88-41.87a189,189,0,0,0,15.07-34.67,16.13,16.13,0,0,0,.56-4.17c.11-2.72.06-5.45.14-8.17a9.68,9.68,0,0,1,.44-2.56A2,2,0,0,1,279,508a2.39,2.39,0,0,1,2.14,1.76,14.45,14.45,0,0,1,.59,3.2A46.41,46.41,0,0,1,280.82,528.42ZM251,255.29l15.66-4.6c1.57-.46,3.12-.95,4.69-1.41,5.53-1.63,11.09-3.13,16.57-4.91a168,168,0,0,0,20.39-8.73c1.86-.89,3.76-1.72,5.57-2.71a157.14,157.14,0,0,1,18.57-8.76c6.17-2.42,12.51-4.4,18.75-6.63,5.23-1.86,10.49-3.73,14.95-7.16a34.3,34.3,0,0,1,8-4.33c.56-.24,1.15-.43,1.83-.68a6.4,6.4,0,0,0-.45-1.4c-4.83-7.6-8-15.93-10.69-24.46q-7-22.24-13.89-44.51c-.91-2.91-1.82-5.81-2.79-8.7-3.43-10.2-6.4-20.56-10.92-30.36a7.54,7.54,0,0,1-.34-1.26c-.44-1.79-.82-3.6-1.34-5.37-1.42-4.8-2.9-9.59-4.34-14.38-1.21-4.05-2.41-8.11-3.69-12.4-4.53,1.44-9,2.7-13.32,4.49-8.43,3.52-16.9,7-25.17,10.88-18.23,8.57-36.11,17.83-53.75,27.56-4.67,2.58-9.33,5.18-14,7.75-2.84,1.56-5.71,3.09-8.53,4.62a8.34,8.34,0,0,0,0,1.75q1.61,7.17,3.29,14.32c1.82,7.73,3.46,15.51,5.54,23.18,3.52,13,7.33,26,11,38.95,3.42,12,6.6,24.15,10.81,35.95,2.06,5.74,4,11.51,5.94,17.29C250,251.11,250.37,253,251,255.29Zm46.57,345.55c-2.88,3.18-5.43,6-8,8.81-4.42,5-8.76,10-13.23,14.88-4.17,4.59-8.49,9.05-12.72,13.59-1.48,1.59-2.92,3.23-4.31,4.9a3.27,3.27,0,0,0-.8,1.7c-.28,4.23-.5,8.46-.71,12.69-.05,1,0,2,0,2.94a42.56,42.56,0,0,0,2.27,15.38,7.67,7.67,0,0,1,.33,1.25c.67,3.63,1.28,7.26,2,10.87a104.22,104.22,0,0,0,4.22,14.68c1.5,4.2,3.42,8.22,5.15,12.32a71.16,71.16,0,0,0,7.37,13.39c2.84,4,5.6,8,9.76,10.85,2.34,1.58,4.48,3.49,6.95,4.8,3.45,1.83,7.1,3.29,10.71,4.79,1.79.74,3.69,1.25,5.55,1.82,4.78,1.47,9.69,1.28,14.57.9a54.65,54.65,0,0,0,7.68-1.35,34.64,34.64,0,0,0,7.67-2.64,146.06,146.06,0,0,0,12.82-7.76,30.08,30.08,0,0,0,6.86-6,27.27,27.27,0,0,0,5.95-10.38c.46-1.67,1-3.33,1.59-4.95A24.82,24.82,0,0,0,371,705.86c-.16-1.07-.43-2.14-.5-3.21a36.17,36.17,0,0,0-3.43-13.82c-.76-1.56-1.74-3-2.43-4.61-1.25-2.85-3.52-4.67-6-6.23a7.11,7.11,0,0,0-4-1.09c-2,.07-3.93.09-5.88,0a33.6,33.6,0,0,0-10.31,1.26c-2.72.73-5.46,1.43-8.22,1.94a42.42,42.42,0,0,0-12.93,4.28,25.41,25.41,0,0,1-3.61,1.5,1.88,1.88,0,0,1-2.05-.66,2.36,2.36,0,0,1,.61-3.88c2.2-1.38,4.53-2.57,6.84-3.77,1.15-.59,2.37-1,3.48-1.49a39.38,39.38,0,0,1,6.19-10.89,167.32,167.32,0,0,1,11.79-14.37,5.11,5.11,0,0,0,1.75-3.24,76.06,76.06,0,0,0-8.43-1.36,16.39,16.39,0,0,1-11.07-4.86c-2.53-2.53-4.89-5.25-7.26-8a103.25,103.25,0,0,1-9.19-11.84C302.2,615.35,298.93,608.77,297.54,600.84ZM163.43,417.38c-.72.75-1,1.05-1.29,1.36q-8.74,9.5-17.47,19c-4.18,4.59-9.1,8.45-12.94,13.38a1.41,1.41,0,0,1-.49.42c-2.39,1.13-4.23,3-6.38,4.5-1,.69-2.08,1.8-3.45.41-.21-.21-.84-.15-1.23-.05a8.87,8.87,0,0,1-3.17.14,54.33,54.33,0,0,0-14.63.77,121,121,0,0,0-23.94,7.3c-.93.39-2.06.43-2.87,1.62a25.88,25.88,0,0,0,3.77,1.24,57.5,57.5,0,0,0,6.15.66c4.69.31,9.32-.47,14-.86,2.06-.17,4.12-.35,6.18-.32a6.61,6.61,0,0,1,2.76.84c1.42.71,1.47,2.16,0,2.65-1.84.61-2.77,2-3.82,3.35a19.7,19.7,0,0,1-2.73,3.22c-5.49,4.63-11,9.16-16.57,13.75a18.21,18.21,0,0,0-4,4.9,21.48,21.48,0,0,0,6.71-.38c4.08-1.12,8.17-2.23,12.28-3.2,2.91-.69,5.83-.93,8.28,1.4a9.67,9.67,0,0,0,1.49.92c-1,1.28-1.8,2.45-2.76,3.46-2.32,2.45-4.74,4.81-7.08,7.25a34.28,34.28,0,0,0-6.12,8.41c-.44.88-.91,1.76-.25,2.9a17,17,0,0,0,1.8.29,23.9,23.9,0,0,0,10.87-1.61c2.61-1.09,5.21-2.2,7.84-3.22,2.14-.83,4.33-1.44,6.7-.11l-1.73,2.69c.61,2.52-.07,4.9-.85,7.27-1.26,3.81-2.53,7.62-3.74,11.45a11.13,11.13,0,0,0-.15,2.35c.68-.17,1.09-.24,1.47-.37a48.49,48.49,0,0,0,11-5.73c7.16-4.75,14.26-9.58,21.38-14.39a23.14,23.14,0,0,1,7.67-3.47c.18,0,.4.1.74.19l.33,2.34c2.63,1.9,4.12,4.52,5.5,7.23a1.7,1.7,0,0,1,.21.61,11.73,11.73,0,0,0,4.21,7.79c2.25.36,3.52-1.07,4.4-2.71a25.86,25.86,0,0,0,1.95-5.16c1.48-5.21,2.54-10.53,4.19-15.71,1.7-5.37,3.23-10.83,3.15-16.58a6.4,6.4,0,0,1,1.77-4.77,2.22,2.22,0,0,0,.69-1.07c.3-3.18,2.39-5.56,3.68-8.29a18.07,18.07,0,0,1,3.61-5,46.57,46.57,0,0,0,3.63-4.19,26.83,26.83,0,0,1,5.87-6.07,6.91,6.91,0,0,0,2.83-3.15,6.53,6.53,0,0,0-1.68-.52c-3.33,0-6.41-1.15-9.47-2.25a34.89,34.89,0,0,1-7.14-3.15c-4.79-3.1-8.52-7.43-12.46-11.48a3.53,3.53,0,0,1-.54-.82c-2.75-5.19-5.43-10.41-6.68-16.23C164.57,421,164,419.46,163.43,417.38Zm47.28-81.49c-2.52,4.48-4.72,8.7-6.65,13.08s-4,8.92-6,13.42a116.59,116.59,0,0,1-6,11.6c-2.56,4.54-4.8,9.27-7.32,13.84-2,3.62-4.11,7.18-6.3,10.69-1.5,2.39-3.15,4.7-4.88,6.94-1.45,1.89-3.09,3.65-4.69,5.43a2.45,2.45,0,0,0-.68,2.38c1.11,4.76,2,9.58,3.94,14.12,2.24,5.25,4.74,10.28,9.37,13.92a22.93,22.93,0,0,1,1.85,1.84c2.35,2.31,4.87,4.33,8.16,5.17a35.21,35.21,0,0,1,3.71,1.26c3.71,1.45,7.6,1.74,11.53,1.95a5.07,5.07,0,0,0,4.52-2c4.38-5.31,8.54-10.83,11.46-17.05,3.43-7.31,7.84-14,11.62-21.16,2.75-5.19,5.83-10.2,8.77-15.29.44-.75.9-1.49,1.35-2.24,5.13-8.59,10.81-16.84,15.64-25.63a168.47,168.47,0,0,0,11.29-24.58,10.1,10.1,0,0,0-2.06-10.22,65.85,65.85,0,0,0-9.78,4.39c-6.19,3.19-12.69,5.14-19.76,4.7a42.74,42.74,0,0,0-5.88,0c-6.06.48-11.61-1.29-17-3.66C215,337.9,213,337,210.71,335.89Zm153-36.57a7.83,7.83,0,0,0,1.78-1.21,20.5,20.5,0,0,1,4.66-4.06q22.73-16.28,45.42-32.58c18.33-13.19,35.77-27.49,52.92-42.15a5.81,5.81,0,0,0,2.27-4.74,63.17,63.17,0,0,0-6-28.52c-3.93-8.31-9.67-15.23-16-21.78a5.63,5.63,0,0,0-1.07-.69c-.54.36-1,.64-1.44.95-7.52,5.4-15.1,10.73-22.55,16.23-4.38,3.23-8.55,6.75-12.83,10.11-1.87,1.47-3.39,3.4-5.84,4.07a1.44,1.44,0,0,0-.87,1.89c.12.53.26,1,.39,1.58a16.64,16.64,0,0,1-.13,8.38,48.16,48.16,0,0,1-7.77,16.08c-4.2,5.84-8.56,11.55-12.87,17.31a7.68,7.68,0,0,1-1.6,1.62c-4.25,3-8.45,6.15-13,8.8-1.18.7-2.31,1.16-3.69.53-.39-.18-.95,0-1.48.07a26.11,26.11,0,0,1,.89,11.15,83.41,83.41,0,0,1-4.57,17c-.47,1.21-.86,2.46-1.21,3.71a3.8,3.8,0,0,0,.43,3.11,24.58,24.58,0,0,1,2.17,5.06C362.55,293.73,363,296.3,363.7,299.32Zm-66-19.62a22.79,22.79,0,0,1,5,11.23,13.29,13.29,0,0,1,0,5.82,52,52,0,0,1-5.79,14.47,8.07,8.07,0,0,0,.6,9.12,47.16,47.16,0,0,1,5.61,8.77C304.54,332.17,311.26,340,314,342a8.92,8.92,0,0,0,.82.54,16.77,16.77,0,0,1,4.56,4.13,13.63,13.63,0,0,0,3.44,3.46c3.78,2.37,7.7,4.49,11.56,6.71,4.14.85,8.15,2.27,12.48,2.13s8.93,0,13.4,0a39.08,39.08,0,0,0,3.9-.26c3.13-.32,6.26-.69,9.39-1.05a18.28,18.28,0,0,0,2.89-.4c5.64-1.6,11.26-3.25,16.88-4.91a6.34,6.34,0,0,0,1.76-.84q3.9-2.69,7.74-5.44a6.64,6.64,0,0,0,1.45-1.29c2-2.58,3.9-5.19,5.94-7.91a5.65,5.65,0,0,0-1.26-.63c-4.82-.8-9.62-1.82-14.56-1.48-1.84.12-3.7,0-5.55,0a28.23,28.23,0,0,1-9.86-1.9c-5.46-1.94-9.86-5.48-14.15-9.19a7.51,7.51,0,0,1-1.69-2.35,9.75,9.75,0,0,0-3.83-4.36,7.22,7.22,0,0,1-2.73-3.1c-2.09-3.77-2.9-7.95-3.92-12.05a20.84,20.84,0,0,1-.42-3.87c-.28-4.61.7-9.08,1.48-13.58a26.73,26.73,0,0,1,2.07-7.17c2.61-5.48,3.71-11.34,4.61-17.25a11.76,11.76,0,0,0-.2-4.84c-.56-2-1.48-3.83-1.66-5.94a4.82,4.82,0,0,0-.86-2.09A2.24,2.24,0,0,0,355,246a10.88,10.88,0,0,0-.75,2,25.56,25.56,0,0,1-2.66,7c-2.05,4.11-4.83,7.73-7.42,11.5s-6.26,6.24-10.38,8.11c-4.28,1.93-8.82,3-13.29,4.4a20.52,20.52,0,0,1-6.44.8c-4.68-.09-9.37,0-14.05-.07Zm-60.17,56.43c3.53-.15,6.27-.11,9-.43,3.6-.44,6.86-2,10.11-3.56q4.27-2,8.58-4c2.68-1.21,5.4-2.33,8.07-3.53a23.39,23.39,0,0,0,6.53-4.27c2.47-2.3,5-4.52,7.34-7,2.13-2.3,4.5-4.48,5.8-7.43,1.09-2.49,2.17-5,3.15-7.52a11.65,11.65,0,0,0,.92-5.75c-.75-5.86-4-10.24-8.36-13.91-1.33-1.11-2.76-2.11-4.13-3.19a25.21,25.21,0,0,0-13.58-5.84,18.12,18.12,0,0,1-5.64-1.5,14.93,14.93,0,0,0-7.63-1.19,7.15,7.15,0,0,1-4.67-1,10.28,10.28,0,0,0-5.6-1.47c-2.06,0-4.12-.34-6.18-.39-6.21-.13-12.36-.06-18.2,2.7a32.55,32.55,0,0,0-9.28,6c-3,3-6,6-8.88,9.13a18.61,18.61,0,0,0-2.66,3.69c-2.28,4.12-3.6,8.63-5.07,13.05-1.9,5.7-1,11.46.64,17a15.49,15.49,0,0,0,3.06,5.33,29.53,29.53,0,0,0,13,9.06c1.43.51,2.82,1.42,4.28,1.53,1.78.14,2.82,1.44,4.29,2a21.7,21.7,0,0,0,6.56,1.81C232.05,335.69,235.19,336,237.53,336.13Zm58.29,47.28c-2.93-.5-5.69-1.08-8.49-1.43-3-.37-5.56-1.83-8.24-2.94-2.53-1-5.44-1.41-7.57-3.57l2.44-3.41,5.83,2.21a18,18,0,0,0,3,1.19c5.24,1,10.48,2,15.85,1.89,3.05-.06,6.1-.11,9.15-.05a47,47,0,0,0,9.1-.73c2.75-.49,5.51-.95,8.26-1.43.59-5.24,2-10.19,1.92-15.31-1.32-.7-2.46-1.34-3.63-1.89a23.85,23.85,0,0,1-8.82-7.11,6.37,6.37,0,0,0-1.55-1.67c-4.14-2.55-7.31-6.08-10.43-9.75a39.65,39.65,0,0,1-5.88-8.57,37.83,37.83,0,0,0-2.3-3.94c-.53-.82-1.23-1.53-1.79-2.33a22.1,22.1,0,0,1-1.56-2.49c-.41-.81-.69-1.7-1.08-2.7l-9.3,8.56c-.34,2-.73,4.35-1.13,6.71-.64,3.88-2.18,7.5-3.41,11.21-1,2.88-2.05,5.73-3.22,8.54-1.25,3-2.64,6-4,8.94-.4.9-.78,1.8-1.23,2.67-4.46,8.36-9.44,16.41-14.52,24.39-2.87,4.51-5.58,9.09-8.1,13.79-1.7,3.16-3.68,6.17-5.51,9.26q-3.15,5.34-6.23,10.72c-.69,1.2-1.27,2.47-1.88,3.69A29.9,29.9,0,0,1,235,430c2.75,2.29,5.41,4.7,8.12,7.06a12.77,12.77,0,0,0,2.27,1.85,13.58,13.58,0,0,1,3.47,2.92c1.05,1.11,2.11,2.21,3.21,3.26a12,12,0,0,0,4.13,2.56c3.34,1.3,6.64,2.71,10,4,1.61.65,3.23,1.29,4.88,1.86a15.88,15.88,0,0,0,2.25.42c1.59-4.25,3.36-8.25,4.55-12.41a174.63,174.63,0,0,1,5.58-17,52,52,0,0,0,3-10.65,17.38,17.38,0,0,1,.68-2.85c2.95-8.53,5.88-17.06,8.3-25.76C295.65,384.69,295.7,384.06,295.82,383.41Zm43.09-155.53a91.64,91.64,0,0,0-11.37,4.59q-6.23,3.21-12.57,6.22c-4.23,2-8.58,3.76-12.76,5.85C293.47,248.9,284,251,274.76,254c-3.52,1.12-7.15,1.9-10.71,2.87a20.49,20.49,0,0,0-2.35.93c-.07,1.44-.51,2.7-.2,3.77,2.28.69,4.34,1.33,6.41,1.92a14,14,0,0,0,2.86.58,31.19,31.19,0,0,1,16,6.08c1.56,1.11,2.86,2.77,5.11,2.42a.85.85,0,0,1,.6.24c1.46,1.27,3.25,1.1,5,1.09,5,0,10-.07,15,0a22,22,0,0,0,7.38-1.12c2.68-.91,5.38-1.74,8.06-2.65,4.49-1.52,8.48-3.62,11.61-7.46a72.72,72.72,0,0,0,8.55-13A31.76,31.76,0,0,1,343.6,240C342.56,235.83,341.45,231.67,338.91,227.88ZM372.2,184c.25.81.46,1.65.77,2.46,1.78,4.68,3.59,9.34,5.37,14,1.42,3.72,1.44,3.75-.54,7.21a8.48,8.48,0,0,1-2,2.49c-2.06,1.6-4.21,3.08-6.38,4.52-3.27,2.15-6.48,4.49-10.28,5.59-2.93.86-5.89,1.51-8.43,3.32a7.65,7.65,0,0,1-1.83.66c-1.43.54-2.86,1-4.27,1.64a10.73,10.73,0,0,0-1.52,1,26.89,26.89,0,0,1,4.35,10c.55,2.09,1.34,4.13,2,6.18.05.17.27.28.45.46l.92-1.49c2.94-1.18,5.53.68,8.3.58.55,0,1.11.63,1.67,1s.94.76,1.39.75c1.64-.06,2.74,1.1,4,1.76,1.1-.67,2-1.23,2.95-1.81,5.54-3.5,10.89-7.21,14.52-12.87.35-.54.82-1,1.22-1.53,2.59-3.37,5.28-6.66,7.73-10.12a40,40,0,0,0,6.83-14.35,10.39,10.39,0,0,0-.07-6.1c-1-2.74-2.09-5.48-3.3-8.15a13.17,13.17,0,0,0-4.55-5.47,18.76,18.76,0,0,0-14.28-3.22C375.52,182.74,373.7,182.73,372.2,184ZM229.81,431.38c-1.43,2.57-2.62,4.89-4,7.1s-2.94,4.3-4.43,6.45c-.37.53-.77,1.05-1.11,1.61a2.1,2.1,0,0,0,.26,2.95,9.65,9.65,0,0,0,3.52,2.84c2.47,1,4.84,2.3,7.26,3.43,3.22,1.5,6.06,3.8,9.09,5.71a51,51,0,0,0,5.62,3.27c2.36,1.09,4.83,1.92,7.29,2.78a59.07,59.07,0,0,0,6.2,1.9c2.74.63,5.54.94,8.28,1.68,2.23.6,4.55,1.5,6.82.68.75-3.11,1.45-6,2.2-9.18a9,9,0,0,0-1.48-.92c-3.14-1.21-6.34-2.27-9.44-3.57-3.39-1.43-6.61-3.34-10.07-4.56a21.63,21.63,0,0,1-10.94-8.84,14.79,14.79,0,0,0-4.17-4.06,15.45,15.45,0,0,1-5-4.58,28.11,28.11,0,0,0-2.22-2.8A4.82,4.82,0,0,0,229.81,431.38ZM318.69,414,292.55,412c-.26,1-.53,1.9-.75,2.83-.36,1.59-.54,3.23-1.05,4.76-1.25,3.82-2.64,7.58-4,11.37a21,21,0,0,0-1.7,6.31c2.49.72,4.84,1.52,7.26,2.06a32.31,32.31,0,0,0,5.47.66c4.23.22,8.46-.54,12.69,0a5.39,5.39,0,0,0,1.22-.21,26.59,26.59,0,0,0,1.1-3.23,116.85,116.85,0,0,1,4.41-14.64A28.22,28.22,0,0,0,318.69,414Zm9-32.59a35.56,35.56,0,0,0-7.52.67,54.53,54.53,0,0,1-12.61,1.26c-1.63-.06-3.26-.05-4.89,0-.73,0-1.46.12-2.27.19-2,7.74-4,15.36-6,23.08a9,9,0,0,0,3.68.63c4.34.17,8.68.43,13,.57,3.13.11,6.29.34,9.36-.65C324.06,398.92,325.88,390.25,327.71,381.4Zm25.94-10.51c-3,1.4-5.53,2.26-7.71,3.64a32.55,32.55,0,0,1-9.54,4.11c-1.75.45-3.63.67-5.22,1.85A70.43,70.43,0,0,1,326.44,406c1.07-.13,1.81-.14,2.51-.3q4.13-1,8.24-2a3.39,3.39,0,0,1,3.57,1c.27.29.42.81,1.12.49.46-4,2.65-7.45,3.9-11.26s2.56-7.41,3.79-11.13S352.53,375.36,353.65,370.89ZM309.05,445a15.72,15.72,0,0,0-5.57-.25c-4.69.28-9.35.17-13.87-1.41-1.93-.69-3.89-1.31-5.87-2-1,2.53-2.06,4.91-2.78,7.4s-2.3,4.53-3.64,6.82a16.36,16.36,0,0,0,7.36,2.15c5,.17,10,.27,15,.36a15.2,15.2,0,0,0,5.32-.93c-.53-3.28.86-6,2.44-8.62A34.18,34.18,0,0,0,309.05,445ZM248.14,258.57c-1.27-.8-2.54-1.57-3.8-2.38a85,85,0,0,1-9.55-7.38A110.72,110.72,0,0,1,220.6,234c-3.72-4.68-7-9.66-10.56-14.5a17.41,17.41,0,0,0-1.42-1.39c.35,1.24.45,1.76.64,2.26,2.27,6.11,4.5,12.23,6.85,18.31a63.65,63.65,0,0,0,3.45,7.73c2.51,4.6,6.06,8.44,9.21,12.25a30.79,30.79,0,0,0,4.84-.05,27.78,27.78,0,0,1,7.78,0A63.23,63.23,0,0,0,248.14,258.57Zm76.43,154.3a10.59,10.59,0,0,0-.52,1.92,52.54,52.54,0,0,1-3.74,14.79,50.81,50.81,0,0,0-2.34,9.87h9.48a82.34,82.34,0,0,0,7.42-14.93c1.89-5,3.66-10,5.46-15,.06-.15-.07-.37-.13-.66Zm5.28-38.67a33.46,33.46,0,0,0,8.07-2c4.32-1.72,8.49-3.83,12.72-5.8.46-.21,1-.52.59-1.25-3.23-.12-6.5,0-9.71-.42s-6.52-1.36-10.06-2.13C331.11,366.53,330.25,370.17,329.85,374.2ZM282,463.69c-.84,2.81-2.16,5.21-1.74,8a45.52,45.52,0,0,0,11.18.07c.74-2,1.47-3.89,2.14-5.81a7.78,7.78,0,0,0,.2-1.54Zm33.33-18.86c-.92,1.91-1.81,3.65-2.61,5.43s-2,3.22-2.55,5.37l7.79-1.94a4.51,4.51,0,0,0,3.31-2.82,49.69,49.69,0,0,1,2.5-4.58c.35-.65.66-1.33,1.1-2.21-2.59.15-4.94.27-7.3.42C316.92,444.54,316.28,444.69,315.32,444.83Zm-19,19.63c.23,1.36.49,2.53.62,3.71s.13,2.3.2,3.56a18.42,18.42,0,0,0,8-1.55c.41-1.71.82-3.28,1.14-4.88a9.07,9.07,0,0,0,0-1.81Zm15.29,3.42c.91-.68,1.45-.9,1.72-1.3,1.47-2.21,3.55-4,4.86-6.74-2.29.16-4.21.43-5.86,1.53C312.07,463.42,311.86,465.3,311.58,467.88Zm47.49-162.74c.24-6.94-.24-10.49-1.77-13C357.42,296.46,356.47,300.71,359.07,305.14ZM256.91,262.09c.07-1.46.11-2.5.16-3.6-2.36-.6-4.39.17-6.38.56ZM125.07,452.73a21.14,21.14,0,0,0-5.17-.21,11.32,11.32,0,0,1,1.55,1.45,11.88,11.88,0,0,1,.88,2C123.49,454.89,124.53,454.18,125.07,452.73ZM229.89,236c0,.08-.13.17-.11.22s.13.17.2.25l.14-.46Z"/><path class="cls-2" d="M122.2,670.46c-2.49-.13-2.84.11-3,2.18-.23,3.36-.34,6.73-.67,10.08a24.2,24.2,0,0,1-1.1,5.4c-2,5.86-4.1,11.68-6.17,17.51a9.17,9.17,0,0,1-2.51,3.77c-2.84,2.55-5.67,5.09-8.56,7.57a7.07,7.07,0,0,1-2.3,1.18,78.69,78.69,0,0,1-13.14,3.71,11.21,11.21,0,0,1-6.1-.48,8.34,8.34,0,0,1-2.27-1.24c-4.38-3.67-7.62-8-8.28-13.93a25.2,25.2,0,0,0-2-7.19,14.75,14.75,0,0,1-1.25-6c0-7.09-.06-14.18.06-21.26,0-2.92.47-5.84.79-8.76.3-2.69.75-5.37,1-8.07.43-4.32,1.19-8.59,2-12.85,1-5.1,1.78-10.25,2.69-15.38a11.87,11.87,0,0,1,.91-3.44c1.73-3.27,3.41-6.6,6.05-9.25,2.22-2.24,4.57-4.35,6.95-6.42A15.51,15.51,0,0,1,88.12,606a26.72,26.72,0,0,0,2.61-1.34c4.33-3,9.28-4.06,14.34-5a84.19,84.19,0,0,0,8.79-2.31c6.34-1.9,12.63-4,19-5.77,4.17-1.17,8.44-2,12.68-2.88a14.83,14.83,0,0,1,2.17-.12,59.79,59.79,0,0,1-3.1,8,95.89,95.89,0,0,0-6.25,20.85,24.67,24.67,0,0,0-.11,7.18,151.25,151.25,0,0,0,2.51,15.72,92.4,92.4,0,0,0,4.33,13,15.54,15.54,0,0,0,4.83,6.06c1.65,1.38,3.76,2.2,5.08,4-2,1.31-3.14,1.6-4.73.7-3.15-1.79-6.51-1.58-9.85-1.19a20.37,20.37,0,0,1-7.74-.17,7.13,7.13,0,0,0-5.11.28,2.7,2.7,0,0,1-1.24.3c-3.91-.1-7.83.35-11.71-.52-2.43-.55-4.9-.92-7.36-1.35a2,2,0,1,0-1.19,3.77,43.45,43.45,0,0,0,5.18,1.91,42,42,0,0,0,11.27,1.51Z"/><path class="cls-3" d="M438.36,545.91l.27-1.3c.32.23.76.4.92.72s.13.94-.06,1.08C439,546.75,438.53,546.55,438.36,545.91Z"/><path class="cls-4" d="M280.82,528.42a46.41,46.41,0,0,0,.93-15.48,14.45,14.45,0,0,0-.59-3.2A2.39,2.39,0,0,0,279,508a2,2,0,0,0-2.31,1.39,9.68,9.68,0,0,0-.44,2.56c-.08,2.72,0,5.45-.14,8.17a16.13,16.13,0,0,1-.56,4.17,189,189,0,0,1-15.07,34.67Q249,579.82,237.62,600.81a290.1,290.1,0,0,0-17.39,37.64c-1.42,3.88-2.46,7.89-3.67,11.84L216,652c-.31.2-.48.4-.66.41-7.23.32-14.18,2.22-21.18,3.78-8.82,2-17.64,3.92-26.44,5.95a3.1,3.1,0,0,1-3.29-.72,1.83,1.83,0,0,0-.8-.56c-3.66-.88-5.85-4-8.86-5.86a11,11,0,0,1-4.31-5.61c-2.56-6.62-4.69-13.35-5.24-20.5-.11-1.51-.5-3-.6-4.53a33.61,33.61,0,0,1,.85-10.38,184.76,184.76,0,0,1,7.35-23c.16-.41.35-.8.52-1.21a5.34,5.34,0,0,1,4.13-3.63,61.78,61.78,0,0,0,8-2.81,9.47,9.47,0,0,0,1.75-.86c1-.61,1.13-1.84,1.78-2.65s1.72-.87,2.39-1.52a4.7,4.7,0,0,0,1-2q2.22-7.18,4.39-14.37c1.74-5.73,3.3-11.52,5.54-17.09.81-2,1.83-4,1.36-6.29-.11-.56.34-1.24.5-1.87a12.23,12.23,0,0,0,.67-2.86,24.23,24.23,0,0,1,1.72-7.93A9.63,9.63,0,0,0,187,524c.5-3.44,1-6.9,1.45-10.34.28-1.83.54-3.67,1-5.46,1.55-6.46,3.19-12.9,4.73-19.36.36-1.48.48-3,.7-4.52a59.75,59.75,0,0,1,3.33-12.94,11.2,11.2,0,0,1,3.51-5c4.94-3.83,9-8.52,13.46-12.88.53-.52,1.11-1,1.84-1.62,1.67,2.6,4.07,4,6.62,5.35a17.71,17.71,0,0,1,3.54,2.85A6.24,6.24,0,0,0,230.5,462a5.44,5.44,0,0,1,2.33,1,63.05,63.05,0,0,0,18.31,9.88c2.45.88,4.93,1.71,7.44,2.39,3.05.82,6.13,1.51,9.22,2.13A26.59,26.59,0,0,0,273,478c8.39,0,16.78-.09,25.18-.16a15,15,0,0,0,2.92-.24c2.66-.59,5.32-1.17,7.92-1.95a17.74,17.74,0,0,0,6.32-3.34c.75-.62,1.54-1.2,2.28-1.78a36.44,36.44,0,0,0,3.78,4.1,43.29,43.29,0,0,0,4.51,2.59c2.22,1.39,4.29,3,6.58,4.28,5.92,3.23,11.85,6.48,17.93,9.4a340.63,340.63,0,0,1,50.65,30.43q13,9.3,26.08,18.61c1.67,1.19,3.41,2.28,5.27,3.51-2.28,5.64-4.27,11.21-7.95,16.09-6.37,8.46-13.24,16.48-20.24,24.41q-26.34,29.79-54.82,57.53a4.19,4.19,0,0,1-4.64,1.29,45.81,45.81,0,0,0-10.57-2,11.62,11.62,0,0,1-7.52-3.56c-7-6.92-13.5-14.21-18.55-22.73a39,39,0,0,1-4.46-10.13,46.27,46.27,0,0,1-1-8.74,4,4,0,0,1,1.14-2.23c2.21-2.7,4.49-5.33,6.74-8,2.8-3.34,5.56-6.72,8.41-10a13.14,13.14,0,0,1,3.07-2.86,4.39,4.39,0,0,0,1.77-3.62,2,2,0,0,0-2.3-1.79,15,15,0,0,0-2.44.9C301.58,557.7,291.69,546.8,280.82,528.42Z"/><path class="cls-5" d="M251,255.29c-.6-2.27-1-4.18-1.61-6-1.93-5.78-3.88-11.55-5.94-17.29-4.21-11.8-7.39-23.91-10.81-35.95-3.69-13-7.5-25.93-11-38.95-2.08-7.67-3.72-15.45-5.54-23.18q-1.68-7.16-3.29-14.32a8.34,8.34,0,0,1,0-1.75c2.82-1.53,5.69-3.06,8.53-4.62,4.67-2.57,9.33-5.17,14-7.75,17.64-9.73,35.52-19,53.75-27.56C297.29,74,305.76,70.54,314.19,67c4.3-1.79,8.79-3,13.32-4.49,1.28,4.29,2.48,8.35,3.69,12.4,1.44,4.79,2.92,9.58,4.34,14.38.52,1.77.9,3.58,1.34,5.37a7.54,7.54,0,0,0,.34,1.26c4.52,9.8,7.49,20.16,10.92,30.36,1,2.89,1.88,5.79,2.79,8.7q6.94,22.25,13.89,44.51c2.68,8.53,5.86,16.86,10.69,24.46a6.4,6.4,0,0,1,.45,1.4c-.68.25-1.27.44-1.83.68a34.3,34.3,0,0,0-8,4.33c-4.46,3.43-9.72,5.3-14.95,7.16-6.24,2.23-12.58,4.21-18.75,6.63a157.14,157.14,0,0,0-18.57,8.76c-1.81,1-3.71,1.82-5.57,2.71a168,168,0,0,1-20.39,8.73c-5.48,1.78-11,3.28-16.57,4.91-1.57.46-3.12.95-4.69,1.41ZM329.65,96.86c-1.58.77-2.87,1.35-4.11,2-3.07,1.64-6.15,3.26-9.15,5-6.33,3.69-13.2,6.13-19.91,8.94a112.05,112.05,0,0,1-17.13,5.23,68.92,68.92,0,0,0-19.7,8.47,12.26,12.26,0,0,1-2,1.16c-3.28,1.22-6.21,3.12-9.31,4.69a6.12,6.12,0,0,0-3.61,6c0,3.05,0,6.11,0,9.16a15,15,0,0,0,1.61,6.92,10.37,10.37,0,0,1,1.16,3,35.63,35.63,0,0,0,4.32,12.26c.21.37.34.8.52,1.19a36.14,36.14,0,0,0,2.25,4.69c3,4.51,3.07,4.46,7.86,4.41a10.1,10.1,0,0,0,2.27-.2c4.66-1.07,9.41-1.83,13.62-4.34a15.55,15.55,0,0,1,3.32-1.36,53.4,53.4,0,0,0,8.06-3.51c2.53-1.27,5.13-2.39,7.69-3.58,1.19-.55,2.38-1.09,3.56-1.65,4.42-2.1,8.8-4.28,13.27-6.28a77.47,77.47,0,0,0,10.63-5.69c2.92-1.89,6-3.59,8.92-5.43,2.66-1.66,5.27-3.39,8-5.12a26.79,26.79,0,0,0-.53-2.74,117.52,117.52,0,0,1-3.15-14c-.94-5-1.91-10.06-3.15-15A61.91,61.91,0,0,0,329.65,96.86ZM275.51,202.69a32.29,32.29,0,0,0-2.17-8.64,4,4,0,0,0-.71-1.08,1.81,1.81,0,0,0-2-.69,2.13,2.13,0,0,0-1.62,1.84,3.16,3.16,0,0,0,0,1c.65,3,1.26,5.95,2,8.89.44,1.78,1.39,2.57,2.58,2.46S275.53,205.19,275.51,202.69Zm73.25-11.06a12.85,12.85,0,0,0,0,8.59c.53,1.74,1.53,2.64,2.56,2.45s1.92-1.39,2.15-2.95c0-.32.06-.64.07-1C353.58,195.46,351.84,193.36,348.76,191.63ZM294,184.09c-.94,2.68-1,3.1-.5,4.6.43,1.33.77,2.7,1.28,4a11.84,11.84,0,0,0,1.55,2.78c.3.39,1,.46,1.6.68C299.24,190.92,298,187.1,294,184.09Zm9.17,24a9.61,9.61,0,0,0-1.18,8.17,5.48,5.48,0,0,0,1.22,1.89,1.74,1.74,0,0,0,2.08.49,1.77,1.77,0,0,0,1.23-1.76A14.5,14.5,0,0,0,303.13,208.11Zm15.58-35.83a7.75,7.75,0,0,0-.29,5.69,17.1,17.1,0,0,0,1.78,3.42,1.66,1.66,0,0,0,2.05.54,1.86,1.86,0,0,0,1.27-2.05,20.39,20.39,0,0,0-1.6-4.9A4.65,4.65,0,0,0,318.71,172.28Zm25.12-6.56a6.71,6.71,0,0,0-1.42,5.77,6.61,6.61,0,0,0,.73,1.78,2,2,0,0,0,2.15,1.1,2,2,0,0,0,1.53-2.17A9,9,0,0,0,343.83,165.72Zm-63.07,58.34c.12-3-.92-4.64-2.84-5.08a1.17,1.17,0,0,0-1.55.79,8,8,0,0,0,1.13,6.17,1.34,1.34,0,0,0,2.21.12A12.89,12.89,0,0,0,280.76,224.06Zm42.15-24.43c-.26.37-.6.63-.59.88a31.11,31.11,0,0,0,.46,4.84,4.94,4.94,0,0,0,1.52,2.39,1.77,1.77,0,0,0,2.9-1.24,4,4,0,0,0-.24-1.91A11.86,11.86,0,0,0,322.91,199.63Z"/><path class="cls-2" d="M297.54,600.84c1.39,7.93,4.66,14.51,8.72,20.74a103.25,103.25,0,0,0,9.19,11.84c2.37,2.7,4.73,5.42,7.26,8a16.39,16.39,0,0,0,11.07,4.86,76.06,76.06,0,0,1,8.43,1.36,5.11,5.11,0,0,1-1.75,3.24,167.32,167.32,0,0,0-11.79,14.37,39.38,39.38,0,0,0-6.19,10.89c-1.11.47-2.33.9-3.48,1.49-2.31,1.2-4.64,2.39-6.84,3.77a2.36,2.36,0,0,0-.61,3.88,1.88,1.88,0,0,0,2.05.66,25.41,25.41,0,0,0,3.61-1.5,42.42,42.42,0,0,1,12.93-4.28c2.76-.51,5.5-1.21,8.22-1.94a33.6,33.6,0,0,1,10.31-1.26c1.95.08,3.92.06,5.88,0a7.11,7.11,0,0,1,4,1.09c2.52,1.56,4.79,3.38,6,6.23.69,1.59,1.67,3,2.43,4.61a36.17,36.17,0,0,1,3.43,13.82c.07,1.07.34,2.14.5,3.21a24.82,24.82,0,0,1-1.71,12.46c-.6,1.62-1.13,3.28-1.59,4.95a27.27,27.27,0,0,1-5.95,10.38,30.08,30.08,0,0,1-6.86,6,146.06,146.06,0,0,1-12.82,7.76,34.64,34.64,0,0,1-7.67,2.64,54.65,54.65,0,0,1-7.68,1.35c-4.88.38-9.79.57-14.57-.9-1.86-.57-3.76-1.08-5.55-1.82-3.61-1.5-7.26-3-10.71-4.79-2.47-1.31-4.61-3.22-6.95-4.8-4.16-2.81-6.92-6.85-9.76-10.85a71.16,71.16,0,0,1-7.37-13.39c-1.73-4.1-3.65-8.12-5.15-12.32a104.22,104.22,0,0,1-4.22-14.68c-.72-3.61-1.33-7.24-2-10.87a7.67,7.67,0,0,0-.33-1.25,42.56,42.56,0,0,1-2.27-15.38c0-1-.05-2,0-2.94.21-4.23.43-8.46.71-12.69a3.27,3.27,0,0,1,.8-1.7c1.39-1.67,2.83-3.31,4.31-4.9,4.23-4.54,8.55-9,12.72-13.59,4.47-4.91,8.81-9.93,13.23-14.88C292.11,606.82,294.66,604,297.54,600.84Z"/><path class="cls-6" d="M163.43,417.38c.6,2.08,1.14,3.62,1.47,5.19,1.25,5.82,3.93,11,6.68,16.23a3.53,3.53,0,0,0,.54.82c3.94,4.05,7.67,8.38,12.46,11.48a34.89,34.89,0,0,0,7.14,3.15c3.06,1.1,6.14,2.23,9.47,2.25a6.53,6.53,0,0,1,1.68.52,6.91,6.91,0,0,1-2.83,3.15,26.83,26.83,0,0,0-5.87,6.07,46.57,46.57,0,0,1-3.63,4.19,18.07,18.07,0,0,0-3.61,5c-1.29,2.73-3.38,5.11-3.68,8.29a2.22,2.22,0,0,1-.69,1.07,6.4,6.4,0,0,0-1.77,4.77c.08,5.75-1.45,11.21-3.15,16.58-1.65,5.18-2.71,10.5-4.19,15.71A25.86,25.86,0,0,1,171.5,527c-.88,1.64-2.15,3.07-4.4,2.71a11.73,11.73,0,0,1-4.21-7.79,1.7,1.7,0,0,0-.21-.61c-1.38-2.71-2.87-5.33-5.5-7.23l-.33-2.34c-.34-.09-.56-.23-.74-.19a23.14,23.14,0,0,0-7.67,3.47c-7.12,4.81-14.22,9.64-21.38,14.39a48.49,48.49,0,0,1-11,5.73c-.38.13-.79.2-1.47.37a11.13,11.13,0,0,1,.15-2.35c1.21-3.83,2.48-7.64,3.74-11.45.78-2.37,1.46-4.75.85-7.27l1.73-2.69c-2.37-1.33-4.56-.72-6.7.11-2.63,1-5.23,2.13-7.84,3.22a23.9,23.9,0,0,1-10.87,1.61,17,17,0,0,1-1.8-.29c-.66-1.14-.19-2,.25-2.9a34.28,34.28,0,0,1,6.12-8.41c2.34-2.44,4.76-4.8,7.08-7.25,1-1,1.75-2.18,2.76-3.46a9.67,9.67,0,0,1-1.49-.92c-2.45-2.33-5.37-2.09-8.28-1.4-4.11,1-8.2,2.08-12.28,3.2a21.48,21.48,0,0,1-6.71.38,18.21,18.21,0,0,1,4-4.9c5.52-4.59,11.08-9.12,16.57-13.75a19.7,19.7,0,0,0,2.73-3.22c1-1.38,2-2.74,3.82-3.35,1.46-.49,1.41-1.94,0-2.65a6.61,6.61,0,0,0-2.76-.84c-2.06,0-4.12.15-6.18.32-4.65.39-9.28,1.17-14,.86a57.5,57.5,0,0,1-6.15-.66,25.88,25.88,0,0,1-3.77-1.24c.81-1.19,1.94-1.23,2.87-1.62a121,121,0,0,1,23.94-7.3,54.33,54.33,0,0,1,14.63-.77,8.87,8.87,0,0,0,3.17-.14c.39-.1,1-.16,1.23.05,1.37,1.39,2.45.28,3.45-.41,2.15-1.46,4-3.37,6.38-4.5a1.41,1.41,0,0,0,.49-.42c3.84-4.93,8.76-8.79,12.94-13.38q8.72-9.53,17.47-19C162.42,418.43,162.71,418.13,163.43,417.38Z"/><path class="cls-4" d="M210.71,335.89c2.29,1.06,4.24,2,6.23,2.87,5.43,2.37,11,4.14,17,3.66a42.74,42.74,0,0,1,5.88,0c7.07.44,13.57-1.51,19.76-4.7a65.85,65.85,0,0,1,9.78-4.39,10.1,10.1,0,0,1,2.06,10.22,168.47,168.47,0,0,1-11.29,24.58c-4.83,8.79-10.51,17-15.64,25.63-.45.75-.91,1.49-1.35,2.24-2.94,5.09-6,10.1-8.77,15.29-3.78,7.11-8.19,13.85-11.62,21.16-2.92,6.22-7.08,11.74-11.46,17.05a5.07,5.07,0,0,1-4.52,2c-3.93-.21-7.82-.5-11.53-1.95a35.21,35.21,0,0,0-3.71-1.26c-3.29-.84-5.81-2.86-8.16-5.17a22.93,22.93,0,0,0-1.85-1.84c-4.63-3.64-7.13-8.67-9.37-13.92-1.94-4.54-2.83-9.36-3.94-14.12a2.45,2.45,0,0,1,.68-2.38c1.6-1.78,3.24-3.54,4.69-5.43,1.73-2.24,3.38-4.55,4.88-6.94,2.19-3.51,4.31-7.07,6.3-10.69,2.52-4.57,4.76-9.3,7.32-13.84a116.59,116.59,0,0,0,6-11.6c1.93-4.5,4-8.94,6-13.42S208.19,340.37,210.71,335.89Z"/><path class="cls-4" d="M363.7,299.32c-.69-3-1.15-5.59-1.89-8.08a24.58,24.58,0,0,0-2.17-5.06,3.8,3.8,0,0,1-.43-3.11c.35-1.25.74-2.5,1.21-3.71a83.41,83.41,0,0,0,4.57-17,26.11,26.11,0,0,0-.89-11.15c.53,0,1.09-.25,1.48-.07,1.38.63,2.51.17,3.69-.53,4.51-2.65,8.71-5.77,13-8.8a7.68,7.68,0,0,0,1.6-1.62c4.31-5.76,8.67-11.47,12.87-17.31a48.16,48.16,0,0,0,7.77-16.08,16.64,16.64,0,0,0,.13-8.38c-.13-.53-.27-1-.39-1.58a1.44,1.44,0,0,1,.87-1.89c2.45-.67,4-2.6,5.84-4.07,4.28-3.36,8.45-6.88,12.83-10.11,7.45-5.5,15-10.83,22.55-16.23.44-.31.9-.59,1.44-.95a5.63,5.63,0,0,1,1.07.69c6.29,6.55,12,13.47,16,21.78a63.17,63.17,0,0,1,6,28.52,5.81,5.81,0,0,1-2.27,4.74c-17.15,14.66-34.59,29-52.92,42.15q-22.69,16.32-45.42,32.58a20.5,20.5,0,0,0-4.66,4.06A7.83,7.83,0,0,1,363.7,299.32Z"/><path class="cls-7" d="M297.7,279.7H300c4.68,0,9.37,0,14.05.07a20.52,20.52,0,0,0,6.44-.8c4.47-1.36,9-2.47,13.29-4.4,4.12-1.87,7.72-4.26,10.38-8.11s5.37-7.39,7.42-11.5a25.56,25.56,0,0,0,2.66-7,10.88,10.88,0,0,1,.75-2,2.24,2.24,0,0,1,2.64,1.07,4.82,4.82,0,0,1,.86,2.09c.18,2.11,1.1,4,1.66,5.94a11.76,11.76,0,0,1,.2,4.84c-.9,5.91-2,11.77-4.61,17.25a26.73,26.73,0,0,0-2.07,7.17c-.78,4.5-1.76,9-1.48,13.58a20.84,20.84,0,0,0,.42,3.87c1,4.1,1.83,8.28,3.92,12.05a7.22,7.22,0,0,0,2.73,3.1,9.75,9.75,0,0,1,3.83,4.36,7.51,7.51,0,0,0,1.69,2.35c4.29,3.71,8.69,7.25,14.15,9.19a28.23,28.23,0,0,0,9.86,1.9c1.85,0,3.71.1,5.55,0,4.94-.34,9.74.68,14.56,1.48a5.65,5.65,0,0,1,1.26.63c-2,2.72-4,5.33-5.94,7.91A6.64,6.64,0,0,1,402.8,346q-3.84,2.75-7.74,5.44a6.34,6.34,0,0,1-1.76.84c-5.62,1.66-11.24,3.31-16.88,4.91a18.28,18.28,0,0,1-2.89.4c-3.13.36-6.26.73-9.39,1.05a39.08,39.08,0,0,1-3.9.26c-4.47,0-8.94-.1-13.4,0s-8.34-1.28-12.48-2.13c-3.86-2.22-7.78-4.34-11.56-6.71a13.63,13.63,0,0,1-3.44-3.46,16.77,16.77,0,0,0-4.56-4.13A8.92,8.92,0,0,1,314,342c-2.72-2-9.44-9.8-10.93-12.86a47.16,47.16,0,0,0-5.61-8.77,8.07,8.07,0,0,1-.6-9.12,52,52,0,0,0,5.79-14.47,13.29,13.29,0,0,0,0-5.82A22.79,22.79,0,0,0,297.7,279.7Z"/><path class="cls-4" d="M237.53,336.13c-2.34-.17-5.48-.44-8.63-.62a21.7,21.7,0,0,1-6.56-1.81c-1.47-.57-2.51-1.87-4.29-2-1.46-.11-2.85-1-4.28-1.53a29.53,29.53,0,0,1-13-9.06,15.49,15.49,0,0,1-3.06-5.33c-1.59-5.58-2.54-11.34-.64-17,1.47-4.42,2.79-8.93,5.07-13.05a18.61,18.61,0,0,1,2.66-3.69c2.9-3.1,5.85-6.16,8.88-9.13a32.55,32.55,0,0,1,9.28-6c5.84-2.76,12-2.83,18.2-2.7,2.06.05,4.12.4,6.18.39a10.28,10.28,0,0,1,5.6,1.47,7.15,7.15,0,0,0,4.67,1,14.93,14.93,0,0,1,7.63,1.19,18.12,18.12,0,0,0,5.64,1.5,25.21,25.21,0,0,1,13.58,5.84c1.37,1.08,2.8,2.08,4.13,3.19,4.39,3.67,7.61,8,8.36,13.91a11.65,11.65,0,0,1-.92,5.75c-1,2.53-2.06,5-3.15,7.52-1.3,2.95-3.67,5.13-5.8,7.43-2.3,2.46-4.87,4.68-7.34,7a23.39,23.39,0,0,1-6.53,4.27c-2.67,1.2-5.39,2.32-8.07,3.53q-4.31,1.94-8.58,4c-3.25,1.55-6.51,3.12-10.11,3.56C243.8,336,241.06,336,237.53,336.13Z"/><path class="cls-5" d="M295.82,383.41c-.12.65-.17,1.28-.34,1.88-2.42,8.7-5.35,17.23-8.3,25.76a17.38,17.38,0,0,0-.68,2.85,52,52,0,0,1-3,10.65,174.63,174.63,0,0,0-5.58,17c-1.19,4.16-3,8.16-4.55,12.41a15.88,15.88,0,0,1-2.25-.42c-1.65-.57-3.27-1.21-4.88-1.86-3.33-1.34-6.63-2.75-10-4a12,12,0,0,1-4.13-2.56c-1.1-1.05-2.16-2.15-3.21-3.26a13.58,13.58,0,0,0-3.47-2.92,12.77,12.77,0,0,1-2.27-1.85c-2.71-2.36-5.37-4.77-8.12-7.06a29.9,29.9,0,0,0-3.48-2.15c.61-1.22,1.19-2.49,1.88-3.69q3.07-5.39,6.23-10.72c1.83-3.09,3.81-6.1,5.51-9.26,2.52-4.7,5.23-9.28,8.1-13.79,5.08-8,10.06-16,14.52-24.39.45-.87.83-1.77,1.23-2.67,1.34-3,2.73-5.93,4-8.94,1.17-2.81,2.26-5.66,3.22-8.54,1.23-3.71,2.77-7.33,3.41-11.21.4-2.36.79-4.71,1.13-6.71l9.3-8.56c.39,1,.67,1.89,1.08,2.7a22.1,22.1,0,0,0,1.56,2.49c.56.8,1.26,1.51,1.79,2.33a37.83,37.83,0,0,1,2.3,3.94,39.65,39.65,0,0,0,5.88,8.57c3.12,3.67,6.29,7.2,10.43,9.75a6.37,6.37,0,0,1,1.55,1.67,23.85,23.85,0,0,0,8.82,7.11c1.17.55,2.31,1.19,3.63,1.89.08,5.12-1.33,10.07-1.92,15.31-2.75.48-5.51.94-8.26,1.43a47,47,0,0,1-9.1.73c-3.05-.06-6.1,0-9.15.05-5.37.11-10.61-.9-15.85-1.89a18,18,0,0,1-3-1.19L274,372.06l-2.44,3.41c2.13,2.16,5,2.53,7.57,3.57,2.68,1.11,5.26,2.57,8.24,2.94C290.13,382.33,292.89,382.91,295.82,383.41Z"/><path class="cls-8" d="M506.47,145.64c-1.53,1.52-3,3.05-4.59,4.55-.7.68-1.47,1.3-2.2,1.95-2.94,2.63-2.33,6.37,1.27,8.71a6.56,6.56,0,0,0,4,1.11c1-.05,2,0,3.31,0a11.68,11.68,0,0,1-1.28,1.57c-2,1.68-4.09,3.25-6,5a11.11,11.11,0,0,0-2.17,2.82c-2.23,4,0,7.54,3.42,8.68a30.23,30.23,0,0,0,4.77.92,11.68,11.68,0,0,0,1.68,0c-1,1.87-7.56,8.86-15.4,15.93-5.46,4.92-10.44,10.4-16.84,14.87a68.61,68.61,0,0,0-6.65-28.3c-4.14-8.89-10.41-16.19-17.27-23.23.47-.42.77-.72,1.09-1,5.69-4.38,11.44-8.7,17.06-13.16,3.66-2.91,7.15-6,10.7-9.08a13,13,0,0,0,1.59-1.64c.84-1,1-2,0-2.92a5.52,5.52,0,0,1-1.43-3.51,14.24,14.24,0,0,0-1.24-4c-1.11-2.36-2.33-4.68-3.63-6.94a56.41,56.41,0,0,1-6.18-17.77c-.33-1.69-.57-3.39-.9-5.33a3.41,3.41,0,0,1,2.5,1.05c1.79,1.76,3.66,3.45,5.3,5.34,4.14,4.75,8.58,9.26,12.15,14.5a15.64,15.64,0,0,0,2.43,2.65,3.73,3.73,0,0,1,1.33,4,6.51,6.51,0,0,0,4-2.75,20.23,20.23,0,0,1,2.4-2.61q1.74-1.93,3.44-3.92c1.27-1.48,2.51-3,3.79-4.47a136.16,136.16,0,0,1,11.15-11c5.45-5,11-9.89,16.53-14.83.73-.66,1.4-1.37,2.13-2q6.18-5.58,12.39-11.13c2.11-1.89,4.21-3.78,6.42-5.54,2.91-2.31,6.38-2.6,9.92-2.42a1.54,1.54,0,0,1,1.64,1.65,12.85,12.85,0,0,1-1.25,6,44,44,0,0,1-6,9.32,115.22,115.22,0,0,1-14.55,15.41c-6.4,5.59-12.58,11.43-18.8,17.2a16.43,16.43,0,0,0-4.46,5.58,3.21,3.21,0,0,1-1.7,1.36c-7.12,2.93-13.14,7.63-19.28,12.12-2.63,1.93-5.19,4-7.7,6-1.76,1.46-3.45,3-5.05,4.63-1.29,1.3-2.09,2.94-1.3,4.75s2.49,2.29,4.33,2.4a33.15,33.15,0,0,0,11.22-1.73c1.24-.36,2.5-.62,3.76-.93Z"/><path class="cls-9" d="M338.91,227.88c2.54,3.79,3.65,8,4.69,12.16a31.76,31.76,0,0,0,4.46,9.54,72.72,72.72,0,0,1-8.55,13c-3.13,3.84-7.12,5.94-11.61,7.46-2.68.91-5.38,1.74-8.06,2.65a22,22,0,0,1-7.38,1.12c-5,0-10,0-15,0-1.73,0-3.52.18-5-1.09a.85.85,0,0,0-.6-.24c-2.25.35-3.55-1.31-5.11-2.42a31.19,31.19,0,0,0-16-6.08,14,14,0,0,1-2.86-.58c-2.07-.59-4.13-1.23-6.41-1.92-.31-1.07.13-2.33.2-3.77a20.49,20.49,0,0,1,2.35-.93c3.56-1,7.19-1.75,10.71-2.87,9.22-2.93,18.71-5.06,27.45-9.42,4.18-2.09,8.53-3.84,12.76-5.85s8.42-4.08,12.57-6.22A91.64,91.64,0,0,1,338.91,227.88Z"/><path class="cls-10" d="M372.2,184c1.5-1.27,3.32-1.26,5-1.56a18.76,18.76,0,0,1,14.28,3.22,13.17,13.17,0,0,1,4.55,5.47c1.21,2.67,2.26,5.41,3.3,8.15a10.39,10.39,0,0,1,.07,6.1,40,40,0,0,1-6.83,14.35c-2.45,3.46-5.14,6.75-7.73,10.12-.4.51-.87,1-1.22,1.53-3.63,5.66-9,9.37-14.52,12.87-.92.58-1.85,1.14-2.95,1.81-1.22-.66-2.32-1.82-4-1.76-.45,0-.93-.48-1.39-.75s-1.12-1-1.67-1c-2.77.1-5.36-1.76-8.3-.58l-.92,1.49c-.18-.18-.4-.29-.45-.46-.7-2.05-1.49-4.09-2-6.18a26.89,26.89,0,0,0-4.35-10,10.73,10.73,0,0,1,1.52-1c1.41-.59,2.84-1.1,4.27-1.64a7.65,7.65,0,0,0,1.83-.66c2.54-1.81,5.5-2.46,8.43-3.32,3.8-1.1,7-3.44,10.28-5.59,2.17-1.44,4.32-2.92,6.38-4.52a8.48,8.48,0,0,0,2-2.49c2-3.46,2-3.49.54-7.21-1.78-4.68-3.59-9.34-5.37-14C372.66,185.65,372.45,184.81,372.2,184Z"/><path class="cls-11" d="M521.45,175.64c.7-1.34,1.41-2.67,2.35-4.44a9.42,9.42,0,0,0-1.84.32c-1.9.82-3.81,1.61-5.64,2.56a17.39,17.39,0,0,1-9.2,1.63,4.5,4.5,0,0,1-3.23-1.17A2.78,2.78,0,0,1,505,171.6c2.18-2.12,4.36-4.26,6.63-6.29,1.94-1.74,4-3.32,6-5a8,8,0,0,0,1.54-1.69,2.76,2.76,0,0,0-2-4.42,7.61,7.61,0,0,0-4.49.38c-1.27.61-2.63,1-3.91,1.63-1.56.73-3.09.58-5.07.19a23.28,23.28,0,0,1,1.62-1.92c1.42-1.34,3-2.56,4.33-4a59,59,0,0,1,8.31-6.82,11.23,11.23,0,0,1,3-1.27,13.13,13.13,0,0,0,6-3.81c1.21-1.41,1.5-3,.76-4.17a3.59,3.59,0,0,0-4-1.44c-3.36.58-6.41,2-9.53,3.27-3.74,1.48-7.43,3.09-11.21,4.46-2.3.83-4.63,1.85-7.57,1.5,4.68-4.33,9.52-8,14.26-11.75a80.33,80.33,0,0,1,15.68-10c2,.85,4.3,1.81,6.57,2.8A3.63,3.63,0,0,1,534,126a44,44,0,0,1,1.3,9.67c0,2.18,0,4.36,0,6.54a59.86,59.86,0,0,0,.94,9.06,57.77,57.77,0,0,1,.31,6.85,2.77,2.77,0,0,1-.33,1.24c-2.28,4.59-4.43,9.28-8.32,12.78-1.77,1.59-3.81,2.86-5.73,4.28Z"/><path class="cls-12" d="M229.81,431.38a4.82,4.82,0,0,1,3.68,1.89,28.11,28.11,0,0,1,2.22,2.8,15.45,15.45,0,0,0,5,4.58,14.79,14.79,0,0,1,4.17,4.06,21.63,21.63,0,0,0,10.94,8.84c3.46,1.22,6.68,3.13,10.07,4.56,3.1,1.3,6.3,2.36,9.44,3.57a9,9,0,0,1,1.48.92c-.75,3.13-1.45,6.07-2.2,9.18-2.27.82-4.59-.08-6.82-.68-2.74-.74-5.54-1.05-8.28-1.68a59.07,59.07,0,0,1-6.2-1.9c-2.46-.86-4.93-1.69-7.29-2.78a51,51,0,0,1-5.62-3.27c-3-1.91-5.87-4.21-9.09-5.71-2.42-1.13-4.79-2.39-7.26-3.43a9.65,9.65,0,0,1-3.52-2.84,2.1,2.1,0,0,1-.26-2.95c.34-.56.74-1.08,1.11-1.61,1.49-2.15,3.05-4.24,4.43-6.45S228.38,434,229.81,431.38Z"/><path class="cls-10" d="M318.69,414a28.22,28.22,0,0,1-1.46,7.94,116.85,116.85,0,0,0-4.41,14.64,26.59,26.59,0,0,1-1.1,3.23,5.39,5.39,0,0,1-1.22.21c-4.23-.52-8.46.24-12.69,0a32.31,32.31,0,0,1-5.47-.66c-2.42-.54-4.77-1.34-7.26-2.06a21,21,0,0,1,1.7-6.31c1.33-3.79,2.72-7.55,4-11.37.51-1.53.69-3.17,1.05-4.76.22-.93.49-1.85.75-2.83Z"/><path class="cls-13" d="M327.71,381.4c-1.83,8.85-3.65,17.52-7.27,25.72-3.07,1-6.23.76-9.36.65-4.34-.14-8.68-.4-13-.57a9,9,0,0,1-3.68-.63c2-7.72,4-15.34,6-23.08.81-.07,1.54-.18,2.27-.19,1.63,0,3.26,0,4.89,0a54.53,54.53,0,0,0,12.61-1.26A35.56,35.56,0,0,1,327.71,381.4Z"/><path class="cls-14" d="M353.65,370.89c-1.12,4.47-2.84,8.1-4.08,11.87s-2.56,7.41-3.79,11.13-3.44,7.28-3.9,11.26c-.7.32-.85-.2-1.12-.49a3.39,3.39,0,0,0-3.57-1q-4.11,1.05-8.24,2c-.7.16-1.44.17-2.51.3a70.43,70.43,0,0,0,4.74-25.51c1.59-1.18,3.47-1.4,5.22-1.85a32.55,32.55,0,0,0,9.54-4.11C348.12,373.15,350.63,372.29,353.65,370.89Z"/><path class="cls-15" d="M309.05,445a34.18,34.18,0,0,1-1.6,3.54c-1.58,2.65-3,5.34-2.44,8.62a15.2,15.2,0,0,1-5.32.93c-5-.09-10-.19-15-.36a16.36,16.36,0,0,1-7.36-2.15c1.34-2.29,2.93-4.31,3.64-6.82s1.81-4.87,2.78-7.4c2,.67,3.94,1.29,5.87,2,4.52,1.58,9.18,1.69,13.87,1.41A15.72,15.72,0,0,1,309.05,445Z"/><path class="cls-16" d="M248.14,258.57a63.23,63.23,0,0,1-6.75-.05,27.78,27.78,0,0,0-7.78,0,30.79,30.79,0,0,1-4.84.05c-3.15-3.81-6.7-7.65-9.21-12.25a63.65,63.65,0,0,1-3.45-7.73c-2.35-6.08-4.58-12.2-6.85-18.31-.19-.5-.29-1-.64-2.26a17.41,17.41,0,0,1,1.42,1.39c3.51,4.84,6.84,9.82,10.56,14.5a110.72,110.72,0,0,0,14.19,14.86,85,85,0,0,0,9.55,7.38C245.6,257,246.87,257.77,248.14,258.57Z"/><path class="cls-14" d="M324.57,412.87l15.63-4c.06.29.19.51.13.66-1.8,5-3.57,10-5.46,15a82.34,82.34,0,0,1-7.42,14.93H318a50.81,50.81,0,0,1,2.34-9.87,52.54,52.54,0,0,0,3.74-14.79A10.59,10.59,0,0,1,324.57,412.87Z"/><path class="cls-17" d="M329.85,374.2c.4-4,1.26-7.67,1.61-11.63,3.54.77,6.77,1.7,10.06,2.13s6.48.3,9.71.42c.39.73-.13,1-.59,1.25-4.23,2-8.4,4.08-12.72,5.8A33.46,33.46,0,0,1,329.85,374.2Z"/><path class="cls-18" d="M245.28,250.42c-2.53-.55-4-2.45-5.44-4.35a30.72,30.72,0,0,1-4.49-9.35,59.61,59.61,0,0,1-2.91-21,11.59,11.59,0,0,1,1,1.88c2.29,8,5.07,15.91,8.13,23.69,1.19,3,2.6,5.95,3.9,8.93Z"/><path class="cls-19" d="M282,463.69l11.78.71a7.78,7.78,0,0,1-.2,1.54c-.67,1.92-1.4,3.82-2.14,5.81a45.52,45.52,0,0,1-11.18-.07C279.83,468.9,281.15,466.5,282,463.69Z"/><path class="cls-17" d="M315.32,444.83c1-.14,1.6-.29,2.24-.33,2.36-.15,4.71-.27,7.3-.42-.44.88-.75,1.56-1.1,2.21a49.69,49.69,0,0,0-2.5,4.58,4.51,4.51,0,0,1-3.31,2.82l-7.79,1.94c.5-2.15,1.79-3.65,2.55-5.37S314.4,446.74,315.32,444.83Z"/><path class="cls-15" d="M296.29,464.46l10-1a9.07,9.07,0,0,1,0,1.81c-.32,1.6-.73,3.17-1.14,4.88a18.42,18.42,0,0,1-8,1.55c-.07-1.26-.07-2.42-.2-3.56S296.52,465.82,296.29,464.46Z"/><path class="cls-19" d="M311.58,467.88c.28-2.58.49-4.46.72-6.51,1.65-1.1,3.57-1.37,5.86-1.53-1.31,2.74-3.39,4.53-4.86,6.74C313,467,312.49,467.2,311.58,467.88Z"/><path class="cls-3" d="M359.07,305.14c-2.6-4.43-1.65-8.68-1.77-13C358.83,294.65,359.31,298.2,359.07,305.14Z"/><path class="cls-18" d="M256.91,262.09l-6.22-3c2-.39,4-1.16,6.38-.56C257,259.59,257,260.63,256.91,262.09Z"/><path class="cls-6" d="M125.07,452.73c-.54,1.45-1.58,2.16-2.74,3.21a11.88,11.88,0,0,0-.88-2,11.32,11.32,0,0,0-1.55-1.45A21.14,21.14,0,0,1,125.07,452.73Z"/><path class="cls-19" d="M514.91,182.22c.59-2.78,1-3.16,4.05-3.58-.88,1.84-2.67,2.48-4,3.61Z"/><path class="cls-19" d="M521.45,175.64l.75.75a3.88,3.88,0,0,1-2.73,1.86A3.8,3.8,0,0,1,521.45,175.64Z"/><path class="cls-19" d="M515,182.25l-1,2.09c-.38-1.49-.2-2.1,1-2.12Z"/><path class="cls-18" d="M245.47,250.24l.4.39-.59-.21Z"/><path class="cls-20" d="M229.89,236h.23l-.14.46c-.07-.08-.17-.15-.2-.25S229.85,236.1,229.89,236Z"/><path class="cls-8" d="M506.38,145.54l.35-.43c.46.45,0,.42-.26.53Z"/><path class="cls-20" d="M331.43,674l-.88.08.25-.76Z"/><path class="cls-21" d="M329.65,96.86a61.91,61.91,0,0,1,5.3,14.29c1.24,5,2.21,10,3.15,15a117.52,117.52,0,0,0,3.15,14,26.79,26.79,0,0,1,.53,2.74c-2.69,1.73-5.3,3.46-8,5.12-3,1.84-6,3.54-8.92,5.43a77.47,77.47,0,0,1-10.63,5.69c-4.47,2-8.85,4.18-13.27,6.28-1.18.56-2.37,1.1-3.56,1.65-2.56,1.19-5.16,2.31-7.69,3.58a53.4,53.4,0,0,1-8.06,3.51,15.55,15.55,0,0,0-3.32,1.36c-4.21,2.51-9,3.27-13.62,4.34a10.1,10.1,0,0,1-2.27.2c-4.79.05-4.85.1-7.86-4.41a36.14,36.14,0,0,1-2.25-4.69c-.18-.39-.31-.82-.52-1.19a35.63,35.63,0,0,1-4.32-12.26,10.37,10.37,0,0,0-1.16-3,15,15,0,0,1-1.61-6.92c0-3,0-6.11,0-9.16a6.12,6.12,0,0,1,3.61-6c3.1-1.57,6-3.47,9.31-4.69a12.26,12.26,0,0,0,2-1.16,68.92,68.92,0,0,1,19.7-8.47,112.05,112.05,0,0,0,17.13-5.23c6.71-2.81,13.58-5.25,19.91-8.94,3-1.75,6.08-3.37,9.15-5C326.78,98.21,328.07,97.63,329.65,96.86ZM337,140.11a68.59,68.59,0,0,1-3.38-12.91q-1.92-10.1-4-20.17a33.9,33.9,0,0,0-1.2-3.76,36.41,36.41,0,0,0-7.23,3.48c-2.37,1.32-4.66,2.79-7.05,4.08-2.2,1.19-4.44,2.31-6.73,3.31s-4.84,2-7.29,2.85c-3.47,1.28-6.92,2.61-10.45,3.7-4.36,1.35-8.76,2.56-13.18,3.69a39.24,39.24,0,0,0-8.14,3.3c-4.55,2.33-8.79,5.23-13.65,7-1,.36-1.85,1.18-2.85,1.57-2,.77-2.46,2.18-2.34,4.14s0,4.14,0,6.21a13.46,13.46,0,0,0,1.5,6.6,15.19,15.19,0,0,1,1.69,5.25,20.5,20.5,0,0,0,2,6.51c1,2,1.71,4,2.64,6,.79,1.66,1.49,3.4,3.18,4.73.59,0,1.35,0,2.1,0a10.48,10.48,0,0,0,1.92-.36c3.36-.88,6.81-1.43,10-3,2.23-1.11,4.56-2,6.86-3,.9-.38,1.86-.63,2.73-1.07,3.11-1.56,6.19-3.18,9.29-4.76s6-3.07,9.05-4.51c6.88-3.24,14-6,20.41-10.18C327.46,145.78,332.16,143.06,337,140.11Z"/><path class="cls-22" d="M275.51,202.69c0,2.5-.66,3.63-2,3.75s-2.14-.68-2.58-2.46c-.73-2.94-1.34-5.92-2-8.89a3.16,3.16,0,0,1,0-1,2.13,2.13,0,0,1,1.62-1.84,1.81,1.81,0,0,1,2,.69,4,4,0,0,1,.71,1.08A32.29,32.29,0,0,1,275.51,202.69Z"/><path class="cls-21" d="M348.76,191.63c3.08,1.73,4.82,3.83,4.74,7.12,0,.33,0,.65-.07,1-.23,1.56-1.11,2.76-2.15,2.95s-2-.71-2.56-2.45A12.85,12.85,0,0,1,348.76,191.63Z"/><path class="cls-23" d="M294,184.09c4,3,5.28,6.83,3.93,12.07-.57-.22-1.3-.29-1.6-.68a11.84,11.84,0,0,1-1.55-2.78c-.51-1.31-.85-2.68-1.28-4C293,187.19,293,186.77,294,184.09Z"/><path class="cls-22" d="M303.13,208.11a14.5,14.5,0,0,1,3.35,8.79,1.77,1.77,0,0,1-1.23,1.76,1.74,1.74,0,0,1-2.08-.49,5.48,5.48,0,0,1-1.22-1.89A9.61,9.61,0,0,1,303.13,208.11Z"/><path class="cls-23" d="M318.71,172.28a4.65,4.65,0,0,1,3.21,2.7,20.39,20.39,0,0,1,1.6,4.9,1.86,1.86,0,0,1-1.27,2.05,1.66,1.66,0,0,1-2.05-.54,17.1,17.1,0,0,1-1.78-3.42A7.75,7.75,0,0,1,318.71,172.28Z"/><path class="cls-23" d="M343.83,165.72a9,9,0,0,1,3,6.48,2,2,0,0,1-1.53,2.17,2,2,0,0,1-2.15-1.1,6.61,6.61,0,0,1-.73-1.78A6.71,6.71,0,0,1,343.83,165.72Z"/><path class="cls-23" d="M280.76,224.06a12.89,12.89,0,0,1-1.05,2,1.34,1.34,0,0,1-2.21-.12,8,8,0,0,1-1.13-6.17,1.17,1.17,0,0,1,1.55-.79C279.84,219.42,280.88,221.05,280.76,224.06Z"/><path class="cls-23" d="M322.91,199.63a11.86,11.86,0,0,1,4,5,4,4,0,0,1,.24,1.91,1.77,1.77,0,0,1-2.9,1.24,4.94,4.94,0,0,1-1.52-2.39,31.11,31.11,0,0,1-.46-4.84C322.31,200.26,322.65,200,322.91,199.63Z"/><path class="cls-24" d="M337,140.11c-4.87,2.95-9.57,5.67-14.14,8.6-6.44,4.13-13.53,6.94-20.41,10.18-3.05,1.44-6,3-9.05,4.51s-6.18,3.2-9.29,4.76c-.87.44-1.83.69-2.73,1.07-2.3,1-4.63,1.91-6.86,3-3.17,1.56-6.62,2.11-10,3a10.48,10.48,0,0,1-1.92.36c-.75.06-1.51,0-2.1,0-1.69-1.33-2.39-3.07-3.18-4.73-.93-2-1.67-4-2.64-6a20.5,20.5,0,0,1-2-6.51,15.19,15.19,0,0,0-1.69-5.25,13.46,13.46,0,0,1-1.5-6.6c0-2.07.12-4.15,0-6.21s.38-3.37,2.34-4.14c1-.39,1.84-1.21,2.85-1.57,4.86-1.73,9.1-4.63,13.65-7a39.24,39.24,0,0,1,8.14-3.3c4.42-1.13,8.82-2.34,13.18-3.69,3.53-1.09,7-2.42,10.45-3.7,2.45-.9,4.9-1.8,7.29-2.85s4.53-2.12,6.73-3.31c2.39-1.29,4.68-2.76,7.05-4.08a36.41,36.41,0,0,1,7.23-3.48,33.9,33.9,0,0,1,1.2,3.76q2.08,10.08,4,20.17A68.59,68.59,0,0,0,337,140.11Zm-66.24-4.69a19,19,0,0,0,.56,2.12,2.12,2.12,0,0,0,2,1.45,1.81,1.81,0,0,0,1.8-1.57,4.37,4.37,0,0,1,.62-1.81c3-3.17,6.39-5.55,10.86-6,2.22-.23,4.09.29,5.33,2.32a5.23,5.23,0,0,0,1.09,1.21,2.23,2.23,0,0,0,2.7.37,2.1,2.1,0,0,0,.87-2.29,4.78,4.78,0,0,0-.45-1.55c-1.52-2.7-3.73-4.64-6.87-4.93-7.37-.68-13.06,2.43-17.41,8.21A10.74,10.74,0,0,0,270.79,135.42Zm44.34-13.27c1.1-1.78,1.35-2.3.91-3.09a4.14,4.14,0,0,0-1.68-1.86,9.12,9.12,0,0,0-3.77-.74,26.37,26.37,0,0,0-5.1,1c-4,1.08-5.95,4.13-7,7.89a3.47,3.47,0,0,0,.49,3.12c.42.55.94,1.06,1.62.81a2.62,2.62,0,0,0,1.06-1.12,2.85,2.85,0,0,0,.41-1.23C302.54,121.94,311.49,118.92,315.13,122.15ZM290,152.83c-.22-1.76-.45-3.6-.69-5.43-.28-2.17-1.19-3.23-2.59-3.05s-2.22,1.38-2.06,3.53.56,4.31.91,6.45a4.16,4.16,0,0,0,.65,1.48,2,2,0,0,0,2.26.94,1.89,1.89,0,0,0,1.51-1.88C290,154.22,290,153.57,290,152.83Zm23.73-9.32c-.42-1.92-.81-4.15-1.43-6.32a2,2,0,0,0-2.51-1.49,2,2,0,0,0-1.56,2.17,40.79,40.79,0,0,0,1,6,4.16,4.16,0,0,0,1.56,2,1.7,1.7,0,0,0,2.74-1.08C313.61,144.47,313.63,144.15,313.73,143.51Z"/><path class="cls-21" d="M270.79,135.42a10.74,10.74,0,0,1,1.08-2.49c4.35-5.78,10-8.89,17.41-8.21,3.14.29,5.35,2.23,6.87,4.93a4.78,4.78,0,0,1,.45,1.55,2.1,2.1,0,0,1-.87,2.29,2.23,2.23,0,0,1-2.7-.37,5.23,5.23,0,0,1-1.09-1.21c-1.24-2-3.11-2.55-5.33-2.32-4.47.47-7.9,2.85-10.86,6a4.37,4.37,0,0,0-.62,1.81,1.81,1.81,0,0,1-1.8,1.57,2.12,2.12,0,0,1-2-1.45A19,19,0,0,1,270.79,135.42Z"/><path class="cls-22" d="M315.13,122.15c-3.64-3.23-12.59-.21-13,4.75a2.85,2.85,0,0,1-.41,1.23,2.62,2.62,0,0,1-1.06,1.12c-.68.25-1.2-.26-1.62-.81a3.47,3.47,0,0,1-.49-3.12c1-3.76,2.92-6.81,7-7.89a26.37,26.37,0,0,1,5.1-1,9.12,9.12,0,0,1,3.77.74,4.14,4.14,0,0,1,1.68,1.86C316.48,119.85,316.23,120.37,315.13,122.15Z"/><path class="cls-22" d="M290,152.83c0,.74,0,1.39,0,2a1.89,1.89,0,0,1-1.51,1.88,2,2,0,0,1-2.26-.94,4.16,4.16,0,0,1-.65-1.48c-.35-2.14-.74-4.29-.91-6.45s.65-3.36,2.06-3.53,2.31.88,2.59,3.05C289.55,149.23,289.78,151.07,290,152.83Z"/><path class="cls-22" d="M313.73,143.51c-.1.64-.12,1-.2,1.28a1.7,1.7,0,0,1-2.74,1.08,4.16,4.16,0,0,1-1.56-2,40.79,40.79,0,0,1-1-6,2,2,0,0,1,1.56-2.17,2,2,0,0,1,2.51,1.49C312.92,139.36,313.31,141.59,313.73,143.51Z"/><polygon class="cls-1" points="273.96 372.06 266.56 367.23 263.3 371.38 271.52 375.47 273.96 375.47 275.77 374.2 273.96 372.06"/></svg>